<?xml version="1.0" encoding="utf-8"?>
<!-- Generator: Adobe Illustrator 13.0.0, SVG Export Plug-In . SVG Version: 6.00 Build 14948)  -->
<!DOCTYPE svg PUBLIC "-//W3C//DTD SVG 1.1//EN" "http://www.w3.org/Graphics/SVG/1.1/DTD/svg11.dtd">
<svg version="1.1" id="Layer_1" xmlns="http://www.w3.org/2000/svg" xmlns:xlink="http://www.w3.org/1999/xlink" x="0px" y="0px"
	 width="800px" height="600px" viewBox="0 0 800 600" enable-background="new 0 0 800 600" xml:space="preserve">
<g>
	<path fill="#E6E6E6" stroke="#000000" d="M349.857,216.555c-1.043,0.446,0.895,6.17-0.447,9.685
		c-2.164,5.668-0.797,12.286,1.042,23.691c2.34,14.503,36.794,83.82,51.853,109.833c1.64,2.83,5.959,1.191,5.959,1.191
		s4.769-54.406,5.363-65.73C414.005,288.059,350.899,216.108,349.857,216.555z"/>
	<path fill="#F2F2F2" d="M349.857,216.555c0,0-8.346,13.708-5.364,32.183c2.979,18.476,57.812,111.026,57.812,111.026
		s4.769-54.406,5.363-65.729C408.045,286.866,349.857,216.555,349.857,216.555z"/>
	<polygon fill="#FFFFFF" points="372.207,245.907 369.524,304.016 375.336,313.402 379.806,254.847 	"/>
	<path fill="none" stroke="#000000" d="M349.857,216.555c0,0-8.346,13.708-5.364,32.183c2.979,18.476,57.812,111.026,57.812,111.026
		s4.769-54.406,5.363-65.729C408.045,286.866,349.857,216.555,349.857,216.555z"/>
	<path fill="#666666" stroke="#000000" d="M411.84,301.448c-0.139,0.208-4.253-0.421-4.47,0.894
		c-0.709,4.32,2.362,14.424,3.277,15.795c1.191,1.787,19.368,26.818,22.052,29.5c2.006,2.008-0.408,11.371,2.086,15.199
		c0.841,1.289,4.383,1.043,5.959,0.893c6.259-0.596,4.174-24.435,2.98-27.117C442.532,333.93,412.438,300.555,411.84,301.448z"/>
	<path fill="#808080" stroke="#000000" d="M407.37,301.448c-0.596,0.894-2.385,14.899-1.192,16.688
		c1.192,1.787,19.369,26.818,22.051,29.5c2.684,2.683,1.788,16.688,8.047,16.093c6.258-0.597,4.174-24.436,2.979-27.117
		C438.062,333.93,407.967,300.555,407.37,301.448z"/>
</g>
</svg>
