<?xml version="1.0" encoding="utf-8"?>
<!-- Generator: Adobe Illustrator 13.0.0, SVG Export Plug-In . SVG Version: 6.00 Build 14948)  -->
<!DOCTYPE svg PUBLIC "-//W3C//DTD SVG 1.1//EN" "http://www.w3.org/Graphics/SVG/1.1/DTD/svg11.dtd">
<svg version="1.1" id="Layer_1" xmlns="http://www.w3.org/2000/svg" xmlns:xlink="http://www.w3.org/1999/xlink" x="0px" y="0px"
	 width="800px" height="600px" viewBox="0 0 800 600" enable-background="new 0 0 800 600" xml:space="preserve">
<path fill="#FFFFFF" stroke="#48859F" stroke-width="2" d="M422.631,311.68c0,0.646-0.521,1.168-1.168,1.168h-42.68
	c-0.646,0-1.168-0.521-1.168-1.168v-24.735c0-0.645,0.522-1.168,1.168-1.168h42.68c0.646,0,1.168,0.523,1.168,1.168V311.68z"/>
<rect x="376.334" y="294.899" fill="none" width="47.083" height="10.591"/>
<g enable-background="new    ">
	<path fill="#48859F" d="M387.62,302.809c-0.773,0-1.16-0.34-1.16-1.02v-5.871c0-0.68,0.387-1.02,1.16-1.02h2.812
		c0.602,0,0.902,0.311,0.902,0.932s-0.301,0.932-0.902,0.932h-1.652v1.137h1.418c0.602,0,0.902,0.312,0.902,0.938
		s-0.301,0.938-0.902,0.938h-1.418v1.172h1.652c0.602,0,0.902,0.311,0.902,0.932s-0.301,0.932-0.902,0.932H387.62z"/>
	<path fill="#48859F" d="M394.312,301.414l-0.223,0.598c-0.199,0.531-0.526,0.797-0.981,0.797s-0.781-0.14-0.979-0.419
		s-0.296-0.53-0.296-0.753s0.049-0.441,0.146-0.656l2.414-5.285c0.242-0.531,0.611-0.797,1.107-0.797s0.865,0.266,1.107,0.797
		l2.426,5.285c0.102,0.219,0.152,0.439,0.152,0.662s-0.096,0.473-0.287,0.75s-0.519,0.416-0.981,0.416s-0.794-0.266-0.993-0.797
		l-0.223-0.598H394.312z M396.011,299.539l-0.504-1.371l-0.504,1.371H396.011z"/>
	<path fill="#48859F" d="M402.846,302.832c-0.752,0-1.481-0.119-2.188-0.357s-1.061-0.664-1.061-1.277s0.277-0.92,0.832-0.92
		c0.082,0,0.408,0.107,0.979,0.322s1.063,0.322,1.479,0.322s0.624-0.176,0.624-0.527c0-0.23-0.143-0.423-0.428-0.577
		s-0.683-0.315-1.192-0.483s-0.829-0.295-0.958-0.381c-0.594-0.395-0.891-0.97-0.891-1.726s0.248-1.368,0.744-1.837
		c0.484-0.461,1.057-0.691,1.717-0.691s1.234,0.072,1.723,0.217c0.914,0.289,1.282,0.716,1.104,1.28s-0.503,0.827-0.976,0.788
		c-0.043,0-0.277-0.08-0.703-0.24s-0.804-0.24-1.134-0.24s-0.495,0.162-0.495,0.486c0,0.207,0.14,0.386,0.419,0.536
		s0.673,0.314,1.181,0.492s0.83,0.313,0.967,0.407c0.602,0.406,0.902,1.011,0.902,1.813s-0.258,1.438-0.773,1.907
		C404.222,302.604,403.598,302.832,402.846,302.832z"/>
	<path fill="#48859F" d="M409.64,297.418l1.301-1.711c0.379-0.5,0.801-0.75,1.266-0.75s0.776,0.126,0.935,0.378
		s0.237,0.479,0.237,0.68s-0.07,0.442-0.211,0.724l-2.391,3.117v1.934c0,0.68-0.387,1.02-1.16,1.02s-1.16-0.34-1.16-1.02v-1.934
		l-2.344-3.117c-0.141-0.281-0.211-0.522-0.211-0.724s0.079-0.428,0.237-0.68s0.47-0.378,0.935-0.378s0.887,0.25,1.266,0.75
		L409.64,297.418z"/>
</g>
</svg>
