<?xml version="1.0" encoding="utf-8"?>
<!-- Generator: Adobe Illustrator 13.0.0, SVG Export Plug-In . SVG Version: 6.00 Build 14948)  -->
<!DOCTYPE svg PUBLIC "-//W3C//DTD SVG 1.1//EN" "http://www.w3.org/Graphics/SVG/1.1/DTD/svg11.dtd">
<svg version="1.1" id="Layer_1" xmlns="http://www.w3.org/2000/svg" xmlns:xlink="http://www.w3.org/1999/xlink" x="0px" y="0px"
	 width="800px" height="600px" viewBox="0 0 800 600" enable-background="new 0 0 800 600" xml:space="preserve">
<path fill="#FFFFFF" stroke="#48859F" stroke-width="2" d="M421.965,311.68c0,0.646-0.522,1.168-1.168,1.168h-42.68
	c-0.646,0-1.169-0.521-1.169-1.168v-24.735c0-0.645,0.521-1.168,1.169-1.168h42.68c0.646,0,1.168,0.523,1.168,1.168V311.68z"/>
<rect x="375.66" y="294.899" fill="none" width="47.083" height="10.591"/>
<g enable-background="new    ">
	<path fill="#48859F" d="M390.357,294.898c0.773,0,1.16,0.34,1.16,1.02v5.871c0,0.68-0.387,1.02-1.16,1.02s-1.16-0.34-1.16-1.02
		v-2.016h-1.582v2.016c0,0.68-0.387,1.02-1.16,1.02s-1.16-0.34-1.16-1.02v-5.871c0-0.68,0.387-1.02,1.16-1.02s1.16,0.34,1.16,1.02
		v1.98h1.582v-1.98C389.197,295.238,389.583,294.898,390.357,294.898z"/>
	<path fill="#48859F" d="M394.494,301.414l-0.223,0.598c-0.199,0.531-0.526,0.797-0.981,0.797s-0.781-0.14-0.979-0.419
		s-0.296-0.53-0.296-0.753s0.049-0.441,0.146-0.656l2.414-5.285c0.242-0.531,0.611-0.797,1.107-0.797s0.865,0.266,1.107,0.797
		l2.426,5.285c0.102,0.219,0.152,0.439,0.152,0.662s-0.096,0.473-0.287,0.75s-0.519,0.416-0.981,0.416s-0.794-0.266-0.993-0.797
		l-0.223-0.598H394.494z M396.193,299.539l-0.504-1.371l-0.504,1.371H396.193z"/>
	<path fill="#48859F" d="M404.73,299.445l1.16,1.523c0.172,0.227,0.258,0.469,0.258,0.727s-0.156,0.507-0.469,0.747
		s-0.6,0.36-0.861,0.36s-0.51-0.158-0.744-0.475l-1.887-2.52v1.98c0,0.68-0.387,1.02-1.16,1.02c-0.774,0-1.161-0.34-1.161-1.02
		v-5.871c0-0.68,0.387-1.02,1.161-1.02h2.625c0.648,0,1.188,0.249,1.617,0.747s0.645,1.032,0.645,1.603
		C405.914,298.268,405.52,299,404.73,299.445z M402.188,296.492v1.805h0.668c0.656,0,0.984-0.301,0.984-0.902
		s-0.328-0.902-0.984-0.902H402.188z"/>
	<path fill="#48859F" d="M410.162,302.809h-2.355c-0.773,0-1.16-0.34-1.16-1.02v-5.871c0-0.68,0.387-1.02,1.16-1.02h2.355
		c1.293,0.148,2.184,0.863,2.672,2.145c0.242,0.598,0.363,1.202,0.363,1.813s-0.121,1.214-0.363,1.808
		C412.346,301.945,411.455,302.66,410.162,302.809z M411.047,298.783c-0.004-1.488-0.557-2.252-1.658-2.291h-0.422v4.688
		l0.422,0.012C410.498,301.074,411.051,300.271,411.047,298.783z"/>
</g>
</svg>
