<?xml version="1.0" encoding="utf-8"?>
<!-- Generator: Adobe Illustrator 13.0.0, SVG Export Plug-In . SVG Version: 6.00 Build 14948)  -->
<!DOCTYPE svg PUBLIC "-//W3C//DTD SVG 1.1//EN" "http://www.w3.org/Graphics/SVG/1.1/DTD/svg11.dtd">
<svg version="1.1" id="Layer_1" xmlns="http://www.w3.org/2000/svg" xmlns:xlink="http://www.w3.org/1999/xlink" x="0px" y="0px"
	 width="800px" height="600px" viewBox="0 0 800 600" enable-background="new 0 0 800 600" xml:space="preserve">
<path fill="#FFFFFF" stroke="#48859F" stroke-width="2" d="M422.715,311.68c0,0.646-0.522,1.168-1.168,1.168h-42.681
	c-0.646,0-1.168-0.521-1.168-1.168v-24.735c0-0.645,0.522-1.168,1.168-1.168h42.681c0.646,0,1.168,0.523,1.168,1.168V311.68z"/>
<rect x="376.497" y="294.899" fill="none" width="47.083" height="10.591"/>
<g enable-background="new    ">
	<path fill="#48859F" d="M400.586,298.777c0,1.223-0.396,2.212-1.189,2.968s-1.797,1.134-3.012,1.134s-2.215-0.378-3-1.134
		s-1.178-1.745-1.178-2.968s0.391-2.214,1.172-2.974s1.788-1.14,3.021-1.14s2.238,0.38,3.018,1.14S400.586,297.555,400.586,298.777z
		 M397.809,297.307c-0.352-0.387-0.82-0.58-1.406-0.58s-1.057,0.194-1.412,0.583s-0.533,0.879-0.533,1.471s0.178,1.079,0.533,1.462
		s0.825,0.574,1.409,0.574s1.053-0.193,1.406-0.58s0.53-0.875,0.53-1.465S398.16,297.693,397.809,297.307z"/>
	<path fill="#48859F" d="M405.549,298.836l1.91,2.109c0.273,0.305,0.41,0.584,0.41,0.838s-0.12,0.488-0.36,0.703
		s-0.498,0.322-0.773,0.322s-0.562-0.16-0.858-0.48l-2.473-2.684v2.145c0,0.68-0.387,1.02-1.16,1.02s-1.16-0.34-1.16-1.02v-5.871
		c0-0.68,0.387-1.02,1.16-1.02s1.16,0.34,1.16,1.02v2.121l2.473-2.672c0.301-0.324,0.587-0.486,0.858-0.486s0.527,0.106,0.768,0.319
		s0.36,0.448,0.36,0.706s-0.135,0.535-0.404,0.832L405.549,298.836z"/>
</g>
</svg>
