<?xml version="1.0" encoding="utf-8"?>
<!-- Generator: Adobe Illustrator 13.0.0, SVG Export Plug-In . SVG Version: 6.00 Build 14948)  -->
<!DOCTYPE svg PUBLIC "-//W3C//DTD SVG 1.1//EN" "http://www.w3.org/Graphics/SVG/1.1/DTD/svg11.dtd">
<svg version="1.1" id="Layer_1" xmlns="http://www.w3.org/2000/svg" xmlns:xlink="http://www.w3.org/1999/xlink" x="0px" y="0px"
	 width="800px" height="600px" viewBox="0 0 800 600" enable-background="new 0 0 800 600" xml:space="preserve">
<g>
	<path fill="#2F6B4D" d="M399.843,321.798c-0.901,1.064-1.901,0.962-2.633,0.559c-0.731-0.403-17.029-13.194-17.86-13.935
		c-0.453-0.404-2.434-2.992-2.066-3.751s6.636-4.189,7.071-4.615c0.755-0.739,1.419-0.479,2.069,0.098
		c2.594,2.303,10.13,9.136,10.13,9.136s17.972-26.826,18.359-27.312c0.377-0.475,0.963-0.84,1.741-0.517s5.975,2.526,6.447,2.91
		c0.822,0.666,1.035,3.877,0.536,4.589C421.648,291.801,400.918,320.528,399.843,321.798z"/>
	<path fill="#5CBF8E" stroke="#2F6B4D" stroke-width="2" d="M398.809,319.212c-0.901,1.063-1.902,0.962-2.633,0.559
		s-17.029-13.194-17.86-13.936c-0.453-0.403-0.785-1.01-0.417-1.768c0.367-0.759,4.988-6.172,5.422-6.598
		c0.755-0.739,1.419-0.479,2.069,0.098c2.594,2.303,10.13,9.136,10.13,9.136s17.973-26.826,18.358-27.312
		c0.377-0.475,0.964-0.84,1.741-0.517c0.779,0.323,6.371,5.049,6.844,5.432c0.821,0.666,0.64,1.354,0.141,2.066
		C420.614,289.214,399.883,317.942,398.809,319.212z"/>
</g>
</svg>
