<?xml version="1.0" encoding="utf-8"?>
<!-- Generator: Adobe Illustrator 13.0.0, SVG Export Plug-In . SVG Version: 6.00 Build 14948)  -->
<!DOCTYPE svg PUBLIC "-//W3C//DTD SVG 1.1//EN" "http://www.w3.org/Graphics/SVG/1.1/DTD/svg11.dtd">
<svg version="1.1" id="Layer_1" xmlns="http://www.w3.org/2000/svg" xmlns:xlink="http://www.w3.org/1999/xlink" x="0px" y="0px"
	 width="800px" height="600px" viewBox="0 0 800 600" enable-background="new 0 0 800 600" xml:space="preserve">
<path fill="#5CBF8E" stroke="#2F6B4D" stroke-width="2" d="M398.981,320.419c-0.901,1.063-1.902,0.962-2.633,0.559
	s-17.029-13.194-17.86-13.935c-0.453-0.404-0.785-1.01-0.417-1.769c0.367-0.758,4.988-6.172,5.422-6.598
	c0.755-0.739,1.418-0.479,2.069,0.098c2.594,2.302,10.13,9.136,10.13,9.136s17.972-26.826,18.358-27.312
	c0.378-0.475,0.965-0.84,1.742-0.517c0.778,0.323,6.37,5.049,6.843,5.432c0.822,0.666,0.64,1.354,0.141,2.067
	C420.786,290.421,400.056,319.149,398.981,320.419z"/>
</svg>
