<?xml version="1.0" encoding="utf-8"?>
<!-- Generator: Adobe Illustrator 13.0.0, SVG Export Plug-In . SVG Version: 6.00 Build 14948)  -->
<!DOCTYPE svg PUBLIC "-//W3C//DTD SVG 1.1//EN" "http://www.w3.org/Graphics/SVG/1.1/DTD/svg11.dtd">
<svg version="1.1" id="Layer_1" xmlns="http://www.w3.org/2000/svg" xmlns:xlink="http://www.w3.org/1999/xlink" x="0px" y="0px"
	 width="800px" height="600px" viewBox="0 0 800 600" enable-background="new 0 0 800 600" xml:space="preserve">
<path fill="#A83F3F" d="M191.696,548.29c-14.284-22.917,9.179-48.907,24.476-63.265c21.427-20.111,47.405-37.439,56.818-66.812
	c9.181-28.65,4.571-56.564,22.237-83.32c13.451-20.373,33.841-34.035,48.166-53.622c16.967-23.195,11.46-53.476,22.896-79.434
	c10.792-24.492,25.942-41.597,46.982-56.766c21.781-15.703,32.844-31.723,37.859-58.134c4.062-21.366,8.353-41.338,23.448-58.048
	l-25.176-5.241c-15.104,16.709-19.39,36.682-23.447,58.047c-5.021,26.411-16.079,42.431-37.863,58.134
	c-21.041,15.168-36.188,32.274-46.979,56.766c-11.438,25.958-5.937,56.239-22.896,79.435c-14.325,19.586-34.715,33.25-48.166,53.621
	c-17.667,26.756-13.055,54.672-22.237,83.321c-9.414,29.372-35.392,46.7-56.819,66.812c-15.296,14.355-38.759,40.347-24.475,63.264
	L191.696,548.29z"/>
<path fill="#F4DBAE" d="M216.678,553.938c-14.284-22.918,9.179-48.902,24.476-63.266c21.427-20.111,47.405-37.438,56.819-66.811
	c9.181-28.65,4.569-56.566,22.236-83.322c13.45-20.37,33.841-34.033,48.166-53.62c16.963-23.196,11.46-53.478,22.896-79.435
	c10.791-24.492,25.938-41.597,46.979-56.765c21.784-15.703,32.844-31.723,37.863-58.134c4.062-21.366,8.348-41.338,23.443-58.048
	l-25.175-5.241c-15.101,16.709-19.387,36.681-23.444,58.048c-5.021,26.411-16.078,42.43-37.863,58.133
	c-21.041,15.169-36.191,32.274-46.982,56.766c-11.437,25.958-5.934,56.238-22.896,79.434
	c-14.324,19.587-34.714,33.249-48.165,53.621c-17.666,26.757-13.056,54.671-22.236,83.32c-9.414,29.375-35.392,46.702-56.819,66.812
	c-15.297,14.357-38.759,40.352-24.476,63.267L216.678,553.938z"/>
<path fill="#DB5D5D" d="M242.559,559.146c-14.283-22.915,9.179-48.905,24.476-63.267c21.427-20.108,47.405-37.438,56.814-66.812
	c9.185-28.649,4.571-56.564,22.237-83.32c13.451-20.372,33.842-34.035,48.165-53.622c16.963-23.196,11.461-53.476,22.897-79.434
	c10.791-24.493,25.938-41.597,46.979-56.766c21.784-15.703,32.843-31.722,37.863-58.133c4.061-21.367,8.348-41.338,23.447-58.048
	l-25.883-5.21c-15.103,16.71-19.389,36.682-23.446,58.048c-5.021,26.411-16.079,42.431-37.863,58.134
	c-21.04,15.168-36.189,32.273-46.98,56.765c-11.438,25.957-5.935,56.239-22.896,79.435c-14.325,19.587-34.715,33.25-48.166,53.62
	c-17.667,26.756-13.055,54.672-22.236,83.322c-9.414,29.372-35.392,46.695-56.819,66.811
	c-15.296,14.359-38.759,40.348-24.476,63.266L242.559,559.146z"/>
<path fill="#F4DBAE" d="M267.542,564.795c-14.284-22.917,9.179-48.907,24.475-63.265c21.428-20.111,47.405-37.438,56.819-66.812
	c9.181-28.646,4.569-56.565,22.236-83.321c13.45-20.371,33.842-34.035,48.165-53.623c16.964-23.194,11.461-53.476,22.896-79.434
	c10.791-24.491,25.941-41.597,46.982-56.765c21.783-15.703,32.844-31.723,37.859-58.134c4.062-21.366,8.352-41.338,23.446-58.047
	l-25.175-5.241C510.145,56.862,505.86,76.834,501.8,98.201c-5.02,26.411-16.078,42.43-37.859,58.133
	c-21.041,15.168-36.191,32.273-46.982,56.766c-11.438,25.957-5.934,56.238-22.897,79.434c-14.319,19.586-34.714,33.25-48.164,53.622
	c-17.666,26.754-13.057,54.671-22.234,83.316c-9.414,29.372-35.392,46.7-56.818,66.813c-15.297,14.354-38.759,40.347-24.476,63.263
	L267.542,564.795z"/>
<path fill="#FFF3E1" d="M293.423,570.004c-14.284-22.915,9.178-48.904,24.479-63.262c21.427-20.113,47.402-37.441,56.815-66.813
	c9.185-28.646,4.57-56.562,22.237-83.319c13.45-20.373,33.841-34.032,48.164-53.623c16.964-23.191,11.461-53.477,22.896-79.429
	c10.791-24.493,25.941-41.599,46.982-56.767c21.785-15.703,32.844-31.722,37.863-58.133c4.061-21.367,8.349-41.339,23.443-58.048
	l-25.882-5.21c-15.099,16.709-19.386,36.682-23.446,58.047c-5.02,26.411-16.076,42.431-37.859,58.134
	c-21.041,15.168-36.191,32.274-46.982,56.765c-11.437,25.958-5.934,56.24-22.896,79.434c-14.323,19.583-34.716,33.25-48.165,53.625
	c-17.667,26.756-13.059,54.672-22.236,83.318c-9.414,29.372-35.392,46.699-56.819,66.812
	c-15.296,14.354-38.759,40.348-24.475,63.265L293.423,570.004z"/>
<path fill="#A83F3F" d="M191.696,548.29c-14.284-22.917,9.179-48.907,24.476-63.265c21.427-20.111,47.405-37.439,56.818-66.812
	c9.181-28.65,4.571-56.564,22.237-83.32c13.451-20.373,33.841-34.035,48.166-53.622c16.967-23.195,11.46-53.476,22.896-79.434
	c10.792-24.492,25.942-41.597,46.982-56.766c21.781-15.703,32.844-31.723,37.859-58.134c4.062-21.366,8.353-41.338,23.448-58.048
	l-25.176-5.241c-15.104,16.709-19.39,36.682-23.447,58.047c-5.021,26.411-16.079,42.431-37.863,58.134
	c-21.041,15.168-36.188,32.274-46.979,56.766c-11.438,25.958-5.937,56.239-22.896,79.435c-14.325,19.586-34.715,33.25-48.166,53.621
	c-17.667,26.756-13.055,54.672-22.237,83.321c-9.414,29.372-35.392,46.7-56.819,66.812c-15.296,14.355-38.759,40.347-24.475,63.264
	L191.696,548.29z"/>
<path fill="#F4DBAE" d="M216.678,553.938c-14.284-22.918,9.179-48.902,24.476-63.266c21.427-20.111,47.405-37.438,56.819-66.811
	c9.181-28.65,4.569-56.566,22.236-83.322c13.45-20.37,33.841-34.033,48.166-53.62c16.963-23.196,11.46-53.478,22.896-79.435
	c10.791-24.492,25.938-41.597,46.979-56.765c21.784-15.703,32.844-31.723,37.863-58.134c4.062-21.366,8.348-41.338,23.443-58.048
	l-25.175-5.241c-15.101,16.709-19.387,36.681-23.444,58.048c-5.021,26.411-16.078,42.43-37.863,58.133
	c-21.041,15.169-36.191,32.274-46.982,56.766c-11.437,25.958-5.934,56.238-22.896,79.434
	c-14.324,19.587-34.714,33.249-48.165,53.621c-17.666,26.757-13.056,54.671-22.236,83.32c-9.414,29.375-35.392,46.702-56.819,66.812
	c-15.297,14.357-38.759,40.352-24.476,63.267L216.678,553.938z"/>
<path fill="#DB5D5D" d="M242.559,559.146c-14.283-22.915,9.179-48.905,24.476-63.267c21.427-20.108,47.405-37.438,56.814-66.812
	c9.185-28.649,4.571-56.564,22.237-83.32c13.451-20.372,33.842-34.035,48.165-53.622c16.963-23.196,11.461-53.476,22.897-79.434
	c10.791-24.493,25.938-41.597,46.979-56.766c21.784-15.703,32.843-31.722,37.863-58.133c4.061-21.367,8.348-41.338,23.447-58.048
	l-25.883-5.21c-15.103,16.71-19.389,36.682-23.446,58.048c-5.021,26.411-16.079,42.431-37.863,58.134
	c-21.04,15.168-36.189,32.273-46.98,56.765c-11.438,25.957-5.935,56.239-22.896,79.435c-14.325,19.587-34.715,33.25-48.166,53.62
	c-17.667,26.756-13.055,54.672-22.236,83.322c-9.414,29.372-35.392,46.695-56.819,66.811
	c-15.296,14.359-38.759,40.348-24.476,63.266L242.559,559.146z"/>
<path fill="#F4DBAE" d="M267.542,564.795c-14.284-22.917,9.179-48.907,24.475-63.265c21.428-20.111,47.405-37.438,56.819-66.812
	c9.181-28.646,4.569-56.565,22.236-83.321c13.45-20.371,33.842-34.035,48.165-53.623c16.964-23.194,11.461-53.476,22.896-79.434
	c10.791-24.491,25.941-41.597,46.982-56.765c21.783-15.703,32.844-31.723,37.859-58.134c4.062-21.366,8.352-41.338,23.446-58.047
	l-25.175-5.241C510.145,56.862,505.86,76.834,501.8,98.201c-5.02,26.411-16.078,42.43-37.859,58.133
	c-21.041,15.168-36.191,32.273-46.982,56.766c-11.438,25.957-5.934,56.238-22.897,79.434c-14.319,19.586-34.714,33.25-48.164,53.622
	c-17.666,26.754-13.057,54.671-22.234,83.316c-9.414,29.372-35.392,46.7-56.818,66.813c-15.297,14.354-38.759,40.347-24.476,63.263
	L267.542,564.795z"/>
<path fill="#FFFAF3" d="M293.423,570.004c-14.284-22.915,9.178-48.904,24.479-63.262c21.427-20.113,47.402-37.441,56.815-66.813
	c9.185-28.646,4.57-56.562,22.237-83.319c13.45-20.373,33.841-34.032,48.164-53.623c16.964-23.191,11.461-53.477,22.896-79.429
	c10.791-24.493,25.941-41.599,46.982-56.767c21.785-15.703,32.844-31.722,37.863-58.133c4.061-21.367,8.349-41.339,23.443-58.048
	l-25.882-5.21c-15.099,16.709-19.386,36.682-23.446,58.047c-5.02,26.411-16.076,42.431-37.859,58.134
	c-21.041,15.168-36.191,32.274-46.982,56.765c-11.437,25.958-5.934,56.24-22.896,79.434c-14.323,19.583-34.716,33.25-48.165,53.625
	c-17.667,26.756-13.059,54.672-22.236,83.318c-9.414,29.372-35.392,46.699-56.819,66.812
	c-15.296,14.354-38.759,40.348-24.475,63.265L293.423,570.004z"/>
<path fill="none" d="M191.696,548.29c-14.284-22.917,9.179-48.907,24.476-63.265c21.427-20.111,47.405-37.439,56.818-66.812
	c9.181-28.65,4.571-56.564,22.237-83.32c13.451-20.373,33.841-34.035,48.166-53.622c16.967-23.195,11.46-53.476,22.896-79.434
	c10.792-24.492,25.942-41.597,46.982-56.766c21.781-15.703,32.844-31.723,37.859-58.134c4.062-21.366,8.353-41.338,23.448-58.048
	l-25.176-5.241c-15.104,16.709-19.39,36.682-23.447,58.047c-5.021,26.411-16.079,42.431-37.863,58.134
	c-21.041,15.168-36.188,32.274-46.979,56.766c-11.438,25.958-5.937,56.239-22.896,79.435c-14.325,19.586-34.715,33.25-48.166,53.621
	c-17.667,26.756-13.055,54.672-22.237,83.321c-9.414,29.372-35.392,46.7-56.819,66.812c-15.296,14.355-38.759,40.347-24.475,63.264
	L191.696,548.29z"/>
<path fill="#FFF3E1" d="M293.423,570.004c-14.284-22.915,9.178-48.904,24.479-63.262c21.427-20.113,47.402-37.441,56.815-66.813
	c9.185-28.646,4.57-56.562,22.237-83.319c13.45-20.373,33.841-34.032,48.164-53.623c16.964-23.191,11.461-53.477,22.896-79.429
	c10.791-24.493,25.941-41.599,46.982-56.767c21.785-15.703,32.844-31.722,37.863-58.133c4.061-21.367,8.349-41.339,23.443-58.048
	l-25.175-5.24c-15.1,16.709-19.386,36.681-23.447,58.047c-5.021,26.411-16.079,42.431-37.859,58.134
	c-21.041,15.168-36.191,32.273-46.982,56.766c-11.437,25.958-5.934,56.24-22.896,79.434c-14.323,19.587-34.719,33.25-48.166,53.622
	c-17.666,26.756-13.059,54.671-22.236,83.32c-9.415,29.374-35.393,46.698-56.819,66.812c-15.296,14.357-38.759,40.347-24.476,63.262
	L293.423,570.004z"/>
<path fill="none" stroke="#000000" d="M248.495,410.823c8.294-27.892,4.347-55.077,21.568-81.159
	c13.452-20.37,33.842-34.034,48.167-53.621c16.964-23.195,11.46-53.477,22.896-79.434c10.791-24.492,25.941-41.598,46.981-56.766
	c21.781-15.703,32.843-31.722,37.861-58.133c4.062-21.366,8.351-41.338,23.446-58.048c-0.004-0.001,24.766,4.41,61.339,13.319
	c36.575,8.908,65.562,13.637,65.562,13.637c-15.104,16.709-19.391,36.682-23.448,58.048c-5.021,26.411-16.078,42.43-37.863,58.134
	c-21.041,15.168-36.188,32.273-46.979,56.765c-0.5,1.134-0.969,2.277-1.406,3.427"/>
<path fill="none" stroke="#000000" d="M325.865,499.535c-2.693,2.383-5.357,4.78-7.954,7.219
	c-15.296,14.359-38.759,40.347-24.476,63.265c0,0-34.259-7.521-69.06-15.064c-32.545-7.061-57.842-11.892-57.842-11.892
	c-9.724-15.601-1.956-32.622,8.821-46.432"/>
<path fill="#A83F3F" d="M166.654,490.122c-2.994-26.836,29.387-40.156,49.382-46.506c28.008-8.896,58.921-13.314,80.089-35.749
	c20.646-21.883,28.535-49.055,56.019-65.564c20.93-12.572,45.221-16.098,66.595-27.582c25.312-13.604,33.416-43.295,54.935-61.775
	c20.308-17.436,41.354-26.33,66.881-30.931c26.433-4.764,43.318-14.442,59.245-36.101c12.885-17.521,25.372-33.688,46.204-42.244
	l-20.45-15.593c-20.831,8.557-33.312,24.723-46.202,42.245c-15.928,21.658-32.812,31.337-59.243,36.1
	c-25.524,4.603-46.573,13.495-66.882,30.931c-21.519,18.48-29.624,48.172-54.936,61.775c-21.375,11.487-45.666,15.013-66.59,27.582
	c-27.484,16.513-35.373,43.685-56.021,65.565c-21.168,22.434-52.082,26.854-80.09,35.747c-19.995,6.354-52.375,19.671-49.382,46.508
	L166.654,490.122z"/>
<path fill="#F4DBAE" d="M186.753,505.997c-2.995-26.836,29.386-40.153,49.382-46.506c28.008-8.896,58.921-13.313,80.089-35.747
	c20.646-21.883,28.535-49.057,56.021-65.566c20.924-12.57,45.214-16.096,66.588-27.583c25.312-13.602,33.419-43.293,54.938-61.774
	c20.306-17.435,41.354-26.328,66.883-30.931c26.427-4.764,43.313-14.44,59.242-36.1c12.887-17.521,25.368-33.688,46.201-42.245
	l-20.444-15.593c-20.834,8.557-33.319,24.724-46.203,42.245c-15.929,21.659-32.815,31.337-59.245,36.101
	c-25.527,4.603-46.576,13.494-66.882,30.93c-21.521,18.48-29.622,48.17-54.938,61.776c-21.373,11.484-45.664,15.012-66.589,27.583
	c-27.481,16.513-35.372,43.683-56.019,65.563c-21.17,22.436-52.082,26.854-80.09,35.749c-19.995,6.352-52.377,19.669-49.381,46.505
	L186.753,505.997z"/>
<path fill="#DB5D5D" d="M207.852,521.867c-2.996-26.835,29.386-40.154,49.381-46.505c28.008-8.896,58.921-13.314,80.089-35.749
	c20.646-21.882,28.535-49.053,56.019-65.564c20.924-12.572,45.216-16.097,66.59-27.584c25.312-13.604,33.417-43.294,54.938-61.773
	c20.305-17.438,41.354-26.329,66.88-30.932c26.428-4.763,43.318-14.442,59.245-36.099c12.885-17.522,25.371-33.689,46.202-42.245
	l-21.102-15.87c-20.833,8.557-33.314,24.724-46.2,42.245c-15.93,21.659-32.816,31.336-59.243,36.1
	c-25.526,4.603-46.577,13.496-66.882,30.931c-21.521,18.481-29.625,48.173-54.938,61.773
	c-21.374,11.484-45.665,15.012-66.588,27.584c-27.484,16.51-35.373,43.684-56.021,65.562
	c-21.167,22.434-52.081,26.853-80.088,35.747c-19.996,6.353-52.376,19.67-49.382,46.506L207.852,521.867z"/>
<path fill="#F4DBAE" d="M227.95,537.744c-2.995-26.838,29.387-40.155,49.381-46.507c28.009-8.896,58.921-13.313,80.089-35.747
	c20.646-21.882,28.535-49.059,56.021-65.565c20.924-12.573,45.216-16.098,66.591-27.584c25.312-13.603,33.417-43.293,54.936-61.772
	c20.306-17.438,41.354-26.327,66.88-30.928c26.433-4.765,43.319-14.442,59.246-36.101c12.884-17.521,25.37-33.687,46.202-42.244
	L686.847,175.7c-20.832,8.556-33.315,24.722-46.203,42.244c-15.927,21.658-32.812,31.336-59.241,36.099
	c-25.526,4.604-46.576,13.495-66.885,30.931c-21.519,18.48-29.623,48.17-54.936,61.774c-21.375,11.486-45.665,15.013-66.591,27.584
	c-27.482,16.512-35.372,43.684-56.021,65.562c-21.168,22.438-52.081,26.854-80.089,35.75c-19.996,6.354-52.376,19.672-49.382,46.508
	L227.95,537.744z"/>
<path fill="#FFF3E1" d="M249.049,553.614c-2.995-26.835,29.385-40.155,49.381-46.505c28.009-8.897,58.918-13.316,80.086-35.749
	c20.646-21.887,28.535-49.06,56.021-65.565c20.927-12.572,45.218-16.097,66.591-27.584c25.313-13.604,33.419-43.294,54.938-61.773
	c20.304-17.437,41.354-26.33,66.88-30.932c26.43-4.764,43.314-14.441,59.245-36.1c12.883-17.521,25.365-33.688,46.202-42.244
	l-21.102-15.87c-20.832,8.557-33.314,24.724-46.202,42.244c-15.927,21.659-32.813,31.336-59.246,36.101
	c-25.522,4.602-46.571,13.494-66.88,30.931c-21.519,18.479-29.623,48.17-54.936,61.771c-21.375,11.486-45.667,15.013-66.591,27.584
	c-27.484,16.511-35.373,43.688-56.021,65.565c-21.168,22.434-52.08,26.854-80.089,35.747c-19.995,6.352-52.376,19.669-49.381,46.507
	L249.049,553.614z"/>
<path fill="#A83F3F" d="M166.654,490.122c-2.994-26.836,29.387-40.156,49.382-46.506c28.008-8.896,58.921-13.314,80.089-35.749
	c20.646-21.883,28.535-49.055,56.019-65.564c20.93-12.572,45.221-16.098,66.595-27.582c25.312-13.604,33.416-43.295,54.935-61.775
	c20.308-17.436,41.354-26.33,66.881-30.931c26.433-4.764,43.318-14.442,59.245-36.101c12.885-17.521,25.372-33.688,46.204-42.244
	l-20.45-15.593c-20.831,8.557-33.312,24.723-46.202,42.245c-15.928,21.658-32.812,31.337-59.243,36.1
	c-25.524,4.603-46.573,13.495-66.882,30.931c-21.519,18.48-29.624,48.172-54.936,61.775c-21.375,11.487-45.666,15.013-66.59,27.582
	c-27.484,16.513-35.373,43.685-56.021,65.565c-21.168,22.434-52.082,26.854-80.09,35.747c-19.995,6.354-52.375,19.671-49.382,46.508
	L166.654,490.122z"/>
<path fill="#F4DBAE" d="M186.753,505.997c-2.995-26.836,29.386-40.153,49.382-46.506c28.008-8.896,58.921-13.313,80.089-35.747
	c20.646-21.883,28.535-49.057,56.021-65.566c20.924-12.57,45.214-16.096,66.588-27.583c25.312-13.602,33.419-43.293,54.938-61.774
	c20.306-17.435,41.354-26.328,66.883-30.931c26.427-4.764,43.313-14.44,59.242-36.1c12.887-17.521,25.368-33.688,46.201-42.245
	l-20.444-15.593c-20.834,8.557-33.319,24.724-46.203,42.245c-15.929,21.659-32.815,31.337-59.245,36.101
	c-25.527,4.603-46.576,13.494-66.882,30.93c-21.521,18.48-29.622,48.17-54.938,61.776c-21.373,11.484-45.664,15.012-66.589,27.583
	c-27.481,16.513-35.372,43.683-56.019,65.563c-21.17,22.436-52.082,26.854-80.09,35.749c-19.995,6.352-52.377,19.669-49.381,46.505
	L186.753,505.997z"/>
<path fill="#DB5D5D" d="M207.852,521.867c-2.996-26.835,29.386-40.154,49.381-46.505c28.008-8.896,58.921-13.314,80.089-35.749
	c20.646-21.882,28.535-49.053,56.019-65.564c20.924-12.572,45.216-16.097,66.59-27.584c25.312-13.604,33.417-43.294,54.938-61.773
	c20.305-17.438,41.354-26.329,66.88-30.932c26.428-4.763,43.318-14.442,59.245-36.099c12.885-17.522,25.371-33.689,46.202-42.245
	l-21.102-15.87c-20.833,8.557-33.314,24.724-46.2,42.245c-15.93,21.659-32.816,31.336-59.243,36.1
	c-25.526,4.603-46.577,13.496-66.882,30.931c-21.521,18.481-29.625,48.173-54.938,61.773
	c-21.374,11.484-45.665,15.012-66.588,27.584c-27.484,16.51-35.373,43.684-56.021,65.562
	c-21.167,22.434-52.081,26.853-80.088,35.747c-19.996,6.353-52.376,19.67-49.382,46.506L207.852,521.867z"/>
<path fill="#F4DBAE" d="M227.95,537.744c-2.995-26.838,29.387-40.155,49.381-46.507c28.009-8.896,58.921-13.313,80.089-35.747
	c20.646-21.882,28.535-49.059,56.021-65.565c20.924-12.573,45.216-16.098,66.591-27.584c25.312-13.603,33.417-43.293,54.936-61.772
	c20.306-17.438,41.354-26.327,66.88-30.928c26.433-4.765,43.319-14.442,59.246-36.101c12.884-17.521,25.37-33.687,46.202-42.244
	L686.847,175.7c-20.832,8.556-33.315,24.722-46.203,42.244c-15.927,21.658-32.812,31.336-59.241,36.099
	c-25.526,4.604-46.576,13.495-66.885,30.931c-21.519,18.48-29.623,48.17-54.936,61.774c-21.375,11.486-45.665,15.013-66.591,27.584
	c-27.482,16.512-35.372,43.684-56.021,65.562c-21.168,22.438-52.081,26.854-80.089,35.75c-19.996,6.354-52.376,19.672-49.382,46.508
	L227.95,537.744z"/>
<path fill="#FFF3E1" d="M249.049,553.614c-2.995-26.835,29.385-40.155,49.381-46.505c28.009-8.897,58.918-13.316,80.086-35.749
	c20.646-21.887,28.535-49.06,56.021-65.565c20.927-12.572,45.218-16.097,66.591-27.584c25.313-13.604,33.419-43.294,54.938-61.773
	c20.304-17.437,41.354-26.33,66.88-30.932c26.43-4.764,43.314-14.441,59.245-36.1c12.883-17.521,25.365-33.688,46.202-42.244
	l-21.102-15.87c-20.832,8.557-33.314,24.724-46.202,42.244c-15.927,21.659-32.813,31.336-59.246,36.101
	c-25.522,4.602-46.571,13.494-66.88,30.931c-21.519,18.479-29.623,48.17-54.936,61.771c-21.375,11.486-45.667,15.013-66.591,27.584
	c-27.484,16.511-35.373,43.688-56.021,65.565c-21.168,22.434-52.08,26.854-80.089,35.747c-19.995,6.352-52.376,19.669-49.381,46.507
	L249.049,553.614z"/>
<path fill="none" d="M166.654,490.122c-2.994-26.836,29.387-40.156,49.382-46.506c28.008-8.896,58.921-13.314,80.089-35.749
	c20.646-21.883,28.535-49.055,56.019-65.564c20.93-12.572,45.221-16.098,66.595-27.582c25.312-13.604,33.416-43.295,54.935-61.775
	c20.308-17.436,41.354-26.33,66.881-30.931c26.433-4.764,43.318-14.442,59.245-36.101c12.885-17.521,25.372-33.688,46.204-42.244
	l-20.45-15.593c-20.831,8.557-33.312,24.723-46.202,42.245c-15.928,21.658-32.812,31.337-59.243,36.1
	c-25.524,4.603-46.573,13.495-66.882,30.931c-21.519,18.48-29.624,48.172-54.936,61.775c-21.375,11.487-45.666,15.013-66.59,27.582
	c-27.484,16.513-35.373,43.685-56.021,65.565c-21.168,22.434-52.082,26.854-80.09,35.747c-19.995,6.354-52.375,19.671-49.382,46.508
	L166.654,490.122z"/>
<path fill="none" d="M249.049,553.614c-2.995-26.835,29.385-40.155,49.381-46.505c28.009-8.897,58.918-13.316,80.086-35.749
	c20.646-21.887,28.535-49.06,56.021-65.565c20.927-12.572,45.218-16.097,66.591-27.584c25.313-13.604,33.419-43.294,54.938-61.773
	c20.304-17.437,41.354-26.33,66.88-30.932c26.43-4.764,43.314-14.441,59.245-36.1c12.883-17.521,25.365-33.688,46.202-42.244
	l-20.447-15.594c-20.833,8.558-33.32,24.724-46.203,42.245c-15.928,21.659-32.817,31.336-59.245,36.1
	c-25.526,4.602-46.575,13.494-66.88,30.931c-21.521,18.481-29.625,48.172-54.938,61.774c-21.373,11.485-45.665,15.012-66.591,27.585
	c-27.479,16.51-35.371,43.681-56.017,65.562c-21.169,22.438-52.082,26.854-80.09,35.748c-19.994,6.354-52.375,19.671-49.381,46.506
	L249.049,553.614z"/>
<path fill="none" stroke="#000000" d="M675.139,166.58c29.148,23.82,53.255,40.595,53.255,40.595
	c-20.833,8.556-33.315,24.723-46.2,42.245c-15.931,21.659-32.815,31.336-59.244,36.1c-25.526,4.603-46.575,13.494-66.881,30.931
	c-21.521,18.48-29.624,48.172-54.938,61.773c-21.374,11.484-45.664,15.012-66.59,27.58c-27.483,16.515-35.373,43.688-56.021,65.566
	c-21.168,22.433-52.077,26.853-80.085,35.747c-19.995,6.352-52.376,19.669-49.382,46.506c0,0-27.659-21.568-55.794-43.396
	c-26.312-20.409-47.047-35.688-47.047-35.688c-2.995-26.837,29.386-40.154,49.381-46.507c28.009-8.896,58.921-13.313,80.089-35.746
	c20.646-21.883,28.536-49.059,56.02-65.564c20.926-12.57,45.217-16.098,66.591-27.583c25.312-13.602,33.417-43.294,54.938-61.775
	c20.307-17.436,41.354-26.328,66.883-30.93c26.428-4.765,43.314-14.442,59.242-36.101c12.887-17.521,25.368-33.688,46.2-42.245
	C625.55,128.09,645.991,142.76,675.139,166.58z"/>
<rect x="137.104" y="5.529" fill="none" stroke="#000000" stroke-width="3" width="593.971" height="593.971"/>
</svg>
