<?xml version="1.0" encoding="utf-8"?>
<!-- Generator: Adobe Illustrator 13.0.0, SVG Export Plug-In . SVG Version: 6.00 Build 14948)  -->
<!DOCTYPE svg PUBLIC "-//W3C//DTD SVG 1.1//EN" "http://www.w3.org/Graphics/SVG/1.1/DTD/svg11.dtd">
<svg version="1.1" id="Layer_1" xmlns="http://www.w3.org/2000/svg" xmlns:xlink="http://www.w3.org/1999/xlink" x="0px" y="0px"
	 width="800px" height="600px" viewBox="0 0 800 600" enable-background="new 0 0 800 600" xml:space="preserve">
<g id="baseColors">
	<path fill="#599DB5" d="M398.336,478.225c-19.183,0-52.462,0.506-70.019-3.065c-81.32-16.549-148.604-69.434-183.387-140.199
		c-13.162-26.778-23.773-53.483-26.821-85.627c-0.502-5.288-1.115-14.863,0.068-22.499c0.221-1.427-1.801-36.954,112.149-65.194
		c53.835-13.342,104.037-17.632,169.437-18.896c73.328-1.417,113.68,2.86,167.463,16.42
		c115.935,29.229,115.03,66.243,115.251,67.671c1.182,7.635,0.568,17.211,0.066,22.498c-3.048,32.144-13.659,58.85-26.819,85.627
		c-34.785,70.767-102.068,123.65-183.387,140.199C454.781,478.73,398.336,478.225,398.336,478.225z"/>
	<path fill="#428496" d="M135.201,221.093c0-19.153,68.406-64.257,256.641-68.37c181.331-3.963,277.447,49.218,277.447,68.37
		c0,19.154-121.047,43.599-268.529,43.599C253.276,264.691,135.201,240.246,135.201,221.093z"/>
	<path fill="#FFFFFF" stroke="#000000" d="M304.8,187.735c24.965-1.353,54.21-2.906,58.131-3.717
		c22.716-4.7,73.587-3.997,84.598-3.133c23.048,1.807,40.957,7.886,63.448,9.399c14.704,0.989,30.26,2.917,44.986,3.915
		c20.444,1.385,43.43,14.142,61.505,23.872c9.785,5.268,17.691,12.053,27.2,17.557c0.71,0.41-0.12,0.604,0.6,0.93
		c0,0-47.562,24.525-238.556,28.241c-184.304-1.858-249.701-28.241-249.701-28.241c2.51-9.13,8.855-14.664,16.384-18.431
		c1.609-0.806,56.969-21.95,68.836-24.743c2.518-0.594,5.034-1.067,7.553-1.459"/>
	<path fill="#FFF069" stroke="#DDCA40" stroke-width="2" d="M495.048,248.574c-28.77,4.235-55.008-7.672-57.736-26.202
		c-2.726-18.53,20.159-33.86,48.928-38.095c28.77-4.234,57.423,10.702,60.15,29.232C549.118,232.041,523.816,244.34,495.048,248.574
		z"/>
	<path fill="#FFF069" stroke="#DDCA40" stroke-width="2" d="M285.183,250.953c-29.031-1.665-52.323-18.629-51.25-37.328
		c1.075-18.7,26.586-29.088,55.616-27.422c29.031,1.666,54.075,22.086,53.003,40.784
		C341.478,245.687,314.212,252.621,285.183,250.953z"/>
</g>
<g id="shading">
	<path fill="#428496" d="M398.336,478.225c-19.183,0-52.462,0.506-70.019-3.065c-35.071-7.138-67.533-21.032-95.901-40.205
		c6.345,3.732,159.425,29.894,265.45-26.585c108.921-53.59,146.805-170.954,144.668-184.304
		c-1.791-16.941-72.583-41.618-72.583-41.618s-6.936-23.533-40.874-31.212c4.528,1.143,47.027,10.222,51.208,11.386
		c102.805,28.609,101.979,62.841,102.192,64.212c1.182,7.635,0.568,17.211,0.066,22.498c-3.048,32.144-13.659,58.85-26.819,85.627
		c-34.785,70.767-102.068,123.65-183.387,140.199C454.781,478.73,398.336,478.225,398.336,478.225z"/>
</g>
<g id="Outlines">
	<path fill="none" stroke="#000000" d="M398.336,478.225c-19.183,0-52.462,0.506-70.019-3.065
		c-81.32-16.549-148.604-69.434-183.387-140.199c-13.162-26.778-23.773-53.483-26.821-85.627
		c-0.502-5.288-1.115-14.863,0.068-22.499c0.221-1.427-1.801-36.954,112.149-65.194c53.835-13.342,104.037-17.632,169.437-18.896
		c73.328-1.417,113.68,2.86,167.463,16.42c115.935,29.229,115.03,66.243,115.251,67.671c1.182,7.635,0.568,17.211,0.066,22.498
		c-3.048,32.144-13.659,58.85-26.819,85.627c-34.785,70.767-102.068,123.65-183.387,140.199
		C454.781,478.73,398.336,478.225,398.336,478.225z"/>
	<path fill="none" stroke="#000000" d="M530.936,191.996c8.405,0.809,16.846,1.649,25.028,2.204
		c20.444,1.386,43.43,14.142,61.505,23.872c9.785,5.268,17.691,12.053,27.2,17.557c0.71,0.41-0.12,0.604,0.6,0.93
		c0,0-47.562,24.525-238.556,28.241c-184.304-1.858-249.701-28.241-249.701-28.241c2.51-9.13,8.855-14.664,16.384-18.431
		c1.609-0.806,56.969-21.95,68.836-24.743c2.697-0.636,5.395-1.134,8.096-1.542"/>
	<path fill="none" stroke="#000000" d="M305.554,187.739c25.336-1.375,53.364-2.889,57.377-3.72
		c22.716-4.7,73.587-3.997,84.598-3.133c10.101,0.792,19.215,2.404,28.159,4.092"/>
	<path fill="none" stroke="#000000" d="M135.201,221.093c0-19.153,68.406-64.257,256.641-68.37
		c181.331-3.963,277.447,49.218,277.447,68.37c0,19.154-121.047,43.599-268.529,43.599
		C253.276,264.691,135.201,240.246,135.201,221.093z"/>
</g>
<rect x="102.104" y="2.529" fill="none" stroke="#000000" stroke-width="3" width="593.971" height="593.971"/>
</svg>
