<?xml version="1.0" encoding="utf-8"?>
<!-- Generator: Adobe Illustrator 13.0.0, SVG Export Plug-In . SVG Version: 6.00 Build 14948)  -->
<!DOCTYPE svg PUBLIC "-//W3C//DTD SVG 1.1//EN" "http://www.w3.org/Graphics/SVG/1.1/DTD/svg11.dtd">
<svg version="1.1" id="Layer_1" xmlns="http://www.w3.org/2000/svg" xmlns:xlink="http://www.w3.org/1999/xlink" x="0px" y="0px"
	 width="800px" height="600px" viewBox="0 0 800 600" enable-background="new 0 0 800 600" xml:space="preserve">
<g id="baseColors">
	<path fill="#599DB5" d="M401.36,466.225c-18.955,0-51.837,0.501-69.185-3.028c-80.351-16.352-146.834-68.606-181.202-138.529
		c-13.005-26.458-23.49-52.847-26.501-84.607c-0.497-5.224-1.102-14.686,0.067-22.23c0.218-1.411-1.78-36.514,110.813-64.418
		c53.194-13.183,102.797-17.421,167.418-18.67c72.454-1.4,112.325,2.826,165.468,16.225
		c114.554,28.881,113.66,65.454,113.878,66.865c1.167,7.544,0.562,17.006,0.065,22.23c-3.011,31.761-13.496,58.148-26.499,84.607
		c-34.371,69.924-100.854,122.178-181.203,138.529C457.132,466.726,401.36,466.225,401.36,466.225z"/>
	<path fill="#428496" d="M141.359,212.157c0-18.925,67.591-63.492,253.583-67.556c179.172-3.916,274.142,48.632,274.142,67.556
		c0,18.925-119.604,43.079-265.329,43.079C258.028,255.235,141.359,231.081,141.359,212.157z"/>
	<path fill="#FFF6A6" stroke="#000000" d="M532.38,183.406c8.306,0.799,16.645,1.629,24.729,2.178
		c20.201,1.369,42.913,13.973,60.772,23.587c9.669,5.206,17.48,11.91,26.876,17.349c0.701,0.405-0.118,0.597,0.592,0.918
		c0,0-46.994,24.233-235.713,27.905c-182.108-1.836-246.726-27.905-246.726-27.905c2.48-9.021,8.75-14.489,16.189-18.211
		c1.59-0.796,56.29-21.688,68.016-24.449c2.666-0.627,5.33-1.121,8-1.522l53.824-4.06c24.667-1.337,53.564-2.872,57.438-3.672
		c22.445-4.644,72.711-3.95,83.591-3.097c22.773,1.786,62.692,9.288,62.692,9.288c14.528,0.978,29.898,2.883,44.449,3.869
		c20.201,1.369,42.913,13.974,60.772,23.587c9.669,5.206,17.481,11.91,26.877,17.348c0.7,0.405-0.119,0.597,0.592,0.918
		c0,0-46.995,24.233-235.714,27.904c-182.107-1.836-246.726-27.904-246.726-27.904c2.48-9.021,8.75-14.489,16.189-18.211
		c1.589-0.797,56.29-21.689,68.015-24.449c2.488-0.586,4.974-1.054,7.463-1.441"/>
</g>
<g id="shading">
	<path fill="#428496" d="M401.36,466.225c-18.955,0-51.837,0.501-69.185-3.028c-34.653-7.053-66.728-20.782-94.758-39.726
		c6.269,3.688,157.525,29.537,262.287-26.269C607.327,344.25,644.76,228.284,642.648,215.093
		c-1.77-16.739-71.718-41.122-71.718-41.122s-6.853-23.252-40.388-30.84c4.476,1.128,46.468,10.1,50.598,11.25
		c101.58,28.269,100.765,62.092,100.976,63.447c1.167,7.544,0.562,17.006,0.065,22.23c-3.011,31.761-13.496,58.148-26.499,84.607
		c-34.371,69.924-100.854,122.177-181.203,138.528C457.132,466.726,401.36,466.225,401.36,466.225z"/>
</g>
<g id="Outlines">
	<path fill="none" stroke="#000000" d="M401.36,466.225c-18.955,0-51.837,0.501-69.185-3.028
		c-80.351-16.352-146.834-68.606-181.202-138.529c-13.005-26.458-23.49-52.847-26.501-84.607c-0.497-5.224-1.102-14.686,0.067-22.23
		c0.218-1.411-1.78-36.514,110.813-64.418c53.194-13.183,102.797-17.421,167.418-18.67c72.454-1.4,112.325,2.826,165.468,16.225
		c114.554,28.881,113.66,65.454,113.878,66.865c1.167,7.544,0.562,17.006,0.065,22.23c-3.011,31.761-13.496,58.148-26.499,84.607
		c-34.371,69.924-100.854,122.178-181.203,138.529C457.132,466.726,401.36,466.225,401.36,466.225z"/>
	<path fill="none" stroke="#000000" d="M141.359,212.157c0-18.925,67.591-63.492,253.583-67.556
		c179.172-3.916,274.142,48.632,274.142,67.556c0,18.925-119.604,43.079-265.329,43.079
		C258.028,255.235,141.359,231.081,141.359,212.157z"/>
</g>
<rect x="102.104" y="2.529" fill="none" stroke="#000000" stroke-width="3" width="593.971" height="593.971"/>
</svg>
