<?xml version="1.0" encoding="utf-8"?>
<!-- Generator: Adobe Illustrator 13.0.0, SVG Export Plug-In . SVG Version: 6.00 Build 14948)  -->
<!DOCTYPE svg PUBLIC "-//W3C//DTD SVG 1.1//EN" "http://www.w3.org/Graphics/SVG/1.1/DTD/svg11.dtd">
<svg version="1.1" xmlns="http://www.w3.org/2000/svg" xmlns:xlink="http://www.w3.org/1999/xlink" x="0px" y="0px" width="800px"
	 height="600px" viewBox="0 0 800 600" enable-background="new 0 0 800 600" xml:space="preserve">
<g id="Layer_1">
	<g id="baseColors2">
		<ellipse fill="#FFFFFF" cx="406" cy="346.79" rx="278.539" ry="78.307"/>
	</g>
	<g id="shading2">
		<path fill="#E6E6E6" d="M127.461,346.79c72.964,106.104,537.39,66.727,557.078,0c0,43.249-124.707,78.308-278.539,78.308
			C252.167,425.098,127.461,390.039,127.461,346.79z"/>
	</g>
	<g id="Outlines2">
		<ellipse fill="none" stroke="#000000" cx="406" cy="346.79" rx="278.539" ry="78.307"/>
	</g>
	<g id="baseColors1">
		<path fill="#FFF685" d="M628.329,327.111c4.291-1.662,4.504-9.72,3.925-12.987c-0.768-4.327-3.494-5.896-6.174-9.351
			c-0.706-0.913,0.256-2.091-0.677-3.186c-1.902-2.235-5.202-3.9-7.697-5.629c-3.121-2.163-5.363-3.763-7.354-6.19
			c-3.56-4.34-4.502-10.07-10.566-13.633c-16.408-9.634-26.36,6.187-41.525,5.078l-5.79-0.527
			c-2.221-6.713-12.267-10.639-18.981-14.377c-15.547-8.659-28.04-15.102-47.536-14.305c-15.661,0.64-36.177,2.438-51.523,0.509
			c-4.967-0.624-9.36-1.703-13.996-1.96c-11.661-0.642-19.646-3.103-30.654-5.534c-4.553-1.004-9.354,0.121-13.925-0.693
			c-4.961-0.885-8.197-2.798-13.719-3.2c-8.618-0.625-23.842-0.597-30.514,4.406c-4.393,3.292-4.784,7.775-10.183,10.763
			c-11.934,6.606-42.702,0.436-50.403,11.398l3.064,2.376c-5.765-3.693-4.144-7.594-12.732-7.566
			c-6.477,0.021-12.396-0.681-18.504-0.873c-11.002-0.349-11.076,3.162-18.353,8.409c-2.343,1.688-5.695,3.982-8.585,4.938
			c-2.26,0.748-5.401,0.313-7.511,1.45c-1.835,0.99-2.12,3.007-3.929,4.129c-2.372,1.472-5.466,1.873-8.356,2.63
			c-9.134,2.39-7.011,2.184-8.426,9c-0.993,4.777-5.481,6.079-6.913,10.577c-1.225,3.855,0.807,13.82,4.542,16.212l60.61,43.32
			L344,374.012c3.746,1.623,9.303,1.858,12.634,4.523c4.417,3.539,3.282,6.959,10.592,8.47c5.612,1.16,10.08-0.236,15.086-0.601
			c9.288-0.674,19.453,0.401,28.601,1.46c8.032,0.928,17.572,3.484,24.251-0.536c4.306-2.59,6.604-6.501,11.768-8.589
			c10.567-3.685,20.413-2.337,20.413-2.337c9.616,7.199,29.68,8.318,41.084,4.353c5.636-1.959,10.258-5.585,15.437-8.283
			c8.526-4.447,15.481-5.221,25.913-5.542c5.428-0.168,11.984,0.913,16.746-1.908c0.892-0.529,0.347-2.087,0.96-2.476
			c3.567-2.241,7.138-2.823,11.692-3.941l12.091-0.864c3.839,0,18.81,1.532,22.571,0.956c6.532-0.998,9.383-6.287,15.225-8.843
			c6.121-2.677,20.428-7.515,13.505-15.726c-1.242-1.475-6.958-3.066-8.728-3.928c-6.659-3.237-8.512-8.468-12.075-14.33
			c-1.945-3.2-7.931-5.878-11.078-8.573"/>
		<path fill="#FFF685" d="M195.175,311.318c1.694,6.896-14.217,9.661-19.941,12.11c-3.456,1.479-4.897,2.961-6.407,5.726
			c-3.717,6.806,3.028,9.854,10.703,12.021c0.522,5.274-2.583,7.277,2.992,11.876c7.346,6.061,22.054,12.049,32.569,13.252
			c5.684,0.651,15.282,1.222,20.731-0.081c6.442-1.539,6.025-3.144,8.006-7.475c1.256-2.745,1.388-4.979,4.354-7.283
			c4.118-3.198,13.449-2.811,16.5-6.952c4.207-5.713-5.025-13.317-10.396-15.41c-7.179-2.796-14.395-2.783-20.79,1.134
			c-1.94,1.188-1.352,2.394-3.706,3.121c-3.926,1.213-9.61-2.127-13.547-2.476c-4.803-0.426-8.265,2.154-12.96,1.493"/>
		<path fill="#FFF685" d="M337.63,362.048c1.382,4.603,6.882,9.688,5.37,14.786c-2.882,9.725-25.532,5.308-34.752,5.796
			c-10.153,0.537-19.404,6.436-29.469,2.33c-4.557-1.856-8.918-4.805-13.49-6.828c-4.099-1.814-8.508-3.917-11.708-6.584
			c-3.081-2.566-8.567-7.89-9.763-10.934"/>
		<path fill="#FFF685" d="M465.056,360.003c-2.695-1.409-3.558-1.636-5.267-3.698c-1.512-1.826,0.317-3.477-3.448-4.785"/>
	</g>
	<g id="shading1">
	</g>
	<g id="Outlines1">
		<path fill="none" stroke="#FBB03B" d="M184.559,318.734c-3.734-2.394-5.766-12.358-4.541-16.212
			c1.431-4.5,5.92-5.799,6.912-10.578c1.416-6.815-0.708-6.61,8.427-9.001c2.89-0.755,5.984-1.159,8.356-2.629
			c1.809-1.124,2.094-3.141,3.928-4.129c2.11-1.138,5.251-0.703,7.512-1.45c2.89-0.957,6.242-3.249,8.585-4.938
			c7.277-5.246,7.35-8.756,18.353-8.408c6.108,0.192,12.028,0.895,18.504,0.873c8.587-0.027,6.967,3.874,12.731,7.567
			c2.329,1.49,10.08,2.245,11.434,4.372c0.806,1.269-0.431,3.692-0.043,5.09c1.882,6.771,11.128,6.609,15.012,11.636
			c2.962,3.836,1.22,11.501,2.223,15.875c1.176,5.136,1.938,7.503-1.64,12.394c-4.231,5.786-6.47,5.549-14.143,4.75
			c-7.867-0.818-15.725-2.047-23.203-4.285c-4.053-1.213-8.58-4.285-12.576-4.817c-5.523-0.736-11.907,2.499-17.49,0.574
			c-6.016-2.073-6.753-6.846-14.821-7.735c-4.817-0.529-7.795,0.765-12.095-1.87"/>
		<path fill="none" stroke="#FBB03B" d="M194.404,311.076c1.694,6.896-14.216,9.664-19.941,12.111
			c-3.456,1.479-4.898,2.961-6.407,5.726c-3.717,6.806,3.029,9.854,10.703,12.02c0.522,5.275-2.583,7.278,2.991,11.878
			c7.346,6.062,22.054,12.047,32.569,13.252c5.684,0.651,15.282,1.219,20.731-0.082c6.442-1.54,6.025-3.143,8.007-7.474
			c1.256-2.745,1.387-4.981,4.354-7.284c4.118-3.197,13.449-2.811,16.501-6.953c4.206-5.711-5.025-13.315-10.397-15.408
			c-7.18-2.798-14.394-2.782-20.79,1.135c-1.94,1.188-1.352,2.394-3.707,3.12c-3.926,1.214-9.61-2.126-13.546-2.477
			c-4.804-0.426-8.265,2.154-12.961,1.495"/>
		<path fill="none" stroke="#FBB03B" d="M290.532,285.233c10.136,0.585,17.979-9.047,26.022-11.842
			c9.252-3.212,20.184-0.583,29.779-1.871c15.064-2.021,29.853-4.552,42.638,4.003c3.083,2.064,4.748,3.425,5.982,6.793
			c1.764,4.816-0.146,2.347-1.146,6.409c-1.583,6.419,6.631,9.204,11.111,14.075c5.718,6.216,1.658,8.018-2.763,13.585"/>
		<path fill="none" stroke="#FBB03B" d="M303.272,312.512c5.43,2.062,13.226,6.19,19.71,4.779c6.949-1.514,3.994-6.426,7.528-9.169
			c0.274-0.214,35.635-7.952,23.141-12.838"/>
		<path fill="none" stroke="#FBB03B" d="M284.162,326.392c0.751,6.078-8.999,7.555-8.114,13.398
			c1.542,10.185,25.869,13.071,34.597,14.915c4.876,1.031,9.681,2.892,14.639,3.777c10.067,1.797,27.189,5.667,37.219,3.12
			c4.782-1.213,8.299-4.131,11.956-6.607c2.987-2.021,9.942-5.106,11.731-7.566c3.11-4.276-1.031-7.924-4.084-11.311
			c-7.192-7.968-11.789-4.585-21.499-3.477c-5.027,0.576-8.425-1.914-12.911-3.065c-4.908-1.258-10.417-0.882-15.439-0.686
			c-6.914,0.269-13.413-0.599-18.561,3.722"/>
		<path fill="none" stroke="#FBB03B" d="M336.858,361.808c1.382,4.603,6.882,9.687,5.37,14.786
			c-2.882,9.724-25.532,5.307-34.752,5.796c-10.153,0.537-19.403,6.435-29.469,2.329c-4.557-1.858-8.918-4.806-13.49-6.83
			c-4.099-1.812-8.507-3.918-11.708-6.582c-3.081-2.566-8.568-7.89-9.763-10.935"/>
		<path fill="none" stroke="#FBB03B" d="M263.314,345.535c4.605,2.122,11.678,2.807,14.667,6.22
			c1.316,1.505,1.168,3.885,2.627,5.684c5.113,6.311,10.917,5.119,17.452,7.24"/>
		<path fill="none" stroke="#FBB03B" d="M394.767,279.967c4.411,1.355,10.75-3.22,15.186-4.894
			c6.683-2.522,9.073-4.842,14.264-8.455c9.477-6.594,26.548-0.549,37.54-1.104c8.16-0.412,17.486-2.43,25.329,0.215
			c5.602,1.886,7.449,5.99,12.054,8.001c5.44,2.375,13.054-1.086,18.006,1.277c4.436,2.116,4.828,8.669,8.479,11.624
			c9.257,7.494,25.757,2.997,29.152,15.375c2.076,7.562-7.705,10.53-11.179,14.349c-1.382,1.519-0.562,2.686-2.915,4.424
			c-0.936,0.688-4.34,3.228-5.199,3.698"/>
		<path fill="none" stroke="#FBB03B" d="M408.664,309.161c8.181,2.779,21.761,2.356,27.707-2.896c1.134-1,1.295-2.307,3.063-3.662
			c3.736-2.864,9.777-3.276,13.494-6.411c4.89-4.126,0.956-6.716,3.438-11.557c2.553-4.98,12.315-5.965,17.734-6.584"/>
		<path fill="none" stroke="#FBB03B" d="M456.149,290.497c4.997,0.09,14.516,1.477,17.302,5.718
			c1.356,2.064-0.336,4.841,0.627,6.818c2.214,4.545,9.513,5.449,14.522,8.161c5.876,3.184,6.821,5.814,12.716,0.36"/>
		<path fill="none" stroke="#FBB03B" d="M350.467,330.221c9.844-3.59,15.635-16.75,24.032-18.187
			c16.165-2.765,29.336,8.213,35.928,7.129c11.558-1.901,19.039-10.547,31.678-9.078c11.027,1.278,20.271,7.935,31.253,9.894
			c5.897,1.052,11.625,1.032,17.333-0.586c4.3-1.22,16.473-5.2,21.688-4.073c3.555,0.771,12.635,16.48,9.642,20.641
			c-2.399,3.334-8.821,1.063-12.421,2.395c-4.133,1.528-1.314,1.17-4.346,3.363c-6.515,4.718-13.46,5.165-22.554,5.633
			c-6.225,0.317-13.637-1.033-19.666,0.424c-3.312,0.802-6.061,2.798-9.356,3.665c-9.375,2.465-23.202,2.472-32.454,0.268
			c-4.519-1.075-8.804-3.692-13.207-4.271c-4.283-0.563-7.977,1.085-12.09,0.968"/>
		<path fill="none" stroke="#FBB03B" d="M343.229,373.771c3.746,1.623,9.303,1.859,12.633,4.524
			c4.416,3.537,3.281,6.958,10.591,8.469c5.612,1.161,10.08-0.235,15.087-0.6c9.287-0.674,19.453,0.401,28.6,1.46
			c8.032,0.928,17.572,3.482,24.252-0.536c4.304-2.59,6.784-6.458,11.768-8.59c8.116-3.472,19.642-2.249,28.372-3.334
			c1.621-7.503-3.652-11.957-10.248-15.404c-2.694-1.41-3.559-1.637-5.267-3.698c-1.514-1.825,0.317-3.477-3.448-4.784"/>
		<path fill="none" stroke="#FBB03B" d="M399.979,350.321c-0.981,3.11-4.663,3.979-2.95,7.896c1.726,3.946,6.073,2.887,8.824,5.637
			c2.077,2.079,0.265,4.493,2.749,6.708c2.624,2.342,6.935,1.831,10.487,1.774"/>
		<path fill="none" stroke="#FBB03B" d="M466.573,376.164c9.615,7.198,29.681,8.316,41.084,4.351
			c5.636-1.958,10.257-5.585,15.435-8.283c8.528-4.444,15.481-5.219,25.915-5.542c5.426-0.167,11.985,0.917,16.746-1.907
			c0.893-0.528,0.345-2.086,0.961-2.475c3.565-2.244,7.137-2.825,11.691-3.943c3.465-0.85,20.162-2.983,21.834-6.598
			c0.705-1.523-4.228-9.111-5.814-10.423c-5.201-4.299-24.15-8.06-31.766-7.863c-4.123,0.105-17.431,1.946-19.134,4.853
			c-0.976,1.667,0.991,4.643,0.137,6.361c-2.891,5.8-11.379,2.702-16.89,4.194c-5.23,1.414-2.437,3.248-6.347,6.219"/>
		<path fill="none" stroke="#FBB03B" d="M522.744,329.741c4.932-0.043,7.375-2.975,11.567-4.308
			c8.529-2.712,18.997-0.668,26.731-6.328c9.915-7.258,9.285-16.985,25.421-18.121c7.763-0.544,17.813,1.24,23.452,6.07
			c3.147,2.696,2.99,5.189,4.936,8.391c3.563,5.861,11.557,11.278,18.217,14.516c1.771,0.859,7.483,2.449,8.729,3.926
			c6.922,8.211-7.384,13.049-13.505,15.727c-5.842,2.554-8.693,7.842-15.225,8.842c-3.762,0.576-18.732-0.956-22.57-0.956"/>
		<path fill="none" stroke="#FBB03B" d="M530.852,289.062c1.854-1.247,4.792-2.295,7.125-3.366c2.837-1.303,5.058-3.627,7.644-4.791
			c5.15-2.319,6.883-0.296,11.869,0.066c15.165,1.111,25.115-14.712,41.524-5.077c6.064,3.562,7.007,9.293,10.567,13.632
			c1.99,2.429,4.23,4.029,7.354,6.191c2.495,1.729,5.796,3.396,7.697,5.629c0.934,1.094-0.029,2.272,0.678,3.184
			c2.679,3.456,5.406,5.024,6.173,9.352c0.581,3.268,0.368,11.325-3.923,12.986"/>
		<path fill="none" stroke="#FBB03B" d="M272.195,267.046c7.7-10.964,36.539-4.387,48.472-10.992
			c5.398-2.988,5.79-7.472,10.183-10.764c6.672-5.001,21.896-5.031,30.514-4.404c5.522,0.4,8.758,2.314,13.72,3.198
			c4.571,0.816,9.373-0.312,13.924,0.695c11.008,2.429,18.991,4.89,30.653,5.534c4.637,0.256,9.03,1.335,13.998,1.96
			c15.346,1.93,35.862,0.131,51.522-0.509c19.497-0.796,31.99,5.646,47.536,14.306c6.713,3.739,16.759,7.664,18.981,14.377"/>
	</g>
	<rect x="105.541" y="5.529" fill="none" stroke="#000000" stroke-width="3" width="593.971" height="593.971"/>
</g>
<g id="Layer_2">
	<g id="seasoning_4_">
		<ellipse transform="matrix(0.2278 -0.9737 0.9737 0.2278 111.8571 715.137)" cx="506.811" cy="287.044" rx="0.532" ry="1.13"/>
		<ellipse transform="matrix(-0.2999 -0.954 0.954 -0.2999 418.7902 871.6924)" cx="529.238" cy="282.183" rx="0.532" ry="1.129"/>
		<ellipse transform="matrix(0.0707 -0.9975 0.9975 0.0707 194.6747 789.4382)" cx="521.006" cy="290.243" rx="0.532" ry="1.128"/>
		<ellipse transform="matrix(0.0716 -0.9974 0.9974 0.0716 192.0993 761.7996)" cx="505.288" cy="277.704" rx="0.532" ry="1.129"/>
		
			<ellipse transform="matrix(-0.1496 -0.9887 0.9887 -0.1496 279.2122 807.1371)" cx="486.692" cy="283.501" rx="0.532" ry="1.129"/>
		<ellipse transform="matrix(0.0742 -0.9972 0.9972 0.0742 177.2181 752.0289)" cx="493.644" cy="280.567" rx="0.533" ry="1.13"/>
		<ellipse transform="matrix(0.3002 -0.9539 0.9539 0.3002 63.7083 647.0583)" cx="472.851" cy="280.109" rx="0.532" ry="1.129"/>
		<ellipse transform="matrix(0.2267 -0.974 0.974 0.2267 62.0788 628.4076)" cx="426.792" cy="275.108" rx="0.532" ry="1.129"/>
		<ellipse transform="matrix(-0.3006 -0.9537 0.9537 -0.3006 326.4999 779.93)" cx="449.216" cy="270.252" rx="0.531" ry="1.129"/>
		<ellipse transform="matrix(0.0716 -0.9974 0.9974 0.0716 131.8059 698.192)" cx="440.959" cy="278.292" rx="0.532" ry="1.129"/>
		<ellipse transform="matrix(0.0717 -0.9974 0.9974 0.0717 129.6435 670.8535)" cx="425.216" cy="265.78" rx="0.531" ry="1.13"/>
		
			<ellipse transform="matrix(-0.1498 -0.9887 0.9887 -0.1498 199.0942 714.2778)" cx="406.659" cy="271.536" rx="0.531" ry="1.129"/>
		<ellipse transform="matrix(0.0743 -0.9972 0.9972 0.0743 114.9835 661.1363)" cx="413.597" cy="268.635" rx="0.532" ry="1.128"/>
		<ellipse transform="matrix(0.3008 -0.9537 0.9537 0.3008 18.9424 562.1146)" cx="392.816" cy="268.139" rx="0.532" ry="1.129"/>
		
			<ellipse transform="matrix(-0.3176 0.9482 -0.9482 -0.3176 859.1661 -86.4017)" cx="460.673" cy="265.952" rx="0.532" ry="1.129"/>
		<ellipse transform="matrix(0.2103 0.9776 -0.9776 0.2103 608.4365 -215.8926)" cx="437.856" cy="268.677" rx="0.532" ry="1.128"/>
		
			<ellipse transform="matrix(-0.1643 0.9864 -0.9864 -0.1643 778.1341 -136.3427)" cx="446.826" cy="261.468" rx="0.532" ry="1.128"/>
		<ellipse transform="matrix(-0.1643 0.9864 -0.9864 -0.1643 808.7961 -134.4052)" cx="461.332" cy="275.4" rx="0.532" ry="1.129"/>
		<ellipse transform="matrix(0.0569 0.9984 -0.9984 0.0569 723.9034 -223.6873)" cx="480.356" cy="271.341" rx="0.532" ry="1.129"/>
		<ellipse transform="matrix(-0.167 0.986 -0.986 -0.167 821.8872 -147.178)" cx="473.116" cy="273.602" rx="0.532" ry="1.129"/>
		
			<ellipse transform="matrix(-0.3884 0.9215 -0.9215 -0.3884 940.0102 -71.7709)" cx="493.822" cy="276.051" rx="0.532" ry="1.129"/>
		<ellipse transform="matrix(0.0459 -0.9989 0.9989 0.0459 93.759 647.8331)" cx="386.017" cy="274.834" rx="0.532" ry="1.13"/>
		
			<ellipse transform="matrix(-0.4682 -0.8836 0.8836 -0.4682 362.7734 750.2908)" cx="407.151" cy="265.986" rx="0.531" ry="1.128"/>
		
			<ellipse transform="matrix(-0.1102 -0.9939 0.9939 -0.1102 171.0073 703.9172)" cx="400.586" cy="275.414" rx="0.532" ry="1.129"/>
		<ellipse transform="matrix(-0.1106 -0.9939 0.9939 -0.1106 160.818 675.8643)" cx="382.826" cy="265.974" rx="0.532" ry="1.13"/>
		<ellipse transform="matrix(-0.3272 -0.945 0.945 -0.3272 225.2815 710.508)" cx="365.577" cy="275.055" rx="0.533" ry="1.13"/>
		
			<ellipse transform="matrix(-0.1082 -0.9941 0.9941 -0.1082 142.8856 669.9501)" cx="371.933" cy="270.887" rx="0.532" ry="1.128"/>
		<ellipse transform="matrix(0.1226 -0.9925 0.9925 0.1226 36.1855 589.263)" cx="351.367" cy="274.166" rx="0.532" ry="1.13"/>
		<ellipse transform="matrix(0.046 -0.9989 0.9989 0.046 13.7422 569.6836)" cx="305.123" cy="277.647" rx="0.531" ry="1.129"/>
		<ellipse transform="matrix(-0.469 -0.8832 0.8832 -0.469 241.8999 683.0085)" cx="326.28" cy="268.783" rx="0.531" ry="1.128"/>
		<ellipse transform="matrix(-0.1107 -0.9939 0.9939 -0.1107 78.6339 626.7212)" cx="319.717" cy="278.179" rx="0.532" ry="1.129"/>
		<ellipse transform="matrix(-0.1103 -0.9939 0.9939 -0.1103 68.1231 598.4641)" cx="301.914" cy="268.742" rx="0.533" ry="1.129"/>
		
			<ellipse transform="matrix(-0.3267 -0.9451 0.9451 -0.3267 115.1076 637.6959)" cx="284.702" cy="277.846" rx="0.531" ry="1.129"/>
		<ellipse transform="matrix(-0.1086 -0.9941 0.9941 -0.1086 50.5615 592.7239)" cx="291.037" cy="273.692" rx="0.533" ry="1.129"/>
		<ellipse transform="matrix(0.1232 -0.9924 0.9924 0.1232 -37.7155 511.2581)" cx="270.482" cy="276.974" rx="0.533" ry="1.129"/>
		
			<ellipse transform="matrix(-0.1384 0.9904 -0.9904 -0.1384 643.3755 -34.6834)" cx="336.775" cy="262.519" rx="0.531" ry="1.129"/>
		<ellipse transform="matrix(0.3844 0.9232 -0.9232 0.3844 442.5176 -124.869)" cx="314.882" cy="269.352" rx="0.531" ry="1.128"/>
		<ellipse transform="matrix(0.017 0.9999 -0.9999 0.017 577.4121 -66.1191)" cx="322.332" cy="260.595" rx="0.532" ry="1.128"/>
		<ellipse transform="matrix(0.017 0.9999 -0.9999 0.017 604.9801 -72.0434)" cx="339.129" cy="271.653" rx="0.532" ry="1.128"/>
		<ellipse transform="matrix(0.2381 0.9712 -0.9712 0.2381 528.6918 -145.5678)" cx="357.128" cy="264.194" rx="0.531" ry="1.129"/>
		<ellipse transform="matrix(0.0147 0.9999 -0.9999 0.0147 613.0493 -86.568)" cx="350.448" cy="267.767" rx="0.533" ry="1.129"/>
		<ellipse transform="matrix(-0.2137 0.9769 -0.9769 -0.2137 710.8233 -39.295)" cx="371.226" cy="266.43" rx="0.531" ry="1.129"/>
	</g>
	<g id="seasoning_1_">
		<ellipse transform="matrix(0.2282 -0.9736 0.9736 0.2282 91.3312 731.1)" cx="506.811" cy="307.942" rx="0.531" ry="1.13"/>
		<ellipse transform="matrix(-0.3002 -0.9539 0.9539 -0.3002 399.019 898.8939)" cx="529.238" cy="303.081" rx="0.532" ry="1.128"/>
		<ellipse transform="matrix(0.0707 -0.9975 0.9975 0.0707 173.8295 808.859)" cx="521.006" cy="311.14" rx="0.532" ry="1.128"/>
		<ellipse transform="matrix(0.0717 -0.9974 0.9974 0.0717 171.2228 781.1789)" cx="505.288" cy="298.603" rx="0.531" ry="1.129"/>
		<ellipse transform="matrix(-0.1496 -0.9887 0.9887 -0.1496 258.5491 831.1628)" cx="486.692" cy="304.4" rx="0.532" ry="1.129"/>
		<ellipse transform="matrix(0.0742 -0.9972 0.9972 0.0742 156.3939 771.3873)" cx="493.644" cy="301.464" rx="0.533" ry="1.13"/>
		<ellipse transform="matrix(0.3005 -0.9538 0.9538 0.3005 43.6752 661.5638)" cx="472.851" cy="301.007" rx="0.531" ry="1.129"/>
		<ellipse transform="matrix(0.2269 -0.9739 0.9739 0.2269 41.6521 644.4874)" cx="426.792" cy="296.007" rx="0.531" ry="1.129"/>
		<ellipse transform="matrix(-0.3002 -0.9539 0.9539 -0.3002 306.3542 807.0518)" cx="449.216" cy="291.15" rx="0.532" ry="1.129"/>
		<ellipse transform="matrix(0.0716 -0.9974 0.9974 0.0716 110.9616 717.5935)" cx="440.959" cy="299.19" rx="0.532" ry="1.129"/>
		<ellipse transform="matrix(0.0716 -0.9974 0.9974 0.0716 108.8263 690.274)" cx="425.216" cy="286.677" rx="0.532" ry="1.13"/>
		<ellipse transform="matrix(-0.1496 -0.9887 0.9887 -0.1496 178.3701 738.275)" cx="406.659" cy="292.435" rx="0.532" ry="1.129"/>
		<ellipse transform="matrix(0.0742 -0.9972 0.9972 0.0742 94.1693 680.5042)" cx="413.597" cy="289.533" rx="0.533" ry="1.128"/>
		<ellipse transform="matrix(0.3009 -0.9537 0.9537 0.3009 -1.0273 576.6724)" cx="392.816" cy="289.037" rx="0.532" ry="1.13"/>
		<ellipse transform="matrix(-0.3179 0.9481 -0.9481 -0.3179 879.0834 -58.7437)" cx="460.673" cy="286.85" rx="0.531" ry="1.129"/>
		<ellipse transform="matrix(0.2103 0.9776 -0.9776 0.2103 628.867 -199.3898)" cx="437.856" cy="289.574" rx="0.532" ry="1.128"/>
		
			<ellipse transform="matrix(-0.1644 0.9864 -0.9864 -0.1644 798.8082 -111.9586)" cx="446.826" cy="282.367" rx="0.532" ry="1.128"/>
		
			<ellipse transform="matrix(-0.1646 0.9864 -0.9864 -0.1646 829.5328 -109.9619)" cx="461.332" cy="296.298" rx="0.531" ry="1.129"/>
		<ellipse transform="matrix(0.057 0.9984 -0.9984 0.057 744.7421 -203.9927)" cx="480.356" cy="292.24" rx="0.531" ry="1.129"/>
		<ellipse transform="matrix(-0.1673 0.9859 -0.9859 -0.1673 842.6198 -122.6766)" cx="473.116" cy="294.5" rx="0.531" ry="1.129"/>
		
			<ellipse transform="matrix(-0.3881 0.9216 -0.9216 -0.3881 959.1457 -42.9221)" cx="493.822" cy="296.948" rx="0.532" ry="1.128"/>
		<ellipse transform="matrix(0.046 -0.9989 0.9989 0.046 72.8435 667.7393)" cx="386.017" cy="295.732" rx="0.531" ry="1.13"/>
		<ellipse transform="matrix(-0.4682 -0.8836 0.8836 -0.4682 344.308 780.9742)" cx="407.151" cy="286.884" rx="0.531" ry="1.128"/>
		
			<ellipse transform="matrix(-0.1102 -0.9939 0.9939 -0.1102 150.2367 727.1188)" cx="400.586" cy="296.312" rx="0.532" ry="1.129"/>
		<ellipse transform="matrix(-0.1107 -0.9939 0.9939 -0.1107 140.0896 699.0983)" cx="382.826" cy="286.872" rx="0.532" ry="1.13"/>
		<ellipse transform="matrix(-0.3272 -0.945 0.945 -0.3272 205.5339 738.2438)" cx="365.577" cy="295.953" rx="0.533" ry="1.129"/>
		
			<ellipse transform="matrix(-0.1081 -0.9941 0.9941 -0.1081 122.0701 693.0854)" cx="371.933" cy="291.786" rx="0.533" ry="1.128"/>
		<ellipse transform="matrix(0.1227 -0.9924 0.9924 0.1227 15.4278 607.5792)" cx="351.367" cy="295.063" rx="0.531" ry="1.13"/>
		<ellipse transform="matrix(0.0459 -0.9989 0.9989 0.0459 -7.1091 589.6472)" cx="305.123" cy="298.545" rx="0.532" ry="1.129"/>
		<ellipse transform="matrix(-0.4693 -0.883 0.883 -0.4693 223.6259 713.7505)" cx="326.28" cy="289.68" rx="0.531" ry="1.128"/>
		<ellipse transform="matrix(-0.1107 -0.9939 0.9939 -0.1107 57.8644 649.9323)" cx="319.717" cy="299.077" rx="0.532" ry="1.129"/>
		<ellipse transform="matrix(-0.1105 -0.9939 0.9939 -0.1105 47.4038 621.7056)" cx="301.914" cy="289.64" rx="0.533" ry="1.129"/>
		<ellipse transform="matrix(-0.3267 -0.9451 0.9451 -0.3267 95.3563 665.4208)" cx="284.702" cy="298.744" rx="0.531" ry="1.129"/>
		<ellipse transform="matrix(-0.1087 -0.9941 0.9941 -0.1087 29.8196 615.9161)" cx="291.037" cy="294.589" rx="0.532" ry="1.128"/>
		<ellipse transform="matrix(0.1232 -0.9924 0.9924 0.1232 -58.4542 529.5804)" cx="270.482" cy="297.872" rx="0.533" ry="1.129"/>
		
			<ellipse transform="matrix(-0.1381 0.9904 -0.9904 -0.1381 663.9976 -10.9765)" cx="336.775" cy="283.417" rx="0.532" ry="1.129"/>
		<ellipse transform="matrix(0.384 0.9233 -0.9233 0.384 461.9528 -111.951)" cx="314.882" cy="290.25" rx="0.531" ry="1.128"/>
		<ellipse transform="matrix(0.017 0.9999 -0.9999 0.017 598.306 -45.5773)" cx="322.332" cy="281.492" rx="0.532" ry="1.128"/>
		<ellipse transform="matrix(0.017 0.9999 -0.9999 0.017 625.875 -51.5006)" cx="339.129" cy="292.551" rx="0.532" ry="1.128"/>
		<ellipse transform="matrix(0.2377 0.9713 -0.9713 0.2377 549.17 -129.5618)" cx="357.128" cy="285.092" rx="0.532" ry="1.129"/>
		<ellipse transform="matrix(0.0147 0.9999 -0.9999 0.0147 633.9449 -65.9763)" cx="350.448" cy="288.665" rx="0.533" ry="1.129"/>
		<ellipse transform="matrix(-0.2134 0.977 -0.977 -0.2134 731.1493 -14.0386)" cx="371.226" cy="287.327" rx="0.532" ry="1.128"/>
	</g>
</g>
</svg>
