<?xml version="1.0" encoding="utf-8"?>
<!-- Generator: Adobe Illustrator 13.0.0, SVG Export Plug-In . SVG Version: 6.00 Build 14948)  -->
<!DOCTYPE svg PUBLIC "-//W3C//DTD SVG 1.1//EN" "http://www.w3.org/Graphics/SVG/1.1/DTD/svg11.dtd">
<svg version="1.1" id="Layer_1" xmlns="http://www.w3.org/2000/svg" xmlns:xlink="http://www.w3.org/1999/xlink" x="0px" y="0px"
	 width="800px" height="600px" viewBox="0 0 800 600" enable-background="new 0 0 800 600" xml:space="preserve">
<g id="baseColor1">
	<path fill="#FFFFFF" d="M353.324,280.142c18.614-90.74,74.454-163.642,120.987-163.642c62.045,0,105.476,66.698,120.986,163.642
		c14.278,89.242-54.167,163.642-120.986,163.642C407.492,443.784,335.164,368.677,353.324,280.142z"/>
</g>
<g id="shading1">
	<path fill="#E8E8E8" d="M380.468,204.913c-5.816,20.553-16.545,87.509-4.912,118.919c17.114,46.208,58.573,79.766,90.999,84.795
		c50.023,7.756,122.15-42.398,130.424-88.932c-1.682,32.573-46.275,133.008-131.975,122.926
		c-45.296-5.329-99.424-49.866-111.033-105.346C341.69,278.591,377.366,205.301,380.468,204.913z"/>
</g>
<g id="Outline1">
	<path fill="none" stroke="#000000" d="M353.324,280.142c18.614-90.74,74.454-163.642,120.987-163.642
		c62.045,0,105.476,66.698,120.986,163.642c14.278,89.242-54.167,163.642-120.986,163.642
		C407.492,443.784,335.164,368.677,353.324,280.142z"/>
</g>
<g id="baseColor2">
	<path fill="#FFFFFF" d="M315.188,451.056c91.833,12.119,179-16.776,194.231-60.745c20.314-58.624-28.491-121.5-115.016-167.893
		c-79.65-42.707-172.358-2.391-194.234,60.749C178.297,346.301,225.585,439.232,315.188,451.056z"/>
</g>
<g id="shading2">
	<path fill="#E8E8E8" d="M494.475,413.28c-50.624,14.796-155.735,14.778-206.564-10.761c-44.03-22.123-72.87-57.651-80.908-92.667
		c-8.343-36.355,6.382-67.392-8.779-17.514c-13.264,43.638,14.315,110.698,63.191,139.4
		C318.051,464.997,441.737,463.433,494.475,413.28z"/>
</g>
<g id="Outline2">
	<path fill="none" stroke="#000000" d="M311.411,449.892c91.409,14.987,179.437-11.166,196.039-54.639
		c22.136-57.96-24.675-122.332-109.708-171.408c-78.273-45.178-172.199-7.782-196.039,54.641
		C177.865,340.905,222.224,435.27,311.411,449.892z"/>
</g>
<rect x="102.104" y="2.529" fill="none" stroke="#000000" stroke-width="3" width="593.971" height="593.971"/>
</svg>
