<?xml version="1.0" encoding="utf-8"?>
<!-- Generator: Adobe Illustrator 13.0.0, SVG Export Plug-In . SVG Version: 6.00 Build 14948)  -->
<!DOCTYPE svg PUBLIC "-//W3C//DTD SVG 1.1//EN" "http://www.w3.org/Graphics/SVG/1.1/DTD/svg11.dtd">
<svg version="1.1" id="Layer_1" xmlns="http://www.w3.org/2000/svg" xmlns:xlink="http://www.w3.org/1999/xlink" x="0px" y="0px"
	 width="800px" height="600px" viewBox="0 0 800 600" enable-background="new 0 0 800 600" xml:space="preserve">
<rect x="101.104" y="1.529" fill="none" stroke="#000000" stroke-width="3" width="593.971" height="593.971"/>
<g>
	<path fill="#FFF0B3" d="M268.36,285.427c-5.058,10.778-18.442,35.183-28.833,41.863c-8.256,5.312-19.26,7.278-28.482,10.099
		c-12.433,3.797-25.08,7.682-37.791,10.579c-5.223,1.19-20.345,6.544-25.537,3.888c-4.487-2.297-31.053-53.667-25.731-67.526
		c2.92-7.612,34.608-32.737,42.864-35.906c17.561-6.744,79.279-11.4,85.434-8.438C260.18,244.741,270.611,280.626,268.36,285.427z"
		/>
	<path fill="#A67C52" d="M132.928,308.945c6.98,1.488,91.636,8.834,101.77,4.97c12.109-4.62,34.859-31.036,33.665-28.487
		c-5.06,10.778-18.442,35.181-28.833,41.863c-8.256,5.312-19.26,7.279-28.482,10.098c-12.433,3.799-25.08,7.684-37.791,10.582
		c-5.223,1.188-20.344,6.545-25.535,3.885c-4.488-2.295-31.053-53.667-25.731-67.524
		C122.383,283.295,127.793,307.852,132.928,308.945z"/>
	<path fill="none" stroke="#000000" d="M268.36,285.427c-5.058,10.778-18.442,35.183-28.833,41.863
		c-8.256,5.312-19.26,7.278-28.482,10.099c-12.433,3.797-25.08,7.682-37.791,10.579c-5.223,1.19-20.345,6.544-25.537,3.888
		c-4.487-2.297-31.053-53.667-25.731-67.526c2.92-7.612,34.608-32.737,42.864-35.906c17.561-6.744,79.279-11.4,85.434-8.438
		C260.18,244.741,270.611,280.626,268.36,285.427z"/>
</g>
<g>
	<path fill="#FFF0B3" d="M374.034,237.664c0.746,9.226-1.094,11.081-8.921,13.745c-24.603,8.382-49.902,13.28-75.907,15.055
		c-12.862,0.873-26.14,2.049-39.028,0.999c-8.109-0.659-11.926-26.489-13.062-35.083c-1.567-11.855-6.301-30.078-1.983-41.646
		c4.262-11.426,25.821-20.886,37.318-24.669c14.436-4.748,19.332-4.051,33.782,1.778c21.461,8.653,55.005,25.093,63.457,38.79
		C374.864,217.009,373.58,232.014,374.034,237.664z"/>
	<path fill="#A67C52" d="M374.034,237.664c0.746,9.226-1.094,11.081-8.921,13.745c-24.603,8.382-49.902,13.28-75.907,15.055
		c-12.862,0.873-26.14,2.049-39.028,0.999c-8.109-0.659-11.926-26.489-13.062-35.083c-1.567-11.855-6.301-30.078-1.983-41.646
		c-3.27,12.746,3.562,33.816,8.826,37.35c5.268,3.535,108.011,2.992,117.013-1.27c4.295-2.036,8.202-13.697,8.721-20.183
		C374.864,217.009,373.58,232.014,374.034,237.664z"/>
	<path fill="none" stroke="#000000" d="M374.034,237.664c0.746,9.226-1.094,11.081-8.921,13.745
		c-24.603,8.382-49.902,13.28-75.907,15.055c-12.862,0.873-26.14,2.049-39.028,0.999c-8.109-0.659-11.926-26.489-13.062-35.083
		c-1.567-11.855-6.301-30.078-1.983-41.646c4.262-11.426,25.821-20.886,37.318-24.669c14.436-4.748,19.332-4.051,33.782,1.778
		c21.461,8.653,55.005,25.093,63.457,38.79C374.864,217.009,373.58,232.014,374.034,237.664z"/>
</g>
<g>
	<path fill="#FFF0B3" d="M333.883,298.326c-0.383,9.247-2.436,10.863-10.529,12.555c-25.441,5.32-51.149,7.1-77.176,5.686
		c-12.875-0.697-26.193-1.148-38.856-3.762c-7.972-1.641-8.608-27.745-8.69-36.412c-0.111-11.959-2.586-30.623,3.106-41.58
		c5.624-10.822,28.176-17.583,40.047-19.936c14.906-2.954,19.683-1.663,33.317,5.881c20.246,11.205,51.537,31.608,58.256,46.235
		C337.223,277.927,334.12,292.664,333.883,298.326z"/>
	<path fill="#A67C52" d="M333.883,298.326c-0.383,9.247-2.436,10.863-10.529,12.555c-25.441,5.32-51.149,7.1-77.176,5.686
		c-12.875-0.697-26.193-1.148-38.856-3.762c-7.972-1.641-8.608-27.745-8.69-36.412c-0.111-11.959-2.586-30.623,3.106-41.58
		c-4.798,12.252-0.584,33.998,4.209,38.149c4.796,4.149,106.842,16.137,116.294,13.003c4.511-1.495,9.806-12.593,11.117-18.969
		C337.223,277.927,334.12,292.664,333.883,298.326z"/>
	<path fill="none" stroke="#000000" d="M333.883,298.326c-0.383,9.247-2.436,10.863-10.529,12.555
		c-25.441,5.32-51.149,7.1-77.176,5.686c-12.875-0.697-26.193-1.148-38.856-3.762c-7.972-1.641-8.608-27.745-8.69-36.412
		c-0.111-11.959-2.586-30.623,3.106-41.58c5.624-10.822,28.176-17.583,40.047-19.936c14.906-2.954,19.683-1.663,33.317,5.881
		c20.246,11.205,51.537,31.608,58.256,46.235C337.223,277.927,334.12,292.664,333.883,298.326z"/>
</g>
<g>
	<path fill="#FFF0B3" d="M196.822,313.532c7.027,9.614,24.836,31.001,36.314,35.573c9.121,3.631,20.297,3.453,29.889,4.457
		c12.929,1.348,26.087,2.742,39.117,3.152c5.354,0.169,21.22,2.529,25.805-1.07c3.966-3.117,20.208-58.621,12.333-71.207
		c-4.326-6.913-40.235-25.507-48.944-27.039c-18.527-3.258-79.996,3.987-85.47,8.072
		C197.064,272.036,193.693,309.252,196.822,313.532z"/>
	<path fill="#A67C52" d="M334.254,310.695c-6.568,2.799-88.25,26.213-98.937,24.356c-12.771-2.219-40.154-23.79-38.495-21.52
		c7.027,9.614,24.836,31.001,36.314,35.573c9.121,3.631,20.297,3.453,29.889,4.457c12.929,1.348,26.087,2.742,39.117,3.152
		c5.354,0.168,21.22,2.528,25.805-1.072c3.966-3.115,20.208-58.619,12.333-71.205C339.694,283.501,339.082,308.637,334.254,310.695z
		"/>
	<path fill="none" stroke="#000000" d="M196.822,313.532c7.027,9.614,24.836,31.001,36.314,35.573
		c9.121,3.631,20.297,3.453,29.889,4.457c12.929,1.348,26.087,2.742,39.117,3.152c5.354,0.169,21.22,2.529,25.805-1.07
		c3.966-3.117,20.208-58.621,12.333-71.207c-4.326-6.913-40.235-25.507-48.944-27.039c-18.527-3.258-79.996,3.987-85.47,8.072
		C197.064,272.036,193.693,309.252,196.822,313.532z"/>
</g>
<g>
	<path fill="#FFF0B3" d="M266.775,374.492c-1.071,9.193-3.237,10.652-11.436,11.74c-25.765,3.416-51.531,3.281-77.384-0.06
		c-12.788-1.653-26.038-3.095-38.472-6.639c-7.827-2.229-6.523-28.31-5.962-36.957c0.778-11.937-0.306-30.731,6.185-41.231
		c6.414-10.371,29.405-15.444,41.42-16.907c15.082-1.838,19.75-0.199,32.786,8.339c19.359,12.678,49.048,35.351,54.663,50.433
		C271.62,354.395,267.43,368.866,266.775,374.492z"/>
	<path fill="#A67C52" d="M266.775,374.492c-1.071,9.193-3.237,10.652-11.436,11.74c-25.765,3.416-51.531,3.281-77.384-0.06
		c-12.788-1.653-26.038-3.095-38.472-6.639c-7.827-2.229-6.523-28.31-5.962-36.957c0.778-11.937-0.306-30.731,6.185-41.231
		c-5.693,11.86-3.107,33.861,1.366,38.356c4.476,4.493,105.349,24.022,115.008,21.6c4.61-1.153,10.718-11.829,12.495-18.09
		C271.62,354.395,267.43,368.866,266.775,374.492z"/>
	<path fill="none" stroke="#000000" d="M266.775,374.492c-1.071,9.193-3.237,10.652-11.436,11.74
		c-25.765,3.416-51.531,3.281-77.384-0.06c-12.788-1.653-26.038-3.095-38.472-6.639c-7.827-2.229-6.523-28.31-5.962-36.957
		c0.778-11.937-0.306-30.731,6.185-41.231c6.414-10.371,29.405-15.444,41.42-16.907c15.082-1.838,19.75-0.199,32.786,8.339
		c19.359,12.678,49.048,35.351,54.663,50.433C271.62,354.395,267.43,368.866,266.775,374.492z"/>
</g>
<g>
	<path fill="#FFF0B3" d="M544.368,292.227c-11.485,3.14-38.741,8.779-50.567,5.205c-9.396-2.841-18.03-9.942-26.158-15.133
		c-10.954-7.001-22.115-14.107-32.562-21.904c-4.294-3.203-18.176-11.241-19.521-16.917c-1.161-4.905,20.711-58.443,34.711-63.379
		c7.686-2.713,47.361,5.112,55.131,9.34c16.521,8.994,60.093,52.953,61.831,59.557C570.03,259.616,549.48,290.828,544.368,292.227z"
		/>
	<path fill="#A67C52" d="M438.63,204.395c3.396,6.278,52.706,75.48,62.221,80.686c11.371,6.221,46.231,6.403,43.519,7.146
		c-11.484,3.14-38.741,8.779-50.566,5.205c-9.397-2.841-18.031-9.942-26.159-15.133c-10.954-7.001-22.115-14.107-32.562-21.904
		c-4.294-3.203-18.176-11.241-19.521-16.917c-1.161-4.905,20.711-58.443,34.711-63.379
		C451.315,179.732,436.135,199.776,438.63,204.395z"/>
	<path fill="none" stroke="#000000" d="M544.368,292.227c-11.485,3.14-38.741,8.779-50.567,5.205
		c-9.396-2.841-18.03-9.942-26.158-15.133c-10.954-7.001-22.115-14.107-32.562-21.904c-4.294-3.203-18.176-11.241-19.521-16.917
		c-1.161-4.905,20.711-58.443,34.711-63.379c7.686-2.713,47.361,5.112,55.131,9.34c16.521,8.994,60.093,52.953,61.831,59.557
		C570.03,259.616,549.48,290.828,544.368,292.227z"/>
</g>
<g>
	<path fill="#FFF0B3" d="M604.936,286.316c4.428,8.127,3.501,10.571-2.571,16.184c-19.082,17.646-40.214,32.393-63.259,44.572
		c-11.4,6.021-23.058,12.484-35.262,16.755c-7.678,2.694-21.651-19.363-26.178-26.757c-6.246-10.199-17.969-24.928-18.72-37.252
		c-0.743-12.172,15.12-29.571,24.09-37.696c11.265-10.199,16.022-11.551,31.597-12.092c23.125-0.805,60.455,0.602,73.739,9.69
		C597.309,267.104,602.228,281.339,604.936,286.316z"/>
	<path fill="#A67C52" d="M604.936,286.316c4.428,8.127,3.501,10.571-2.571,16.184c-19.082,17.646-40.214,32.393-63.259,44.572
		c-11.4,6.021-23.058,12.484-35.262,16.755c-7.678,2.694-21.651-19.363-26.178-26.757c-6.246-10.199-17.969-24.928-18.72-37.252
		c2.188,12.974,16.982,29.459,23.229,30.551c6.247,1.09,99.925-41.113,106.421-48.662c3.1-3.604,1.936-15.847-0.224-21.985
		C597.309,267.104,602.228,281.339,604.936,286.316z"/>
	<path fill="none" stroke="#000000" d="M604.936,286.316c4.428,8.127,3.501,10.571-2.571,16.184
		c-19.082,17.646-40.214,32.393-63.259,44.572c-11.4,6.021-23.058,12.484-35.262,16.755c-7.678,2.694-21.651-19.363-26.178-26.757
		c-6.246-10.199-17.969-24.928-18.72-37.252c-0.743-12.172,15.12-29.571,24.09-37.696c11.265-10.199,16.022-11.551,31.597-12.092
		c23.125-0.805,60.455,0.602,73.739,9.69C597.309,267.104,602.228,281.339,604.936,286.316z"/>
</g>
<g>
	<path fill="#FFF0B3" d="M680.27,367.014c0.928,9.209-0.875,11.102-8.646,13.922c-24.431,8.869-49.625,14.271-75.592,16.562
		c-12.844,1.133-26.095,2.571-38.998,1.78c-8.126-0.495-12.452-26.248-13.762-34.814c-1.802-11.822-6.897-29.945-2.814-41.599
		c4.035-11.509,25.401-21.397,36.824-25.408c14.336-5.033,19.248-4.434,33.812,1.101c21.632,8.226,55.495,23.993,64.22,37.519
		C680.686,346.348,679.7,361.376,680.27,367.014z"/>
	<path fill="#A67C52" d="M680.27,367.014c0.928,9.209-0.875,11.102-8.646,13.922c-24.431,8.869-49.625,14.271-75.592,16.562
		c-12.844,1.133-26.095,2.571-38.998,1.78c-8.126-0.495-12.452-26.248-13.762-34.814c-1.802-11.822-6.897-29.945-2.814-41.599
		c-3.014,12.809,4.239,33.739,9.572,37.169c5.337,3.426,108.05,0.839,116.963-3.604c4.255-2.117,7.928-13.854,8.319-20.354
		C680.686,346.348,679.7,361.376,680.27,367.014z"/>
	<path fill="none" stroke="#000000" d="M680.27,367.014c0.928,9.209-0.875,11.102-8.646,13.922
		c-24.431,8.869-49.625,14.271-75.592,16.562c-12.844,1.133-26.095,2.571-38.998,1.78c-8.126-0.495-12.452-26.248-13.762-34.814
		c-1.802-11.822-6.897-29.945-2.814-41.599c4.035-11.509,25.401-21.397,36.824-25.408c14.336-5.033,19.248-4.434,33.812,1.101
		c21.632,8.226,55.495,23.993,64.22,37.519C680.686,346.348,679.7,361.376,680.27,367.014z"/>
</g>
<g>
	<path fill="#FFF0B3" d="M498.442,282.89c-9.115,7.658-31.51,24.187-43.745,25.89c-9.727,1.354-20.538-1.482-30.091-2.796
		c-12.878-1.774-25.989-3.555-38.74-6.265c-5.239-1.11-21.209-2.602-24.808-7.193c-3.108-3.968-5.65-61.746,4.998-72.091
		c5.846-5.681,45.155-15.181,53.979-14.59c18.771,1.252,76.74,22.94,81.084,28.211C508.101,242.533,502.501,279.479,498.442,282.89z
		"/>
	<path fill="#A67C52" d="M365.651,247.374c5.71,4.283,79.458,46.493,90.278,47.237c12.931,0.895,44.664-13.53,42.513-11.72
		c-9.115,7.658-31.51,24.186-43.745,25.89c-9.727,1.354-20.538-1.481-30.091-2.797c-12.878-1.774-25.989-3.555-38.74-6.266
		c-5.239-1.11-21.209-2.601-24.808-7.192c-3.108-3.969-5.65-61.746,4.998-72.091C366.85,219.666,361.453,244.224,365.651,247.374z"
		/>
	<path fill="none" stroke="#000000" d="M498.442,282.89c-9.115,7.658-31.51,24.187-43.745,25.89
		c-9.727,1.354-20.538-1.482-30.091-2.796c-12.878-1.774-25.989-3.555-38.74-6.265c-5.239-1.11-21.209-2.602-24.808-7.193
		c-3.108-3.968-5.65-61.746,4.998-72.091c5.846-5.681,45.155-15.181,53.979-14.59c18.771,1.252,76.74,22.94,81.084,28.211
		C508.101,242.533,502.501,279.479,498.442,282.89z"/>
</g>
<g>
	<path fill="#FFF0B3" d="M291.604,298.722c2.953,8.771,5.377,9.75,13.621,9.113c25.914-2.007,51.092-7.483,75.685-16.112
		c12.17-4.271,24.83-8.427,36.261-14.472c7.193-3.805,0.512-29.047-1.835-37.392c-3.234-11.513-6.072-30.124-14.604-39.053
		c-8.422-8.817-31.966-9.006-44.023-7.948c-15.134,1.332-19.359,3.905-30.34,14.96c-16.309,16.417-40.649,44.753-43.012,60.675
		C282.696,280.07,289.793,293.351,291.604,298.722z"/>
	<path fill="#A67C52" d="M291.604,298.722c2.953,8.771,5.377,9.75,13.621,9.113c25.914-2.007,51.092-7.483,75.685-16.112
		c12.17-4.271,24.83-8.427,36.261-14.472c7.193-3.805,0.512-29.047-1.835-37.392c-3.234-11.513-6.072-30.124-14.604-39.053
		c8.033,10.422,10.065,32.479,6.623,37.805c-3.447,5.325-98.074,45.355-108.027,44.988c-4.75-0.172-12.938-9.348-15.973-15.105
		C282.696,280.07,289.793,293.351,291.604,298.722z"/>
	<path fill="none" stroke="#000000" d="M291.604,298.722c2.953,8.771,5.377,9.75,13.621,9.113
		c25.914-2.007,51.092-7.483,75.685-16.112c12.17-4.271,24.83-8.427,36.261-14.472c7.193-3.805,0.512-29.047-1.835-37.392
		c-3.234-11.513-6.072-30.124-14.604-39.053c-8.422-8.817-31.966-9.006-44.023-7.948c-15.134,1.332-19.359,3.905-30.34,14.96
		c-16.309,16.417-40.649,44.753-43.012,60.675C282.696,280.07,289.793,293.351,291.604,298.722z"/>
</g>
<g>
	<path fill="#FFF0B3" d="M394.618,386.023c9.824-6.728,31.755-23.867,36.678-35.196c3.916-9.005,4.083-20.183,5.38-29.739
		c1.746-12.881,3.548-25.989,4.358-39c0.337-5.346,3.185-21.132-0.272-25.83c-2.989-4.059-57.968-22.008-70.79-14.525
		c-7.041,4.107-26.735,39.427-28.534,48.085c-3.829,18.418,1.51,80.079,5.425,85.679
		C353.149,384.498,390.244,389.018,394.618,386.023z"/>
	<path fill="#A67C52" d="M396.029,248.571c2.592,6.651,23.471,89.019,21.287,99.642c-2.611,12.694-25.021,39.396-22.698,37.809
		c9.824-6.728,31.755-23.867,36.678-35.195c3.916-9.006,4.083-20.184,5.38-29.737c1.746-12.881,3.548-25.99,4.358-39.001
		c0.337-5.347,3.185-21.132-0.272-25.83c-2.989-4.059-57.968-22.008-70.79-14.525C369.016,242.292,394.123,243.68,396.029,248.571z"
		/>
	<path fill="none" stroke="#000000" d="M394.618,386.023c9.824-6.728,31.755-23.867,36.678-35.196
		c3.916-9.005,4.083-20.183,5.38-29.739c1.746-12.881,3.548-25.989,4.358-39c0.337-5.346,3.185-21.132-0.272-25.83
		c-2.989-4.059-57.968-22.008-70.79-14.525c-7.041,4.107-26.735,39.427-28.534,48.085c-3.829,18.418,1.51,80.079,5.425,85.679
		C353.149,384.498,390.244,389.018,394.618,386.023z"/>
</g>
<g>
	<path fill="#FFF0B3" d="M293.785,252.457c-9.169-1.268-11.125,0.465-14.23,8.127c-9.764,24.088-16.088,49.066-19.334,74.932
		c-1.604,12.793-3.53,25.979-3.215,38.905c0.196,8.136,25.769,13.409,34.283,15.033c11.748,2.239,29.672,7.997,41.467,4.346
		c11.649-3.606,22.318-24.596,26.747-35.856c5.559-14.143,5.14-19.073,0.145-33.832c-7.423-21.92-21.933-56.342-35.128-65.556
		C314.453,252.801,299.398,253.232,293.785,252.457z"/>
	<path fill="#A67C52" d="M293.785,252.457c-9.169-1.268-11.125,0.465-14.23,8.127c-9.764,24.088-16.088,49.066-19.334,74.932
		c-1.604,12.793-3.53,25.979-3.215,38.905c0.196,8.136,25.769,13.409,34.283,15.033c11.748,2.239,29.672,7.997,41.467,4.346
		c-12.91,2.539-33.559-5.478-36.789-10.935c-3.23-5.458,3.143-108.007,7.906-116.749c2.275-4.172,14.138-7.412,20.646-7.562
		C314.453,252.801,299.398,253.232,293.785,252.457z"/>
	<path fill="none" stroke="#000000" d="M293.785,252.457c-9.169-1.268-11.125,0.465-14.23,8.127
		c-9.764,24.088-16.088,49.066-19.334,74.932c-1.604,12.793-3.53,25.979-3.215,38.905c0.196,8.136,25.769,13.409,34.283,15.033
		c11.748,2.239,29.672,7.997,41.467,4.346c11.649-3.606,22.318-24.596,26.747-35.856c5.559-14.143,5.14-19.073,0.145-33.832
		c-7.423-21.92-21.933-56.342-35.128-65.556C314.453,252.801,299.398,253.232,293.785,252.457z"/>
</g>
<g>
	<path fill="#FFF0B3" d="M219.463,392.916c0.383,9.246,2.437,10.861,10.529,12.557c25.443,5.314,51.146,7.099,77.176,5.682
		c12.874-0.696,26.196-1.146,38.857-3.76c7.973-1.643,8.609-27.746,8.688-36.414c0.113-11.959,2.589-30.621-3.104-41.578
		c-5.623-10.821-28.175-17.584-40.048-19.938c-14.903-2.951-19.681-1.66-33.313,5.883c-20.249,11.205-51.539,31.609-58.257,46.235
		C216.122,372.518,219.227,387.254,219.463,392.916z"/>
	<path fill="#A67C52" d="M219.463,392.916c0.383,9.246,2.437,10.861,10.529,12.557c25.443,5.314,51.146,7.099,77.176,5.682
		c12.874-0.696,26.196-1.146,38.857-3.76c7.973-1.643,8.609-27.746,8.688-36.414c0.113-11.959,2.589-30.621-3.104-41.578
		c4.798,12.253,0.585,33.998-4.206,38.147c-4.798,4.15-106.845,16.136-116.296,13.005c-4.512-1.496-9.809-12.592-11.116-18.971
		C216.122,372.518,219.227,387.254,219.463,392.916z"/>
	<path fill="none" stroke="#000000" d="M219.463,392.916c0.383,9.246,2.437,10.861,10.529,12.557
		c25.443,5.314,51.146,7.099,77.176,5.682c12.874-0.696,26.196-1.146,38.857-3.76c7.973-1.643,8.609-27.746,8.688-36.414
		c0.113-11.959,2.589-30.621-3.104-41.578c-5.623-10.821-28.175-17.584-40.048-19.938c-14.903-2.951-19.681-1.66-33.313,5.883
		c-20.249,11.205-51.539,31.609-58.257,46.235C216.122,372.518,219.227,387.254,219.463,392.916z"/>
</g>
<g>
	<path fill="#FFF0B3" d="M379.071,304.938c-1.965,9.043-0.387,11.127,7.02,14.809c23.272,11.57,47.696,19.781,73.238,24.988
		c12.634,2.576,25.637,5.502,38.548,6.17c8.128,0.427,15.334-24.67,17.602-33.037c3.128-11.543,10.234-28.977,7.493-41.014
		c-2.709-11.891-22.822-24.129-33.718-29.402c-13.676-6.621-18.624-6.579-33.724-2.721c-22.42,5.729-57.849,17.574-68.044,30.028
		C380.991,284.355,380.272,299.4,379.071,304.938z"/>
	<path fill="#A67C52" d="M379.071,304.938c-1.965,9.043-0.387,11.127,7.02,14.809c23.272,11.57,47.696,19.781,73.238,24.988
		c12.634,2.576,25.637,5.502,38.548,6.17c8.128,0.427,15.334-24.67,17.602-33.037c3.128-11.543,10.234-28.977,7.493-41.014
		c1.55,13.065-8.019,33.045-13.705,35.853c-5.688,2.804-107.454-11.367-115.809-16.787c-3.987-2.585-6.312-14.664-5.969-21.161
		C380.991,284.355,380.272,299.4,379.071,304.938z"/>
	<path fill="none" stroke="#000000" d="M379.071,304.938c-1.965,9.043-0.387,11.127,7.02,14.809
		c23.272,11.57,47.696,19.781,73.238,24.988c12.634,2.576,25.637,5.502,38.548,6.17c8.128,0.427,15.334-24.67,17.602-33.037
		c3.128-11.543,10.234-28.977,7.493-41.014c-2.709-11.891-22.822-24.129-33.718-29.402c-13.676-6.621-18.624-6.579-33.724-2.721
		c-22.42,5.729-57.849,17.574-68.044,30.028C380.991,284.355,380.272,299.4,379.071,304.938z"/>
</g>
<g>
	<path fill="#FFF0B3" d="M322.461,377.391c9.115,7.657,31.51,24.188,43.745,25.889c9.728,1.355,20.539-1.479,30.091-2.797
		c12.878-1.772,25.989-3.555,38.741-6.265c5.238-1.11,21.211-2.601,24.808-7.192c3.107-3.969,5.649-61.746-4.998-72.09
		c-5.847-5.681-45.156-15.181-53.979-14.59c-18.771,1.254-76.741,22.941-81.083,28.211
		C312.804,337.032,318.403,373.979,322.461,377.391z"/>
	<path fill="#A67C52" d="M455.254,341.874c-5.711,4.283-79.459,46.492-90.276,47.237c-12.932,0.894-44.667-13.53-42.514-11.721
		c9.113,7.656,31.508,24.187,43.743,25.889c9.728,1.354,20.539-1.48,30.091-2.797c12.878-1.773,25.989-3.556,38.741-6.266
		c5.238-1.109,21.211-2.601,24.808-7.191c3.107-3.971,5.649-61.746-4.998-72.092C454.055,314.166,459.451,338.727,455.254,341.874z"
		/>
	<path fill="none" stroke="#000000" d="M322.461,377.391c9.115,7.657,31.51,24.188,43.745,25.889
		c9.728,1.355,20.539-1.479,30.091-2.797c12.878-1.772,25.989-3.555,38.741-6.265c5.238-1.11,21.211-2.601,24.808-7.192
		c3.107-3.969,5.649-61.746-4.998-72.09c-5.847-5.681-45.156-15.181-53.979-14.59c-18.771,1.254-76.741,22.941-81.083,28.211
		C312.804,337.032,318.403,373.979,322.461,377.391z"/>
</g>
<g>
	<path fill="#FFF0B3" d="M399.672,409.589c-9.116,7.66-31.511,24.186-43.747,25.892c-9.723,1.352-20.536-1.484-30.089-2.798
		c-12.878-1.775-25.988-3.555-38.74-6.265c-5.237-1.11-21.211-2.602-24.809-7.193c-3.107-3.969-5.65-61.746,4.998-72.091
		c5.848-5.683,45.156-15.181,53.98-14.592c18.768,1.251,76.739,22.942,81.083,28.212C409.329,369.23,403.73,406.18,399.672,409.589z
		"/>
	<path fill="#A67C52" d="M266.881,374.075c5.713,4.282,79.457,46.489,90.276,47.235c12.934,0.893,44.668-13.529,42.515-11.723
		c-9.116,7.66-31.511,24.188-43.746,25.894c-9.724,1.352-20.537-1.484-30.09-2.798c-12.878-1.777-25.988-3.555-38.74-6.264
		c-5.237-1.11-21.211-2.602-24.809-7.196c-3.107-3.967-5.65-61.745,4.998-72.088C268.078,346.366,262.682,370.924,266.881,374.075z"
		/>
	<path fill="none" stroke="#000000" d="M399.672,409.589c-9.116,7.66-31.511,24.186-43.747,25.892
		c-9.723,1.352-20.536-1.484-30.089-2.798c-12.878-1.775-25.988-3.555-38.74-6.265c-5.237-1.11-21.211-2.602-24.809-7.193
		c-3.107-3.969-5.65-61.746,4.998-72.091c5.848-5.683,45.156-15.181,53.98-14.592c18.768,1.251,76.739,22.942,81.083,28.212
		C409.329,369.23,403.73,406.18,399.672,409.589z"/>
</g>
<g>
	<path fill="#FFF0B3" d="M512.443,399.518c-0.384,9.248-2.438,10.864-10.53,12.559c-25.44,5.318-51.148,7.097-77.174,5.687
		c-12.876-0.699-26.195-1.148-38.858-3.762c-7.97-1.646-8.608-27.746-8.69-36.414c-0.111-11.957-2.588-30.62,3.105-41.58
		c5.622-10.817,28.176-17.581,40.048-19.934c14.904-2.953,19.683-1.665,33.314,5.882c20.246,11.203,51.539,31.609,58.255,46.234
		C515.783,379.12,512.681,393.855,512.443,399.518z"/>
	<path fill="#A67C52" d="M512.443,399.518c-0.384,9.248-2.438,10.864-10.53,12.559c-25.44,5.318-51.148,7.097-77.174,5.687
		c-12.876-0.699-26.195-1.148-38.858-3.762c-7.97-1.646-8.608-27.746-8.69-36.414c-0.111-11.957-2.588-30.62,3.105-41.58
		c-4.797,12.255-0.586,34.001,4.209,38.151c4.796,4.15,106.843,16.134,116.294,13.001c4.512-1.495,9.808-12.591,11.114-18.968
		C515.783,379.12,512.681,393.855,512.443,399.518z"/>
	<path fill="none" stroke="#000000" d="M512.443,399.518c-0.384,9.248-2.438,10.864-10.53,12.559
		c-25.44,5.318-51.148,7.097-77.174,5.687c-12.876-0.699-26.195-1.148-38.858-3.762c-7.97-1.646-8.608-27.746-8.69-36.414
		c-0.111-11.957-2.588-30.62,3.105-41.58c5.622-10.817,28.176-17.581,40.048-19.934c14.904-2.953,19.683-1.665,33.314,5.882
		c20.246,11.203,51.539,31.609,58.255,46.234C515.783,379.12,512.681,393.855,512.443,399.518z"/>
</g>
<g>
	<path fill="#FFF0B3" d="M467.337,392.836c8.194,8.641,28.578,27.59,40.542,30.664c9.513,2.439,20.573,0.846,30.215,0.619
		c12.995-0.312,26.224-0.601,39.199-1.853c5.33-0.513,21.369-0.188,25.46-4.346c3.538-3.594,12.586-60.713,3.177-72.194
		c-5.169-6.307-43.154-20.181-51.988-20.591c-18.791-0.877-78.839,14.13-83.748,18.878
		C462.298,351.646,463.688,388.99,467.337,392.836z"/>
	<path fill="#A67C52" d="M603.291,372.539c-6.16,3.611-84.201,37.225-95.035,36.743c-12.951-0.575-42.854-18.486-40.919-16.446
		c8.193,8.641,28.578,27.59,40.542,30.664c9.513,2.439,20.573,0.846,30.215,0.619c12.995-0.312,26.224-0.601,39.199-1.853
		c5.33-0.513,21.369-0.188,25.46-4.346c3.538-3.594,12.585-60.713,3.177-72.194C605.227,344.873,607.816,369.884,603.291,372.539z"
		/>
	<path fill="none" stroke="#000000" d="M467.337,392.836c8.194,8.641,28.578,27.59,40.542,30.664
		c9.513,2.439,20.573,0.846,30.215,0.619c12.995-0.312,26.224-0.601,39.199-1.853c5.33-0.513,21.369-0.188,25.46-4.346
		c3.538-3.594,12.586-60.713,3.177-72.194c-5.169-6.307-43.154-20.181-51.988-20.591c-18.791-0.877-78.839,14.13-83.748,18.878
		C462.298,351.646,463.688,388.99,467.337,392.836z"/>
</g>
</svg>
