<?xml version="1.0" encoding="utf-8"?>
<!-- Generator: Adobe Illustrator 13.0.0, SVG Export Plug-In . SVG Version: 6.00 Build 14948)  -->
<!DOCTYPE svg PUBLIC "-//W3C//DTD SVG 1.1//EN" "http://www.w3.org/Graphics/SVG/1.1/DTD/svg11.dtd">
<svg version="1.1" id="Layer_1" xmlns="http://www.w3.org/2000/svg" xmlns:xlink="http://www.w3.org/1999/xlink" x="0px" y="0px"
	 width="800px" height="600px" viewBox="0 0 800 600" enable-background="new 0 0 800 600" xml:space="preserve">
<g>
	<path fill="#F4D471" d="M269.648,270.428c-5.059,10.777-18.442,35.181-28.833,41.863c-8.256,5.312-19.26,7.279-28.483,10.098
		c-12.433,3.799-25.08,7.684-37.79,10.579c-5.222,1.191-20.344,6.546-25.536,3.888c-4.488-2.297-31.053-53.667-25.732-67.524
		c2.92-7.611,34.607-32.737,42.864-35.905c17.562-6.744,79.279-11.4,85.434-8.438C261.468,229.742,271.9,265.627,269.648,270.428z"
		/>
	<path fill="#A67C52" d="M134.217,293.947c6.98,1.488,91.635,8.835,101.769,4.969c12.11-4.619,34.859-31.035,33.664-28.486
		c-5.059,10.777-18.442,35.181-28.833,41.863c-8.256,5.312-19.26,7.279-28.483,10.098c-12.432,3.799-25.08,7.685-37.79,10.582
		c-5.222,1.188-20.344,6.545-25.536,3.885c-4.487-2.293-31.053-53.664-25.731-67.522
		C123.67,268.296,129.081,292.852,134.217,293.947z"/>
	<path fill="none" stroke="#000000" d="M269.648,270.428c-5.059,10.777-18.442,35.181-28.833,41.863
		c-8.256,5.312-19.26,7.279-28.483,10.098c-12.433,3.799-25.08,7.684-37.79,10.579c-5.222,1.191-20.344,6.546-25.536,3.888
		c-4.488-2.297-31.053-53.667-25.732-67.524c2.92-7.611,34.607-32.737,42.864-35.905c17.562-6.744,79.279-11.4,85.434-8.438
		C261.468,229.742,271.9,265.627,269.648,270.428z"/>
</g>
<g>
	<path fill="#F4D471" d="M375.323,222.666c0.747,9.225-1.094,11.08-8.921,13.743c-24.603,8.382-49.901,13.281-75.907,15.056
		c-12.863,0.873-26.14,2.049-39.028,0.999c-8.11-0.658-11.927-26.489-13.062-35.083c-1.567-11.855-6.301-30.077-1.983-41.646
		c4.262-11.426,25.822-20.885,37.319-24.669c14.435-4.748,19.332-4.05,33.783,1.778c21.461,8.653,55.005,25.093,63.457,38.791
		C376.153,202.01,374.869,217.016,375.323,222.666z"/>
	<path fill="#A67C52" d="M375.323,222.666c0.747,9.225-1.094,11.08-8.921,13.743c-24.603,8.382-49.901,13.281-75.907,15.056
		c-12.863,0.873-26.14,2.049-39.028,0.999c-8.11-0.658-11.927-26.489-13.062-35.083c-1.567-11.855-6.301-30.077-1.983-41.646
		c-3.269,12.747,3.561,33.816,8.827,37.35c5.267,3.536,108.01,2.992,117.013-1.27c4.294-2.035,8.203-13.696,8.721-20.182
		C376.153,202.01,374.869,217.016,375.323,222.666z"/>
	<path fill="none" stroke="#000000" d="M375.323,222.666c0.747,9.225-1.094,11.08-8.921,13.743
		c-24.603,8.382-49.901,13.281-75.907,15.056c-12.863,0.873-26.14,2.049-39.028,0.999c-8.11-0.658-11.927-26.489-13.062-35.083
		c-1.567-11.855-6.301-30.077-1.983-41.646c4.262-11.426,25.822-20.885,37.319-24.669c14.435-4.748,19.332-4.05,33.783,1.778
		c21.461,8.653,55.005,25.093,63.457,38.791C376.153,202.01,374.869,217.016,375.323,222.666z"/>
</g>
<g>
	<path fill="#F4D471" d="M335.172,283.328c-0.384,9.248-2.436,10.862-10.53,12.555c-25.441,5.319-51.148,7.1-77.175,5.688
		c-12.874-0.697-26.194-1.149-38.857-3.761c-7.971-1.641-8.609-27.746-8.69-36.413c-0.112-11.96-2.588-30.623,3.106-41.579
		c5.624-10.822,28.176-17.584,40.047-19.936c14.906-2.954,19.683-1.663,33.317,5.881c20.247,11.205,51.537,31.609,58.256,46.235
		C338.511,262.929,335.408,277.665,335.172,283.328z"/>
	<path fill="#A67C52" d="M335.172,283.328c-0.384,9.248-2.436,10.862-10.53,12.555c-25.441,5.319-51.148,7.1-77.175,5.688
		c-12.874-0.697-26.194-1.149-38.857-3.761c-7.971-1.641-8.609-27.746-8.69-36.413c-0.112-11.96-2.588-30.623,3.106-41.579
		c-4.798,12.252-0.584,33.997,4.208,38.148c4.796,4.15,106.842,16.137,116.294,13.004c4.511-1.495,9.807-12.595,11.117-18.97
		C338.511,262.929,335.408,277.665,335.172,283.328z"/>
	<path fill="none" stroke="#000000" d="M335.172,283.328c-0.384,9.248-2.436,10.862-10.53,12.555
		c-25.441,5.319-51.148,7.1-77.175,5.688c-12.874-0.697-26.194-1.149-38.857-3.761c-7.971-1.641-8.609-27.746-8.69-36.413
		c-0.112-11.96-2.588-30.623,3.106-41.579c5.624-10.822,28.176-17.584,40.047-19.936c14.906-2.954,19.683-1.663,33.317,5.881
		c20.247,11.205,51.537,31.609,58.256,46.235C338.511,262.929,335.408,277.665,335.172,283.328z"/>
</g>
<g>
	<path fill="#F4D471" d="M198.111,298.534c7.027,9.614,24.836,31.001,36.314,35.575c9.121,3.631,20.298,3.451,29.889,4.455
		c12.929,1.349,26.088,2.742,39.117,3.153c5.354,0.167,21.22,2.526,25.805-1.071c3.966-3.117,20.208-58.619,12.333-71.207
		c-4.326-6.914-40.236-25.508-48.944-27.039c-18.527-3.258-79.996,3.987-85.469,8.072
		C198.353,257.038,194.982,294.253,198.111,298.534z"/>
	<path fill="#A67C52" d="M335.542,295.696c-6.568,2.799-88.25,26.212-98.937,24.356c-12.771-2.217-40.155-23.789-38.495-21.519
		c7.027,9.615,24.836,31.001,36.314,35.574c9.121,3.632,20.298,3.453,29.889,4.457c12.929,1.348,26.088,2.742,39.117,3.152
		c5.354,0.167,21.22,2.526,25.805-1.07c3.966-3.119,20.208-58.62,12.333-71.208C340.984,268.502,340.371,293.639,335.542,295.696z"
		/>
	<path fill="none" stroke="#000000" d="M198.111,298.534c7.027,9.614,24.836,31.001,36.314,35.575
		c9.121,3.631,20.298,3.451,29.889,4.455c12.929,1.349,26.088,2.742,39.117,3.153c5.354,0.167,21.22,2.526,25.805-1.071
		c3.966-3.117,20.208-58.619,12.333-71.207c-4.326-6.914-40.236-25.508-48.944-27.039c-18.527-3.258-79.996,3.987-85.469,8.072
		C198.353,257.038,194.982,294.253,198.111,298.534z"/>
</g>
<g>
	<path fill="#F4D471" d="M268.064,359.493c-1.071,9.194-3.237,10.653-11.435,11.741c-25.765,3.414-51.531,3.279-77.384-0.061
		c-12.788-1.65-26.038-3.093-38.471-6.639c-7.828-2.229-6.524-28.309-5.962-36.957c0.778-11.936-0.306-30.731,6.184-41.233
		c6.414-10.369,29.405-15.442,41.42-16.905c15.081-1.838,19.75-0.199,32.786,8.338c19.359,12.679,49.047,35.352,54.663,50.434
		C272.909,339.396,268.718,353.867,268.064,359.493z"/>
	<path fill="#A67C52" d="M268.064,359.493c-1.071,9.194-3.237,10.653-11.435,11.741c-25.765,3.414-51.531,3.279-77.384-0.061
		c-12.788-1.65-26.038-3.093-38.471-6.639c-7.828-2.229-6.524-28.309-5.962-36.957c0.778-11.936-0.306-30.731,6.184-41.233
		c-5.693,11.862-3.108,33.863,1.367,38.359c4.476,4.493,105.349,24.022,115.008,21.599c4.61-1.154,10.718-11.832,12.495-18.092
		C272.909,339.396,268.718,353.867,268.064,359.493z"/>
	<path fill="none" stroke="#000000" d="M268.064,359.493c-1.071,9.194-3.237,10.653-11.435,11.741
		c-25.765,3.414-51.531,3.279-77.384-0.061c-12.788-1.65-26.038-3.093-38.471-6.639c-7.828-2.229-6.524-28.309-5.962-36.957
		c0.778-11.936-0.306-30.731,6.184-41.233c6.414-10.369,29.405-15.442,41.42-16.905c15.081-1.838,19.75-0.199,32.786,8.338
		c19.359,12.679,49.047,35.352,54.663,50.434C272.909,339.396,268.718,353.867,268.064,359.493z"/>
</g>
<g>
	<path fill="#F4D471" d="M545.656,277.229c-11.484,3.14-38.741,8.778-50.566,5.204c-9.396-2.84-18.031-9.941-26.158-15.132
		c-10.955-7.001-22.115-14.106-32.562-21.904c-4.293-3.203-18.176-11.241-19.521-16.917c-1.159-4.905,20.713-58.442,34.713-63.38
		c7.687-2.712,47.361,5.112,55.13,9.341c16.522,8.994,60.094,52.954,61.832,59.558C571.319,244.617,550.77,275.829,545.656,277.229z
		"/>
	<path fill="#A67C52" d="M439.918,189.395c3.396,6.279,52.706,75.481,62.221,80.687c11.371,6.221,46.232,6.403,43.519,7.146
		c-11.485,3.14-38.741,8.778-50.567,5.204c-9.396-2.84-18.031-9.941-26.158-15.132c-10.953-7.001-22.114-14.106-32.562-21.904
		c-4.293-3.203-18.176-11.241-19.521-16.917c-1.16-4.905,20.712-58.442,34.712-63.38
		C452.604,164.732,437.424,184.777,439.918,189.395z"/>
	<path fill="none" stroke="#000000" d="M545.656,277.229c-11.484,3.14-38.741,8.778-50.566,5.204
		c-9.396-2.84-18.031-9.941-26.158-15.132c-10.955-7.001-22.115-14.106-32.562-21.904c-4.293-3.203-18.176-11.241-19.521-16.917
		c-1.159-4.905,20.713-58.442,34.713-63.38c7.687-2.712,47.361,5.112,55.13,9.341c16.522,8.994,60.094,52.954,61.832,59.558
		C571.319,244.617,550.77,275.829,545.656,277.229z"/>
</g>
<g>
	<path fill="#F4D471" d="M606.225,271.318c4.427,8.127,3.5,10.571-2.571,16.184c-19.082,17.646-40.215,32.393-63.261,44.571
		c-11.398,6.021-23.057,12.485-35.26,16.756c-7.678,2.694-21.651-19.363-26.178-26.757c-6.246-10.2-17.969-24.929-18.721-37.254
		c-0.742-12.171,15.121-29.571,24.092-37.695c11.264-10.198,16.021-11.551,31.596-12.092c23.125-0.805,60.455,0.602,73.738,9.69
		C598.596,252.105,603.516,266.34,606.225,271.318z"/>
	<path fill="#A67C52" d="M606.225,271.318c4.427,8.127,3.5,10.571-2.571,16.184c-19.082,17.646-40.215,32.393-63.261,44.571
		c-11.398,6.021-23.057,12.485-35.26,16.756c-7.678,2.694-21.651-19.363-26.178-26.757c-6.246-10.2-17.969-24.929-18.721-37.254
		c2.188,12.975,16.982,29.459,23.23,30.552c6.248,1.089,99.924-41.114,106.42-48.662c3.1-3.604,1.938-15.847-0.224-21.986
		C598.596,252.105,603.516,266.34,606.225,271.318z"/>
	<path fill="none" stroke="#000000" d="M606.225,271.318c4.427,8.127,3.5,10.571-2.571,16.184
		c-19.082,17.646-40.215,32.393-63.261,44.571c-11.398,6.021-23.057,12.485-35.26,16.756c-7.678,2.694-21.651-19.363-26.178-26.757
		c-6.246-10.2-17.969-24.929-18.721-37.254c-0.742-12.171,15.121-29.571,24.092-37.695c11.264-10.198,16.021-11.551,31.596-12.092
		c23.125-0.805,60.455,0.602,73.738,9.69C598.596,252.105,603.516,266.34,606.225,271.318z"/>
</g>
<g>
	<path fill="#F4D471" d="M681.557,352.014c0.929,9.209-0.875,11.104-8.646,13.922c-24.431,8.873-49.624,14.271-75.591,16.564
		c-12.846,1.132-26.096,2.57-38.999,1.779c-8.124-0.495-12.451-26.246-13.761-34.814c-1.803-11.822-6.897-29.947-2.814-41.602
		c4.035-11.507,25.401-21.396,36.824-25.406c14.335-5.033,19.247-4.434,33.812,1.102c21.629,8.227,55.494,23.993,64.219,37.518
		C681.975,331.348,680.989,346.377,681.557,352.014z"/>
	<path fill="#A67C52" d="M681.557,352.014c0.929,9.209-0.875,11.104-8.646,13.922c-24.431,8.873-49.624,14.271-75.591,16.564
		c-12.846,1.132-26.096,2.57-38.999,1.779c-8.124-0.495-12.451-26.246-13.761-34.814c-1.803-11.822-6.897-29.947-2.814-41.602
		c-3.014,12.811,4.238,33.74,9.572,37.169c5.336,3.427,108.051,0.841,116.963-3.603c4.254-2.117,7.928-13.854,8.318-20.354
		C681.975,331.348,680.989,346.377,681.557,352.014z"/>
	<path fill="none" stroke="#000000" d="M681.557,352.014c0.929,9.209-0.875,11.104-8.646,13.922
		c-24.431,8.873-49.624,14.271-75.591,16.564c-12.846,1.132-26.096,2.57-38.999,1.779c-8.124-0.495-12.451-26.246-13.761-34.814
		c-1.803-11.822-6.897-29.947-2.814-41.602c4.035-11.507,25.401-21.396,36.824-25.406c14.335-5.033,19.247-4.434,33.812,1.102
		c21.629,8.227,55.494,23.993,64.219,37.518C681.975,331.348,680.989,346.377,681.557,352.014z"/>
</g>
<g>
	<path fill="#F4D471" d="M499.731,267.892c-9.115,7.657-31.511,24.187-43.745,25.891c-9.727,1.354-20.538-1.482-30.091-2.797
		c-12.878-1.773-25.989-3.555-38.741-6.265c-5.239-1.11-21.209-2.604-24.807-7.194c-3.108-3.968-5.65-61.745,4.998-72.091
		c5.847-5.681,45.157-15.181,53.978-14.59c18.771,1.253,76.741,22.94,81.084,28.212C509.389,227.534,503.79,264.48,499.731,267.892z
		"/>
	<path fill="#A67C52" d="M366.94,232.374c5.71,4.284,79.458,46.493,90.276,47.237c12.933,0.894,44.666-13.529,42.515-11.72
		c-9.115,7.657-31.511,24.186-43.745,25.891c-9.727,1.354-20.538-1.482-30.091-2.799c-12.878-1.773-25.989-3.553-38.741-6.265
		c-5.239-1.11-21.209-2.602-24.807-7.192c-3.108-3.97-5.65-61.745,4.998-72.091C368.138,204.667,362.741,229.226,366.94,232.374z"/>
	<path fill="none" stroke="#000000" d="M499.731,267.892c-9.115,7.657-31.511,24.187-43.745,25.891
		c-9.727,1.354-20.538-1.482-30.091-2.797c-12.878-1.773-25.989-3.555-38.741-6.265c-5.239-1.11-21.209-2.604-24.807-7.194
		c-3.108-3.968-5.65-61.745,4.998-72.091c5.847-5.681,45.157-15.181,53.978-14.59c18.771,1.253,76.741,22.94,81.084,28.212
		C509.389,227.534,503.79,264.48,499.731,267.892z"/>
</g>
<g>
	<path fill="#F4D471" d="M292.892,283.724c2.953,8.77,5.377,9.75,13.621,9.113c25.914-2.008,51.092-7.483,75.686-16.112
		c12.168-4.27,24.83-8.427,36.26-14.472c7.192-3.805,0.512-29.048-1.835-37.393c-3.235-11.513-6.073-30.124-14.604-39.053
		c-8.421-8.817-31.965-9.006-44.022-7.948c-15.135,1.332-19.361,3.905-30.341,14.96c-16.309,16.417-40.65,44.753-43.012,60.676
		C283.984,265.071,291.082,278.352,292.892,283.724z"/>
	<path fill="#A67C52" d="M292.892,283.724c2.953,8.77,5.377,9.75,13.621,9.113c25.914-2.008,51.092-7.483,75.686-16.112
		c12.168-4.27,24.83-8.427,36.26-14.472c7.192-3.805,0.512-29.048-1.835-37.393c-3.235-11.513-6.073-30.124-14.604-39.053
		c8.035,10.422,10.066,32.48,6.623,37.804c-3.447,5.325-98.073,45.355-108.026,44.988c-4.75-0.171-12.938-9.348-15.974-15.104
		C283.984,265.071,291.082,278.352,292.892,283.724z"/>
	<path fill="none" stroke="#000000" d="M292.892,283.724c2.953,8.77,5.377,9.75,13.621,9.113
		c25.914-2.008,51.092-7.483,75.686-16.112c12.168-4.27,24.83-8.427,36.26-14.472c7.192-3.805,0.512-29.048-1.835-37.393
		c-3.235-11.513-6.073-30.124-14.604-39.053c-8.421-8.817-31.965-9.006-44.022-7.948c-15.135,1.332-19.361,3.905-30.341,14.96
		c-16.309,16.417-40.65,44.753-43.012,60.676C283.984,265.071,291.082,278.352,292.892,283.724z"/>
</g>
<g>
	<path fill="#F4D471" d="M395.907,371.023c9.823-6.728,31.756-23.866,36.679-35.195c3.914-9.005,4.082-20.184,5.379-29.739
		c1.748-12.881,3.547-25.987,4.358-38.999c0.336-5.346,3.185-21.132-0.272-25.829c-2.99-4.059-57.967-22.009-70.791-14.526
		c-7.042,4.107-26.736,39.428-28.536,48.087c-3.828,18.417,1.511,80.079,5.425,85.678
		C354.438,369.499,391.532,374.02,395.907,371.023z"/>
	<path fill="#A67C52" d="M397.318,233.571c2.591,6.65,23.471,89.019,21.286,99.643c-2.611,12.694-25.02,39.396-22.697,37.81
		c9.823-6.729,31.756-23.867,36.679-35.197c3.914-9.008,4.082-20.184,5.379-29.736c1.748-12.881,3.547-25.99,4.358-39.001
		c0.336-5.348,3.185-21.132-0.272-25.83c-2.99-4.059-57.967-22.008-70.791-14.525C370.304,227.293,395.411,228.681,397.318,233.571z
		"/>
	<path fill="none" stroke="#000000" d="M395.907,371.023c9.823-6.728,31.756-23.866,36.679-35.195
		c3.914-9.005,4.082-20.184,5.379-29.739c1.748-12.881,3.547-25.987,4.358-38.999c0.336-5.346,3.185-21.132-0.272-25.829
		c-2.99-4.059-57.967-22.009-70.791-14.526c-7.042,4.107-26.736,39.428-28.536,48.087c-3.828,18.417,1.511,80.079,5.425,85.678
		C354.438,369.499,391.532,374.02,395.907,371.023z"/>
</g>
<g>
	<path fill="#F4D471" d="M295.073,237.458c-9.169-1.269-11.125,0.465-14.231,8.126c-9.762,24.09-16.088,49.067-19.334,74.932
		c-1.603,12.793-3.53,25.981-3.215,38.908c0.197,8.135,25.77,13.408,34.284,15.032c11.749,2.237,29.673,7.998,41.467,4.346
		c11.649-3.606,22.318-24.596,26.747-35.856c5.559-14.143,5.139-19.074,0.143-33.83c-7.421-21.921-21.93-56.344-35.127-65.558
		C315.741,237.804,300.687,238.233,295.073,237.458z"/>
	<path fill="#A67C52" d="M295.073,237.458c-9.169-1.269-11.125,0.465-14.231,8.126c-9.762,24.09-16.088,49.067-19.334,74.932
		c-1.603,12.793-3.53,25.981-3.215,38.908c0.197,8.135,25.77,13.408,34.284,15.032c11.749,2.237,29.673,7.998,41.467,4.346
		c-12.91,2.54-33.559-5.476-36.789-10.935c-3.23-5.458,3.142-108.007,7.907-116.748c2.274-4.172,14.137-7.412,20.644-7.562
		C315.741,237.804,300.687,238.233,295.073,237.458z"/>
	<path fill="none" stroke="#000000" d="M295.073,237.458c-9.169-1.269-11.125,0.465-14.231,8.126
		c-9.762,24.09-16.088,49.067-19.334,74.932c-1.603,12.793-3.53,25.981-3.215,38.908c0.197,8.135,25.77,13.408,34.284,15.032
		c11.749,2.237,29.673,7.998,41.467,4.346c11.649-3.606,22.318-24.596,26.747-35.856c5.559-14.143,5.139-19.074,0.143-33.83
		c-7.421-21.921-21.93-56.344-35.127-65.558C315.741,237.804,300.687,238.233,295.073,237.458z"/>
</g>
<g>
	<path fill="#F4D471" d="M220.751,377.917c0.384,9.246,2.437,10.862,10.53,12.556c25.442,5.316,51.146,7.1,77.174,5.685
		c12.875-0.697,26.197-1.147,38.858-3.761c7.973-1.642,8.609-27.744,8.69-36.412c0.113-11.963,2.588-30.623-3.105-41.578
		c-5.624-10.823-28.176-17.586-40.049-19.938c-14.904-2.951-19.681-1.66-33.313,5.882c-20.249,11.205-51.538,31.609-58.257,46.237
		C217.411,357.518,220.515,372.255,220.751,377.917z"/>
	<path fill="#A67C52" d="M220.751,377.917c0.384,9.246,2.437,10.862,10.53,12.556c25.442,5.316,51.146,7.1,77.174,5.685
		c12.875-0.697,26.197-1.147,38.858-3.761c7.973-1.642,8.609-27.744,8.69-36.412c0.113-11.963,2.588-30.623-3.105-41.578
		c4.797,12.251,0.584,33.996-4.208,38.146c-4.797,4.148-106.844,16.137-116.295,13.004c-4.511-1.496-9.808-12.594-11.116-18.971
		C217.411,357.518,220.515,372.255,220.751,377.917z"/>
	<path fill="none" stroke="#000000" d="M220.751,377.917c0.384,9.246,2.437,10.862,10.53,12.556
		c25.442,5.316,51.146,7.1,77.174,5.685c12.875-0.697,26.197-1.147,38.858-3.761c7.973-1.642,8.609-27.744,8.69-36.412
		c0.113-11.963,2.588-30.623-3.105-41.578c-5.624-10.823-28.176-17.586-40.049-19.938c-14.904-2.951-19.681-1.66-33.313,5.882
		c-20.249,11.205-51.538,31.609-58.257,46.237C217.411,357.518,220.515,372.255,220.751,377.917z"/>
</g>
<g>
	<path fill="#F4D471" d="M380.36,289.938c-1.964,9.044-0.386,11.128,7.02,14.809c23.273,11.571,47.696,19.782,73.238,24.989
		c12.634,2.574,25.638,5.5,38.548,6.171c8.129,0.428,15.333-24.673,17.602-33.037c3.128-11.543,10.236-28.976,7.492-41.014
		c-2.709-11.891-22.822-24.128-33.717-29.402c-13.677-6.621-18.623-6.579-33.724-2.721c-22.42,5.729-57.848,17.573-68.043,30.027
		C382.28,269.356,381.562,284.401,380.36,289.938z"/>
	<path fill="#A67C52" d="M380.36,289.938c-1.964,9.044-0.386,11.128,7.02,14.809c23.273,11.571,47.696,19.782,73.238,24.989
		c12.634,2.574,25.638,5.5,38.548,6.171c8.129,0.428,15.333-24.673,17.602-33.037c3.128-11.543,10.236-28.976,7.492-41.014
		c1.551,13.065-8.018,33.046-13.705,35.853c-5.688,2.805-107.453-11.366-115.808-16.785c-3.988-2.586-6.314-14.665-5.969-21.162
		C382.28,269.356,381.562,284.401,380.36,289.938z"/>
	<path fill="none" stroke="#000000" d="M380.36,289.938c-1.964,9.044-0.386,11.128,7.02,14.809
		c23.273,11.571,47.696,19.782,73.238,24.989c12.634,2.574,25.638,5.5,38.548,6.171c8.129,0.428,15.333-24.673,17.602-33.037
		c3.128-11.543,10.236-28.976,7.492-41.014c-2.709-11.891-22.822-24.128-33.717-29.402c-13.677-6.621-18.623-6.579-33.724-2.721
		c-22.42,5.729-57.848,17.573-68.043,30.027C382.28,269.356,381.562,284.401,380.36,289.938z"/>
</g>
<g>
	<path fill="#F4D471" d="M323.749,362.393c9.115,7.656,31.509,24.187,43.745,25.89c9.725,1.354,20.538-1.48,30.09-2.798
		c12.878-1.772,25.988-3.555,38.74-6.265c5.239-1.11,21.211-2.601,24.809-7.192c3.107-3.969,5.65-61.744-4.998-72.091
		c-5.847-5.681-45.155-15.181-53.979-14.59c-18.77,1.254-76.74,22.941-81.083,28.212
		C314.093,322.034,319.692,358.98,323.749,362.393z"/>
	<path fill="#A67C52" d="M456.543,326.875c-5.712,4.283-79.458,46.492-90.278,47.236c-12.931,0.894-44.667-13.529-42.513-11.721
		c9.114,7.657,31.508,24.188,43.744,25.891c9.725,1.355,20.538-1.48,30.09-2.797c12.878-1.773,25.989-3.555,38.74-6.266
		c5.239-1.109,21.211-2.601,24.809-7.191c3.107-3.971,5.649-61.745-4.998-72.092C455.344,299.166,460.74,323.727,456.543,326.875z"
		/>
	<path fill="none" stroke="#000000" d="M323.749,362.393c9.115,7.656,31.509,24.187,43.745,25.89
		c9.725,1.354,20.538-1.48,30.09-2.798c12.878-1.772,25.988-3.555,38.74-6.265c5.239-1.11,21.211-2.601,24.809-7.192
		c3.107-3.969,5.65-61.744-4.998-72.091c-5.847-5.681-45.155-15.181-53.979-14.59c-18.77,1.254-76.74,22.941-81.083,28.212
		C314.093,322.034,319.692,358.98,323.749,362.393z"/>
</g>
<g>
	<path fill="#F4D471" d="M400.961,394.59c-9.117,7.659-31.511,24.186-43.747,25.892c-9.723,1.352-20.537-1.484-30.089-2.798
		c-12.878-1.776-25.989-3.555-38.74-6.265c-5.238-1.11-21.211-2.604-24.809-7.194c-3.108-3.968-5.65-61.748,4.998-72.091
		c5.847-5.683,45.156-15.18,53.98-14.591c18.769,1.251,76.74,22.941,81.083,28.211C410.616,354.232,405.018,391.182,400.961,394.59z
		"/>
	<path fill="#A67C52" d="M268.167,359.076c5.713,4.283,79.458,46.489,90.277,47.235c12.933,0.895,44.667-13.527,42.515-11.721
		c-9.117,7.66-31.511,24.186-43.746,25.892c-9.723,1.352-20.538-1.484-30.089-2.798c-12.878-1.776-25.989-3.555-38.741-6.265
		c-5.238-1.11-21.211-2.602-24.809-7.194c-3.108-3.968-5.65-61.745,4.998-72.09C269.365,331.367,263.969,355.925,268.167,359.076z"
		/>
	<path fill="none" stroke="#000000" d="M400.961,394.59c-9.117,7.659-31.511,24.186-43.747,25.892
		c-9.723,1.352-20.537-1.484-30.089-2.798c-12.878-1.776-25.989-3.555-38.74-6.265c-5.238-1.11-21.211-2.604-24.809-7.194
		c-3.108-3.968-5.65-61.748,4.998-72.091c5.847-5.683,45.156-15.18,53.98-14.591c18.769,1.251,76.74,22.941,81.083,28.211
		C410.616,354.232,405.018,391.182,400.961,394.59z"/>
</g>
<g>
	<path fill="#F4D471" d="M513.731,384.52c-0.384,9.248-2.437,10.865-10.529,12.557c-25.44,5.318-51.147,7.098-77.174,5.687
		c-12.875-0.698-26.196-1.148-38.859-3.761c-7.97-1.646-8.609-27.746-8.691-36.414c-0.111-11.957-2.588-30.619,3.106-41.578
		c5.623-10.818,28.174-17.58,40.047-19.935c14.905-2.953,19.684-1.664,33.315,5.882c20.247,11.204,51.538,31.609,58.255,46.234
		C517.071,364.121,513.969,378.855,513.731,384.52z"/>
	<path fill="#A67C52" d="M513.731,384.52c-0.384,9.248-2.437,10.865-10.529,12.557c-25.44,5.318-51.147,7.098-77.174,5.687
		c-12.875-0.698-26.196-1.148-38.859-3.761c-7.97-1.646-8.609-27.746-8.691-36.414c-0.111-11.957-2.588-30.619,3.106-41.578
		c-4.797,12.254-0.585,34.002,4.208,38.149c4.797,4.149,106.843,16.134,116.294,13.003c4.512-1.497,9.807-12.592,11.115-18.971
		C517.071,364.121,513.969,378.855,513.731,384.52z"/>
	<path fill="none" stroke="#000000" d="M513.731,384.52c-0.384,9.248-2.437,10.865-10.529,12.557
		c-25.44,5.318-51.147,7.098-77.174,5.687c-12.875-0.698-26.196-1.148-38.859-3.761c-7.97-1.646-8.609-27.746-8.691-36.414
		c-0.111-11.957-2.588-30.619,3.106-41.578c5.623-10.818,28.174-17.58,40.047-19.935c14.905-2.953,19.684-1.664,33.315,5.882
		c20.247,11.204,51.538,31.609,58.255,46.234C517.071,364.121,513.969,378.855,513.731,384.52z"/>
</g>
<g>
	<path fill="#F4D471" d="M468.627,377.837c8.192,8.642,28.577,27.589,40.543,30.664c9.51,2.44,20.571,0.845,30.213,0.619
		c12.996-0.312,26.223-0.601,39.198-1.853c5.33-0.513,21.37-0.188,25.462-4.346c3.536-3.592,12.584-60.713,3.176-72.195
		c-5.17-6.306-43.154-20.18-51.988-20.59c-18.791-0.876-78.838,14.131-83.748,18.879
		C463.588,336.646,464.977,373.99,468.627,377.837z"/>
	<path fill="#A67C52" d="M604.579,357.539c-6.159,3.611-84.198,37.225-95.034,36.744c-12.951-0.575-42.855-18.487-40.918-16.446
		c8.191,8.642,28.577,27.589,40.543,30.664c9.51,2.44,20.571,0.845,30.213,0.619c12.996-0.312,26.223-0.601,39.198-1.853
		c5.33-0.513,21.37-0.188,25.462-4.346c3.536-3.592,12.584-60.713,3.176-72.195C606.514,329.874,609.104,354.884,604.579,357.539z"
		/>
	<path fill="none" stroke="#000000" d="M468.627,377.837c8.192,8.642,28.577,27.589,40.543,30.664
		c9.51,2.44,20.571,0.845,30.213,0.619c12.996-0.312,26.223-0.601,39.198-1.853c5.33-0.513,21.37-0.188,25.462-4.346
		c3.536-3.592,12.584-60.713,3.176-72.195c-5.17-6.306-43.154-20.18-51.988-20.59c-18.791-0.876-78.838,14.131-83.748,18.879
		C463.588,336.646,464.977,373.99,468.627,377.837z"/>
</g>
<g>
	<g>
		<path fill="none" d="M232.403,260.912c0.278-0.278,0.556-0.557,0.834-0.834"/>
		<path d="M233.371,260.816c0.278-0.278,0.557-0.556,0.835-0.834c0.335-0.335-0.299-0.33-0.497-0.311
			c-0.444,0.043-1.109,0.169-1.441,0.502c-0.278,0.277-0.556,0.556-0.834,0.834c-0.334,0.336,0.298,0.331,0.498,0.311
			C232.375,261.275,233.039,261.149,233.371,260.816L233.371,260.816z"/>
	</g>
</g>
<g>
	<g>
		<path fill="none" d="M229.343,241.999c0-0.278,0.278-0.278,0.278-0.278"/>
		<path d="M230.413,241.85c-0.408,0.141-0.816,0.284-1.225,0.428c0.485-0.03,1.104-0.154,1.424-0.565
			c0.305-0.393-0.257-0.564-0.56-0.546c-0.607,0.038-1.652,0.255-1.781,0.985C228.141,242.895,230.296,242.513,230.413,241.85
			L230.413,241.85z"/>
	</g>
</g>
<g>
	<g>
		<path fill="none" d="M169.826,245.893c0.278,0,0.834,0.278,0.834,0.557"/>
		<path d="M169.423,246.562c-0.015-0.002,0.146,0.098,0.163,0.176c0.176,0.832,2.331,0.284,2.149-0.576
			c-0.133-0.634-0.951-0.882-1.506-0.937c-0.483-0.048-1.15,0.175-1.413,0.611C168.541,246.293,169.051,246.525,169.423,246.562
			L169.423,246.562z"/>
	</g>
</g>
<g>
	<g>
		<path fill="none" d="M176.223,267.865c0,0,0.278,0,0.278,0.278"/>
		<path d="M175.807,268.482c-0.258-0.211-0.386-0.227-0.38-0.05c0.131,0.746,2.291,0.226,2.149-0.576
			c-0.079-0.454-0.532-0.582-0.937-0.608c-0.476-0.028-1.138,0.179-1.417,0.589C174.927,268.274,175.47,268.461,175.807,268.482
			L175.807,268.482z"/>
	</g>
</g>
<g>
	<g>
		<path fill="none" d="M187.623,254.793"/>
		<path d="M187.518,255.545c1.203,0,1.671-1.504,0.209-1.504C186.525,254.041,186.057,255.545,187.518,255.545L187.518,255.545z"/>
	</g>
</g>
<g>
	<g>
		<path fill="none" d="M181.226,240.33c-0.278,0-0.556,0-0.834,0"/>
		<path d="M181.642,239.718c-0.278,0-0.556,0-0.834,0c-0.486,0-1.126,0.158-1.417,0.589c-0.286,0.419,0.241,0.637,0.584,0.637
			c0.278,0,0.556,0,0.834,0c0.486,0,1.126-0.161,1.418-0.587C182.512,239.938,181.987,239.718,181.642,239.718L181.642,239.718z"/>
	</g>
</g>
<g>
	<g>
		<path fill="none" d="M298.043,221.588c-0.25,0-0.25,0-0.25,0"/>
		<path d="M298.441,221.125c-0.083,0-0.167,0-0.25,0c-0.42,0-1,0.162-1.285,0.492c-0.299,0.348,0.257,0.435,0.488,0.435
			c0.083,0,0.167,0,0.25,0c0.42,0,1-0.162,1.285-0.492C299.229,221.212,298.672,221.125,298.441,221.125L298.441,221.125z"/>
	</g>
</g>
<g>
	<g>
		<path fill="none" d="M185.12,278.156c0.278,0,0.278,0.278,0.278,0.278"/>
		<path d="M184.735,278.891c0.039,0.008,0.078,0.016,0.117,0.021c-0.15-0.047-0.301-0.094-0.451-0.141
			c-0.134-0.089-0.086-0.182-0.078-0.048c0.032,0.517,0.948,0.478,1.257,0.394c0.472-0.125,0.925-0.442,0.892-0.97
			c-0.031-0.494-0.574-0.656-0.968-0.725c-0.487-0.085-1.171,0.191-1.405,0.639C183.841,278.554,184.325,278.819,184.735,278.891
			L184.735,278.891z"/>
	</g>
</g>
<g>
	<g>
		<path fill="none" d="M210.43,290.673c0.278,0,0.278,0.277,0.556,0.277"/>
		<path d="M209.547,291.091c0.197,0.033,0.329,0.238,0.556,0.278c0.497,0.086,1.056-0.062,1.503-0.274
			c0.152-0.072,0.76-0.475,0.262-0.562c-0.197-0.034-0.329-0.239-0.556-0.278c-0.496-0.087-1.056,0.062-1.502,0.274
			C209.657,290.601,209.05,291.005,209.547,291.091L209.547,291.091z"/>
	</g>
</g>
<g>
	<g>
		<path fill="none" d="M189.848,294.01c0.557-0.278,0.834-0.278,1.113-0.556"/>
		<path d="M190.313,294.605c0.561-0.267,1.066-0.441,1.539-0.862c0.378-0.34,0.165-0.846-0.264-0.984
			c-0.547-0.178-1.112,0.043-1.52,0.406c0.261-0.232,0.031-0.05-0.084-0.005c-0.204,0.081-0.404,0.161-0.602,0.255
			c-0.358,0.169-0.851,0.634-0.521,1.057C189.188,294.89,189.898,294.802,190.313,294.605L190.313,294.605z"/>
	</g>
</g>
<g>
	<g>
		<path fill="none" d="M301.293,254.588c-0.25,0-0.25,0-0.5-0.25"/>
		<path d="M301.926,254.221c0.025,0-0.159-0.141-0.221-0.201c-0.335-0.332-2.072,0.395-1.825,0.639
			c0.245,0.242,0.432,0.295,0.779,0.299c0.456,0.006,0.972-0.139,1.366-0.365C302.34,254.408,302.286,254.225,301.926,254.221
			L301.926,254.221z"/>
	</g>
</g>
<g>
	<g>
		<path fill="none" d="M242.975,219.193c0.278,0,0.278,0,0.278-0.278"/>
		<path d="M242.277,219.63c0.66-0.007,2.041-0.128,2.051-1.003c0.003-0.341-2.143-0.043-2.149,0.576
			c0.021,0.057,0.015,0.105-0.02,0.145c0.147-0.109,0.294-0.219,0.44-0.329c-0.015,0.007-0.032,0.017-0.048,0.024
			c0.362-0.097,0.723-0.193,1.085-0.29c0.012,0.001,0.023,0.002,0.035,0.003c-0.518,0.006-1.076,0.129-1.52,0.407
			C241.821,219.371,241.856,219.635,242.277,219.63L242.277,219.63z"/>
	</g>
</g>
<g>
	<g>
		<path fill="none" d="M219.612,217.803c0.278,0,0.556,0,0.834,0"/>
		<path d="M219.178,218.352c0.278,0,0.557,0,0.834,0c0.473,0,1.117-0.172,1.425-0.562c0.317-0.4-0.269-0.537-0.557-0.537
			c-0.278,0-0.556,0-0.834,0c-0.473,0-1.117,0.173-1.425,0.562C218.303,218.214,218.89,218.352,219.178,218.352L219.178,218.352z"/>
	</g>
</g>
<g>
	<g>
		<path fill="none" d="M258.272,209.459c0.278-0.278,0.556-0.278,0.556-0.278"/>
		<path d="M259.139,209.652c-0.487,0.109-0.637,0.158-0.451,0.146c0.409-0.024,1.112-0.287,1.216-0.748
			c0.115-0.5-0.643-0.508-0.936-0.49c-0.585,0.034-1.126,0.332-1.563,0.703c-0.354,0.303-0.219,0.699,0.212,0.796
			C258.138,210.176,258.74,209.992,259.139,209.652L259.139,209.652z"/>
	</g>
</g>
<g>
	<g>
		<path fill="none" d="M268.563,223.365c0.278,0,0.278,0.278,0.556,0.278"/>
		<path d="M268.183,224.115c0.039,0.006,0.079,0.014,0.117,0.021c-0.151-0.049-0.301-0.098-0.452-0.148
			c0.273,0.162,0.506,0.338,0.891,0.404c0.491,0.086,1.171-0.188,1.403-0.645c0.252-0.495-0.223-0.783-0.642-0.855
			c-0.039-0.006-0.08-0.012-0.117-0.021c0.151,0.05,0.302,0.099,0.452,0.148c-0.275-0.161-0.507-0.339-0.891-0.405
			c-0.49-0.086-1.17,0.188-1.403,0.645C267.288,223.756,267.763,224.041,268.183,224.115L268.183,224.115z"/>
	</g>
</g>
<g>
	<g>
		<path fill="none" d="M251.319,235.604c0.278,0,0.278,0,0.278,0.277"/>
		<path d="M250.933,236.33c0.066-0.004,0.13,0,0.196,0.01c-0.15-0.047-0.301-0.093-0.45-0.14c-0.055-0.074-0.11-0.147-0.165-0.222
			c0.012,1.064,2.178,0.682,2.168-0.197c-0.007-0.625-0.338-0.9-0.976-0.907c-0.512-0.005-1.142,0.14-1.405,0.636
			C250.063,235.957,250.503,236.325,250.933,236.33L250.933,236.33z"/>
	</g>
</g>
<g>
	<g>
		<path fill="none" d="M229.903,235.325c0-0.278,0-0.278,0.278-0.278"/>
		<path d="M230.979,235.037c-0.024-0.059-0.018-0.105,0.022-0.14c-0.146,0.114-0.292,0.229-0.438,0.343
			c0.017-0.008,0.032-0.017,0.047-0.024c-0.362,0.097-0.723,0.193-1.084,0.29c-0.012-0.002-0.024-0.004-0.037-0.006
			c0.522-0.006,1.076-0.117,1.52-0.407c0.326-0.214,0.297-0.503-0.134-0.498c-0.677,0.008-2.036,0.122-2.046,1.02
			C228.823,235.988,230.969,235.679,230.979,235.037L230.979,235.037z"/>
	</g>
</g>
<g>
	<g>
		<path fill="none" d="M270.788,170.52c0.278-0.278,0.278-0.278,0.556-0.556"/>
		<path d="M271.757,170.423c0.186-0.186,0.371-0.371,0.557-0.556c0.335-0.335-0.298-0.33-0.496-0.31
			c-0.443,0.044-1.109,0.17-1.441,0.502c-0.186,0.186-0.37,0.37-0.556,0.556c-0.335,0.334,0.297,0.329,0.496,0.309
			C270.76,170.881,271.425,170.756,271.757,170.423L271.757,170.423z"/>
	</g>
</g>
<g>
	<g>
		<path fill="none" d="M289.146,159.951"/>
		<path d="M288.719,160.531c0.764,0,2.301-1.161,0.853-1.161C288.807,159.37,287.269,160.531,288.719,160.531L288.719,160.531z"/>
	</g>
</g>
<g>
	<g>
		<path fill="none" d="M296.932,176.083c0.278,0.278,0.278,0.557,0.557,0.557"/>
		<path d="M295.927,176.479c0.306,0.356,0.389,0.586,0.887,0.679c0.488,0.091,1.134-0.109,1.519-0.407
			c0.358-0.275,0.246-0.555-0.167-0.632c-0.039-0.008-0.079-0.014-0.118-0.022c0.109,0.042,0.22,0.082,0.329,0.123
			c-0.187-0.13-0.29-0.363-0.437-0.535C297.516,175.196,295.468,175.944,295.927,176.479L295.927,176.479z"/>
	</g>
</g>
<g>
	<g>
		<path fill="none" d="M318.627,170.798"/>
		<path d="M318.229,171.481c0.902,0,2.25-1.367,0.797-1.367C318.124,170.114,316.775,171.481,318.229,171.481L318.229,171.481z"/>
	</g>
</g>
<g>
	<g>
		<path fill="none" d="M288.31,190.268c0.278,0,0.278,0,0.278,0"/>
		<path d="M287.877,190.818c0.092,0,0.185,0,0.278,0c0.474,0,1.117-0.172,1.424-0.563c0.315-0.4-0.268-0.538-0.559-0.538
			c-0.092,0-0.185,0-0.278,0c-0.474,0-1.117,0.172-1.424,0.562C287.004,190.679,287.588,190.818,287.877,190.818L287.877,190.818z"
			/>
	</g>
</g>
<g>
	<g>
		<path fill="none" d="M255.769,183.314c-0.556-0.278-1.112-0.556-1.668-0.556"/>
		<path d="M256.785,182.96c-0.646-0.323-1.252-0.568-1.978-0.607c-0.493-0.026-1.094,0.164-1.52,0.408
			c-0.364,0.21-0.277,0.38,0.109,0.401c0.479,0.025,0.94,0.297,1.359,0.505c0.377,0.188,1.013-0.03,1.375-0.156
			C256.185,183.491,257.101,183.117,256.785,182.96L256.785,182.96z"/>
	</g>
</g>
<g>
	<g>
		<path fill="none" d="M343.381,193.605c0.278,0,0.278,0,0.557,0"/>
		<path d="M342.989,194.306c0.184,0,0.369,0,0.556,0c0.505,0,1.135-0.141,1.408-0.625c0.247-0.438-0.209-0.778-0.623-0.778
			c-0.186,0-0.371,0-0.556,0c-0.505,0-1.136,0.141-1.408,0.625C342.119,193.966,342.574,194.306,342.989,194.306L342.989,194.306z"
			/>
	</g>
</g>
<g>
	<g>
		<path fill="none" d="M365.354,186.374c0.556,0,0.834,0,1.113,0"/>
		<path d="M364.967,187.098c0.371,0,0.741,0,1.112,0c0.512,0,1.137-0.137,1.406-0.634c0.236-0.442-0.204-0.815-0.632-0.815
			c-0.371,0-0.741,0-1.113,0c-0.512,0-1.137,0.137-1.406,0.635C364.098,186.725,364.537,187.098,364.967,187.098L364.967,187.098z"
			/>
	</g>
</g>
<g>
	<g>
		<path fill="none" d="M378.982,199.724c0.557,0.278,0.834,0.556,1.391,0.834"/>
		<path d="M378.143,200.306c0.481,0.254,0.912,0.582,1.391,0.834c0.477,0.251,1.102,0.144,1.534-0.157
			c0.316-0.221,0.619-0.759,0.144-1.008c-0.48-0.253-0.912-0.582-1.391-0.834c-0.478-0.251-1.102-0.144-1.535,0.157
			C377.971,199.518,377.668,200.057,378.143,200.306L378.143,200.306z"/>
	</g>
</g>
<g>
	<g>
		<path fill="none" d="M362.016,205.287c0.278-0.278,0.278-0.278,0.278-0.278"/>
		<path d="M362.902,205.551c0.092-0.092,0.186-0.186,0.278-0.278c0.347-0.346,0.202-0.802-0.251-0.938
			c-0.519-0.155-1.144,0.031-1.52,0.407c-0.092,0.093-0.186,0.186-0.278,0.278c-0.347,0.346-0.203,0.802,0.251,0.938
			C361.898,206.113,362.525,205.927,362.902,205.551L362.902,205.551z"/>
	</g>
</g>
<g>
	<g>
		<path fill="none" d="M336.984,210.85c0.278,0,0.556,0,0.834-0.278"/>
		<path d="M336.888,211.636c0.603-0.006,1.178-0.183,1.644-0.574c0.344-0.288,0.577-0.795,0.116-1.111
			c-0.432-0.296-1.152-0.198-1.541,0.13c0.011-0.009,0.334-0.021-0.026-0.018c-0.471,0.004-1.123,0.354-1.184,0.869
			C335.828,211.49,336.468,211.639,336.888,211.636L336.888,211.636z"/>
	</g>
</g>
<g>
	<g>
		<path fill="none" d="M377.035,236.438c0,0.278,0.278,0.278,0.278,0.278"/>
		<path d="M375.96,236.725c0.058,0.329,0.359,0.49,0.676,0.51c0.524,0.033,1.095-0.08,1.52-0.406
			c0.322-0.248,0.278-0.605-0.169-0.633c-0.004,0,0.153,0.13,0.12-0.047C378.002,235.536,375.84,236.043,375.96,236.725
			L375.96,236.725z"/>
	</g>
</g>
<g>
	<g>
		<path fill="none" d="M387.048,251.733c0.278,0.278,0.278,0.278,0.556,0.557"/>
		<path d="M386.038,252.108c0.186,0.186,0.371,0.371,0.556,0.557c0.413,0.414,2.393-0.376,2.021-0.749
			c-0.186-0.185-0.371-0.37-0.557-0.556C387.646,250.947,385.665,251.736,386.038,252.108L386.038,252.108z"/>
	</g>
</g>
<g>
	<g>
		<path fill="none" d="M370.081,257.019c-0.278,0.278-0.278,0.278-0.278,0.556"/>
		<path d="M369.217,256.835c-0.257,0.262-0.486,0.489-0.488,0.872c-0.01,0.91,2.145,0.456,2.152-0.264
			c-0.003-0.068,0-0.139,0.01-0.205c-0.098,0.122-0.077,0.112,0.058-0.035c0.312-0.316,0.257-0.676-0.209-0.775
			C370.255,256.325,369.572,256.477,369.217,256.835L369.217,256.835z"/>
	</g>
</g>
<g>
	<g>
		<path fill="none" d="M375.646,270.377c0.278,0.278,0.556,0.557,0.834,0.835"/>
		<path d="M374.644,270.788c0.278,0.278,0.556,0.557,0.834,0.834c0.504,0.505,2.53-0.291,2.002-0.818
			c-0.278-0.278-0.556-0.557-0.834-0.835C376.142,269.465,374.115,270.258,374.644,270.788L374.644,270.788z"/>
	</g>
</g>
<g>
	<g>
		<path fill="none" d="M322.521,255.628c0,0.278,0,0.278,0,0.278"/>
		<path d="M321.447,255.917c0,0.092,0,0.185,0,0.277c0,0.519,2.149,0.157,2.149-0.575c0-0.094,0-0.188,0-0.278
			C323.596,254.821,321.447,255.184,321.447,255.917L321.447,255.917z"/>
	</g>
</g>
<g>
	<g>
		<path fill="none" d="M333.09,272.872c0.278,0,0.278,0,0.278,0"/>
		<path d="M333.002,273.688c0.094,0,0.186,0,0.278,0c0.482,0,1.124-0.367,1.181-0.891c0.061-0.569-0.566-0.741-1.003-0.741
			c-0.094,0-0.186,0-0.278,0c-0.484,0-1.123,0.367-1.18,0.889C331.939,273.515,332.563,273.688,333.002,273.688L333.002,273.688z"/>
	</g>
</g>
<g>
	<g>
		<path fill="none" d="M319.739,279.547c-0.278,0.278-0.278,0.557-0.278,0.557"/>
		<path d="M318.869,279.334c-0.214,0.252-0.465,0.541-0.485,0.891c-0.058,0.951,2.109,0.541,2.156-0.241
			c0.005-0.087,0.011-0.15,0.071-0.222C321.454,278.771,319.375,278.738,318.869,279.334L318.869,279.334z"/>
	</g>
</g>
<g>
	<g>
		<path fill="none" d="M435.165,204.174c0.277,0,0.277,0,0.277,0"/>
		<path d="M434.774,204.887c0.093,0,0.187,0,0.278,0c0.51,0,1.136-0.139,1.406-0.629c0.242-0.44-0.205-0.797-0.627-0.797
			c-0.092,0-0.186,0-0.277,0c-0.51,0-1.137,0.139-1.406,0.629C433.907,204.53,434.352,204.887,434.774,204.887L434.774,204.887z"/>
	</g>
</g>
<g>
	<g>
		<path fill="none" d="M466.594,211.962c0.277,0,0.277,0,0.277,0"/>
		<path d="M466.202,212.667c0.091,0,0.185,0,0.277,0c0.506,0,1.136-0.14,1.407-0.626c0.246-0.439-0.209-0.785-0.625-0.785
			c-0.092,0-0.186,0-0.277,0c-0.507,0-1.137,0.141-1.409,0.627C465.333,212.32,465.784,212.667,466.202,212.667L466.202,212.667z"/>
	</g>
</g>
<g>
	<g>
		<path fill="none" d="M489.771,178.372c0.276,0,0.557,0,0.557-0.278"/>
		<path d="M489.344,178.947c0.674-0.007,1.899-0.172,2.056-0.998c0.146-0.771-2.015-0.398-2.144,0.291
			c0.313-0.147,0.627-0.295,0.942-0.441c-0.479,0.004-1.119,0.165-1.423,0.572C488.471,178.777,489.03,178.95,489.344,178.947
			L489.344,178.947z"/>
	</g>
</g>
<g>
	<g>
		<path fill="none" d="M513.969,185.325c0.277,0,0.277,0,0.277,0.278"/>
		<path d="M513.536,185.885c-0.063-0.011-0.125-0.023-0.188-0.034c-0.069-0.068-0.143-0.136-0.211-0.203
			c0.041,0.081,0.033,0.154,0.033,0.244c0.008,0.586,2.156,0.196,2.15-0.577c-0.006-0.512-0.504-0.543-0.922-0.55
			c-0.473-0.004-1.12,0.174-1.422,0.567C512.661,185.738,513.24,185.881,513.536,185.885L513.536,185.885z"/>
	</g>
</g>
<g>
	<g>
		<path fill="none" d="M502.286,194.782c0.558,0.278,0.834,0.556,1.392,0.556"/>
		<path d="M501.277,195.162c0.572,0.3,1.05,0.613,1.712,0.649c0.513,0.029,1.097-0.116,1.521-0.407
			c0.34-0.232,0.278-0.513-0.146-0.537c-0.396-0.022-0.724-0.282-1.067-0.463c-0.412-0.216-0.988-0.065-1.394,0.089
			C501.819,194.524,500.897,194.962,501.277,195.162L501.277,195.162z"/>
	</g>
</g>
<g>
	<g>
		<path fill="none" d="M510.633,209.244c0.276-0.277,0.276-0.277,0.556-0.277"/>
		<path d="M511.51,209.488c0.342-0.303,0.103-0.247-0.719,0.17c0.506-0.006,1.135-0.141,1.412-0.621
			c0.248-0.434-0.212-0.766-0.617-0.762c-0.74,0.008-1.303,0.201-1.832,0.727c-0.34,0.335-0.215,0.768,0.239,0.893
			C510.502,210.036,511.137,209.857,511.51,209.488L511.51,209.488z"/>
	</g>
</g>
<g>
	<g>
		<path fill="none" d="M480.036,248.739c0.277,0,0.277,0,0.556,0"/>
		<path d="M479.951,249.567c0.188,0,0.372,0,0.557,0c0.487,0,1.123-0.371,1.178-0.897c0.059-0.571-0.562-0.758-1.006-0.758
			c-0.187,0-0.371,0-0.558,0c-0.485,0-1.123,0.371-1.178,0.899C478.887,249.383,479.504,249.567,479.951,249.567L479.951,249.567z"
			/>
	</g>
</g>
<g>
	<g>
		<path fill="none" d="M446.104,252.355c0.556,0,0.835-0.278,1.111-0.557"/>
		<path d="M446.002,253.116c0.856-0.048,1.512-0.429,2.108-1.02c0.358-0.354,0.178-0.856-0.269-1.002
			c-0.531-0.178-1.135,0.024-1.52,0.406c-0.031,0.037-0.064,0.07-0.102,0.1c-0.275,0.236,0.104-0.013-0.017-0.006
			c-0.462,0.026-1.118,0.33-1.188,0.85C444.944,252.985,445.598,253.14,446.002,253.116L446.002,253.116z"/>
	</g>
</g>
<g>
	<g>
		<path fill="none" d="M473.082,263.202c0.278,0.278,0.557,0.557,1.112,0.835"/>
		<path d="M472.086,263.631c0.381,0.378,0.785,0.692,1.26,0.942c0.451,0.239,1.119,0.065,1.523-0.19
			c0.307-0.194,0.631-0.637,0.178-0.881c-0.375-0.197-0.672-0.43-0.969-0.726C473.521,262.221,471.483,263.031,472.086,263.631
			L472.086,263.631z"/>
	</g>
</g>
<g>
	<g>
		<path fill="none" d="M550.127,244.567"/>
		<path d="M549.713,245.191c0.821,0,2.281-1.247,0.827-1.247C549.719,243.944,548.26,245.191,549.713,245.191L549.713,245.191z"/>
	</g>
</g>
<g>
	<g>
		<path fill="none" d="M528.711,246.236c0.277,0,0.557,0,0.834-0.278"/>
		<path d="M528.004,246.639c0.866-0.009,1.83-0.217,2.508-0.788c0.367-0.31-0.33-0.297-0.488-0.279
			c-0.467,0.051-1.072,0.182-1.443,0.493c0.279-0.076,0.559-0.155,0.84-0.23c-0.512,0.005-1.078,0.155-1.521,0.405
			C527.551,246.438,527.602,246.642,528.004,246.639L528.004,246.639z"/>
	</g>
</g>
<g>
	<g>
		<path fill="none" d="M555.133,256.249c0.278,0.278,0.557,0.278,0.834,0.278"/>
		<path d="M554.137,256.684c0.43,0.36,0.863,0.498,1.422,0.502c0.496,0.005,1.138-0.154,1.414-0.606
			c0.267-0.436-0.223-0.71-0.603-0.714c-0.135-0.001-0.153,0.023-0.247-0.054c-0.395-0.336-0.988-0.257-1.434-0.064
			C554.453,255.856,553.741,256.352,554.137,256.684L554.137,256.684z"/>
	</g>
</g>
<g>
	<g>
		<path fill="none" d="M537.053,264.037c-0.276,0.278-0.276,0.278-0.276,0.278"/>
		<path d="M536.17,263.771c-0.095,0.094-0.187,0.185-0.279,0.278c-0.348,0.346-0.2,0.803,0.252,0.938
			c0.518,0.155,1.144-0.03,1.52-0.406c0.094-0.093,0.188-0.186,0.279-0.278c0.347-0.345,0.201-0.804-0.252-0.938
			C537.172,263.209,536.545,263.396,536.17,263.771L536.17,263.771z"/>
	</g>
</g>
<g>
	<g>
		<path fill="none" d="M520.366,260.143c0,0.278-0.278,0.278-0.278,0.278"/>
		<path d="M519.28,260.235c-0.004,0.001-0.007,0.001-0.01,0.001c0.106-0.117,0.212-0.234,0.317-0.352
			c0.643-0.157,0.844-0.226,0.604-0.209c-0.457,0.029-1.119,0.324-1.188,0.841c-0.076,0.536,0.584,0.678,0.979,0.656
			c0.656-0.041,1.35-0.437,1.469-1.119C521.635,259.018,519.442,259.321,519.28,260.235L519.28,260.235z"/>
	</g>
</g>
<g>
	<g>
		<path fill="none" d="M445.086,222.531c0.37,0,0.741,0,0.741,0.37"/>
		<path d="M444.641,223.041c0.117,0,0.093,0.006,0.113,0.148c0.076,0.562,2.24,0.094,2.148-0.576
			c-0.084-0.625-0.898-0.592-1.371-0.594c-0.465-0.003-1.111,0.182-1.43,0.545C443.764,222.951,444.389,223.041,444.641,223.041
			L444.641,223.041z"/>
	</g>
</g>
<g>
	<g>
		<path fill="none" d="M435.071,267.097c0.741,0,1.112,0,1.483,0"/>
		<path d="M434.62,267.579c0.494,0,0.99,0,1.481,0c0.464,0,1.107-0.188,1.435-0.534c0.349-0.371-0.301-0.431-0.528-0.431
			c-0.494,0-0.99,0-1.483,0c-0.462,0-1.106,0.188-1.433,0.534C433.741,267.52,434.393,267.579,434.62,267.579L434.62,267.579z"/>
	</g>
</g>
<g>
	<g>
		<path fill="none" d="M383.525,307.454c0.371,0,0.741,0,1.113,0.371"/>
		<path d="M383.074,307.938c0.236,0.002,0.387,0.119,0.556,0.271c0.471,0.414,2.428-0.403,2.016-0.765
			c-0.487-0.428-1.046-0.469-1.669-0.474c-0.46-0.003-1.109,0.188-1.433,0.533C382.195,307.878,382.847,307.938,383.074,307.938
			L383.074,307.938z"/>
	</g>
</g>
<g>
	<g>
		<path fill="none" d="M408.187,326.932c0.37,0,0.741,0,1.112,0"/>
		<path d="M407.801,327.654c0.371,0,0.742,0,1.112,0c0.513,0,1.138-0.137,1.406-0.635c0.235-0.439-0.203-0.812-0.633-0.812
			c-0.37,0-0.74,0-1.112,0c-0.512,0-1.137,0.137-1.404,0.635C406.93,327.284,407.37,327.654,407.801,327.654L407.801,327.654z"/>
	</g>
</g>
<g>
	<g>
		<path fill="none" d="M355.712,311.163c-0.372,0-0.372,0-0.372,0"/>
		<path d="M356.122,310.521c-0.124,0-0.25,0-0.372,0c-0.492,0-1.132,0.152-1.415,0.602c-0.273,0.426,0.229,0.682,0.596,0.682
			c0.124,0,0.248,0,0.372,0c0.492,0,1.132-0.154,1.415-0.6C356.991,310.775,356.489,310.521,356.122,310.521L356.122,310.521z"/>
	</g>
</g>
<g>
	<g>
		<path fill="none" d="M419.682,309.872c0.742-0.369,1.113-0.741,1.483-1.112"/>
		<path d="M420.327,310.107c0.695-0.363,1.272-0.822,1.826-1.375c0.369-0.368-0.312-0.504-0.545-0.496
			c-0.507,0.016-1.062,0.188-1.429,0.552c-0.348,0.348-0.703,0.626-1.139,0.854c-0.24,0.123-0.697,0.531-0.225,0.703
			C419.288,310.516,419.903,310.326,420.327,310.107L420.327,310.107z"/>
	</g>
</g>
<g>
	<g>
		<path fill="none" d="M453.428,320.693"/>
		<path d="M453.028,321.369c0.894,0,2.254-1.354,0.801-1.354C452.937,320.018,451.573,321.369,453.028,321.369L453.028,321.369z"/>
	</g>
</g>
<g>
	<g>
		<path fill="none" d="M465.668,324.707c0.741,0.371,1.112,0.74,1.854,0.74"/>
		<path d="M464.799,325.171c0.68,0.353,1.254,0.748,2.045,0.783c0.524,0.021,1.09-0.089,1.521-0.408
			c0.321-0.239,0.284-0.583-0.163-0.603c-0.623-0.025-1.127-0.422-1.662-0.7c-0.41-0.214-1.145,0.045-1.512,0.241
			C464.739,324.639,464.377,324.952,464.799,325.171L464.799,325.171z"/>
	</g>
</g>
<g>
	<g>
		<path fill="none" d="M476.975,326.432c0.742,0,1.113-0.371,1.484-0.371"/>
		<path d="M476.512,326.873c0.404-0.018,0.799-0.088,1.188-0.195c0.179-0.048,0.354-0.113,0.531-0.179
			c0.364-0.14,0.598-0.062-0.234,0.003c0.474-0.037,1.082-0.179,1.438-0.518c0.359-0.342-0.314-0.381-0.512-0.365
			c-0.391,0.029-0.75,0.129-1.121,0.246c-0.11,0.033-0.213,0.084-0.319,0.128c-0.405,0.165,0.517-0.025-0.044-0.002
			c-0.463,0.02-1.09,0.187-1.438,0.517C475.639,326.854,476.321,326.882,476.512,326.873L476.512,326.873z"/>
	</g>
</g>
<g>
	<g>
		<path fill="none" d="M512.577,333.479c0.371,0.371,0.371,0.371,0.742,0.742"/>
		<path d="M511.576,333.891c0.249,0.246,0.495,0.492,0.741,0.74c0.51,0.51,2.537-0.285,2.004-0.82
			c-0.25-0.248-0.494-0.496-0.742-0.742C513.067,332.561,511.041,333.354,511.576,333.891L511.576,333.891z"/>
	</g>
</g>
<g>
	<g>
		<path fill="none" d="M540.762,323.466c0.371,0,1.113-0.37,1.483-0.37"/>
		<path d="M540.62,324.076c0.488-0.034,1.183-0.346,1.484-0.371c0.405-0.027,1.11-0.28,1.218-0.741
			c0.116-0.491-0.646-0.502-0.934-0.479c-0.487,0.035-1.182,0.348-1.483,0.371c-0.406,0.028-1.11,0.28-1.218,0.742
			C539.571,324.09,540.334,324.1,540.62,324.076L540.62,324.076z"/>
	</g>
</g>
<g>
	<g>
		<path fill="none" d="M569.688,330.143c0.37,0,0.37,0,0.37-0.373"/>
		<path d="M569.237,330.629c0.556-0.003,1.09-0.143,1.565-0.432c0.302-0.182,0.328-0.396,0.33-0.719
			c0.004-0.447-2.146-0.115-2.149,0.578c0,0.098,0.01,0.135-0.035,0.207c0.076-0.082,0.151-0.164,0.229-0.252
			c-0.016,0.014-0.028,0.021-0.045,0.027c0.342-0.127,0.68-0.255,1.02-0.382c0.15-0.011,0.146-0.015-0.014-0.011
			c-0.463,0.002-1.105,0.186-1.433,0.535C568.362,330.562,569.006,330.63,569.237,330.629L569.237,330.629z"/>
	</g>
</g>
<g>
	<g>
		<path fill="none" d="M579.702,303.068c0.37,0,0.37,0,0.742,0"/>
		<path d="M579.596,303.82c0.248,0,0.494,0,0.742,0c0.455,0,1.121-0.346,1.189-0.844c0.077-0.554-0.585-0.658-0.98-0.658
			c-0.248,0-0.494,0-0.742,0c-0.457,0-1.123,0.344-1.189,0.842C578.538,303.715,579.202,303.82,579.596,303.82L579.596,303.82z"/>
	</g>
</g>
<g>
	<g>
		<path fill="none" d="M596.018,293.428c0.371,0,0.371,0,0.742,0"/>
		<path d="M595.621,294.112c0.248,0,0.493,0,0.741,0c0.502,0,1.136-0.146,1.412-0.619c0.253-0.435-0.216-0.75-0.615-0.75
			c-0.248,0-0.494,0-0.741,0c-0.502,0-1.136,0.146-1.412,0.618C594.754,293.797,595.221,294.112,595.621,294.112L595.621,294.112z"
			/>
	</g>
</g>
<g>
	<g>
		<path fill="none" d="M606.772,305.666c0.372,0,0.741,0.369,1.112,0.369"/>
		<path d="M606.116,306.257c0.392,0.044,0.713,0.323,1.113,0.369c0.528,0.06,1.108-0.038,1.52-0.407
			c0.312-0.279,0.263-0.721-0.209-0.773c-0.39-0.045-0.713-0.324-1.112-0.37c-0.529-0.06-1.108,0.038-1.521,0.409
			C605.596,305.764,605.646,306.202,606.116,306.257L606.116,306.257z"/>
	</g>
</g>
<g>
	<g>
		<path fill="none" d="M529.266,336.816c0.371,0,0.371,0,0.742,0"/>
		<path d="M528.881,337.541c0.246,0,0.491,0,0.741,0c0.513,0,1.138-0.137,1.405-0.635c0.236-0.441-0.203-0.813-0.632-0.813
			c-0.246,0-0.492,0-0.74,0c-0.513,0-1.138,0.138-1.406,0.636C528.01,337.168,528.45,337.541,528.881,337.541L528.881,337.541z"/>
	</g>
</g>
<g>
	<g>
		<path fill="none" d="M292.298,320.062c0.371,0,0.371,0,0.371,0"/>
		<path d="M292.215,320.891c0.122,0,0.249,0,0.371,0c0.487,0,1.122-0.373,1.178-0.898c0.057-0.573-0.562-0.758-1.008-0.758
			c-0.123,0-0.25,0-0.372,0c-0.487,0-1.122,0.371-1.177,0.898C291.149,320.704,291.764,320.891,292.215,320.891L292.215,320.891z"/>
	</g>
</g>
<g>
	<g>
		<path fill="none" d="M323.448,332.301c0.742,0,1.113-0.371,1.483-0.742"/>
		<path d="M323.358,333.105c1.023-0.045,1.773-0.517,2.477-1.217c0.368-0.367,0.16-0.904-0.286-1.068
			c-0.542-0.196-1.129,0.019-1.518,0.406c-0.189,0.189-0.25,0.258-0.488,0.271c-0.48,0.021-1.122,0.347-1.182,0.88
			C322.298,332.932,322.924,333.122,323.358,333.105L323.358,333.105z"/>
	</g>
</g>
<g>
	<g>
		<path fill="none" d="M305.278,330.816c0.371-0.371,0.371-0.74,0.741-1.112"/>
		<path d="M306.17,331.114c0.302-0.341,0.446-0.777,0.742-1.112c0.329-0.371,0.205-0.845-0.269-1.002
			c-0.504-0.167-1.165,0.009-1.517,0.407c-0.302,0.343-0.447,0.778-0.743,1.112c-0.328,0.371-0.204,0.845,0.27,1.002
			C305.157,331.689,305.817,331.516,306.17,331.114L306.17,331.114z"/>
	</g>
</g>
<g>
	<g>
		<path fill="none" d="M271.159,322.288c-0.742-0.371-1.112-0.371-1.483-0.371"/>
		<path d="M271.993,321.688c-0.737-0.354-1.397-0.519-2.211-0.521c-0.455,0-1.121,0.347-1.19,0.842
			c-0.078,0.556,0.586,0.655,0.98,0.657c-0.238-0.001,0.171,0.02,0.214,0.023c0.123,0.018,0.385,0.121,0.541,0.197
			c0.499,0.239,1.083,0.186,1.538-0.144C272.17,322.523,272.489,321.925,271.993,321.688L271.993,321.688z"/>
	</g>
</g>
<g>
	<g>
		<path fill="none" d="M285.622,335.639c0.371,0.369,0.742,0.369,0.742,0.369"/>
		<path d="M284.624,336.059c0.384,0.336,0.811,0.532,1.321,0.557c0.477,0.02,1.134-0.174,1.419-0.586
			c0.295-0.428-0.251-0.611-0.58-0.624c0.303,0.013,0.011-0.032-0.162-0.185C286.053,334.719,284.045,335.545,284.624,336.059
			L284.624,336.059z"/>
	</g>
</g>
<g>
	<g>
		<path fill="none" d="M237.413,301.893c0.37,0.371,0.37,0.371,0.742,0.371"/>
		<path d="M236.407,302.282c0.402,0.399,0.74,0.491,1.304,0.495c0.465,0.002,1.114-0.184,1.43-0.547
			c0.333-0.39-0.287-0.482-0.543-0.485c0.041,0.009,0.081,0.021,0.12,0.035c-0.111-0.069-0.209-0.191-0.3-0.28
			C237.96,301.044,235.954,301.83,236.407,302.282L236.407,302.282z"/>
	</g>
</g>
<g>
	<g>
		<path fill="none" d="M198.475,316.727c0,0-0.371,0.369-0.742,0.369"/>
		<path d="M197.626,316.602c-0.245,0.232-0.217,0.026,0.272-0.029c-0.382,0.044-1.101,0.252-1.235,0.678
			c-0.141,0.448,0.693,0.396,0.903,0.371c0.625-0.071,1.294-0.329,1.756-0.771c0.301-0.287,0.291-0.586-0.175-0.656
			C198.678,316.124,197.98,316.264,197.626,316.602L197.626,316.602z"/>
	</g>
</g>
<g>
	<g>
		<path fill="none" d="M182.529,318.951"/>
		<path d="M182.095,319.503c0.729,0,2.315-1.104,0.867-1.104C182.233,318.396,180.648,319.503,182.095,319.503L182.095,319.503z"/>
	</g>
</g>
<g>
	<g>
		<path fill="none" d="M254.1,220.862c0-0.557,0-0.557,0.556-0.557"/>
		<path d="M255.179,220.744c-0.001-0.084,0-0.168,0.003-0.252c0.016-0.559-1.618,0.48-0.929,0.479
			c0.499-0.001,1.133-0.147,1.413-0.61c0.26-0.432-0.221-0.723-0.606-0.723c-0.927,0.003-2.035,0.229-2.039,1.342
			C253.018,221.959,255.177,221.534,255.179,220.744L255.179,220.744z"/>
	</g>
</g>
<g>
	<g>
		<path fill="none" d="M282.469,173.58c0.557,0,1.113,0,1.113,0"/>
		<path d="M282.08,174.293c0.372,0,0.742,0,1.112,0c0.511,0,1.137-0.139,1.407-0.63c0.241-0.44-0.205-0.799-0.626-0.799
			c-0.372,0-0.742,0-1.113,0c-0.51,0-1.137,0.139-1.407,0.629C281.213,173.934,281.657,174.293,282.08,174.293L282.08,174.293z"/>
	</g>
</g>
<g>
	<g>
		<path fill="none" d="M352.003,197.499"/>
		<path d="M351.299,197.912c0.419,0,2.436-0.826,1.408-0.826C352.288,197.086,350.269,197.912,351.299,197.912L351.299,197.912z"/>
	</g>
</g>
<g>
	<g>
		<path fill="none" d="M313.62,268.144c0.557,0,0.557,0,0.557,0"/>
		<path d="M313.166,268.613c0.185,0,0.371,0,0.556,0c0.458,0,1.104-0.19,1.435-0.528c0.354-0.365-0.311-0.411-0.524-0.411
			c-0.185,0-0.371,0-0.556,0c-0.458,0-1.105,0.191-1.434,0.529C312.288,268.568,312.952,268.613,313.166,268.613L313.166,268.613z"
			/>
	</g>
</g>
<g>
	<g>
		<path fill="none" d="M206.261,307.082c0.557-0.557,1.113-0.557,1.669-1.111"/>
		<path d="M207.23,306.986c0.499-0.454,1.164-0.649,1.669-1.111c0.357-0.327-0.317-0.331-0.497-0.312
			c-0.463,0.045-1.085,0.178-1.441,0.504c-0.499,0.455-1.164,0.648-1.668,1.111c-0.357,0.326,0.317,0.33,0.497,0.313
			C206.253,307.445,206.874,307.312,207.23,306.986L207.23,306.986z"/>
	</g>
</g>
<g>
	<g>
		<path fill="none" d="M240.19,266.475"/>
		<path d="M240.107,267.309c1.261,0,1.621-1.666,0.166-1.666C239.012,265.643,238.653,267.309,240.107,267.309L240.107,267.309z"/>
	</g>
</g>
<g>
	<g>
		<path fill="none" d="M221.833,298.182c0.557,0,0.557,0,0.557,0"/>
		<path d="M221.733,298.949c0.186,0,0.37,0,0.556,0c0.461,0,1.122-0.348,1.188-0.854c0.073-0.558-0.581-0.678-0.985-0.678
			c-0.186,0-0.371,0-0.557,0c-0.461,0-1.123,0.349-1.188,0.855C220.673,298.828,221.327,298.949,221.733,298.949L221.733,298.949z"
			/>
	</g>
</g>
<g>
	<g>
		<path fill="none" d="M267.45,329.889"/>
		<path d="M267.031,330.493c0.796,0,2.292-1.207,0.84-1.207C267.075,329.286,265.578,330.493,267.031,330.493L267.031,330.493z"/>
	</g>
</g>
<g>
	<g>
		<path fill="none" d="M387.79,323.223c0.556,0,1.112,0,1.112,0"/>
		<path d="M387.377,323.852c0.371,0,0.742,0,1.113,0c0.488,0,1.127-0.158,1.416-0.594c0.279-0.424-0.234-0.662-0.591-0.662
			c-0.371,0-0.742,0-1.113,0c-0.488,0-1.127,0.155-1.416,0.596C386.506,323.614,387.021,323.852,387.377,323.852L387.377,323.852z"
			/>
	</g>
</g>
<g>
	<g>
		<path fill="none" d="M400.398,300.963c1.111,0,1.668,0,2.225-0.556"/>
		<path d="M399.97,301.537c1.245,0,2.55-0.08,3.504-0.982c0.314-0.295,0.271-0.623-0.188-0.702c-0.482-0.082-1.156,0.065-1.52,0.407
			c-0.057,0.054-0.139,0.134-0.204,0.171c0.077-0.049,0.414-0.106,0.118-0.062c-0.279,0.041-0.578,0.021-0.858,0.021
			c-0.479,0-1.122,0.165-1.423,0.572C399.099,301.37,399.661,301.538,399.97,301.537L399.97,301.537z"/>
	</g>
</g>
<g>
	<g>
		<path fill="none" d="M443.973,319.885c0,0,0.557,0,1.111,0"/>
		<path d="M443.531,320.409c0.372,0,0.741,0,1.111,0c0.47,0,1.113-0.181,1.429-0.554c0.33-0.389-0.283-0.489-0.545-0.489
			c-0.369,0-0.74,0-1.112,0c-0.468,0-1.111,0.178-1.427,0.549C442.656,320.305,443.268,320.409,443.531,320.409L443.531,320.409z"/>
	</g>
</g>
<g>
	<g>
		<path fill="none" d="M459.176,249.296c0.557,0,0.557,0,0.557-0.557"/>
		<path d="M458.76,249.911c0.897-0.003,2.045-0.219,2.049-1.304c0.002-0.906-2.148-0.448-2.151,0.265
			c0.001,0.084,0,0.167-0.003,0.252c-0.016,0.557,1.626-0.444,0.938-0.442c-0.486,0.003-1.125,0.16-1.416,0.588
			C457.889,249.689,458.414,249.913,458.76,249.911L458.76,249.911z"/>
	</g>
</g>
<g>
	<g>
		<path fill="none" d="M449.905,211.406c0.558,0,0.558,0,1.112,0"/>
		<path d="M449.504,212.068c0.368,0,0.739,0,1.11,0c0.496,0,1.133-0.148,1.414-0.608c0.262-0.432-0.222-0.718-0.604-0.718
			c-0.371,0-0.742,0-1.113,0c-0.496,0-1.133,0.149-1.414,0.608C448.635,211.783,449.118,212.068,449.504,212.068L449.504,212.068z"
			/>
	</g>
</g>
<g>
	<g>
		<path fill="none" d="M449.163,222.596"/>
		<path d="M448.752,223.229c0.836,0,2.276-1.269,0.823-1.269C448.739,221.961,447.299,223.229,448.752,223.229L448.752,223.229z"/>
	</g>
</g>
<g>
	<g>
		<path fill="none" d="M515.358,197.007c0.557,0,0.557,0.556,1.112,0.556"/>
		<path d="M514.674,197.483c0.121,0.011,0.264,0.213,0.35,0.294c0.205,0.19,0.494,0.238,0.762,0.262
			c0.502,0.046,1.105-0.12,1.52-0.408c0.349-0.241,0.271-0.504-0.146-0.543c-0.121-0.012-0.264-0.213-0.351-0.294
			c-0.204-0.19-0.494-0.238-0.762-0.262c-0.502-0.047-1.106,0.12-1.52,0.407C514.176,197.181,514.258,197.444,514.674,197.483
			L514.674,197.483z"/>
	</g>
</g>
<g>
	<g>
		<path fill="none" d="M537.61,252.077c0.558-0.557,1.112-0.557,1.668-1.112"/>
		<path d="M538.487,252.311c0.491-0.451,1.163-0.649,1.668-1.112c0.354-0.323,0.207-0.757-0.231-0.875
			c-0.521-0.139-1.134,0.051-1.521,0.408c-0.494,0.45-1.164,0.649-1.67,1.112c-0.354,0.323-0.207,0.757,0.233,0.874
			C537.487,252.857,538.096,252.668,538.487,252.311L538.487,252.311z"/>
	</g>
</g>
<g>
	<g>
		<path fill="none" d="M548.735,332.734c0.558,0,1.112,0,1.669,0"/>
		<path d="M548.288,333.238c0.558,0,1.113,0,1.669,0c0.467,0,1.11-0.184,1.432-0.543c0.341-0.381-0.293-0.463-0.535-0.463
			c-0.557,0-1.113,0-1.67,0c-0.465,0-1.109,0.184-1.43,0.543C547.411,333.157,548.045,333.238,548.288,333.238L548.288,333.238z"/>
	</g>
</g>
<g>
	<g>
		<path fill="none" d="M522.592,325.504c0.557,0,1.112-0.556,2.225-0.556"/>
		<path d="M522.164,326.08c0.479-0.025,0.899-0.124,1.348-0.287c0.305-0.111,0.555-0.259,0.879-0.27
			c0.482-0.014,1.113-0.159,1.42-0.574c0.302-0.401-0.252-0.588-0.568-0.579c-0.531,0.015-1.043,0.082-1.555,0.235
			c-0.225,0.067-0.447,0.15-0.67,0.238c-0.074,0.029-0.152,0.064-0.229,0.096c-0.281,0.115,0.189-0.012,0.229-0.015
			c-0.486,0.026-1.108,0.151-1.422,0.574C521.301,325.898,521.844,326.1,522.164,326.08L522.164,326.08z"/>
	</g>
</g>
<g>
	<g>
		<path fill="none" d="M611.594,316.048c0.556,0,1.111,0,1.668,0"/>
		<path d="M611.204,316.764c0.558,0,1.113,0,1.67,0c0.509,0,1.136-0.138,1.405-0.631c0.241-0.441-0.206-0.801-0.628-0.801
			c-0.556,0-1.111,0-1.668,0c-0.511,0-1.138,0.139-1.406,0.631C610.338,316.402,610.78,316.764,611.204,316.764L611.204,316.764z"/>
	</g>
</g>
<g>
	<g>
		<path fill="none" d="M568.76,296.578c0.558-0.556,1.113-1.112,1.113-1.669"/>
		<path d="M569.748,296.548c0.491-0.492,1.131-1.064,1.192-1.801c0.063-0.722-2.08-0.278-2.134,0.323
			c-0.059,0.649-0.6,1.102-1.032,1.537c-0.367,0.368,0.312,0.497,0.543,0.49C568.823,297.084,569.385,296.913,569.748,296.548
			L569.748,296.548z"/>
	</g>
</g>
<g>
	<g>
		<path fill="none" d="M618.268,298.804c0.558,0,0.558,0,1.113,0.556"/>
		<path d="M617.818,299.291c0.24,0.001-0.048-0.071,0.115,0.038c0.162,0.111,0.302,0.276,0.439,0.413
			c0.438,0.436,2.434-0.351,2.016-0.766c-0.532-0.531-0.92-0.659-1.67-0.662c-0.461-0.002-1.108,0.188-1.432,0.534
			C616.94,299.228,617.588,299.291,617.818,299.291L617.818,299.291z"/>
	</g>
</g>
<g>
	<g>
		<line fill="none" x1="347.554" y1="355.486" x2="348.11" y2="355.486"/>
		<path d="M347.163,356.193c0.185,0,0.371,0,0.556,0c0.506,0,1.136-0.139,1.407-0.625c0.244-0.44-0.209-0.789-0.625-0.789
			c-0.185,0-0.371,0-0.556,0c-0.507,0-1.136,0.141-1.407,0.625C346.295,355.846,346.745,356.193,347.163,356.193L347.163,356.193z"
			/>
	</g>
</g>
<g>
	<g>
		<path fill="none" d="M348.666,339.354c1.113,0.557,1.669,0.557,2.781,1.112"/>
		<path d="M347.652,339.713c0.903,0.438,1.879,0.674,2.781,1.112c0.393,0.188,1.002-0.011,1.378-0.144
			c0.058-0.021,0.984-0.412,0.651-0.576c-0.904-0.438-1.879-0.674-2.782-1.111c-0.393-0.189-1.002,0.011-1.378,0.143
			C348.245,339.158,347.319,339.551,347.652,339.713L347.652,339.713z"/>
	</g>
</g>
<g>
	<g>
		<path fill="none" d="M316.959,348.811c0.556-0.556,1.669-1.668,2.225-2.225"/>
		<path d="M317.935,348.739c0.741-0.742,1.483-1.484,2.225-2.226c0.347-0.347-0.304-0.392-0.514-0.375
			c-0.466,0.033-1.093,0.176-1.438,0.521c-0.741,0.741-1.483,1.483-2.225,2.225c-0.347,0.347,0.305,0.392,0.515,0.376
			C316.964,349.225,317.591,349.082,317.935,348.739L317.935,348.739z"/>
	</g>
</g>
<g>
	<g>
		<path fill="none" d="M526.115,345.475c0.557,0,0.557,0,0.557,0"/>
		<path d="M525.411,345.886c0.187,0,0.372,0,0.558,0c0.511,0,1.078-0.147,1.52-0.405c0.346-0.203,0.293-0.42-0.113-0.42
			c-0.186,0-0.371,0-0.557,0c-0.51,0-1.079,0.147-1.52,0.406C524.954,345.67,525.008,345.886,525.411,345.886L525.411,345.886z"/>
	</g>
</g>
<rect x="101.104" y="1.529" fill="none" stroke="#000000" stroke-width="3" width="593.971" height="593.971"/>
</svg>
