<?xml version="1.0" encoding="utf-8"?>
<!-- Generator: Adobe Illustrator 13.0.0, SVG Export Plug-In . SVG Version: 6.00 Build 14948)  -->
<!DOCTYPE svg PUBLIC "-//W3C//DTD SVG 1.1//EN" "http://www.w3.org/Graphics/SVG/1.1/DTD/svg11.dtd">
<svg version="1.1" id="Layer_1" xmlns="http://www.w3.org/2000/svg" xmlns:xlink="http://www.w3.org/1999/xlink" x="0px" y="0px"
	 width="800px" height="600px" viewBox="0 0 800 600" enable-background="new 0 0 800 600" xml:space="preserve">
<g id="baseColor2">
	<path fill="#C69C6D" d="M123.351,324.363c15.165-36.001,102.469-93.149,164.962-96.666c65.092-3.664,128.37-15.4,193.761-11.433
		c117.285,7.115,248.795,169.783,137.412,269.664c-64.559,57.894-163.495,62.286-245.369,65.446
		c-92.378,3.565-237.221-53.65-255.768-110.001C101.6,390.486,108.186,360.364,123.351,324.363z"/>
</g>
<g id="shading2">
	<path fill="#8C6239" d="M145.5,475.5c39,3,88.094,2.147,127-40c12-13-11-101,22-184c4.162-10.468,10.483-18.861,18.325-25.537
		C342.5,223.5,447,211.5,482.074,216.265c117.285,7.115,248.795,169.783,137.412,269.664
		c-64.559,57.894-163.495,62.286-245.369,65.446c-30.873,1.191-67.604-4.405-103.521-14.489C284.94,540.341,176.5,510.5,145.5,475.5
		z"/>
</g>
<g id="dimples2">
	<path fill="none" stroke="#754C24" stroke-width="2" d="M185.683,458.562c0.691,4.643,10.61,20.022,17.242,12.059
		c3.844-4.613-3.332-10.647-7.299-10.571"/>
	<path fill="none" stroke="#754C24" stroke-width="2" d="M255.13,304.15c7.425-0.502,13.365,0.355,19.118-5.592
		c8.098-8.369,5.92-22.983-8.169-12.708"/>
	<path fill="none" stroke="#754C24" stroke-width="2" d="M321.808,416.378c-5.488-0.501-8.794-6.536-6.367-10.396
		c2.428-3.864,14.479-3.117,20.026,7.959"/>
	<path fill="none" stroke="#754C24" stroke-width="2" d="M442.306,478.597c-13.998,8.759,11.123,17.728,14.964,3.22"/>
	<path fill="none" stroke="#754C24" stroke-width="2" d="M423.009,305.822c14.08,1.338,27.354-26.013,2.231-14.917"/>
	<path fill="none" stroke="#754C24" stroke-width="2" d="M561.951,381.945c-8.455,2.06-11.307-9.617-10.557-16.063
		c5.82-3.462,11.54-0.368,14.95,4.99"/>
</g>
<g id="Outline2">
	<path fill="none" stroke="#000000" d="M123.351,324.363c15.165-36.001,102.469-93.149,164.962-96.666
		c65.092-3.664,128.37-15.4,193.761-11.433c117.285,7.115,248.795,169.783,137.412,269.664
		c-64.559,57.894-163.495,62.286-245.369,65.446c-92.378,3.565-237.221-53.65-255.768-110.001
		C101.6,390.486,108.186,360.364,123.351,324.363z"/>
</g>
<g id="baseColor1">
	<path fill="#C69C6D" d="M575.604,43.497c32.459,21.738,71.95,118.322,63.512,180.343c-8.79,64.598-9.31,128.955-25.646,192.396
		c-29.304,113.789-214.021,211.941-290.885,83.588c-44.549-74.395-30.037-172.358-17.56-253.339
		c14.078-91.368,97.81-222.678,156.661-230.164C514.828,9.562,543.146,21.759,575.604,43.497z"/>
</g>
<g id="shading1">
	<path fill="#8C6239" d="M318.877,332.818c9.542,26.287,28.679,56.904,44.671,111.989c16.16,55.66,66.953,82.414,106.876,81.084
		c90.068-3.001,139.274-92.852,143.044-109.655c-29.304,113.789-214.021,211.941-290.885,83.588
		c-44.549-74.395-30.037-172.358-17.56-253.339c4.705-30.535,17.188-65.53,33.923-98.873
		C332.825,161.037,296.755,271.875,318.877,332.818z"/>
</g>
<g id="dimples1">
	<path fill="none" stroke="#754C24" stroke-width="2" d="M431.998,79.155c-4.689-0.205-21.676,6.605-15.12,14.633
		c3.798,4.651,11.089-1.246,11.767-5.154"/>
	<path fill="none" stroke="#754C24" stroke-width="2" d="M570.372,176.714c-0.92,7.386-2.894,13.054,1.852,19.833
		c6.677,9.542,21.438,10.186,14.031-5.601"/>
	<path fill="none" stroke="#754C24" stroke-width="2" d="M447.508,220.82c1.538-5.293,8.09-7.391,11.419-4.273
		c3.329,3.119,0.305,14.807-11.625,18.145"/>
	<path fill="none" stroke="#754C24" stroke-width="2" d="M363.497,327.275c-5.933-15.408-19.518,7.549-6.005,14.078"/>
	<path fill="none" stroke="#754C24" stroke-width="2" d="M536.788,341.209c-3.994,13.566,20.331,31.803,14.219,5.027"/>
	<path fill="none" stroke="#754C24" stroke-width="2" d="M435.616,463.127c-0.414-8.691,11.594-9.269,17.778-7.307
		c2.291,6.373-1.833,11.399-7.744,13.729"/>
</g>
<g id="Outline1">
	<path fill="none" stroke="#000000" d="M575.604,43.497c32.459,21.738,71.95,118.322,63.512,180.343
		c-8.79,64.598-9.31,128.955-25.646,192.396c-29.304,113.789-214.021,211.941-290.885,83.588
		c-44.549-74.395-30.037-172.358-17.56-253.339c14.078-91.368,97.81-222.678,156.661-230.164
		C514.828,9.562,543.146,21.759,575.604,43.497z"/>
</g>
<rect x="92.104" y="2.529" fill="none" stroke="#000000" stroke-width="3" width="593.971" height="593.971"/>
</svg>
