<?xml version="1.0" encoding="utf-8"?>
<!-- Generator: Adobe Illustrator 13.0.0, SVG Export Plug-In . SVG Version: 6.00 Build 14948)  -->
<!DOCTYPE svg PUBLIC "-//W3C//DTD SVG 1.1//EN" "http://www.w3.org/Graphics/SVG/1.1/DTD/svg11.dtd">
<svg version="1.1" id="Layer_1" xmlns="http://www.w3.org/2000/svg" xmlns:xlink="http://www.w3.org/1999/xlink" x="0px" y="0px"
	 width="800px" height="600px" viewBox="0 0 800 600" enable-background="new 0 0 800 600" xml:space="preserve">
<g>
	<path fill="#EABF94" d="M356.913,253.529c-9.758,2.481-19.578-4.291-23.095-12.865c-3.411-8.317-1.931-15.537,3.837-18.27
		c3.471-1.643,11.326-0.273,17.721,4.751c6.35,4.989,12.423,14.066,7.673,21.648c0,0,106.37,115.496,105.806,119.124
		c-0.806,5.19-6.056,10.163-12.496,10.42C451.107,378.546,356.913,253.529,356.913,253.529z"/>
	<path fill="#C99A71" d="M357.02,253.273c-7.398,2.646-17.629-1.739-22.288-10.964c-1.797-3.56-5.024-12.058-0.274-17.082
		c-2.832,7.582,2.771,16.157,7.399,19.64c8.86,6.667,16.116,4.099,18.269,2.74c5.207-3.289,2.009-13.062,2.009-13.062
		s3.837,5.938,2.017,11.237c-0.639,1.963-1.902,4.592-4.574,6.483c8.321,10.259,92.314,116.857,98.016,121.712
		c7.24,2.19,10.956-7.533,11.09-6.169c0.144,1.47-1.684,9.508-12.258,10.332C451.813,379.241,357.02,253.273,357.02,253.273z"/>
	<path fill="#C99A71" d="M333.91,228.241c0,0,2.121-3.623,8.404-3.289c6.851,0.366,20.735,9.501,20.462,19.548
		c1.644-3.836,0.547-6.486,0-8.952c-4.933-8.403-15.824-14.836-22.472-13.702C332.814,223.126,333.91,228.241,333.91,228.241z"/>
	<path fill="none" stroke="#000000" stroke-width="0.5" d="M334.732,225.044c-2.466,5.207-0.639,12.788,6.394,19.273
		c5.018,4.627,13.433,5.777,17.264,4.11c4.202-1.827,5.664-5.206,4.476-10.413"/>
	<path fill="#C99A71" d="M464.336,374.917c-3.525,2.94-8.08,3.289-8.424,2.788c-0.572-0.833-1.228-5.607,3.088-9.205
		c4.314-3.597,8.795-3.289,9.725-0.943C468.479,368.475,467.863,371.978,464.336,374.917z"/>
	<path fill="none" stroke="#000000" stroke-width="0.5" d="M467.75,366c-5.5-2.625-13.5,5.125-12.092,8.778"/>
	<path fill="none" stroke="#000000" stroke-width="0.75" d="M356.913,253.529c-9.758,2.481-19.578-4.291-23.095-12.865
		c-3.411-8.317-1.931-15.537,3.837-18.27c3.471-1.643,11.326-0.273,17.721,4.751c6.35,4.989,12.423,14.066,7.673,21.648
		c0,0,106.37,115.496,105.806,119.124c-0.806,5.19-6.056,10.163-12.496,10.42C451.107,378.546,356.913,253.529,356.913,253.529z"/>
</g>
</svg>
