<?xml version="1.0" encoding="utf-8"?>
<!-- Generator: Adobe Illustrator 13.0.0, SVG Export Plug-In . SVG Version: 6.00 Build 14948)  -->
<!DOCTYPE svg PUBLIC "-//W3C//DTD SVG 1.1//EN" "http://www.w3.org/Graphics/SVG/1.1/DTD/svg11.dtd">
<svg version="1.1" id="Layer_1" xmlns="http://www.w3.org/2000/svg" xmlns:xlink="http://www.w3.org/1999/xlink" x="0px" y="0px"
	 width="800px" height="600px" viewBox="0 0 800 600" enable-background="new 0 0 800 600" xml:space="preserve">
<g>
	<path fill="#EABF94" d="M361.499,259.84c-6.443,3.048-15.069-1.151-20.386-8.59c-5.867-8.21-7.831-19.479-2.929-23.566
		c4.903-4.088,15.799-0.266,22.82,6.981c6.143,6.343,8.731,15.201,5.186,20.992c0,0,102.691,120.47,102.536,122.502
		s-2.212,4.758-5.186,4.324C460.567,382.048,361.499,259.84,361.499,259.84z"/>
	<path fill="#C99A71" d="M361.562,259.619c-6.443,3.048-15.029-0.987-20.347-8.427c-5.867-8.209-7.986-19.379-2.414-23.854
		c-2.439,3.465,0.039,15.948,9.226,23.202c4.713,3.721,10.208,4.933,13.222,3.973c3.015-0.959,4.864-3.973,4.521-9.249
		c1.667,8.674-4.146,11.189-4.021,11.299c0.834,0.737,28.701,34.022,52.844,64.451c35.097,44.235,51.972,60.553,51.972,60.553
		s-1.223,0.96-3.111,0.69C460.48,381.823,361.562,259.619,361.562,259.619z"/>
	<path fill="none" stroke="#000000" stroke-width="0.5" d="M338.281,228.486c-2.87,5.573,0.251,16.231,7.006,23.239
		c6.165,6.396,13.644,6.438,16.963,4.399c3.319-2.039,4.52-7.788,2.875-11.625"/>
	<path fill="none" stroke="#000000" stroke-width="0.75" d="M361.499,259.84c-6.443,3.048-15.069-1.151-20.386-8.59
		c-5.867-8.21-7.831-19.479-2.929-23.566c4.903-4.088,15.799-0.266,22.82,6.981c6.143,6.343,8.731,15.201,5.186,20.992
		c0,0,102.691,120.47,102.536,122.502s-2.212,4.758-5.186,4.324C460.567,382.048,361.499,259.84,361.499,259.84z"/>
</g>
</svg>
