<?xml version="1.0" encoding="utf-8"?>
<!-- Generator: Adobe Illustrator 13.0.0, SVG Export Plug-In . SVG Version: 6.00 Build 14948)  -->
<!DOCTYPE svg PUBLIC "-//W3C//DTD SVG 1.1//EN" "http://www.w3.org/Graphics/SVG/1.1/DTD/svg11.dtd">
<svg version="1.1" id="Layer_1" xmlns="http://www.w3.org/2000/svg" xmlns:xlink="http://www.w3.org/1999/xlink" x="0px" y="0px"
	 width="800px" height="600px" viewBox="0 0 800 600" enable-background="new 0 0 800 600" xml:space="preserve">
<path fill="#FCE900" stroke="#000000" stroke-width="5" d="M440.408,326.855c0,7.312-5.574,9.699-8.699,9.699h-63.937
	c-3.938,0-8.699-2.388-8.699-9.699c0-6.669,29.46-53.54,32.998-58.884c3.538-5.343,12.681-4.66,15.358,0
	C410.106,272.632,440.408,321.056,440.408,326.855z"/>
<path d="M405.074,314.923c0,1.058-0.829,1.915-1.852,1.915h-6.945c-1.023,0-1.852-0.857-1.852-1.915L393.5,284.11
	c0-1.058,0.829-1.916,1.852-1.916h8.796c1.022,0,1.852,0.858,1.852,1.916L405.074,314.923z"/>
<path d="M404.998,326.301c0,1.015-0.795,1.838-1.776,1.838h-7.252c-0.98,0-1.776-0.823-1.776-1.838v-4.828
	c0-1.015,0.795-1.838,1.776-1.838h7.252c0.981,0,1.776,0.823,1.776,1.838V326.301z"/>
</svg>
