<?xml version="1.0" encoding="utf-8"?>
<!-- Generator: Adobe Illustrator 13.0.0, SVG Export Plug-In . SVG Version: 6.00 Build 14948)  -->
<!DOCTYPE svg PUBLIC "-//W3C//DTD SVG 1.1//EN" "http://www.w3.org/Graphics/SVG/1.1/DTD/svg11.dtd">
<svg version="1.1" id="Layer_1" xmlns="http://www.w3.org/2000/svg" xmlns:xlink="http://www.w3.org/1999/xlink" x="0px" y="0px"
	 width="800px" height="600px" viewBox="0 0 800 600" enable-background="new 0 0 800 600" xml:space="preserve">
<path fill="#DB9958" stroke="#A46723" stroke-width="2" d="M493.166,331.333c0,3.866-3.134,7-7,7h-161.5
	c-3.866,0-11.833-6.8-11.833-10.666l4.833-48.834c0-3.866,3.134-7,7-7l157.5-5.166c3.866,0,10.999,8.3,10.999,12.166
	L493.166,331.333L493.166,331.333z"/>
<path fill="#FECA90" stroke="#A46723" stroke-width="2" d="M488.166,326.833c0,3.866-3.134,7-7,7h-161.5c-3.866,0-7-3.134-7-7v-52.5
	c0-3.866,3.134-7,7-7h161.5c3.866,0,7,3.134,7,7V326.833z"/>
<circle fill="#FFFFFF" stroke="#A46723" stroke-width="6" cx="349.394" cy="300.812" r="26.085"/>
<g>
	<path fill="#A46723" d="M353.311,303.064c0,3.285-1.447,4.928-4.342,4.928s-4.342-1.643-4.342-4.928l-1.876-14.219
		c0-3.286,2.073-4.928,6.219-4.928s6.219,1.643,6.219,4.928L353.311,303.064z"/>
	<path fill="#A46723" d="M351.875,311.058c-0.727-0.685-1.692-1.027-2.896-1.027c-1.205,0-2.173,0.343-2.907,1.027
		c-0.734,0.686-1.101,1.552-1.101,2.6s0.366,1.909,1.101,2.583c0.733,0.673,1.702,1.01,2.907,1.01c1.204,0,2.17-0.343,2.896-1.027
		c0.727-0.686,1.09-1.546,1.09-2.582C352.966,312.604,352.602,311.743,351.875,311.058z"/>
</g>
</svg>
