<?xml version="1.0" encoding="utf-8"?>
<!-- Generator: Adobe Illustrator 13.0.0, SVG Export Plug-In . SVG Version: 6.00 Build 14948)  -->
<!DOCTYPE svg PUBLIC "-//W3C//DTD SVG 1.1//EN" "http://www.w3.org/Graphics/SVG/1.1/DTD/svg11.dtd">
<svg version="1.1" id="Layer_1" xmlns="http://www.w3.org/2000/svg" xmlns:xlink="http://www.w3.org/1999/xlink" x="0px" y="0px"
	 width="800px" height="600px" viewBox="0 0 800 600" enable-background="new 0 0 800 600" xml:space="preserve">
<g>
	<g id="XMLID_4_">
		<g>
			<path fill="#CC1B1B" d="M415.549,322.737c0,15.767,0,29.109,0,31.396c-6.219,8.214-34.016,9.282-43.294,0
				c0-2.123,0-15.522,0-31.383c0.414,0.254,6.584,3.836,20.719,3.836c14.645,0,22.557-3.849,22.557-3.849H415.549z"/>
			<path fill="#333333" d="M415.549,320.492c0,0.754,0,1.501,0,2.245h-0.019c0,0-7.912,3.849-22.557,3.849
				c-14.134,0-20.305-3.582-20.719-3.836c0-0.744,0-1.491,0-2.245c0.414,0.254,6.584,3.836,20.719,3.836
				c14.645,0,22.557-3.849,22.557-3.849H415.549z"/>
			<path fill="#FFFFFF" d="M415.549,287.297c0,10.125,0,22.143,0,33.195h-0.019c0,0-7.912,3.849-22.557,3.849
				c-14.134,0-20.305-3.582-20.719-3.836c0-11.049,0-23.069,0-33.194c0.414,0.253,6.584,3.835,20.719,3.835
				c14.645,0,22.557-3.849,22.557-3.849H415.549z"/>
			<path fill="#333333" d="M415.549,285.052c0,0.738,0,1.485,0,2.245h-0.019c0,0-7.912,3.849-22.557,3.849
				c-14.134,0-20.305-3.582-20.719-3.835c0-0.76,0-1.508,0-2.245c0.414,0.253,6.584,3.836,20.719,3.836
				c14.645,0,22.557-3.849,22.557-3.849H415.549z"/>
			<path fill="#CC1B1B" d="M415.549,268.346c0,3.829,0,9.737,0,16.706h-0.019c0,0-7.912,3.849-22.557,3.849
				c-14.134,0-20.305-3.583-20.719-3.836c0-6.979,0-12.896,0-16.719c0-8.9,9.375-11.749,21.969-11.749
				C406.816,256.598,415.549,259.446,415.549,268.346z"/>
		</g>
		<g>
			<path fill="none" stroke="#000000" stroke-width="2" d="M415.549,322.737c0,15.767,0,29.109,0,31.396
				c-6.219,8.214-34.016,9.282-43.294,0c0-2.123,0-15.522,0-31.383c0-0.744,0-1.491,0-2.245c0-11.049,0-23.069,0-33.194
				c0-0.76,0-1.508,0-2.245c0-6.979,0-12.896,0-16.719c0-8.9,9.375-11.749,21.969-11.749c12.592,0,21.325,2.848,21.325,11.749
				c0,3.829,0,9.737,0,16.706c0,0.738,0,1.485,0,2.245c0,10.125,0,22.143,0,33.195C415.549,321.246,415.549,321.993,415.549,322.737
				z"/>
			<path fill="none" stroke="#000000" stroke-width="2" d="M372.232,287.297c0,0,0.006,0.003,0.022,0.013
				c0.414,0.253,6.584,3.835,20.719,3.835c14.645,0,22.557-3.849,22.557-3.849"/>
			<path fill="none" stroke="#000000" stroke-width="2" d="M372.232,285.052c0,0,0.006,0.003,0.022,0.013
				c0.414,0.253,6.584,3.836,20.719,3.836c14.645,0,22.557-3.849,22.557-3.849"/>
			<path fill="none" stroke="#000000" stroke-width="2" d="M372.232,322.737c0,0,0.006,0.003,0.022,0.013
				c0.414,0.254,6.584,3.836,20.719,3.836c14.645,0,22.557-3.849,22.557-3.849"/>
			<path fill="none" stroke="#000000" stroke-width="2" d="M372.232,320.492c0,0,0.006,0.004,0.022,0.013
				c0.414,0.254,6.584,3.836,20.719,3.836c14.645,0,22.557-3.849,22.557-3.849"/>
		</g>
	</g>
	<path fill="#CCCCCC" stroke="#000000" stroke-width="2" d="M390.941,247.095c0,0-4.055,0.714-7.478,1.711
		c-3.184,0.928-5.745,3.037-5.923,3.037c-0.369,0-4.773-1.475-4.773-7.205c0-5.73,4.306-7.199,4.773-7.199
		c0.218,0,2.859,2.371,5.919,3.264c3.511,1.025,7.481,1.484,7.481,1.484V247.095z"/>
	<path fill="#CC1B1B" stroke="#000000" stroke-width="2" d="M403.304,258.049c-0.161,0.258-2.931,2.577-10.596,2.577
		c-7.664,0-10.626-2.383-10.69-2.577c-0.065-0.193-0.259-5.59,0-6.041c0.257-0.451,3.22-2.447,10.434-2.447
		c7.213,0,10.627,2.061,10.949,2.447C403.723,252.394,403.464,257.792,403.304,258.049z"/>
	<path fill="#A01010" stroke="#000000" stroke-width="2" d="M392.708,254.933c-7.664,0-10.949-2.474-10.69-2.925
		c0.257-0.451,3.22-2.447,10.434-2.447c7.213,0,10.627,2.061,10.949,2.447C403.723,252.394,400.373,254.933,392.708,254.933z"/>
	<path fill="none" stroke="#000000" stroke-width="2" d="M403.304,258.049c-0.161,0.258-2.931,2.577-10.596,2.577
		c-7.664,0-10.626-2.383-10.69-2.577c-0.065-0.193-0.259-5.59,0-6.041c0.257-0.451,3.22-2.447,10.434-2.447
		c7.213,0,10.627,2.061,10.949,2.447C403.723,252.394,403.464,257.792,403.304,258.049z"/>
	<path fill="#999999" stroke="#000000" stroke-width="2" d="M390.941,247.095c0,0-4.124,0.759-7.478,1.711
		c-0.056,0.016,0.03-1.983,0.396-4.097c0.4-2.325,1.202-3.568,1.202-3.568l5.372,1.283L390.941,247.095z"/>
	<path fill="none" stroke="#000000" stroke-width="2" d="M390.941,247.095c0,0-4.055,0.714-7.478,1.711
		c-3.184,0.928-5.745,3.037-5.923,3.037c-0.369,0-4.773-1.475-4.773-7.205c0-5.73,4.306-7.199,4.773-7.199
		c0.218,0,2.859,2.371,5.919,3.264c3.511,1.025,7.481,1.484,7.481,1.484V247.095z"/>
	<path fill="#CC1B1B" stroke="#000000" stroke-width="2" d="M398.918,240.648c-0.233-0.179-2.807-1.03-5.887-1.03
		s-5.538,0.811-5.819,1.03c-0.547,0.428-2.942,10.94-2.532,11.307c0.205,0.183,2.516,1.719,8.411,1.719s8.189-1.566,8.36-1.719
		C401.793,251.65,399.397,241.015,398.918,240.648z"/>
	<path fill="#A01010" stroke="#000000" stroke-width="2" d="M398.918,240.648c-0.233-0.179-2.807-1.03-5.887-1.03
		s-5.538,0.811-5.819,1.03c-0.547,0.428-0.017,1.936,5.879,1.936S399.397,241.015,398.918,240.648z"/>
	<path fill="none" stroke="#000000" stroke-width="2" d="M398.918,240.648c-0.233-0.179-2.807-1.03-5.887-1.03
		s-5.538,0.811-5.819,1.03c-0.547,0.428-2.942,10.94-2.532,11.307c0.205,0.183,2.516,1.719,8.411,1.719s8.189-1.566,8.36-1.719
		C401.793,251.65,399.397,241.015,398.918,240.648z"/>
	<polygon fill="#CC1B1B" stroke="#000000" stroke-width="2" points="394.189,247.917 394.202,251.063 401.045,252.233 
		422.801,280.938 428.092,275.859 406.497,248.598 401.044,247.743 	"/>
	<polygon fill="#A01010" stroke="#000000" stroke-width="2" points="394.189,247.917 394.202,251.063 401.045,252.233 
		422.801,280.938 424.457,279.281 402.435,249.614 	"/>
	<polygon fill="none" stroke="#000000" stroke-width="2" points="394.189,247.917 394.202,251.063 401.045,252.233 422.801,280.938 
		428.092,275.859 406.497,248.598 401.044,247.743 	"/>
	<polygon fill="#333333" stroke="#000000" stroke-width="2" points="392.492,239.03 392.545,241.221 397.517,241.489 
		407.774,254.292 410.851,252.44 401.365,239.671 398.586,238.763 	"/>
	<g>
		<path fill="#CC1B1B" stroke="#000000" stroke-width="2" d="M401.43,314.539c1.275-2.754,1.529-8.35-1.815-11.589
			c0.153,2.091,0.622,5.206-2.396,5.63c1.274-5.871-3.133-6.012-2.762-11.834c-6.855,7.02,0.779,8.303-4.107,12.117
			c0.92-2.753-1.166-4.465-3.27-6.135c0.804,1.165,0.363,3.232,0.051,4.549c-0.453,1.91-1.951,3.049-2.326,4.967
			c-0.547,2.791,3.034,7.178,8.271,7.115C398.315,319.295,400.105,317.402,401.43,314.539z"/>
		<path fill="#FFFFFF" stroke="#000000" stroke-width="2" d="M397.129,318.018c1.521-1.527,1.932-4.383,1.273-7.512
			c0.1,1.123-1.75,3.137-3.689,3.365c1.109-2.621,0.525-4.383-0.954-6.848c0.343,3.625-2.196,3.4-3.418,6.758
			c-1.109-0.586-1.759-1.207-1.349-3.396c-1.396,1.721-1.891,3.562-1.645,5.246c0.224,1.523,2.182,3.922,5.545,3.82
			C395.074,319.387,395.87,319.279,397.129,318.018z"/>
		<circle fill="none" stroke="#000000" stroke-width="2" cx="393.477" cy="307.918" r="13.824"/>
		<line fill="none" stroke="#000000" stroke-width="2" x1="383.867" y1="298.555" x2="403.351" y2="318.039"/>
	</g>
	<path fill="#A01010" stroke="#000000" stroke-width="2" d="M415.55,354.135c-16.857,8.32-33.749,3.83-38.453-0.445
		c-0.763-1.033-1.11-13.799-1.25-29.188c-1.289-0.533-2.171-0.814-3.544-1.535c-0.025,15.479-0.048,29.031-0.048,31.168
		C379.342,361.279,405.534,364.166,415.55,354.135z"/>
	<path fill="#A01010" stroke="#000000" stroke-width="2" d="M375.809,286.363c0.046-10.108,0.112-17.714,0.112-18.522
		c0-3.528,1.711-7.376,5.827-9.728c-4.17,0.694-9.354,4.222-9.354,9.515c0,1.174-0.012,7.65-0.027,17.333
		C373.195,285.481,374.357,286.042,375.809,286.363z"/>
	<path fill="none" stroke="#000000" stroke-width="2" stroke-linecap="round" stroke-linejoin="round" d="M415.55,271.209
		c0,20.827,0,77.955,0,82.925c-6.219,8.215-34.016,9.283-43.295,0c0-4.83,0-67.99,0-85.787c0-5.639,3.764-8.848,9.725-10.443"/>
	<path fill="#F4B5B5" stroke="#000000" stroke-width="2" d="M409.062,285.909c0.32-0.267,1.176-18.388-0.642-21.061
		c-1.56-2.293-4.223-4.276-4.703-4.276c-0.481,0-1.604,0.32-1.604,0.748s3.355,2.496,4.384,4.276
		c1.604,2.779,0.614,20.606,0.828,20.767S408.742,286.176,409.062,285.909z"/>
</g>
<g>
	<g id="XMLID_2_">
		<g>
			<path fill="#CC1B1B" d="M415.549,322.737c0,15.767,0,29.109,0,31.396c-6.219,8.214-34.016,9.282-43.294,0
				c0-2.123,0-15.522,0-31.383c0.414,0.254,6.584,3.836,20.719,3.836c14.645,0,22.557-3.849,22.557-3.849H415.549z"/>
			<path fill="#333333" d="M415.549,320.492c0,0.754,0,1.501,0,2.245h-0.019c0,0-7.912,3.849-22.557,3.849
				c-14.134,0-20.305-3.582-20.719-3.836c0-0.744,0-1.491,0-2.245c0.414,0.254,6.584,3.836,20.719,3.836
				c14.645,0,22.557-3.849,22.557-3.849H415.549z"/>
			<path fill="#FFFFFF" d="M415.549,287.297c0,10.125,0,22.143,0,33.195h-0.019c0,0-7.912,3.849-22.557,3.849
				c-14.134,0-20.305-3.582-20.719-3.836c0-11.049,0-23.069,0-33.194c0.414,0.253,6.584,3.835,20.719,3.835
				c14.645,0,22.557-3.849,22.557-3.849H415.549z"/>
			<path fill="#333333" d="M415.549,285.052c0,0.738,0,1.485,0,2.245h-0.019c0,0-7.912,3.849-22.557,3.849
				c-14.134,0-20.305-3.582-20.719-3.835c0-0.76,0-1.508,0-2.245c0.414,0.253,6.584,3.836,20.719,3.836
				c14.645,0,22.557-3.849,22.557-3.849H415.549z"/>
			<path fill="#CC1B1B" d="M415.549,268.346c0,3.829,0,9.737,0,16.706h-0.019c0,0-7.912,3.849-22.557,3.849
				c-14.134,0-20.305-3.583-20.719-3.836c0-6.979,0-12.896,0-16.719c0-8.9,9.375-11.749,21.969-11.749
				C406.816,256.598,415.549,259.446,415.549,268.346z"/>
		</g>
		<g>
			<path fill="none" stroke="#000000" d="M415.549,322.737c0,15.767,0,29.109,0,31.396c-6.219,8.214-34.016,9.282-43.294,0
				c0-2.123,0-15.522,0-31.383c0-0.744,0-1.491,0-2.245c0-11.049,0-23.069,0-33.194c0-0.76,0-1.508,0-2.245
				c0-6.979,0-12.896,0-16.719c0-8.9,9.375-11.749,21.969-11.749c12.592,0,21.325,2.848,21.325,11.749c0,3.829,0,9.737,0,16.706
				c0,0.738,0,1.485,0,2.245c0,10.125,0,22.143,0,33.195C415.549,321.246,415.549,321.993,415.549,322.737z"/>
			<path fill="none" stroke="#000000" d="M372.232,287.297c0,0,0.006,0.003,0.022,0.013c0.414,0.253,6.584,3.835,20.719,3.835
				c14.645,0,22.557-3.849,22.557-3.849"/>
			<path fill="none" stroke="#000000" d="M372.232,285.052c0,0,0.006,0.003,0.022,0.013c0.414,0.253,6.584,3.836,20.719,3.836
				c14.645,0,22.557-3.849,22.557-3.849"/>
			<path fill="none" stroke="#000000" d="M372.232,322.737c0,0,0.006,0.003,0.022,0.013c0.414,0.254,6.584,3.836,20.719,3.836
				c14.645,0,22.557-3.849,22.557-3.849"/>
			<path fill="none" stroke="#000000" d="M372.232,320.492c0,0,0.006,0.004,0.022,0.013c0.414,0.254,6.584,3.836,20.719,3.836
				c14.645,0,22.557-3.849,22.557-3.849"/>
		</g>
	</g>
	<path fill="#CCCCCC" d="M390.941,247.095c0,0-4.055,0.714-7.478,1.711c-3.184,0.928-5.745,3.037-5.923,3.037
		c-0.369,0-4.773-1.475-4.773-7.205c0-5.73,4.306-7.199,4.773-7.199c0.218,0,2.859,2.371,5.919,3.264
		c3.511,1.025,7.481,1.484,7.481,1.484V247.095z"/>
	<path fill="#CC1B1B" stroke="#000000" d="M403.304,258.049c-0.161,0.258-2.931,2.577-10.596,2.577
		c-7.664,0-10.626-2.383-10.69-2.577c-0.065-0.193-0.259-5.59,0-6.041c0.257-0.451,3.22-2.447,10.434-2.447
		c7.213,0,10.627,2.061,10.949,2.447C403.723,252.394,403.464,257.792,403.304,258.049z"/>
	<path fill="#A01010" d="M392.708,254.933c-7.664,0-10.949-2.474-10.69-2.925c0.257-0.451,3.22-2.447,10.434-2.447
		c7.213,0,10.627,2.061,10.949,2.447C403.723,252.394,400.373,254.933,392.708,254.933z"/>
	<path fill="none" stroke="#000000" d="M403.304,258.049c-0.161,0.258-2.931,2.577-10.596,2.577c-7.664,0-10.626-2.383-10.69-2.577
		c-0.065-0.193-0.259-5.59,0-6.041c0.257-0.451,3.22-2.447,10.434-2.447c7.213,0,10.627,2.061,10.949,2.447
		C403.723,252.394,403.464,257.792,403.304,258.049z"/>
	<path fill="#999999" d="M390.941,247.095c0,0-4.124,0.759-7.478,1.711c-0.056,0.016,0.03-1.983,0.396-4.097
		c0.4-2.325,1.202-3.568,1.202-3.568l5.372,1.283L390.941,247.095z"/>
	<path fill="none" stroke="#000000" d="M390.941,247.095c0,0-4.055,0.714-7.478,1.711c-3.184,0.928-5.745,3.037-5.923,3.037
		c-0.369,0-4.773-1.475-4.773-7.205c0-5.73,4.306-7.199,4.773-7.199c0.218,0,2.859,2.371,5.919,3.264
		c3.511,1.025,7.481,1.484,7.481,1.484V247.095z"/>
	<path fill="#CC1B1B" d="M398.918,240.648c-0.233-0.179-2.807-1.03-5.887-1.03s-5.538,0.811-5.819,1.03
		c-0.547,0.428-2.942,10.94-2.532,11.307c0.205,0.183,2.516,1.719,8.411,1.719s8.189-1.566,8.36-1.719
		C401.793,251.65,399.397,241.015,398.918,240.648z"/>
	<path fill="#A01010" d="M398.918,240.648c-0.233-0.179-2.807-1.03-5.887-1.03s-5.538,0.811-5.819,1.03
		c-0.547,0.428-0.017,1.936,5.879,1.936S399.397,241.015,398.918,240.648z"/>
	<path fill="none" stroke="#000000" d="M398.918,240.648c-0.233-0.179-2.807-1.03-5.887-1.03s-5.538,0.811-5.819,1.03
		c-0.547,0.428-2.942,10.94-2.532,11.307c0.205,0.183,2.516,1.719,8.411,1.719s8.189-1.566,8.36-1.719
		C401.793,251.65,399.397,241.015,398.918,240.648z"/>
	<polygon fill="#CC1B1B" points="394.189,247.917 394.202,251.063 401.045,252.233 422.801,280.938 428.092,275.859 
		406.497,248.598 401.044,247.743 	"/>
	<polygon fill="#A01010" points="394.189,247.917 394.202,251.063 401.045,252.233 422.801,280.938 424.457,279.281 
		402.435,249.614 	"/>
	<polygon fill="none" stroke="#000000" points="394.189,247.917 394.202,251.063 401.045,252.233 422.801,280.938 428.092,275.859 
		406.497,248.598 401.044,247.743 	"/>
	<polygon fill="#333333" stroke="#000000" points="392.492,239.03 392.545,241.221 397.517,241.489 407.774,254.292 410.851,252.44 
		401.365,239.671 398.586,238.763 	"/>
	<g>
		<path fill="#CC1B1B" d="M401.43,314.539c1.275-2.754,1.529-8.35-1.815-11.589c0.153,2.091,0.622,5.206-2.396,5.63
			c1.274-5.871-3.133-6.012-2.762-11.834c-6.855,7.02,0.779,8.303-4.107,12.117c0.92-2.753-1.166-4.465-3.27-6.135
			c0.804,1.165,0.363,3.232,0.051,4.549c-0.453,1.91-1.951,3.049-2.326,4.967c-0.547,2.791,3.034,7.178,8.271,7.115
			C398.315,319.295,400.105,317.402,401.43,314.539z"/>
		<path fill="#FFFFFF" d="M397.129,318.018c1.521-1.527,1.932-4.383,1.273-7.512c0.1,1.123-1.75,3.137-3.689,3.365
			c1.109-2.621,0.525-4.383-0.954-6.848c0.343,3.625-2.196,3.4-3.418,6.758c-1.109-0.586-1.759-1.207-1.349-3.396
			c-1.396,1.721-1.891,3.562-1.645,5.246c0.224,1.523,2.182,3.922,5.545,3.82C395.074,319.387,395.87,319.279,397.129,318.018z"/>
		<circle fill="none" stroke="#0071BC" stroke-width="3" cx="393.477" cy="307.918" r="13.824"/>
		<line fill="none" stroke="#0071BC" stroke-width="3" x1="383.867" y1="298.555" x2="403.351" y2="318.039"/>
	</g>
	<path fill="#A01010" d="M415.55,354.135c-16.857,8.32-33.749,3.83-38.453-0.445c-0.763-1.033-1.11-13.799-1.25-29.188
		c-1.289-0.533-2.171-0.814-3.544-1.535c-0.025,15.479-0.048,29.031-0.048,31.168C379.342,361.279,405.534,364.166,415.55,354.135z"
		/>
	<path fill="#A01010" d="M375.809,286.363c0.046-10.108,0.112-17.714,0.112-18.522c0-3.528,1.711-7.376,5.827-9.728
		c-4.17,0.694-9.354,4.222-9.354,9.515c0,1.174-0.012,7.65-0.027,17.333C373.195,285.481,374.357,286.042,375.809,286.363z"/>
	<path fill="none" stroke="#000000" stroke-width="0.5" stroke-linecap="round" stroke-linejoin="round" d="M415.55,271.209
		c0,20.827,0,77.955,0,82.925c-6.219,8.215-34.016,9.283-43.295,0c0-4.83,0-67.99,0-85.787c0-5.639,3.764-8.848,9.725-10.443"/>
	<path fill="#F4B5B5" d="M409.062,285.909c0.32-0.267,1.176-18.388-0.642-21.061c-1.56-2.293-4.223-4.276-4.703-4.276
		c-0.481,0-1.604,0.32-1.604,0.748s3.355,2.496,4.384,4.276c1.604,2.779,0.614,20.606,0.828,20.767S408.742,286.176,409.062,285.909
		z"/>
</g>
<g>
	<path fill="none" stroke="#000000" stroke-width="2" d="M422.005,257.322c3.889,2.38,4.497,5.819,3.895,10.311
		c-1.024,6.159-6.541,9.684-8.573,9.789c-2.033,0.106-4.378-1.057-4.378-1.057c-2.56-0.1-2.779,0.704-4.943-0.097
		c-2.82-1.045-4.056-3.313-3.216-4.121c-2.135,0.263-5.088-3.042-4.123-5.039c-1.05-0.16-3.081-3.903-1.779-5.904
		c-2.106-0.284-1.612-5.385-1.612-5.385c0.055-0.873,4.078-2.976,4.46-2.371c1.088,1.359,1.021,1.554,2.126,2.755
		c1.626-0.461,5.349-2.934,5.437-3.684c0.23-1.977-4.036-4.328-3.698-7.314c0.087-0.773,0.7-2.915,1.66-2.756
		c2.311,0.38,3.881,4.045,7.228,6c1.759,1.028,5.268,7.855,5.268,7.855L422.005,257.322z"/>
	<path fill="none" stroke="#000000" stroke-width="2" d="M407.883,276.162c-2.282-0.952-3.346-2.828-3.346-2.828
		s1.239,1.453,3.565,2.096c0.837,0.25,2.73-0.256,2.885-0.596c-2.342-2.223-2.14-3.291-1.789-3.561
		c0.158-0.122,0.422,0.798,1.131,1.129c0.869,0.405,1.654,0.198,1.713-0.108c0.035-0.185-0.349-0.786-0.777-3.512
		c-0.43-2.727,0.785-5.189,1.597-6.575c2.108-3.843,8.373-6.808,12.261-2c-1.567-3.032-6.356-4.334-7.262-4.289
		c0.238-2.048-0.617-3.379-2.552-6.751c1.184,0.85,4.445,7.137,4.445,7.137s8.886,3.32,6.834,11.899
		c-2.051,8.579-9.216,9.334-10.063,9.342c-0.849,0.008-2.933-0.821-3.323-0.991C411.671,276.422,409.394,276.792,407.883,276.162z"
		/>
	<path fill="none" stroke="#000000" stroke-width="2" d="M408.9,271.267c-0.103,3.272,5.68,6.639,8.892,6.244
		c4.303-0.526,8.288-5.84,8.805-9.745c0.594-4.494-0.554-8.035-4.592-10.443c-3.421-2.04-7.437-2.146-10.412,2.122"/>
	<path fill="none" stroke="#000000" stroke-width="2" d="M419.754,256.304c0,0-3.263-6.438-4.93-7.607
		c-3.814-2.674-5.645-5.906-7.565-6.248c-0.958-0.171-1.713,2.18-1.731,2.958c-0.036,1.429,0.59,2.537,1.766,3.89
		c0.841,0.967,2.167,2.055,2.004,3.223c-0.105,0.748-3.87,3.347-6.062,3.887"/>
	<path fill="none" stroke="#000000" stroke-width="2" d="M413.268,276.422c-2.776-0.206-3.753,0.258-5.135-0.16
		c-1.382-0.42-3.596-2.132-3.615-3.274c-0.008-0.444,0.099-0.583,0.374-0.805c0,0-0.945-0.033-1.392-0.183
		c-1.343-0.454-2.843-2.888-2.943-3.589c-0.145-1.011,0.15-1.453,0.15-1.453l-0.268,0.003c-0.953-0.027-1.865-2.92-2.044-4.183
		c-0.103-0.716,0.491-1.573,0.491-1.573"/>
	<path fill="none" stroke="#000000" stroke-width="2" d="M401.81,253.259c-2.041,0.403-3.752,1.256-4.381,2.371
		s0.103,4.652,0.525,5.085c0.421,0.433,2.291,0.563,2.291,0.563"/>
</g>
<g>
	<path fill="#FFFFFF" d="M422.005,257.322c3.889,2.38,4.497,5.819,3.895,10.311c-1.024,6.159-6.541,9.684-8.573,9.789
		c-2.033,0.106-4.378-1.057-4.378-1.057c-2.56-0.1-2.779,0.704-4.943-0.097c-2.82-1.045-4.056-3.313-3.216-4.121
		c-2.135,0.263-5.088-3.042-4.123-5.039c-1.05-0.16-3.081-3.903-1.779-5.904c-2.106-0.284-1.612-5.385-1.612-5.385
		c0.055-0.873,4.078-2.976,4.46-2.371c1.088,1.359,1.021,1.554,2.126,2.755c1.626-0.461,5.349-2.934,5.437-3.684
		c0.23-1.977-4.036-4.328-3.698-7.314c0.087-0.773,0.7-2.915,1.66-2.756c2.311,0.38,3.881,4.045,7.228,6
		c1.759,1.028,5.268,7.855,5.268,7.855L422.005,257.322z"/>
	<path fill="#CCCCCC" d="M407.883,276.162c-2.282-0.952-3.346-2.828-3.346-2.828s1.239,1.453,3.565,2.096
		c0.837,0.25,2.73-0.256,2.885-0.596c-2.342-2.223-2.14-3.291-1.789-3.561c0.158-0.122,0.422,0.798,1.131,1.129
		c0.869,0.405,1.654,0.198,1.713-0.108c0.035-0.185-0.349-0.786-0.777-3.512c-0.43-2.727,0.785-5.189,1.597-6.575
		c2.108-3.843,8.373-6.808,12.261-2c-1.567-3.032-6.356-4.334-7.262-4.289c0.238-2.048-0.617-3.379-2.552-6.751
		c1.184,0.85,4.445,7.137,4.445,7.137s8.886,3.32,6.834,11.899c-2.051,8.579-9.216,9.334-10.063,9.342
		c-0.849,0.008-2.933-0.821-3.323-0.991C411.671,276.422,409.394,276.792,407.883,276.162z"/>
	<path fill="none" stroke="#000000" d="M408.9,271.267c-0.103,3.272,5.68,6.639,8.892,6.244c4.303-0.526,8.288-5.84,8.805-9.745
		c0.594-4.494-0.554-8.035-4.592-10.443c-3.421-2.04-7.437-2.146-10.412,2.122"/>
	<path fill="none" stroke="#000000" d="M419.754,256.304c0,0-3.263-6.438-4.93-7.607c-3.814-2.674-5.645-5.906-7.565-6.248
		c-0.958-0.171-1.713,2.18-1.731,2.958c-0.036,1.429,0.59,2.537,1.766,3.89c0.841,0.967,2.167,2.055,2.004,3.223
		c-0.105,0.748-3.87,3.347-6.062,3.887"/>
	<path fill="none" stroke="#000000" d="M413.268,276.422c-2.776-0.206-3.753,0.258-5.135-0.16c-1.382-0.42-3.596-2.132-3.615-3.274
		c-0.008-0.444,0.099-0.583,0.374-0.805c0,0-0.945-0.033-1.392-0.183c-1.343-0.454-2.843-2.888-2.943-3.589
		c-0.145-1.011,0.15-1.453,0.15-1.453l-0.268,0.003c-0.953-0.027-1.865-2.92-2.044-4.183c-0.103-0.716,0.491-1.573,0.491-1.573"/>
	<path fill="none" stroke="#000000" d="M401.81,253.259c-2.041,0.403-3.752,1.256-4.381,2.371s0.103,4.652,0.525,5.085
		c0.421,0.433,2.291,0.563,2.291,0.563"/>
</g>
</svg>
