<?xml version="1.0" encoding="utf-8"?>
<!-- Generator: Adobe Illustrator 13.0.0, SVG Export Plug-In . SVG Version: 6.00 Build 14948)  -->
<!DOCTYPE svg PUBLIC "-//W3C//DTD SVG 1.1//EN" "http://www.w3.org/Graphics/SVG/1.1/DTD/svg11.dtd">
<svg version="1.1" id="Layer_1" xmlns="http://www.w3.org/2000/svg" xmlns:xlink="http://www.w3.org/1999/xlink" x="0px" y="0px"
	 width="800px" height="600px" viewBox="0 0 800 600" enable-background="new 0 0 800 600" xml:space="preserve">
<g>
	<path fill="#6CB2D8" stroke="#0071BC" stroke-width="2" d="M490.666,332.833c0,3.866-3.134,7-7,7h-161.5
		c-3.866,0-11.833-6.8-11.833-10.666l4.833-48.834c0-3.866,3.134-7,7-7l157.5-5.166c3.866,0,10.999,8.3,10.999,12.166V332.833z"/>
	<path fill="#FFFFFF" stroke="#0071BC" stroke-width="2" d="M485,327.333c0,3.866-3.135,7-7,7H316.5c-3.866,0-7-3.134-7-7v-52.5
		c0-3.866,3.134-7,7-7H478c3.865,0,7,3.134,7,7V327.333z"/>
	<g>
		<path fill="#CC1B1B" d="M361.487,313.557c2.404-5.197,2.883-15.757-3.427-21.868c0.291,3.945,1.175,9.824-4.521,10.622
			c2.404-11.077-5.911-11.345-5.211-22.327c-12.936,13.244,1.47,15.664-7.75,22.864c1.736-5.195-2.201-8.426-6.17-11.577
			c1.519,2.197,0.686,6.1,0.096,8.585c-0.855,3.604-3.682,5.751-4.39,9.372c-1.03,5.266,5.726,13.542,15.61,13.423
			C355.609,322.532,358.987,318.959,361.487,313.557z"/>
		<path fill="#FFFFFF" d="M353.37,320.119c2.869-2.881,3.644-8.27,2.404-14.175c0.188,2.121-3.303,5.924-6.961,6.351
			c2.093-4.944,0.99-8.271-1.802-12.921c0.648,6.841-4.143,6.418-6.449,12.753c-2.093-1.107-3.319-2.276-2.544-6.41
			c-2.637,3.246-3.569,6.725-3.104,9.899c0.421,2.873,4.118,7.4,10.464,7.21C349.493,322.702,350.995,322.502,353.37,320.119z"/>
		<circle fill="none" stroke="#0071BC" stroke-width="6" cx="346.478" cy="301.062" r="26.085"/>
		<line fill="none" stroke="#0071BC" stroke-width="6" x1="328.344" y1="283.395" x2="365.11" y2="320.16"/>
	</g>
	<g>
		<g id="XMLID_4_">
			<g>
				<path fill="#FFFFFF" d="M426.254,279.828c-5.717,5.522-12.5,12.078-18.738,18.107l0.012,0.013c0,0,2.143,6.564,10.133,14.832
					c7.709,7.977,13.098,9.506,13.467,9.601c6.238-6.029,13.023-12.587,18.74-18.108c-0.329-0.084-5.729-1.592-13.472-9.603
					c-7.986-8.264-10.131-14.83-10.131-14.83L426.254,279.828z"/>
				<path fill="#333333" d="M407.516,297.935c-0.426,0.411-0.848,0.819-1.268,1.225l0.013,0.013c0,0,2.144,6.566,10.131,14.831
					c7.693,7.96,13.074,9.499,13.468,9.603c0.42-0.406,0.842-0.814,1.268-1.226c-0.369-0.095-5.758-1.624-13.467-9.601
					c-7.99-8.268-10.133-14.832-10.133-14.832L407.516,297.935z"/>
				<path fill="#CC1B1B" d="M406.248,299.16c-8.9,8.601-16.429,15.881-17.72,17.129c-1.245,7.989,13.318,24.264,23.617,24.437
					c1.198-1.158,8.763-8.469,17.715-17.12c-0.394-0.104-5.774-1.643-13.468-9.603c-7.987-8.265-10.131-14.831-10.131-14.831
					L406.248,299.16z"/>
				<path fill="#333333" d="M427.521,278.604c-0.416,0.402-0.838,0.81-1.268,1.225l0.011,0.011c0,0,2.145,6.566,10.131,14.83
					c7.742,8.011,13.143,9.519,13.472,9.603c0.426-0.415,0.85-0.824,1.266-1.223c-0.369-0.096-5.759-1.626-13.468-9.603
					c-7.991-8.268-10.133-14.832-10.133-14.832L427.521,278.604z"/>
				<path fill="#CC1B1B" d="M436.952,269.489c-2.162,2.089-5.496,5.312-9.431,9.114l0.011,0.011c0,0,2.142,6.564,10.133,14.832
					c7.709,7.977,13.099,9.507,13.468,9.603c3.938-3.81,7.279-7.036,9.438-9.121c5.022-4.857,1.518-11.701-5.355-18.812
					C448.348,268.01,441.974,264.632,436.952,269.489z"/>
			</g>
			<g>
				<path fill="none" stroke="#000000" d="M406.248,299.16c-8.9,8.601-16.429,15.881-17.72,17.129
					c-1.245,7.989,13.318,24.264,23.617,24.437c1.198-1.158,8.763-8.469,17.715-17.12c0.42-0.406,0.842-0.814,1.268-1.226
					c6.238-6.029,13.023-12.587,18.74-18.108c0.426-0.415,0.85-0.824,1.266-1.223c3.938-3.81,7.279-7.036,9.438-9.121
					c5.022-4.857,1.518-11.701-5.355-18.812c-6.867-7.105-13.241-10.483-18.263-5.626c-2.162,2.089-5.496,5.312-9.431,9.114
					c-0.416,0.402-0.838,0.81-1.268,1.225c-5.717,5.522-12.5,12.078-18.738,18.107C407.09,298.346,406.668,298.754,406.248,299.16z"
					/>
				<path fill="none" stroke="#000000" d="M449.883,304.277c0,0-0.005-0.002-0.016-0.006c-0.329-0.084-5.729-1.592-13.472-9.603
					c-7.986-8.264-10.131-14.83-10.131-14.83"/>
				<path fill="none" stroke="#000000" d="M451.152,303.054c0,0-0.005-0.001-0.02-0.005c-0.369-0.096-5.759-1.626-13.468-9.603
					c-7.991-8.268-10.133-14.832-10.133-14.832"/>
				<path fill="none" stroke="#000000" d="M429.881,323.612c0,0-0.01-0.002-0.021-0.007c-0.394-0.104-5.774-1.643-13.468-9.603
					c-7.987-8.265-10.131-14.831-10.131-14.831"/>
				<path fill="none" stroke="#000000" d="M431.146,322.386c0,0-0.005-0.002-0.019-0.006c-0.369-0.095-5.758-1.624-13.467-9.601
					c-7.99-8.268-10.133-14.832-10.133-14.832"/>
			</g>
		</g>
		<path fill="#CCCCCC" d="M462.371,271.784c0,0,1.81,2.679,3.115,5.155c1.212,2.302,1.923,4.411,2.021,4.512
			c0.2,0.209,3.332,1.99,6.166-0.748c2.833-2.739,1.211-5.872,0.955-6.135c-0.118-0.124-2.395-0.81-4.567-2.049
			c-2.494-1.422-4.92-3.413-4.92-3.413L462.371,271.784z"/>
		<path fill="#CC1B1B" stroke="#000000" d="M449.445,270.781c-0.058,0.232,0.145,3.061,4.326,7.386
			c4.18,4.328,7.142,4.7,7.285,4.629c0.145-0.066,3.297-2.902,3.41-3.293c0.115-0.394-0.375-3.155-4.31-7.228
			c-3.936-4.07-6.96-4.872-7.354-4.844C452.408,267.462,449.502,270.551,449.445,270.781z"/>
		<path fill="none" stroke="#000000" d="M449.445,270.781c-0.058,0.232,0.145,3.061,4.326,7.386c4.18,4.328,7.142,4.7,7.285,4.629
			c0.145-0.066,3.297-2.902,3.41-3.293c0.115-0.394-0.375-3.155-4.31-7.228c-3.936-4.07-6.96-4.872-7.354-4.844
			C452.408,267.462,449.502,270.551,449.445,270.781z"/>
		<path fill="none" stroke="#000000" d="M462.371,271.784c0,0,1.81,2.679,3.115,5.155c1.212,2.302,1.923,4.411,2.021,4.512
			c0.2,0.209,3.332,1.99,6.166-0.748c2.833-2.739,1.211-5.872,0.955-6.135c-0.118-0.124-2.395-0.81-4.567-2.049
			c-2.494-1.422-4.92-3.413-4.92-3.413L462.371,271.784z"/>
		<path fill="#CC1B1B" d="M461.659,263.764c0.229,0.037,2.112,1.023,3.794,2.763c1.68,1.737,2.562,3.567,2.593,3.847
			c0.056,0.541-4.57,7.631-5.001,7.599c-0.216-0.018-2.343-0.483-5.56-3.812c-3.216-3.328-3.582-5.478-3.59-5.656
			C453.881,268.144,461.19,263.694,461.659,263.764z"/>
		<path fill="none" stroke="#000000" d="M461.659,263.764c0.229,0.037,2.112,1.023,3.794,2.763c1.68,1.737,2.562,3.567,2.593,3.847
			c0.056,0.541-4.57,7.631-5.001,7.599c-0.216-0.018-2.343-0.483-5.56-3.812c-3.216-3.328-3.582-5.478-3.59-5.656
			C453.881,268.144,461.19,263.694,461.659,263.764z"/>
		<polygon fill="#CC1B1B" points="460.137,270.399 458.354,272.107 453.961,268.884 425.889,272.263 425.869,266.506 
			453.037,263.824 456.494,266.435 		"/>
		<polygon fill="none" stroke="#000000" points="460.137,270.399 458.354,272.107 453.961,268.884 425.889,272.263 425.869,266.506 
			453.037,263.824 456.494,266.435 		"/>
		<path fill="#F4B5B5" d="M430.577,282.729c-0.024-0.326,9.737-10.695,12.238-11.126c2.146-0.37,4.718,0.051,4.979,0.321
			c0.263,0.271,0.694,1.079,0.453,1.313c-0.242,0.233-3.24-0.534-4.806-0.141c-2.443,0.61-11.968,10.893-12.174,10.86
			C431.062,283.925,430.602,283.057,430.577,282.729z"/>
		<polygon fill="#333333" stroke="#000000" points="466.047,266.477 464.78,267.643 461.918,264.981 448.935,264.166 
			449.012,261.35 460.846,261.818 462.873,262.892 		"/>
	</g>
</g>
</svg>
