<?xml version="1.0" encoding="utf-8"?>
<!-- Generator: Adobe Illustrator 13.0.0, SVG Export Plug-In . SVG Version: 6.00 Build 14948)  -->
<!DOCTYPE svg PUBLIC "-//W3C//DTD SVG 1.1//EN" "http://www.w3.org/Graphics/SVG/1.1/DTD/svg11.dtd">
<svg version="1.1" id="Layer_1" xmlns="http://www.w3.org/2000/svg" xmlns:xlink="http://www.w3.org/1999/xlink" x="0px" y="0px"
	 width="800px" height="600px" viewBox="0 0 800 600" enable-background="new 0 0 800 600" xml:space="preserve">
<g>
	<polygon fill="#999999" points="382.13,288.125 398.391,322.303 410.471,285.228 	"/>
	<g>
		<path fill="#FFFFFF" stroke="#B3B3B3" d="M408.409,300.717c9.46-2.06,6.834,13.341-1.065,11.549
			c10.391,4.064,0.121,21.096-8.115,21.456c-15.409,0.676-17.485-19.167-15.098-29.042"/>
		<path fill="#FFFFFF" stroke="#B3B3B3" d="M409.72,299.891c15.192-8.06-0.905-26.121-5.989-16.84
			c4.151-14.234-18.48-16.993-18.805-3.827"/>
		<path fill="#FFFFFF" stroke="#B3B3B3" d="M385.965,324.429c-12.671,10.182-26.722-12.483-18.733-24.173
			c-10.548-6.562-1.689-21.166,7.498-22.96c4.345-0.853,9.768,0.309,13.01,3.322"/>
	</g>
	<g>
		<polygon fill="#FFFFFF" points="411.792,302.479 387.027,293.773 399.356,317.832 		"/>
		<path fill="#FFFFFF" stroke="#B3B3B3" d="M406.884,300.643c6.672-0.706,1.585-10.271-3.222-7.373
			c5.958-4.936-4.519-13.913-10.018-12.354c-10.29,2.913-7.329,16.43-3.61,22.41"/>
		<path fill="#FFFFFF" stroke="#B3B3B3" d="M407.924,300.903c11.761,1.99,5.102,17.389-0.271,12.387
			c5.838,8.468-8.461,15.218-11.539,6.618"/>
		<path fill="#FFFFFF" stroke="#B3B3B3" d="M386.939,289.921c-10.557-3.934-14.871,14.047-7.063,20
			c-5.507,6.622,3.501,14.3,9.942,13.481c5.067-0.645,10.877-5.6,7.743-11.108"/>
	</g>
	<polyline fill="#FFFFFF" stroke="#B3B3B3" points="395.333,315.667 443,311.445 442.666,302.438 402,290.333 	"/>
	<line fill="#FFFFFF" stroke="#B3B3B3" stroke-width="0.75" x1="413.983" y1="308.445" x2="442.481" y2="307.814"/>
	<line fill="#FFFFFF" stroke="#B3B3B3" stroke-width="0.75" x1="421.285" y1="301.234" x2="442.5" y2="306"/>
</g>
</svg>
