<?xml version="1.0" encoding="utf-8"?>
<!-- Generator: Adobe Illustrator 13.0.0, SVG Export Plug-In . SVG Version: 6.00 Build 14948)  -->
<!DOCTYPE svg PUBLIC "-//W3C//DTD SVG 1.1//EN" "http://www.w3.org/Graphics/SVG/1.1/DTD/svg11.dtd">
<svg version="1.1" id="Layer_1" xmlns="http://www.w3.org/2000/svg" xmlns:xlink="http://www.w3.org/1999/xlink" x="0px" y="0px"
	 width="800px" height="600px" viewBox="0 0 800 600" enable-background="new 0 0 800 600" xml:space="preserve">
<g>
	<g id="XMLID_1_">
		<g>
			<path fill="#CC1B1B" d="M415.579,322.737c0,15.767,0,29.109,0,31.396c-6.219,8.214-34.016,9.282-43.295,0
				c0-2.123,0-15.522,0-31.383c0.414,0.254,6.584,3.836,20.719,3.836c14.645,0,22.557-3.849,22.557-3.849H415.579z"/>
			<path fill="#333333" d="M415.579,320.492c0,0.754,0,1.501,0,2.245h-0.02c0,0-7.912,3.849-22.557,3.849
				c-14.134,0-20.305-3.582-20.719-3.836c0-0.744,0-1.491,0-2.245c0.414,0.254,6.584,3.836,20.719,3.836
				c14.645,0,22.557-3.849,22.557-3.849H415.579z"/>
			<path fill="#FFFFFF" d="M415.579,287.297c0,10.125,0,22.143,0,33.195h-0.02c0,0-7.912,3.849-22.557,3.849
				c-14.134,0-20.305-3.582-20.719-3.836c0-11.049,0-23.069,0-33.194c0.414,0.253,6.584,3.835,20.719,3.835
				c14.645,0,22.557-3.849,22.557-3.849H415.579z"/>
			<path fill="#333333" d="M415.579,285.052c0,0.738,0,1.485,0,2.245h-0.02c0,0-7.912,3.849-22.557,3.849
				c-14.134,0-20.305-3.582-20.719-3.835c0-0.76,0-1.508,0-2.245c0.414,0.253,6.584,3.836,20.719,3.836
				c14.645,0,22.557-3.849,22.557-3.849H415.579z"/>
			<path fill="#CC1B1B" d="M415.579,268.346c0,3.829,0,9.737,0,16.706h-0.02c0,0-7.912,3.849-22.557,3.849
				c-14.134,0-20.305-3.583-20.719-3.836c0-6.979,0-12.896,0-16.719c0-8.9,9.375-11.749,21.97-11.749
				C406.846,256.598,415.579,259.446,415.579,268.346z"/>
		</g>
		<g>
			<path fill="none" stroke="#000000" stroke-width="2" d="M415.579,322.737c0,15.767,0,29.109,0,31.396
				c-6.219,8.214-34.016,9.282-43.295,0c0-2.123,0-15.522,0-31.383c0-0.744,0-1.491,0-2.245c0-11.049,0-23.069,0-33.194
				c0-0.76,0-1.508,0-2.245c0-6.979,0-12.896,0-16.719c0-8.9,9.375-11.749,21.97-11.749c12.592,0,21.325,2.848,21.325,11.749
				c0,3.829,0,9.737,0,16.706c0,0.738,0,1.485,0,2.245c0,10.125,0,22.143,0,33.195C415.579,321.246,415.579,321.993,415.579,322.737
				z"/>
			<path fill="none" stroke="#000000" stroke-width="2" d="M372.262,287.297c0,0,0.007,0.003,0.022,0.013
				c0.414,0.253,6.584,3.835,20.719,3.835c14.645,0,22.557-3.849,22.557-3.849"/>
			<path fill="none" stroke="#000000" stroke-width="2" d="M372.262,285.052c0,0,0.007,0.003,0.022,0.013
				c0.414,0.253,6.584,3.836,20.719,3.836c14.645,0,22.557-3.849,22.557-3.849"/>
			<path fill="none" stroke="#000000" stroke-width="2" d="M372.262,322.737c0,0,0.007,0.003,0.022,0.013
				c0.414,0.254,6.584,3.836,20.719,3.836c14.645,0,22.557-3.849,22.557-3.849"/>
			<path fill="none" stroke="#000000" stroke-width="2" d="M372.262,320.492c0,0,0.007,0.004,0.022,0.013
				c0.414,0.254,6.584,3.836,20.719,3.836c14.645,0,22.557-3.849,22.557-3.849"/>
		</g>
	</g>
	<path fill="#CCCCCC" stroke="#000000" stroke-width="2" d="M390.972,247.095c0,0-4.055,0.714-7.478,1.711
		c-3.184,0.928-5.745,2.144-5.923,2.144c-0.369,0-4.773-1.292-4.773-6.312s4.306-6.307,4.773-6.307c0.218,0,2.86,1.478,5.919,2.371
		c3.511,1.025,7.481,1.484,7.481,1.484V247.095z"/>
	<path fill="#CC1B1B" stroke="#000000" stroke-width="2" d="M403.334,258.049c-0.161,0.258-2.931,2.577-10.596,2.577
		c-7.664,0-10.626-2.383-10.691-2.577c-0.064-0.193-0.258-5.59,0-6.041c0.257-0.451,3.22-2.447,10.434-2.447
		c7.213,0,10.627,2.061,10.949,2.447C403.752,252.394,403.494,257.792,403.334,258.049z"/>
	<path fill="#A01010" stroke="#000000" stroke-width="2" d="M392.738,254.933c-7.664,0-10.949-2.474-10.691-2.925
		c0.257-0.451,3.22-2.447,10.434-2.447c7.213,0,10.627,2.061,10.949,2.447C403.752,252.394,400.403,254.933,392.738,254.933z"/>
	<path fill="none" stroke="#000000" stroke-width="2" d="M403.334,258.049c-0.161,0.258-2.931,2.577-10.596,2.577
		c-7.664,0-10.626-2.383-10.691-2.577c-0.064-0.193-0.258-5.59,0-6.041c0.257-0.451,3.22-2.447,10.434-2.447
		c7.213,0,10.627,2.061,10.949,2.447C403.752,252.394,403.494,257.792,403.334,258.049z"/>
	<path fill="#999999" stroke="#000000" stroke-width="2" d="M390.972,247.095c0,0-4.124,0.759-7.478,1.711
		c-0.056,0.016,0.031-1.983,0.395-4.097c0.401-2.325,1.203-3.568,1.203-3.568l5.373,1.283L390.972,247.095z"/>
	<path fill="none" stroke="#000000" stroke-width="2" d="M390.972,247.095c0,0-4.055,0.714-7.478,1.711
		c-3.184,0.928-5.745,2.144-5.923,2.144c-0.369,0-4.773-1.292-4.773-6.312s4.306-6.307,4.773-6.307c0.218,0,2.86,1.478,5.919,2.371
		c3.511,1.025,7.481,1.484,7.481,1.484V247.095z"/>
	<path fill="#CC1B1B" stroke="#000000" stroke-width="2" d="M398.949,240.648c-0.234-0.179-2.807-1.03-5.887-1.03
		s-5.538,0.811-5.819,1.03c-0.547,0.428-2.943,10.94-2.533,11.307c0.205,0.183,2.516,1.719,8.411,1.719
		c5.896,0,8.189-1.566,8.36-1.719C401.824,251.65,399.428,241.015,398.949,240.648z"/>
	<path fill="#A01010" stroke="#000000" stroke-width="2" d="M398.949,240.648c-0.234-0.179-2.807-1.03-5.887-1.03
		s-5.538,0.811-5.819,1.03c-0.547,0.428-0.017,1.936,5.878,1.936C399.017,242.584,399.428,241.015,398.949,240.648z"/>
	<path fill="none" stroke="#000000" stroke-width="2" d="M398.949,240.648c-0.234-0.179-2.807-1.03-5.887-1.03
		s-5.538,0.811-5.819,1.03c-0.547,0.428-2.943,10.94-2.533,11.307c0.205,0.183,2.516,1.719,8.411,1.719
		c5.896,0,8.189-1.566,8.36-1.719C401.824,251.65,399.428,241.015,398.949,240.648z"/>
	<polygon fill="#CC1B1B" stroke="#000000" stroke-width="2" points="394.219,247.917 394.233,251.063 401.074,252.233 
		422.83,280.938 428.123,275.859 406.527,248.598 401.074,247.743 	"/>
	<polygon fill="#A01010" stroke="#000000" stroke-width="2" points="394.219,247.917 394.233,251.063 401.074,252.233 
		422.83,280.938 424.488,279.281 402.465,249.614 	"/>
	<polygon fill="none" stroke="#000000" stroke-width="2" points="394.219,247.917 394.233,251.063 401.074,252.233 422.83,280.938 
		428.123,275.859 406.527,248.598 401.074,247.743 	"/>
	<g>
		<path fill="#CC1B1B" stroke="#000000" stroke-width="2" d="M401.461,314.539c1.273-2.754,1.527-8.35-1.816-11.589
			c0.154,2.091,0.622,5.206-2.396,5.63c1.274-5.871-3.132-6.012-2.761-11.834c-6.855,7.02,0.779,8.303-4.107,12.117
			c0.92-2.753-1.166-4.465-3.27-6.135c0.804,1.165,0.363,3.232,0.05,4.549c-0.453,1.91-1.951,3.049-2.326,4.967
			c-0.546,2.791,3.034,7.178,8.272,7.115C398.346,319.295,400.136,317.402,401.461,314.539z"/>
		<path fill="#FFFFFF" stroke="#000000" stroke-width="2" d="M397.159,318.018c1.52-1.527,1.931-4.383,1.274-7.512
			c0.099,1.123-1.751,3.137-3.689,3.365c1.109-2.621,0.525-4.383-0.955-6.848c0.343,3.625-2.196,3.4-3.418,6.758
			c-1.11-0.586-1.759-1.207-1.348-3.396c-1.397,1.721-1.892,3.562-1.645,5.246c0.224,1.523,2.182,3.922,5.545,3.82
			C395.104,319.387,395.9,319.279,397.159,318.018z"/>
		<circle fill="none" stroke="#000000" stroke-width="2" cx="393.507" cy="307.918" r="13.823"/>
		<line fill="none" stroke="#000000" stroke-width="2" x1="383.897" y1="298.555" x2="403.381" y2="318.039"/>
	</g>
	<path fill="#A01010" stroke="#000000" stroke-width="2" d="M415.58,354.135c-16.857,8.32-33.749,3.83-38.453-0.445
		c-0.763-1.033-1.111-13.799-1.251-29.188c-1.288-0.533-2.17-0.814-3.543-1.535c-0.026,15.479-0.047,29.031-0.047,31.168
		C379.373,361.279,405.564,364.166,415.58,354.135z"/>
	<path fill="#A01010" stroke="#000000" stroke-width="2" d="M375.838,286.363c0.046-10.108,0.113-17.714,0.113-18.522
		c0-3.528,1.71-7.376,5.826-9.728c-4.169,0.694-9.354,4.222-9.354,9.515c0,1.174-0.012,7.65-0.027,17.333
		C373.225,285.481,374.388,286.042,375.838,286.363z"/>
	<path fill="none" stroke="#000000" stroke-width="2" stroke-linecap="round" stroke-linejoin="round" d="M415.58,271.209
		c0,20.827,0,77.955,0,82.925c-6.219,8.215-34.016,9.283-43.294,0c0-4.83,0-67.99,0-85.787c0-5.639,3.763-8.848,9.724-10.443"/>
	<path fill="#F4B5B5" stroke="#000000" stroke-width="2" d="M409.093,285.909c0.321-0.267,1.177-18.388-0.642-21.061
		c-1.559-2.293-4.223-4.276-4.703-4.276c-0.481,0-1.604,0.32-1.604,0.748s3.355,2.496,4.383,4.276
		c1.604,2.779,0.615,20.606,0.828,20.767C407.569,286.523,408.772,286.176,409.093,285.909z"/>
	<polygon fill="#333333" stroke="#000000" stroke-width="2" points="392.58,239.03 392.633,241.221 397.604,241.489 
		409.846,252.661 412.357,250.095 401.453,239.671 398.673,238.763 	"/>
</g>
<g>
	<g id="XMLID_3_">
		<g>
			<path fill="#CC1B1B" d="M415.579,322.737c0,15.767,0,29.109,0,31.396c-6.219,8.214-34.016,9.282-43.295,0
				c0-2.123,0-15.522,0-31.383c0.414,0.254,6.584,3.836,20.719,3.836c14.645,0,22.557-3.849,22.557-3.849H415.579z"/>
			<path fill="#333333" d="M415.579,320.492c0,0.754,0,1.501,0,2.245h-0.02c0,0-7.912,3.849-22.557,3.849
				c-14.134,0-20.305-3.582-20.719-3.836c0-0.744,0-1.491,0-2.245c0.414,0.254,6.584,3.836,20.719,3.836
				c14.645,0,22.557-3.849,22.557-3.849H415.579z"/>
			<path fill="#FFFFFF" d="M415.579,287.297c0,10.125,0,22.143,0,33.195h-0.02c0,0-7.912,3.849-22.557,3.849
				c-14.134,0-20.305-3.582-20.719-3.836c0-11.049,0-23.069,0-33.194c0.414,0.253,6.584,3.835,20.719,3.835
				c14.645,0,22.557-3.849,22.557-3.849H415.579z"/>
			<path fill="#333333" d="M415.579,285.052c0,0.738,0,1.485,0,2.245h-0.02c0,0-7.912,3.849-22.557,3.849
				c-14.134,0-20.305-3.582-20.719-3.835c0-0.76,0-1.508,0-2.245c0.414,0.253,6.584,3.836,20.719,3.836
				c14.645,0,22.557-3.849,22.557-3.849H415.579z"/>
			<path fill="#CC1B1B" d="M415.579,268.346c0,3.829,0,9.737,0,16.706h-0.02c0,0-7.912,3.849-22.557,3.849
				c-14.134,0-20.305-3.583-20.719-3.836c0-6.979,0-12.896,0-16.719c0-8.9,9.375-11.749,21.97-11.749
				C406.846,256.598,415.579,259.446,415.579,268.346z"/>
		</g>
		<g>
			<path fill="none" stroke="#000000" d="M415.579,322.737c0,15.767,0,29.109,0,31.396c-6.219,8.214-34.016,9.282-43.295,0
				c0-2.123,0-15.522,0-31.383c0-0.744,0-1.491,0-2.245c0-11.049,0-23.069,0-33.194c0-0.76,0-1.508,0-2.245
				c0-6.979,0-12.896,0-16.719c0-8.9,9.375-11.749,21.97-11.749c12.592,0,21.325,2.848,21.325,11.749c0,3.829,0,9.737,0,16.706
				c0,0.738,0,1.485,0,2.245c0,10.125,0,22.143,0,33.195C415.579,321.246,415.579,321.993,415.579,322.737z"/>
			<path fill="none" stroke="#000000" d="M372.262,287.297c0,0,0.007,0.003,0.022,0.013c0.414,0.253,6.584,3.835,20.719,3.835
				c14.645,0,22.557-3.849,22.557-3.849"/>
			<path fill="none" stroke="#000000" d="M372.262,285.052c0,0,0.007,0.003,0.022,0.013c0.414,0.253,6.584,3.836,20.719,3.836
				c14.645,0,22.557-3.849,22.557-3.849"/>
			<path fill="none" stroke="#000000" d="M372.262,322.737c0,0,0.007,0.003,0.022,0.013c0.414,0.254,6.584,3.836,20.719,3.836
				c14.645,0,22.557-3.849,22.557-3.849"/>
			<path fill="none" stroke="#000000" d="M372.262,320.492c0,0,0.007,0.004,0.022,0.013c0.414,0.254,6.584,3.836,20.719,3.836
				c14.645,0,22.557-3.849,22.557-3.849"/>
		</g>
	</g>
	<path fill="#CCCCCC" d="M390.972,247.095c0,0-4.055,0.714-7.478,1.711c-3.184,0.928-5.745,2.144-5.923,2.144
		c-0.369,0-4.773-1.292-4.773-6.312s4.306-6.307,4.773-6.307c0.218,0,2.86,1.478,5.919,2.371c3.511,1.025,7.481,1.484,7.481,1.484
		V247.095z"/>
	<path fill="#CC1B1B" stroke="#000000" d="M403.334,258.049c-0.161,0.258-2.931,2.577-10.596,2.577
		c-7.664,0-10.626-2.383-10.691-2.577c-0.064-0.193-0.258-5.59,0-6.041c0.257-0.451,3.22-2.447,10.434-2.447
		c7.213,0,10.627,2.061,10.949,2.447C403.752,252.394,403.494,257.792,403.334,258.049z"/>
	<path fill="#A01010" d="M392.738,254.933c-7.664,0-10.949-2.474-10.691-2.925c0.257-0.451,3.22-2.447,10.434-2.447
		c7.213,0,10.627,2.061,10.949,2.447C403.752,252.394,400.403,254.933,392.738,254.933z"/>
	<path fill="none" stroke="#000000" d="M403.334,258.049c-0.161,0.258-2.931,2.577-10.596,2.577c-7.664,0-10.626-2.383-10.691-2.577
		c-0.064-0.193-0.258-5.59,0-6.041c0.257-0.451,3.22-2.447,10.434-2.447c7.213,0,10.627,2.061,10.949,2.447
		C403.752,252.394,403.494,257.792,403.334,258.049z"/>
	<path fill="#999999" d="M390.972,247.095c0,0-4.124,0.759-7.478,1.711c-0.056,0.016,0.031-1.983,0.395-4.097
		c0.401-2.325,1.203-3.568,1.203-3.568l5.373,1.283L390.972,247.095z"/>
	<path fill="none" stroke="#000000" d="M390.972,247.095c0,0-4.055,0.714-7.478,1.711c-3.184,0.928-5.745,2.144-5.923,2.144
		c-0.369,0-4.773-1.292-4.773-6.312s4.306-6.307,4.773-6.307c0.218,0,2.86,1.478,5.919,2.371c3.511,1.025,7.481,1.484,7.481,1.484
		V247.095z"/>
	<path fill="#CC1B1B" d="M398.949,240.648c-0.234-0.179-2.807-1.03-5.887-1.03s-5.538,0.811-5.819,1.03
		c-0.547,0.428-2.943,10.94-2.533,11.307c0.205,0.183,2.516,1.719,8.411,1.719c5.896,0,8.189-1.566,8.36-1.719
		C401.824,251.65,399.428,241.015,398.949,240.648z"/>
	<path fill="#A01010" d="M398.949,240.648c-0.234-0.179-2.807-1.03-5.887-1.03s-5.538,0.811-5.819,1.03
		c-0.547,0.428-0.017,1.936,5.878,1.936C399.017,242.584,399.428,241.015,398.949,240.648z"/>
	<path fill="none" stroke="#000000" d="M398.949,240.648c-0.234-0.179-2.807-1.03-5.887-1.03s-5.538,0.811-5.819,1.03
		c-0.547,0.428-2.943,10.94-2.533,11.307c0.205,0.183,2.516,1.719,8.411,1.719c5.896,0,8.189-1.566,8.36-1.719
		C401.824,251.65,399.428,241.015,398.949,240.648z"/>
	<polygon fill="#CC1B1B" points="394.219,247.917 394.233,251.063 401.074,252.233 422.83,280.938 428.123,275.859 406.527,248.598 
		401.074,247.743 	"/>
	<polygon fill="#A01010" points="394.219,247.917 394.233,251.063 401.074,252.233 422.83,280.938 424.488,279.281 402.465,249.614 
			"/>
	<polygon fill="none" stroke="#000000" points="394.219,247.917 394.233,251.063 401.074,252.233 422.83,280.938 428.123,275.859 
		406.527,248.598 401.074,247.743 	"/>
	<g>
		<path fill="#CC1B1B" d="M401.461,314.539c1.273-2.754,1.527-8.35-1.816-11.589c0.154,2.091,0.622,5.206-2.396,5.63
			c1.274-5.871-3.132-6.012-2.761-11.834c-6.855,7.02,0.779,8.303-4.107,12.117c0.92-2.753-1.166-4.465-3.27-6.135
			c0.804,1.165,0.363,3.232,0.05,4.549c-0.453,1.91-1.951,3.049-2.326,4.967c-0.546,2.791,3.034,7.178,8.272,7.115
			C398.346,319.295,400.136,317.402,401.461,314.539z"/>
		<path fill="#FFFFFF" d="M397.159,318.018c1.52-1.527,1.931-4.383,1.274-7.512c0.099,1.123-1.751,3.137-3.689,3.365
			c1.109-2.621,0.525-4.383-0.955-6.848c0.343,3.625-2.196,3.4-3.418,6.758c-1.11-0.586-1.759-1.207-1.348-3.396
			c-1.397,1.721-1.892,3.562-1.645,5.246c0.224,1.523,2.182,3.922,5.545,3.82C395.104,319.387,395.9,319.279,397.159,318.018z"/>
		<circle fill="none" stroke="#0071BC" stroke-width="3" cx="393.507" cy="307.918" r="13.823"/>
		<line fill="none" stroke="#0071BC" stroke-width="3" x1="383.897" y1="298.555" x2="403.381" y2="318.039"/>
	</g>
	<path fill="#A01010" d="M415.58,354.135c-16.857,8.32-33.749,3.83-38.453-0.445c-0.763-1.033-1.111-13.799-1.251-29.188
		c-1.288-0.533-2.17-0.814-3.543-1.535c-0.026,15.479-0.047,29.031-0.047,31.168C379.373,361.279,405.564,364.166,415.58,354.135z"
		/>
	<path fill="#A01010" d="M375.838,286.363c0.046-10.108,0.113-17.714,0.113-18.522c0-3.528,1.71-7.376,5.826-9.728
		c-4.169,0.694-9.354,4.222-9.354,9.515c0,1.174-0.012,7.65-0.027,17.333C373.225,285.481,374.388,286.042,375.838,286.363z"/>
	<path fill="none" stroke="#000000" stroke-width="0.5" stroke-linecap="round" stroke-linejoin="round" d="M415.58,271.209
		c0,20.827,0,77.955,0,82.925c-6.219,8.215-34.016,9.283-43.294,0c0-4.83,0-67.99,0-85.787c0-5.639,3.763-8.848,9.724-10.443"/>
	<path fill="#F4B5B5" d="M409.093,285.909c0.321-0.267,1.177-18.388-0.642-21.061c-1.559-2.293-4.223-4.276-4.703-4.276
		c-0.481,0-1.604,0.32-1.604,0.748s3.355,2.496,4.383,4.276c1.604,2.779,0.615,20.606,0.828,20.767
		C407.569,286.523,408.772,286.176,409.093,285.909z"/>
	<polygon fill="#333333" stroke="#000000" points="392.58,239.03 392.633,241.221 397.604,241.489 409.846,252.661 412.357,250.095 
		401.453,239.671 398.673,238.763 	"/>
</g>
<g>
	<path fill="none" stroke="#000000" stroke-width="2" d="M422.031,257.34c3.89,2.38,4.498,5.818,3.895,10.311
		c-1.023,6.159-6.54,9.684-8.572,9.789c-2.033,0.106-4.379-1.056-4.379-1.056c-2.559-0.102-2.779,0.704-4.943-0.098
		c-2.819-1.044-4.055-3.313-3.215-4.121c-2.136,0.262-5.089-3.042-4.123-5.039c-1.049-0.161-3.081-3.902-1.78-5.905
		c-2.105-0.284-1.612-5.384-1.612-5.384c0.055-0.874,4.078-2.975,4.459-2.372c1.089,1.359,1.021,1.554,2.127,2.755
		c1.626-0.46,3.708-2.915,3.796-3.665c0.23-1.977-3.658-4.734-3.32-7.721c0.088-0.773,1.198-3.378,2.158-3.22
		c2.311,0.38,3.455,5.642,6.802,7.597c1.759,1.026,6.458,7.11,6.458,7.11L422.031,257.34z"/>
	<path fill="none" stroke="#000000" stroke-width="2" d="M407.91,276.179c-2.281-0.952-3.346-2.827-3.346-2.827
		s1.24,1.453,3.565,2.096c0.836,0.25,2.729-0.256,2.885-0.595c-2.343-2.224-2.14-3.292-1.79-3.562
		c0.158-0.122,0.423,0.798,1.131,1.128c0.869,0.406,1.655,0.199,1.714-0.107c0.034-0.186-0.35-0.788-0.776-3.513
		c-0.43-2.727,0.783-5.189,1.596-6.574c2.108-3.843,8.373-6.809,12.262-2c-1.568-3.032-6.357-4.334-7.262-4.289
		c-0.137-1.79-2.09-3.859-4.396-6.554c1.184,0.85,6.289,6.94,6.289,6.94s8.885,3.321,6.834,11.899s-9.217,9.334-10.064,9.342
		s-2.932-0.821-3.322-0.991C411.697,276.44,409.42,276.809,407.91,276.179z"/>
	<path fill="none" stroke="#000000" stroke-width="2" d="M408.928,271.284c-0.104,3.272,5.68,6.639,8.893,6.245
		c4.301-0.527,8.287-5.841,8.803-9.746c0.594-4.493-0.553-8.034-4.592-10.443c-3.42-2.041-7.436-2.147-10.411,2.121"/>
	<path fill="none" stroke="#000000" stroke-width="2" d="M419.781,256.321c0,0-2.9-4.275-6.656-7.232
		c-3.348-3.238-4.65-6.716-6.494-7.354c-0.919-0.319-2.032,1.885-2.173,2.651c-0.26,1.406,0.187,2.598,1.136,4.117
		c0.68,1.088,2.246,3.144,1.902,4.271c-0.221,0.722-2.042,3.11-4.234,3.649"/>
	<path fill="none" stroke="#000000" stroke-width="2" d="M413.295,276.44c-2.777-0.206-3.753,0.258-5.135-0.162
		c-1.382-0.419-3.596-2.131-3.615-3.274c-0.008-0.444,0.098-0.581,0.373-0.804c0,0-0.944-0.033-1.391-0.183
		c-1.342-0.453-2.844-2.888-2.943-3.589c-0.145-1.011,0.15-1.453,0.15-1.453l-0.268,0.002c-0.953-0.027-1.865-2.92-2.044-4.182
		c-0.102-0.717,0.491-1.574,0.491-1.574"/>
	<path fill="none" stroke="#000000" stroke-width="2" d="M401.836,253.276c-2.041,0.402-3.751,1.256-4.38,2.371
		c-0.628,1.115,0.103,4.653,0.525,5.085c0.422,0.434,2.291,0.563,2.291,0.563"/>
</g>
<g>
	<path fill="#FFFFFF" d="M422.031,257.34c3.89,2.38,4.498,5.818,3.895,10.311c-1.023,6.159-6.54,9.684-8.572,9.789
		c-2.033,0.106-4.379-1.056-4.379-1.056c-2.559-0.102-2.779,0.704-4.943-0.098c-2.819-1.044-4.055-3.313-3.215-4.121
		c-2.136,0.262-5.089-3.042-4.123-5.039c-1.049-0.161-3.081-3.902-1.78-5.905c-2.105-0.284-1.612-5.384-1.612-5.384
		c0.055-0.874,4.078-2.975,4.459-2.372c1.089,1.359,1.021,1.554,2.127,2.755c1.626-0.46,3.708-2.915,3.796-3.665
		c0.23-1.977-3.658-4.734-3.32-7.721c0.088-0.773,1.198-3.378,2.158-3.22c2.311,0.38,3.455,5.642,6.802,7.597
		c1.759,1.026,6.458,7.11,6.458,7.11L422.031,257.34z"/>
	<path fill="#CCCCCC" d="M407.91,276.179c-2.281-0.952-3.346-2.827-3.346-2.827s1.24,1.453,3.565,2.096
		c0.836,0.25,2.729-0.256,2.885-0.595c-2.343-2.224-2.14-3.292-1.79-3.562c0.158-0.122,0.423,0.798,1.131,1.128
		c0.869,0.406,1.655,0.199,1.714-0.107c0.034-0.186-0.35-0.788-0.776-3.513c-0.43-2.727,0.783-5.189,1.596-6.574
		c2.108-3.843,8.373-6.809,12.262-2c-1.568-3.032-6.357-4.334-7.262-4.289c-0.137-1.79-2.09-3.859-4.396-6.554
		c1.184,0.85,6.289,6.94,6.289,6.94s8.885,3.321,6.834,11.899s-9.217,9.334-10.064,9.342s-2.932-0.821-3.322-0.991
		C411.697,276.44,409.42,276.809,407.91,276.179z"/>
	<path fill="none" stroke="#000000" d="M408.928,271.284c-0.104,3.272,5.68,6.639,8.893,6.245c4.301-0.527,8.287-5.841,8.803-9.746
		c0.594-4.493-0.553-8.034-4.592-10.443c-3.42-2.041-7.436-2.147-10.411,2.121"/>
	<path fill="none" stroke="#000000" d="M419.781,256.321c0,0-2.9-4.275-6.656-7.232c-3.348-3.238-4.65-6.716-6.494-7.354
		c-0.919-0.319-2.032,1.885-2.173,2.651c-0.26,1.406,0.187,2.598,1.136,4.117c0.68,1.088,2.246,3.144,1.902,4.271
		c-0.221,0.722-2.042,3.11-4.234,3.649"/>
	<path fill="none" stroke="#000000" d="M413.295,276.44c-2.777-0.206-3.753,0.258-5.135-0.162c-1.382-0.419-3.596-2.131-3.615-3.274
		c-0.008-0.444,0.098-0.581,0.373-0.804c0,0-0.944-0.033-1.391-0.183c-1.342-0.453-2.844-2.888-2.943-3.589
		c-0.145-1.011,0.15-1.453,0.15-1.453l-0.268,0.002c-0.953-0.027-1.865-2.92-2.044-4.182c-0.102-0.717,0.491-1.574,0.491-1.574"/>
	<path fill="none" stroke="#000000" d="M401.836,253.276c-2.041,0.402-3.751,1.256-4.38,2.371c-0.628,1.115,0.103,4.653,0.525,5.085
		c0.422,0.434,2.291,0.563,2.291,0.563"/>
</g>
</svg>
