<?xml version="1.0" encoding="utf-8"?>
<!-- Generator: Adobe Illustrator 13.0.0, SVG Export Plug-In . SVG Version: 6.00 Build 14948)  -->
<!DOCTYPE svg PUBLIC "-//W3C//DTD SVG 1.1//EN" "http://www.w3.org/Graphics/SVG/1.1/DTD/svg11.dtd">
<svg version="1.1" id="Layer_1" xmlns="http://www.w3.org/2000/svg" xmlns:xlink="http://www.w3.org/1999/xlink" x="0px" y="0px"
	 width="800px" height="600px" viewBox="0 0 800 600" enable-background="new 0 0 800 600" xml:space="preserve">
<polygon fill="#999999" points="381.63,286.125 397.891,320.303 409.971,283.228 "/>
<g>
	<path fill="#FFFFFF" stroke="#B3B3B3" d="M407.909,299.736c9.46,2.061,6.834-13.341-1.065-11.549
		c10.391-4.064,0.121-21.096-8.115-21.456c-15.408-0.676-17.484,19.167-15.098,29.042"/>
	<path fill="#FFFFFF" stroke="#B3B3B3" d="M409.22,300.562c15.192,8.061-0.905,26.121-5.989,16.84
		c4.151,14.234-18.48,16.992-18.805,3.827"/>
	<path fill="#FFFFFF" stroke="#B3B3B3" d="M385.465,276.024c-12.671-10.182-26.722,12.483-18.732,24.173
		c-10.549,6.562-1.689,21.166,7.497,22.96c4.345,0.853,9.768-0.309,13.01-3.322"/>
</g>
<g>
	<polygon fill="#FFFFFF" points="408.96,295.506 386.297,308.752 393.836,282.791 	"/>
	<path fill="#FFFFFF" stroke="#B3B3B3" d="M404.488,298.239c6.686-0.572,3.506,9.785-1.764,7.85
		c6.786,3.716-1.798,14.519-7.492,14.03c-10.656-0.907-10.314-14.741-7.797-21.317"/>
	<path fill="#FFFFFF" stroke="#B3B3B3" d="M405.46,297.786c11.17-4.186,1.71-18.041-2.616-12.11
		c4.125-9.421-11.195-13.336-12.585-4.309"/>
	<path fill="#FFFFFF" stroke="#B3B3B3" d="M386.941,312.55c-9.619,5.865-17.267-10.97-10.729-18.296
		c-6.664-5.457,0.725-14.705,7.203-15.124c5.097-0.328,11.742,3.435,9.709,9.438"/>
</g>
<polyline fill="#FFFFFF" stroke="#B3B3B3" points="394.834,313.667 442.5,309.445 442.166,300.437 401.5,288.333 "/>
<line fill="#FFFFFF" stroke="#B3B3B3" stroke-width="0.75" x1="415.75" y1="298.75" x2="441.75" y2="304.75"/>
<line fill="#FFFFFF" stroke="#B3B3B3" stroke-width="0.75" x1="421.5" y1="307.25" x2="442.25" y2="306.5"/>
</svg>
