<?xml version="1.0" encoding="utf-8"?>
<!-- Generator: Adobe Illustrator 13.0.0, SVG Export Plug-In . SVG Version: 6.00 Build 14948)  -->
<!DOCTYPE svg PUBLIC "-//W3C//DTD SVG 1.1//EN" "http://www.w3.org/Graphics/SVG/1.1/DTD/svg11.dtd">
<svg version="1.1" id="Layer_1" xmlns="http://www.w3.org/2000/svg" xmlns:xlink="http://www.w3.org/1999/xlink" x="0px" y="0px"
	 width="800px" height="600px" viewBox="0 0 800 600" enable-background="new 0 0 800 600" xml:space="preserve">
<g>
	<path fill="#6CB2D8" stroke="#0071BC" stroke-width="2" d="M487.666,327.333c0,3.866-3.134,7-7,7h-161.5c-3.866,0-7-3.134-7-7
		v-52.5c0-3.866,3.134-7,7-7h161.5c3.866,0,7,3.134,7,7V327.333z"/>
	<g>
		<g id="XMLID_5_">
			<g>
				<path fill="#FFFFFF" d="M428.921,279.827c-5.717,5.522-12.502,12.08-18.74,18.109l0.012,0.013c0,0,2.143,6.563,10.133,14.832
					c7.709,7.977,13.1,9.503,13.468,9.599c6.239-6.029,13.024-12.587,18.741-18.108c-0.33-0.084-5.731-1.59-13.472-9.603
					c-7.988-8.263-10.131-14.831-10.131-14.831L428.921,279.827z"/>
				<path fill="#333333" d="M410.181,297.936c-0.426,0.411-0.848,0.819-1.268,1.225l0.012,0.013c0,0,2.145,6.565,10.132,14.83
					c7.694,7.959,13.076,9.498,13.47,9.601c0.42-0.405,0.842-0.813,1.267-1.225c-0.368-0.096-5.759-1.622-13.468-9.599
					c-7.99-8.269-10.133-14.832-10.133-14.832L410.181,297.936z"/>
				<path fill="#CC1B1B" d="M408.913,299.16c-8.9,8.602-16.429,15.882-17.72,17.129c-1.244,7.988,13.318,24.265,23.617,24.437
					c1.198-1.158,8.763-8.468,17.717-17.122c-0.394-0.103-5.775-1.642-13.47-9.601c-7.987-8.265-10.132-14.83-10.132-14.83
					L408.913,299.16z"/>
				<path fill="#333333" d="M430.188,278.602c-0.416,0.402-0.838,0.81-1.268,1.225l0.011,0.011c0,0,2.143,6.568,10.131,14.831
					c7.74,8.013,13.142,9.519,13.472,9.603c0.426-0.415,0.848-0.822,1.264-1.222c-0.369-0.095-5.759-1.626-13.465-9.602
					c-7.994-8.268-10.134-14.834-10.134-14.834L430.188,278.602z"/>
				<path fill="#CC1B1B" d="M439.618,269.488c-2.161,2.089-5.496,5.312-9.43,9.114l0.011,0.011c0,0,2.14,6.566,10.134,14.834
					c7.706,7.976,13.096,9.507,13.465,9.602c3.939-3.811,7.279-7.035,9.438-9.121c5.023-4.855,1.517-11.701-5.355-18.812
					C451.013,268.011,444.641,264.631,439.618,269.488z"/>
			</g>
			<g>
				<path fill="none" stroke="#000000" d="M408.913,299.16c-8.9,8.602-16.429,15.882-17.72,17.129
					c-1.244,7.988,13.318,24.265,23.617,24.437c1.198-1.158,8.763-8.468,17.717-17.122c0.42-0.405,0.842-0.813,1.267-1.225
					c6.239-6.029,13.024-12.587,18.741-18.108c0.426-0.415,0.848-0.822,1.264-1.222c3.939-3.811,7.279-7.035,9.438-9.121
					c5.023-4.855,1.517-11.701-5.355-18.812c-6.867-7.105-13.239-10.485-18.262-5.628c-2.161,2.089-5.496,5.312-9.43,9.114
					c-0.416,0.402-0.838,0.81-1.268,1.225c-5.717,5.522-12.502,12.08-18.74,18.109C409.755,298.347,409.333,298.754,408.913,299.16z
					"/>
				<path fill="none" stroke="#000000" d="M452.55,304.275c0,0-0.005-0.001-0.016-0.005c-0.33-0.084-5.731-1.59-13.472-9.603
					c-7.988-8.263-10.131-14.831-10.131-14.831"/>
				<path fill="none" stroke="#000000" d="M453.817,303.055c0,0-0.006-0.002-0.02-0.006c-0.369-0.095-5.759-1.626-13.465-9.602
					c-7.994-8.268-10.134-14.834-10.134-14.834"/>
				<path fill="none" stroke="#000000" d="M432.547,323.611c0,0-0.009-0.002-0.021-0.008c-0.394-0.103-5.775-1.642-13.47-9.601
					c-7.987-8.265-10.132-14.83-10.132-14.83"/>
				<path fill="none" stroke="#000000" d="M433.812,322.385c0,0-0.005-0.002-0.02-0.006c-0.368-0.096-5.759-1.622-13.468-9.599
					c-7.99-8.269-10.133-14.832-10.133-14.832"/>
			</g>
		</g>
		<path fill="#CCCCCC" d="M465.038,271.784c0,0,1.81,2.679,3.114,5.155c1.213,2.302,1.924,4.411,2.021,4.512
			c0.201,0.209,3.332,1.99,6.166-0.748c2.833-2.739,1.211-5.872,0.955-6.135c-0.117-0.124-2.395-0.81-4.566-2.049
			c-2.494-1.422-4.92-3.413-4.92-3.413L465.038,271.784z"/>
		<path fill="#CC1B1B" stroke="#000000" d="M452.112,270.781c-0.058,0.232,0.144,3.061,4.325,7.386
			c4.181,4.328,7.142,4.7,7.286,4.629c0.145-0.066,3.296-2.902,3.41-3.293c0.114-0.394-0.375-3.155-4.31-7.228
			c-3.936-4.07-6.961-4.872-7.355-4.844C455.074,267.462,452.169,270.551,452.112,270.781z"/>
		<path fill="none" stroke="#000000" d="M452.112,270.781c-0.058,0.232,0.144,3.061,4.325,7.386c4.181,4.328,7.142,4.7,7.286,4.629
			c0.145-0.066,3.296-2.902,3.41-3.293c0.114-0.394-0.375-3.155-4.31-7.228c-3.936-4.07-6.961-4.872-7.355-4.844
			C455.074,267.462,452.169,270.551,452.112,270.781z"/>
		<path fill="none" stroke="#000000" d="M465.038,271.784c0,0,1.81,2.679,3.114,5.155c1.213,2.302,1.924,4.411,2.021,4.512
			c0.201,0.209,3.332,1.99,6.166-0.748c2.833-2.739,1.211-5.872,0.955-6.135c-0.117-0.124-2.395-0.81-4.566-2.049
			c-2.494-1.422-4.92-3.413-4.92-3.413L465.038,271.784z"/>
		<path fill="#CC1B1B" d="M464.325,263.764c0.229,0.037,2.113,1.023,3.794,2.763c1.681,1.737,2.562,3.567,2.593,3.847
			c0.057,0.541-4.569,7.631-5.001,7.599c-0.216-0.018-2.343-0.483-5.559-3.812c-3.217-3.328-3.582-5.478-3.59-5.656
			C456.548,268.144,463.857,263.694,464.325,263.764z"/>
		<path fill="none" stroke="#000000" d="M464.325,263.764c0.229,0.037,2.113,1.023,3.794,2.763c1.681,1.737,2.562,3.567,2.593,3.847
			c0.057,0.541-4.569,7.631-5.001,7.599c-0.216-0.018-2.343-0.483-5.559-3.812c-3.217-3.328-3.582-5.478-3.59-5.656
			C456.548,268.144,463.857,263.694,464.325,263.764z"/>
		<polygon fill="#CC1B1B" points="462.803,270.399 461.02,272.107 456.627,268.884 428.556,272.263 428.535,266.506 
			455.703,263.824 459.161,266.435 		"/>
		<polygon fill="none" stroke="#000000" points="462.803,270.399 461.02,272.107 456.627,268.884 428.556,272.263 428.535,266.506 
			455.703,263.824 459.161,266.435 		"/>
		<path fill="#F4B5B5" d="M433.244,282.729c-0.025-0.326,9.737-10.695,12.237-11.126c2.146-0.37,4.718,0.051,4.979,0.321
			c0.263,0.271,0.695,1.079,0.453,1.313c-0.242,0.233-3.239-0.534-4.805-0.141c-2.444,0.61-11.968,10.893-12.175,10.86
			C433.729,283.925,433.269,283.057,433.244,282.729z"/>
		<polygon fill="#333333" stroke="#000000" points="468.714,266.477 467.447,267.643 464.585,264.981 451.601,264.166 
			451.678,261.35 463.512,261.818 465.54,262.892 		"/>
	</g>
	<circle fill="#FFFFFF" cx="349" cy="301.5" r="25.5"/>
	<g>
		<path fill="#CC1B1B" d="M364.153,313.557c2.404-5.197,2.884-15.757-3.427-21.868c0.292,3.945,1.174,9.824-4.521,10.622
			c2.404-11.077-5.912-11.345-5.211-22.327c-12.936,13.244,1.47,15.664-7.75,22.864c1.736-5.195-2.201-8.426-6.17-11.577
			c1.518,2.197,0.686,6.1,0.095,8.585c-0.854,3.604-3.682,5.751-4.39,9.372c-1.029,5.266,5.726,13.542,15.611,13.423
			C358.275,322.532,361.653,318.959,364.153,313.557z"/>
		<path fill="#FFFFFF" d="M356.036,320.119c2.869-2.881,3.644-8.27,2.404-14.175c0.187,2.121-3.303,5.924-6.961,6.351
			c2.093-4.944,0.99-8.271-1.802-12.921c0.647,6.841-4.143,6.418-6.45,12.753c-2.093-1.107-3.319-2.276-2.543-6.41
			c-2.637,3.246-3.569,6.725-3.104,9.899c0.421,2.873,4.117,7.4,10.464,7.21C352.159,322.702,353.661,322.502,356.036,320.119z"/>
		<circle fill="none" stroke="#0071BC" stroke-width="6" cx="349.144" cy="301.062" r="26.085"/>
		<line fill="none" stroke="#0071BC" stroke-width="6" x1="331.011" y1="283.395" x2="367.777" y2="320.16"/>
	</g>
</g>
</svg>
