<?xml version="1.0" encoding="utf-8"?>
<!-- Generator: Adobe Illustrator 13.0.0, SVG Export Plug-In . SVG Version: 6.00 Build 14948)  -->
<!DOCTYPE svg PUBLIC "-//W3C//DTD SVG 1.1//EN" "http://www.w3.org/Graphics/SVG/1.1/DTD/svg11.dtd">
<svg version="1.1" id="Layer_1" xmlns="http://www.w3.org/2000/svg" xmlns:xlink="http://www.w3.org/1999/xlink" x="0px" y="0px"
	 width="800px" height="600px" viewBox="0 0 800 600" enable-background="new 0 0 800 600" xml:space="preserve">
<g>
	<path fill="#6CA88A" stroke="#006837" stroke-width="2" d="M490.666,334.333c0,3.866-3.134,7-7,7h-161.5
		c-3.866,0-11.833-6.8-11.833-10.666l4.833-48.834c0-3.866,3.134-7,7-7l157.5-5.166c3.866,0,10.999,8.3,10.999,12.166V334.333z"/>
	<path fill="#FFFFFF" stroke="#006837" stroke-width="2" d="M485,328.999c0,3.866-3.135,7-7,7H316.5c-3.866,0-7-3.134-7-7v-52.5
		c0-3.866,3.134-7,7-7H478c3.865,0,7,3.134,7,7V328.999z"/>
	<g>
		<path fill="#D4E3BD" stroke="#000000" d="M431.638,291.823c-0.619-0.771,1.065-4.271,1.664-6.321
			c0.517-1.77,1.746-6.644,2.142-7.797c0.673-1.968,16.161-17.465,17.535-17.628c0.328-0.037,5.5,4.795,10.26,10.135
			c4.597,5.157,8.793,10.82,8.72,11.129c-0.317,1.348-17.465,14.981-19.497,15.429c-1.193,0.262-6.042,1.08-7.858,1.392
			c-2.107,0.36-5.91,1.488-6.604,0.786C436.568,297.5,432.914,293.407,431.638,291.823z"/>
		<path fill="#A29B90" stroke="#000000" d="M404.653,325.108c-0.379,0.337-0.896,0.376-1.153,0.085l-2.104-2.359
			c-0.259-0.29-0.163-0.799,0.216-1.136l32.223-28.597c0.378-0.338,3.42,3.07,3.042,3.407L404.653,325.108z"/>
		<path fill="#867F71" stroke="#000000" d="M388.466,340.931c-0.378,0.336-0.987,0.269-1.362-0.149l-3.057-3.428
			c-0.376-0.418-0.477-0.942,0.005-1.372c0.481-0.432,21.224-18.934,21.224-18.934c0.378-0.336,0.989-0.27,1.365,0.151l3.055,3.427
			c0.376,0.419,0.373,1.035-0.006,1.372L388.466,340.931z"/>
	</g>
	<g>
		<g>
			<path fill="#1A1A1A" d="M339.563,311.06c-0.977-5.142,1.699-9.439,7.74-9.439c6.04,0,8.434,4.262,7.739,9.439
				c-0.755,5.629-4.153,9.438-7.739,9.438C343.716,320.497,340.696,317.021,339.563,311.06z"/>
			<path fill="#1A1A1A" d="M339.752,299.072c-0.977-3.858,1.699-7.08,7.74-7.08c6.041,0,8.434,3.196,7.739,7.08
				c-0.754,4.222-4.153,7.079-7.739,7.079C343.905,306.151,340.885,303.543,339.752,299.072z"/>
			<path fill="#1A1A1A" d="M353.25,290.011c0,2.549-1.838,3.304-5.852,3.304c-4.015,0-5.853-1.134-5.853-3.304
				c0-2.171,1.838-6.419,5.853-6.419C351.412,283.592,353.25,287.462,353.25,290.011z"/>
			<path fill="#999999" d="M332.544,306.336c1.154-4.361,9.721-10.682,11.371-10.245c1.65,0.437,1.442,10.122,0.516,13.622
				c-1.725,6.515-9.249,10.806-11.449,10.224C330.781,319.354,331.39,310.699,332.544,306.336z"/>
			<path fill="#999999" d="M361.469,306.336c-1.154-4.361-9.72-10.682-11.371-10.245c-1.649,0.437-1.442,10.122-0.516,13.622
				c1.724,6.515,9.249,10.806,11.449,10.224C363.232,319.354,362.624,310.699,361.469,306.336z"/>
			<path fill="#999999" d="M349.687,288.681c-0.28-1.75-0.097-3.234,0.983-3.407c1.082-0.174,2.412,0.737,2.745,2.811
				c0.332,2.073-0.648,3.354-1.729,3.527C350.604,291.784,349.967,290.431,349.687,288.681z"/>
			<path fill="#999999" d="M345.293,288.681c0.28-1.75,0.097-3.234-0.984-3.407c-1.081-0.174-2.412,0.737-2.745,2.811
				c-0.331,2.073,0.649,3.354,1.73,3.527C344.376,291.784,345.013,290.431,345.293,288.681z"/>
		</g>
		<g>
			<circle fill="none" stroke="#006837" stroke-width="6" cx="346.359" cy="302.729" r="26.085"/>
			<line fill="none" stroke="#006837" stroke-width="6" x1="328.226" y1="285.062" x2="364.991" y2="321.827"/>
		</g>
	</g>
</g>
</svg>
