<?xml version="1.0" encoding="utf-8"?>
<!-- Generator: Adobe Illustrator 13.0.0, SVG Export Plug-In . SVG Version: 6.00 Build 14948)  -->
<!DOCTYPE svg PUBLIC "-//W3C//DTD SVG 1.1//EN" "http://www.w3.org/Graphics/SVG/1.1/DTD/svg11.dtd">
<svg version="1.1" id="Layer_1" xmlns="http://www.w3.org/2000/svg" xmlns:xlink="http://www.w3.org/1999/xlink" x="0px" y="0px"
	 width="800px" height="600px" viewBox="0 0 800 600" enable-background="new 0 0 800 600" xml:space="preserve">
<g>
	<path fill="#6CA88A" stroke="#006837" stroke-width="2" d="M487.666,328.999c0,3.866-3.134,7-7,7h-161.5c-3.866,0-7-3.134-7-7
		v-52.5c0-3.866,3.134-7,7-7h161.5c3.866,0,7,3.134,7,7V328.999z"/>
	<g>
		<path fill="#D4E3BD" stroke="#000000" d="M434.304,291.823c-0.618-0.771,1.065-4.271,1.665-6.321
			c0.516-1.77,1.745-6.644,2.142-7.797c0.673-1.968,16.16-17.465,17.534-17.628c0.328-0.037,5.501,4.795,10.261,10.135
			c4.597,5.157,8.793,10.82,8.72,11.129c-0.317,1.348-17.466,14.981-19.498,15.429c-1.192,0.262-6.041,1.08-7.857,1.392
			c-2.108,0.36-5.91,1.488-6.604,0.786C439.234,297.5,435.58,293.407,434.304,291.823z"/>
		<path fill="#A29B90" stroke="#000000" d="M407.32,325.108c-0.379,0.337-0.896,0.376-1.153,0.085l-2.105-2.359
			c-0.259-0.29-0.162-0.799,0.216-1.136l32.224-28.597c0.377-0.338,3.419,3.07,3.042,3.407L407.32,325.108z"/>
		<path fill="#867F71" stroke="#000000" d="M391.132,340.931c-0.377,0.336-0.987,0.269-1.362-0.149l-3.056-3.428
			c-0.377-0.418-0.477-0.942,0.004-1.372c0.481-0.432,21.224-18.934,21.224-18.934c0.378-0.336,0.989-0.27,1.365,0.151l3.056,3.427
			c0.375,0.419,0.373,1.035-0.006,1.372L391.132,340.931z"/>
	</g>
	<circle fill="#FFFFFF" cx="349" cy="302.5" r="25.5"/>
	<g>
		<g>
			<path fill="#1A1A1A" d="M342.229,311.06c-0.977-5.142,1.699-9.439,7.74-9.439s8.435,4.262,7.739,9.439
				c-0.755,5.629-4.152,9.438-7.739,9.438S343.362,317.021,342.229,311.06z"/>
			<path fill="#1A1A1A" d="M342.419,299.072c-0.977-3.858,1.699-7.08,7.74-7.08s8.434,3.196,7.74,7.08
				c-0.755,4.222-4.153,7.079-7.74,7.079C346.571,306.151,343.552,303.543,342.419,299.072z"/>
			<path fill="#1A1A1A" d="M355.916,290.011c0,2.549-1.838,3.304-5.852,3.304c-4.015,0-5.852-1.134-5.852-3.304
				c0-2.171,1.837-6.419,5.852-6.419C354.078,283.592,355.916,287.462,355.916,290.011z"/>
			<path fill="#999999" d="M335.211,306.336c1.154-4.361,9.72-10.682,11.371-10.245c1.649,0.437,1.441,10.122,0.515,13.622
				c-1.724,6.515-9.25,10.806-11.45,10.224C333.447,319.354,334.056,310.699,335.211,306.336z"/>
			<path fill="#999999" d="M364.136,306.336c-1.153-4.361-9.72-10.682-11.371-10.245c-1.65,0.437-1.442,10.122-0.516,13.622
				c1.724,6.515,9.249,10.806,11.45,10.224C365.899,319.354,365.291,310.699,364.136,306.336z"/>
			<path fill="#999999" d="M352.354,288.681c-0.28-1.75-0.098-3.234,0.983-3.407c1.081-0.174,2.412,0.737,2.745,2.811
				c0.332,2.073-0.649,3.354-1.729,3.527C353.271,291.784,352.633,290.431,352.354,288.681z"/>
			<path fill="#999999" d="M347.96,288.681c0.28-1.75,0.097-3.234-0.983-3.407c-1.081-0.174-2.413,0.737-2.745,2.811
				c-0.332,2.073,0.649,3.354,1.729,3.527C347.042,291.784,347.68,290.431,347.96,288.681z"/>
		</g>
		<g>
			<circle fill="none" stroke="#006837" stroke-width="6" cx="349.025" cy="302.729" r="26.085"/>
			<line fill="none" stroke="#006837" stroke-width="6" x1="330.892" y1="285.062" x2="367.658" y2="321.827"/>
		</g>
	</g>
</g>
</svg>
