<?xml version="1.0" encoding="utf-8"?>
<!-- Generator: Adobe Illustrator 13.0.0, SVG Export Plug-In . SVG Version: 6.00 Build 14948)  -->
<!DOCTYPE svg PUBLIC "-//W3C//DTD SVG 1.1//EN" "http://www.w3.org/Graphics/SVG/1.1/DTD/svg11.dtd">
<svg version="1.1" id="Layer_1" xmlns="http://www.w3.org/2000/svg" xmlns:xlink="http://www.w3.org/1999/xlink" x="0px" y="0px"
	 width="800px" height="600px" viewBox="0 0 800 600" enable-background="new 0 0 800 600" xml:space="preserve">
<g>
	<g>
		<path fill="#D4E3BD" stroke="#000000" stroke-width="2" d="M375.674,238.423c-3.463-2.905-35.047,7.335-35.796,10.079
			c-0.749,2.743,20.378,31.834,22.256,32.755c1.879,0.923,16.895,6.142,19.31,6.662c2.415,0.52,13.965-5.065,14.513-6.75
			c0.548-1.686-1.841-13.207-2.39-14.249C393.019,265.879,379.137,241.329,375.674,238.423z"/>
		<path fill="#ADBC93" stroke="#000000" stroke-width="2" d="M368.417,238.667c3.955-0.357,6.27-0.813,7.168-0.061
			c3.434,2.882,17.053,26.174,17.982,28.313c0.93,2.141,2.924,12.321,2.358,13.98c-0.682,2-12.216,7.338-14.61,6.821
			c-2.394-0.515-16.097-5.187-19.126-6.624c-1.353-0.642-22.815-29.751-22.073-32.472c0.218-0.798,2.862-2.657,7.217-3.851
			c0,0-4.177,2.787-4.708,4.046c-0.533,1.26,18.208,28.831,19.585,28.885c1.377,0.052,28.3-10.992,28.486-11.695
			c0.187-0.702-14.809-25.301-16.63-26.544C372.246,238.223,368.417,238.667,368.417,238.667z"/>
		<path fill="#D4E3BD" stroke="#000000" stroke-width="2" d="M366.361,279.207c0.033-0.905,25.737-11.982,26.134-11.3
			c0.633,1.084,2.583,9.113,1.867,12.046c-0.462,1.555-10.343,6.145-12.124,6.095C380.458,285.996,366.345,279.648,366.361,279.207z
			"/>
		<path fill="#A29B90" stroke="#000000" stroke-width="2" d="M428.601,332.608c0.434,0.6,0.497,1.445,0.142,1.889l-4.442,1.486
			c-0.355,0.447-0.995,0.322-1.429-0.275l-37.911-51.651c-0.441-1.806,3.467-6.631,5.729-3.099L428.601,332.608z"/>
		<path fill="#867F71" stroke="#000000" stroke-width="2" d="M424.088,334.183c0.434,0.599,0.709,1.177,0.615,1.295l-0.766,0.961
			c-0.094,0.117-0.521-0.271-0.955-0.869l-37.848-51.585c-0.146-0.252,0.09-1.432,0.58-1.9L424.088,334.183z"/>
		<path fill="#867F71" stroke="#000000" stroke-width="2" d="M449.541,358.509c0.305,0.209-0.26,1.98-0.545,2.159
			c0,0-7.225,3.655-7.775,2.896c-0.553-0.762-24.616-33.647-24.616-33.647c-0.433-0.598-0.048-2.015,0.467-2.662
			c0,0,7.698-2.894,8.133-2.295L449.541,358.509z"/>
		<path fill="#716452" stroke="#000000" stroke-width="2" d="M442.277,361.238c1.82,0.561,7.025-2.759,7.025-2.759
			c0.302,0.284,0.135,1.4-0.373,2.037c0,0-7.148,3.587-7.695,2.832c-0.55-0.755-24.453-33.423-24.453-33.423
			c-0.431-0.595-0.09-1.955,0.418-2.595C417.199,327.331,440.457,360.679,442.277,361.238z"/>
	</g>
	<g>
		<path fill="#D4E3BD" d="M375.674,238.423c-3.463-2.905-35.047,7.335-35.796,10.079c-0.749,2.743,20.378,31.834,22.256,32.755
			c1.879,0.923,16.895,6.142,19.31,6.662c2.415,0.52,13.965-5.065,14.513-6.75c0.548-1.686-1.841-13.207-2.39-14.249
			C393.019,265.879,379.137,241.329,375.674,238.423z"/>
		<path fill="#ADBC93" d="M367.731,238.143c3.955-0.357,6.955-0.289,7.854,0.464c3.434,2.882,17.053,26.174,17.982,28.313
			c0.93,2.141,2.924,12.321,2.358,13.98c-0.682,2-12.216,7.338-14.61,6.821c-2.394-0.515-16.097-5.187-19.126-6.624
			c-1.353-0.642-22.815-29.751-22.073-32.472c0.218-0.798,2.862-2.657,7.217-3.851c0,0-4.177,2.787-4.708,4.046
			c-0.533,1.26,18.208,28.831,19.585,28.885c1.377,0.052,28.3-10.992,28.486-11.695c0.187-0.702-14.809-25.301-16.63-26.544
			C372.246,238.223,367.731,238.143,367.731,238.143z"/>
		<path fill="#D4E3BD" d="M366.361,279.207c0.033-0.905,25.737-11.982,26.134-11.3c0.633,1.084,2.583,9.113,1.867,12.046
			c-0.462,1.555-10.343,6.145-12.124,6.095C380.458,285.996,366.345,279.648,366.361,279.207z"/>
		<path fill="none" stroke="#000000" d="M375.674,238.423c-3.463-2.905-35.047,7.335-35.796,10.079
			c-0.749,2.743,20.378,31.834,22.256,32.755c1.879,0.923,16.895,6.142,19.31,6.662c2.415,0.52,13.965-5.065,14.513-6.75
			c0.548-1.686-1.841-13.207-2.39-14.249C393.019,265.879,379.137,241.329,375.674,238.423z"/>
		<path fill="#A29B90" stroke="#000000" d="M428.601,332.608c0.434,0.6,0.497,1.445,0.142,1.889l-4.442,1.486
			c-0.355,0.447-0.995,0.322-1.429-0.275l-37.911-51.651c-0.441-1.806,3.467-6.631,5.729-3.099L428.601,332.608z"/>
		<path fill="#867F71" d="M424.088,334.183c0.434,0.599,0.709,1.177,0.615,1.295l-0.766,0.961c-0.094,0.117-0.521-0.271-0.955-0.869
			l-37.639-51.351c-0.146-0.252,0.09-1.432,0.58-1.9L424.088,334.183z"/>
		<path fill="#867F71" stroke="#000000" d="M449.541,358.509c0.305,0.209-0.26,1.98-0.545,2.159c0,0-7.225,3.655-7.775,2.896
			c-0.553-0.762-24.616-33.647-24.616-33.647c-0.433-0.598-0.048-2.015,0.467-2.662c0,0,7.698-2.894,8.133-2.295L449.541,358.509z"
			/>
		<path fill="#716452" d="M442.277,361.238c1.82,0.561,7.025-2.759,7.025-2.759c0.302,0.284,0.135,1.4-0.373,2.037
			c0,0-7.148,3.587-7.695,2.832c-0.55-0.755-24.234-33.036-24.234-33.036c-0.43-0.595-0.09-1.955,0.418-2.595
			C417.418,327.718,440.457,360.679,442.277,361.238z"/>
	</g>
	<g>
		<path fill="#FFFFFF" stroke="#000000" stroke-width="2" d="M432.446,334.356c1.403-1.088,5.456-1.073,6.436-0.885
			c1.425,0.274,9.784,5.104,9.784,5.104s6.452,0.2,9,4.144c2.549,3.945,2.494,8.757,1.617,11.305
			c-0.879,2.548-3.224,6.679-5.762,7.188c-2.536,0.511-6.273-0.18-7.998-1.397c-4.145,0.606-5.488,1.21-6.275,1.555
			c-0.789,0.348-4.34-0.52-4.927-1.14c-0.585-0.622-0.634-1.508-0.634-1.508s-0.261,0.186-1.187,0.216
			c-0.927,0.032-3.675-1.185-4.263-2.242c-0.59-1.058-0.658-1.476-0.658-1.476s-0.572,0.15-1.291-0.348
			c-0.721-0.501-2.41-2.326-2.611-2.928c-0.201-0.6-0.153-1.763-0.153-1.763s-0.725,0.094-1.126-0.105
			c-0.4-0.2-2.715-3.5-2.604-4.676c0.239-1.912,3.86-4.337,3.86-4.337s0.433,0.77,1.65,2.289c4.859-0.74,10.402-4.557,10.402-4.557
			S434.013,336.459,432.446,334.356z"/>
		<path fill="#CCCCCC" stroke="#000000" stroke-width="2" d="M440.868,360.769c-1.685,0.725-3.237,0.606-3.412,0.453
			c1.358-0.181,1.89-0.438,3.502-1.258c1.773-0.897,3.142-1.479,2.752-2.001c-0.397-0.53-0.12-0.52,0.008-0.717
			c0.115-0.176,0.677,0.674,1.483,0.774c0.989,0.126,1.693-0.348,1.649-0.68c-0.026-0.198-0.604-0.686-1.925-3.323
			c-1.321-2.64-0.941-5.553-0.602-7.234c0.805-4.623,2.985-8.376,6.684-8.24c-1.693,0.089-2.779-0.396-4.508,0.355
			c-1.674-2.208-9-6.099-6.899-5.158c1.387,0.618,9.189,4.721,9.189,4.721s10.121-0.292,11.009,9.874
			c0.805,9.233-5.078,12.445-6.81,12.871c-2.476,0.612-6.835-1.384-7.274-1.428C443.945,359.936,442.447,360.408,440.868,360.769z"
			/>
		<path fill="none" stroke="#000000" stroke-width="2" d="M443.594,357.327c0.98,3.371,7.777,4.882,10.806,3.414
			c4.054-1.967,6.217-8.711,5.435-12.865c-0.899-4.782-3.198-8.012-7.963-9.126c-4.035-0.944-8.02,0.282-9.535,5.622"/>
		<path fill="none" stroke="#000000" stroke-width="2" d="M445.715,359.778c-4.102,0.313-5.206,1.327-6.749,1.476
			c-1.544,0.144-4.44-0.652-4.925-1.779c-0.189-0.438-0.14-0.62,0.043-0.952c0,0-0.952,0.354-1.457,0.387
			c-1.516,0.096-3.999-1.709-4.385-2.364c-0.555-0.945-0.441-1.505-0.441-1.505l-0.266,0.111c-0.955,0.361-3.041-2.139-3.734-3.319
			c-0.393-0.672-0.152-1.764-0.152-1.764"/>
		<path fill="none" stroke="#000000" stroke-width="2" d="M423.812,340.841c-1.861,1.233-3.713,2.923-3.885,4.287
			c-0.169,1.363,1.999,4.577,2.594,4.835c0.596,0.26,2.506-0.375,2.506-0.375"/>
		<path fill="none" stroke="#000000" stroke-width="2" d="M424.896,343.364c6.463-1.014,11.384-4.884,11.384-4.884"/>
		<path fill="none" stroke="#000000" stroke-width="2" d="M448.79,338.461c0,0-7.786-4.431-9.908-4.989
			c-1.666-0.437-5.133,0.08-6.618,0.879"/>
	</g>
	<g>
		<path fill="#FFFFFF" d="M432.446,334.356c1.403-1.088,5.456-1.073,6.436-0.885c1.425,0.274,9.784,5.104,9.784,5.104
			s6.452,0.2,9,4.144c2.549,3.945,2.494,8.757,1.617,11.305c-0.879,2.548-3.224,6.679-5.762,7.188
			c-2.536,0.511-6.273-0.18-7.998-1.397c-4.145,0.606-5.488,1.21-6.275,1.555c-0.789,0.348-4.34-0.52-4.927-1.14
			c-0.585-0.622-0.634-1.508-0.634-1.508s-0.261,0.186-1.187,0.216c-0.927,0.032-3.675-1.185-4.263-2.242
			c-0.59-1.058-0.658-1.476-0.658-1.476s-0.572,0.15-1.291-0.348c-0.721-0.501-2.41-2.326-2.611-2.928
			c-0.201-0.6-0.153-1.763-0.153-1.763s-0.725,0.094-1.126-0.105c-0.4-0.2-2.715-3.5-2.604-4.676c0.239-1.912,3.86-4.337,3.86-4.337
			s0.433,0.77,1.65,2.289c4.859-0.74,10.402-4.557,10.402-4.557S434.013,336.459,432.446,334.356z"/>
		<path fill="#CCCCCC" d="M440.868,360.769c-1.685,0.725-3.237,0.606-3.412,0.453c1.358-0.181,1.89-0.438,3.502-1.258
			c1.773-0.897,3.142-1.479,2.752-2.001c-0.397-0.53-0.12-0.52,0.008-0.717c0.115-0.176,0.677,0.674,1.483,0.774
			c0.989,0.126,1.693-0.348,1.649-0.68c-0.026-0.198-0.604-0.686-1.925-3.323c-1.321-2.64-0.941-5.553-0.602-7.234
			c0.805-4.623,2.985-8.376,6.684-8.24c-1.693,0.089-2.779-0.396-4.508,0.355c-1.674-2.208-9-6.099-6.899-5.158
			c1.387,0.618,9.189,4.721,9.189,4.721s10.121-0.292,11.009,9.874c0.805,9.233-5.078,12.445-6.81,12.871
			c-2.476,0.612-6.835-1.384-7.274-1.428C443.945,359.936,442.447,360.408,440.868,360.769z"/>
		<path fill="none" stroke="#000000" d="M443.594,357.327c0.98,3.371,7.777,4.882,10.806,3.414
			c4.054-1.967,6.217-8.711,5.435-12.865c-0.899-4.782-3.198-8.012-7.963-9.126c-4.035-0.944-8.02,0.282-9.535,5.622"/>
		<path fill="none" stroke="#000000" d="M445.715,359.778c-4.102,0.313-5.206,1.327-6.749,1.476
			c-1.544,0.144-4.44-0.652-4.925-1.779c-0.189-0.438-0.14-0.62,0.043-0.952c0,0-0.952,0.354-1.457,0.387
			c-1.516,0.096-3.999-1.709-4.385-2.364c-0.555-0.945-0.441-1.505-0.441-1.505l-0.266,0.111c-0.955,0.361-3.041-2.139-3.734-3.319
			c-0.393-0.672-0.152-1.764-0.152-1.764"/>
		<path fill="none" stroke="#000000" d="M423.812,340.841c-1.861,1.233-3.713,2.923-3.885,4.287
			c-0.169,1.363,1.999,4.577,2.594,4.835c0.596,0.26,2.506-0.375,2.506-0.375"/>
		<path fill="none" stroke="#000000" d="M424.896,343.364c6.463-1.014,11.384-4.884,11.384-4.884"/>
		<path fill="none" stroke="#000000" d="M448.79,338.461c0,0-7.786-4.431-9.908-4.989c-1.666-0.437-5.133,0.08-6.618,0.879"/>
	</g>
</g>
</svg>
