<?xml version="1.0" encoding="utf-8"?>
<!-- Generator: Adobe Illustrator 13.0.0, SVG Export Plug-In . SVG Version: 6.00 Build 14948)  -->
<!DOCTYPE svg PUBLIC "-//W3C//DTD SVG 1.1//EN" "http://www.w3.org/Graphics/SVG/1.1/DTD/svg11.dtd">
<svg version="1.1" id="Layer_1" xmlns="http://www.w3.org/2000/svg" xmlns:xlink="http://www.w3.org/1999/xlink" x="0px" y="0px"
	 width="800px" height="600px" viewBox="0 0 800 600" enable-background="new 0 0 800 600" xml:space="preserve">
<g>
	<g>
		<path fill="#D4E3BD" stroke="#000000" stroke-width="2" d="M383.99,292.15c-1.168,0.732-5.75-2.181-8.5-3.35
			c-2.369-1.006-8.93-3.512-10.468-4.251c-2.621-1.258-21.582-25.296-21.582-27.229c0-0.462,7.557-6.847,15.748-12.575
			c7.911-5.532,16.46-10.425,16.879-10.272c1.816,0.661,17.922,26.698,18.209,29.591c0.168,1.698,0.506,8.563,0.64,11.134
			c0.155,2.984,1.093,8.446,0.005,9.294C392.678,286.24,386.398,290.64,383.99,292.15z"/>
		<path fill="#ADBC93" stroke="#000000" stroke-width="2" d="M346.745,256.828c0.179-1.874,4.17-5.407,7.188-7.962
			c-3.333,1.947-10.316,8.209-10.316,8.385c0,1.921,18.864,25.929,21.468,27.178c1.528,0.733,8.045,3.222,10.396,4.222
			c2.731,1.161,7.283,4.054,8.442,3.325c2.392-1.5,8.63-5.869,10.856-7.604c1.081-0.843,0.148-6.269-0.004-9.232
			c-0.133-2.553-0.47-9.371-0.637-11.058c-0.284-2.874-16.28-28.732-18.085-29.39c-0.136-0.05-4.137,1.746-10.284,5.829
			c5.526-3.742,9.56-3.697,9.56-3.697s17.052,26.859,16.585,28.479c-0.501,1.737-23.086,17.249-24.577,17.119
			C365.895,282.297,346.566,258.703,346.745,256.828z"/>
		<path fill="#D4E3BD" stroke="#000000" stroke-width="2" d="M382.031,275.49c-5.38,3.736-13.071,8.648-13.006,8.895
			c10.705,4.604,11.341,5.521,12.743,5.256c0.549-0.104,10.828-7.61,11.083-7.954c0.855-1.152,0.79-6.232,0.277-14.05"/>
		<path fill="#A29B90" stroke="#000000" stroke-width="2" d="M425.751,335.065c0.406,0.58,0.374,1.303-0.071,1.614l-3.62,2.534
			c-0.444,0.311-1.134,0.094-1.54-0.487l-34.396-49.415c-0.406-0.58,4.824-4.241,5.23-3.661L425.751,335.065z"/>
		<path fill="#867F71" stroke="#000000" stroke-width="2" d="M422.043,337.66c0.405,0.581,0.641,1.117,0.522,1.199l-0.959,0.671
			c-0.117,0.082-0.541-0.321-0.947-0.901l-34.336-49.348c-0.131-0.239,0.689-0.961,1.11-1.256L422.043,337.66z"/>
		<path fill="#867F71" stroke="#000000" stroke-width="2" d="M445.05,360.127c0.406,0.581,0.213,1.417-0.433,1.868l-5.256,3.679
			c-0.646,0.452-1.388,0.506-1.904-0.232c-0.518-0.738-22.79-32.562-22.79-32.562c-0.405-0.58-0.212-1.417,0.434-1.869l5.257-3.679
			c0.645-0.452,1.498-0.348,1.904,0.233L445.05,360.127z"/>
		<path fill="#716452" stroke="#000000" stroke-width="2" d="M439.334,365.441c-0.624,0.479-1.248,0.587-1.76-0.145
			c-0.512-0.73-22.768-32.511-22.768-32.511c-0.401-0.575-0.045-1.406,0.504-1.671L439.334,365.441z"/>
	</g>
	<g>
		<path fill="#D4E3BD" stroke="#000000" stroke-width="0.75" d="M383.99,292.15c-1.168,0.732-5.75-2.181-8.5-3.35
			c-2.369-1.006-8.93-3.512-10.468-4.251c-2.621-1.258-21.582-25.296-21.582-27.229c0-0.462,7.557-6.847,15.748-12.575
			c7.911-5.532,16.46-10.425,16.879-10.272c1.816,0.661,17.922,26.698,18.209,29.591c0.168,1.698,0.506,8.563,0.64,11.134
			c0.155,2.984,1.093,8.446,0.005,9.294C392.678,286.24,386.398,290.64,383.99,292.15z"/>
		<path fill="#ADBC93" d="M346.745,256.828c0.179-1.874,4.17-5.407,7.188-7.962c-3.333,1.947-10.316,8.209-10.316,8.385
			c0,1.921,18.864,25.929,21.468,27.178c1.528,0.733,8.045,3.222,10.396,4.222c2.731,1.161,7.283,4.054,8.442,3.325
			c2.392-1.5,8.63-5.869,10.856-7.604c1.081-0.843,0.148-6.269-0.004-9.232c-0.133-2.553-0.47-9.371-0.637-11.058
			c-0.284-2.874-16.28-28.732-18.085-29.39c-0.136-0.05-4.137,1.746-10.284,5.829c5.526-3.742,9.56-3.697,9.56-3.697
			s17.052,26.859,16.585,28.479c-0.501,1.737-23.086,17.249-24.577,17.119C365.895,282.297,346.566,258.703,346.745,256.828z"/>
		<path fill="#D4E3BD" d="M382.031,275.49c-5.38,3.736-13.071,8.648-13.006,8.895c10.705,4.604,11.341,5.521,12.743,5.256
			c0.549-0.104,10.828-7.61,11.083-7.954c0.855-1.152,0.79-6.232,0.277-14.05"/>
		<path fill="#A29B90" stroke="#000000" d="M425.751,335.065c0.406,0.58,0.374,1.303-0.071,1.614l-3.62,2.534
			c-0.444,0.311-1.134,0.094-1.54-0.487l-34.396-49.415c-0.406-0.58,4.824-4.241,5.23-3.661L425.751,335.065z"/>
		<path fill="#867F71" d="M422.043,337.66c0.405,0.581,0.641,1.117,0.522,1.199l-0.959,0.671c-0.117,0.082-0.541-0.321-0.947-0.901
			l-34.128-49.098c-0.131-0.239,0.689-0.961,1.11-1.256L422.043,337.66z"/>
		<path fill="#867F71" stroke="#000000" d="M445.05,360.127c0.406,0.581,0.213,1.417-0.433,1.868l-5.256,3.679
			c-0.646,0.452-1.388,0.506-1.904-0.232c-0.518-0.738-22.79-32.562-22.79-32.562c-0.405-0.58-0.212-1.417,0.434-1.869l5.257-3.679
			c0.645-0.452,1.498-0.348,1.904,0.233L445.05,360.127z"/>
		<path fill="#716452" d="M439.334,365.441c-0.624,0.479-1.248,0.587-1.76-0.145c-0.512-0.73-22.574-32.359-22.574-32.359
			c-0.401-0.575-0.045-1.406,0.504-1.671L439.334,365.441z"/>
	</g>
	<g>
		<path fill="#FFFFFF" stroke="#000000" stroke-width="2" d="M427.984,334.552c2.218-0.895,5.797-1.288,6.777-1.103
			c1.427,0.275,9.785,5.104,9.785,5.104s6.45,0.2,8.999,4.146c2.55,3.944,2.493,8.755,1.616,11.304
			c-0.877,2.547-3.222,6.678-5.761,7.188c-2.536,0.509-6.273-0.182-7.997-1.399c-4.146,0.609-5.489,1.211-6.276,1.558
			c-0.788,0.344-4.34-0.521-4.927-1.141c-0.583-0.62-0.634-1.508-0.634-1.508s-0.262,0.184-1.187,0.214
			c-0.926,0.031-3.673-1.184-4.262-2.24s-0.658-1.476-0.658-1.476s-0.573,0.147-1.293-0.351c-0.72-0.499-2.408-2.323-2.609-2.924
			c-0.202-0.604-0.152-1.763-0.152-1.763s-0.727,0.094-1.126-0.105c-0.403-0.201-2.715-3.5-2.605-4.676
			c0.237-1.914,4.013-4.38,4.013-4.38s0.402,0.785,1.62,2.303c4.857-0.739,9.856-4.149,9.856-4.149S429.502,336.877,427.984,334.552
			z"/>
		<path fill="#CCCCCC" stroke="#000000" stroke-width="2" d="M436.749,360.745c-1.687,0.727-3.238,0.611-3.41,0.453
			c1.354-0.179,1.887-0.435,3.499-1.255c1.774-0.9,3.143-1.479,2.754-2c-0.399-0.534-0.122-0.52,0.006-0.718
			c0.114-0.178,0.679,0.672,1.482,0.772c0.989,0.127,1.695-0.345,1.652-0.676c-0.028-0.2-0.605-0.688-1.926-3.326
			c-1.323-2.639-0.941-5.555-0.604-7.235c0.806-4.62,2.988-8.375,6.687-8.241c-1.695,0.091-2.781-0.396-4.509,0.356
			c-1.673-2.207-9-6.095-6.9-5.157c1.386,0.618,9.189,4.722,9.189,4.722s10.121-0.293,11.008,9.872
			c0.806,9.237-5.076,12.448-6.808,12.874c-2.479,0.608-6.836-1.386-7.274-1.431C439.827,359.915,438.327,360.386,436.749,360.745z"
			/>
		<path fill="none" stroke="#000000" stroke-width="2" d="M439.475,357.304c0.98,3.372,7.776,4.884,10.805,3.415
			c4.054-1.968,6.216-8.711,5.435-12.866c-0.898-4.781-3.199-8.009-7.963-9.124c-4.034-0.943-8.018,0.281-9.534,5.622"/>
		<path fill="none" stroke="#000000" stroke-width="2" d="M441.596,359.756c-4.102,0.316-5.207,1.329-6.749,1.475
			c-1.545,0.148-4.44-0.65-4.925-1.776c-0.19-0.439-0.14-0.619,0.041-0.95c0,0-0.952,0.351-1.455,0.386
			c-1.516,0.093-3.999-1.712-4.385-2.368c-0.556-0.944-0.441-1.504-0.441-1.504l-0.267,0.113c-0.956,0.362-3.043-2.142-3.734-3.322
			c-0.395-0.667-0.151-1.763-0.151-1.763"/>
		<path fill="none" stroke="#000000" stroke-width="2" d="M419.694,340.822c-1.862,1.229-3.715,2.92-3.886,4.282
			c-0.169,1.363,1.997,4.579,2.593,4.836c0.595,0.259,2.506-0.373,2.506-0.373"/>
		<path fill="none" stroke="#000000" stroke-width="2" d="M420.777,343.343c6.461-1.012,11.384-4.884,11.384-4.884"/>
		<path fill="none" stroke="#000000" stroke-width="2" d="M444.67,338.44c0,0-7.786-4.433-9.908-4.991
			c-1.666-0.436-5.474,0.296-6.959,1.096"/>
	</g>
	<g>
		<path fill="#FFFFFF" d="M427.984,334.552c2.218-0.895,5.797-1.288,6.777-1.103c1.427,0.275,9.785,5.104,9.785,5.104
			s6.45,0.2,8.999,4.146c2.55,3.944,2.493,8.755,1.616,11.304c-0.877,2.547-3.222,6.678-5.761,7.188
			c-2.536,0.509-6.273-0.182-7.997-1.399c-4.146,0.609-5.489,1.211-6.276,1.558c-0.788,0.344-4.34-0.521-4.927-1.141
			c-0.583-0.62-0.634-1.508-0.634-1.508s-0.262,0.184-1.187,0.214c-0.926,0.031-3.673-1.184-4.262-2.24s-0.658-1.476-0.658-1.476
			s-0.573,0.147-1.293-0.351c-0.72-0.499-2.408-2.323-2.609-2.924c-0.202-0.604-0.152-1.763-0.152-1.763s-0.727,0.094-1.126-0.105
			c-0.403-0.201-2.715-3.5-2.605-4.676c0.237-1.914,4.013-4.38,4.013-4.38s0.402,0.785,1.62,2.303
			c4.857-0.739,9.856-4.149,9.856-4.149S429.502,336.877,427.984,334.552z"/>
		<path fill="#CCCCCC" d="M436.749,360.745c-1.687,0.727-3.238,0.611-3.41,0.453c1.354-0.179,1.887-0.435,3.499-1.255
			c1.774-0.9,3.143-1.479,2.754-2c-0.399-0.534-0.122-0.52,0.006-0.718c0.114-0.178,0.679,0.672,1.482,0.772
			c0.989,0.127,1.695-0.345,1.652-0.676c-0.028-0.2-0.605-0.688-1.926-3.326c-1.323-2.639-0.941-5.555-0.604-7.235
			c0.806-4.62,2.988-8.375,6.687-8.241c-1.695,0.091-2.781-0.396-4.509,0.356c-1.673-2.207-9-6.095-6.9-5.157
			c1.386,0.618,9.189,4.722,9.189,4.722s10.121-0.293,11.008,9.872c0.806,9.237-5.076,12.448-6.808,12.874
			c-2.479,0.608-6.836-1.386-7.274-1.431C439.827,359.915,438.327,360.386,436.749,360.745z"/>
		<path fill="none" stroke="#000000" d="M439.475,357.304c0.98,3.372,7.776,4.884,10.805,3.415
			c4.054-1.968,6.216-8.711,5.435-12.866c-0.898-4.781-3.199-8.009-7.963-9.124c-4.034-0.943-8.018,0.281-9.534,5.622"/>
		<path fill="none" stroke="#000000" d="M441.596,359.756c-4.102,0.316-5.207,1.329-6.749,1.475c-1.545,0.148-4.44-0.65-4.925-1.776
			c-0.19-0.439-0.14-0.619,0.041-0.95c0,0-0.952,0.351-1.455,0.386c-1.516,0.093-3.999-1.712-4.385-2.368
			c-0.556-0.944-0.441-1.504-0.441-1.504l-0.267,0.113c-0.956,0.362-3.043-2.142-3.734-3.322c-0.395-0.667-0.151-1.763-0.151-1.763"
			/>
		<path fill="none" stroke="#000000" d="M419.694,340.822c-1.862,1.229-3.715,2.92-3.886,4.282
			c-0.169,1.363,1.997,4.579,2.593,4.836c0.595,0.259,2.506-0.373,2.506-0.373"/>
		<path fill="none" stroke="#000000" d="M420.777,343.343c6.461-1.012,11.384-4.884,11.384-4.884"/>
		<path fill="none" stroke="#000000" d="M444.67,338.44c0,0-7.786-4.433-9.908-4.991c-1.666-0.436-5.474,0.296-6.959,1.096"/>
	</g>
</g>
</svg>
