<?xml version="1.0" encoding="utf-8"?>
<!-- Generator: Adobe Illustrator 13.0.0, SVG Export Plug-In . SVG Version: 6.00 Build 14948)  -->
<!DOCTYPE svg PUBLIC "-//W3C//DTD SVG 1.1//EN" "http://www.w3.org/Graphics/SVG/1.1/DTD/svg11.dtd">
<svg version="1.1" id="Layer_1" xmlns="http://www.w3.org/2000/svg" xmlns:xlink="http://www.w3.org/1999/xlink" x="0px" y="0px"
	 width="800px" height="600px" viewBox="0 0 800 600" enable-background="new 0 0 800 600" xml:space="preserve">
<path fill="#841A22" stroke="#000000" stroke-width="0.75" d="M429.604,316.175c-1.893,1.683-54.485,1.185-56.248,0
	c-1.765-1.187,0.067-20.724,1.686-22.942c1.617-2.218,51.025-1.912,52.886,0S431.496,314.492,429.604,316.175z"/>
<path fill="#C1272D" stroke="#000000" stroke-width="0.75" d="M429.604,316.302c-1.893,1.485-54.485,1.046-56.248,0
	c-1.765-1.047,0.067-18.292,1.686-20.251c1.617-1.958,51.025-1.688,52.886,0C429.787,297.739,431.496,314.816,429.604,316.302z"/>
<path fill="#F7F7F7" d="M412.219,297.362c-0.013,0.631,11.404,1.398,12.744,2.173c2.055,1.189,2.971,10.464,3.673,10.32
	c0.702-0.146-0.35-10.059-2.36-11.544C424.421,296.94,412.23,296.731,412.219,297.362z"/>
</svg>
