<?xml version="1.0" encoding="utf-8"?>
<!-- Generator: Adobe Illustrator 13.0.0, SVG Export Plug-In . SVG Version: 6.00 Build 14948)  -->
<!DOCTYPE svg PUBLIC "-//W3C//DTD SVG 1.1//EN" "http://www.w3.org/Graphics/SVG/1.1/DTD/svg11.dtd">
<svg version="1.1" id="Layer_1" xmlns="http://www.w3.org/2000/svg" xmlns:xlink="http://www.w3.org/1999/xlink" x="0px" y="0px"
	 width="800px" height="600px" viewBox="0 0 800 600" enable-background="new 0 0 800 600" xml:space="preserve">
<g>
	<g>
		<g>
			<path fill="#E6E6E6" d="M421.549,286.316c5.112,1.27,8.4,3.885,8.225,4.836c-0.051,0.283-0.441,5.849-1.928,11.168
				c-2.274,8.134-4.04,12.453-3.543,12.77c0.723,0.459,2.58,0.908,3.215,0.591c0.63-0.316,1.401-0.875,1.733-1.202
				c0.438-0.432,2.268-4.768,4.302-11.655c2.033-6.887,2.998-14.631,2.951-15.479c-0.088-1.587-6.564-7.021-14.08-8.331"/>
			<path fill="#CCCCCC" d="M421.549,286.316c5.112,1.27,8.4,3.885,8.225,4.836c-0.051,0.283-0.441,5.849-1.928,11.168
				c-2.274,8.134-4.04,12.453-3.543,12.77c0.723,0.459,2.58,0.908,3.215,0.591c0.63-0.316,2.23-6.079,4.264-12.966
				c2.033-6.888,3.061-14.037,2.886-14.387c-1.093-1.268-5.991-5.947-12.462-7.084"/>
			<path fill="none" stroke="#000000" d="M421.549,286.316c5.112,1.27,8.4,3.885,8.225,4.836c-0.051,0.283-0.441,5.849-1.928,11.168
				c-2.274,8.134-4.04,12.453-3.543,12.77c0.723,0.459,2.58,0.908,3.215,0.591c0.63-0.316,1.401-0.875,1.733-1.202
				c0.438-0.432,2.268-4.768,4.302-11.655c2.033-6.887,2.998-14.631,2.951-15.479c-0.088-1.587-6.564-7.021-14.08-8.331"/>
			<path fill="none" stroke="#000000" stroke-width="0.5" d="M422.336,281.244c6.625,1.246,11.872,6.625,11.872,6.625"/>
			<path fill="none" stroke="#000000" stroke-width="0.5" d="M436.504,287.344l-1.837,0.983c0,0-1.661,14.342-6.821,26.587"/>
		</g>
		<path fill="none" stroke="#000000" d="M414.77,332.932c-1.092,3.017-5.946,7.739-21.426,7.739c-15.48,0-20.138-5.116-20.958-7.871
			s-9.216-64.669-9.216-65.986c0-2.756,7.859-6.56,30.071-6.56c22.212,0,30.744,3.673,30.744,6.428
			C423.985,268.008,415.861,329.914,414.77,332.932z"/>
	</g>
	<path fill="none" stroke="#000000" stroke-width="0.75" d="M403.357,335.38c0,0,3.76-55.317,5.072-56.891
		c1.312-1.575,9.708-3.542,10.495-2.361c0.787,1.181-7.739,56.279-7.739,56.279"/>
	<path fill="none" stroke="#000000" stroke-width="0.75" d="M376.384,332.406c0,0-8.526-55.098-7.74-56.279
		c0.787-1.181,9.183,0.787,10.495,2.361c1.312,1.574,5.073,56.891,5.073,56.891"/>
	<path fill="none" stroke="#000000" stroke-width="0.75" d="M388.49,335.686c0,0-2.528-45.541-2.821-55.59
		c-0.032-1.111,0.514-1.29,0.689-1.377c2.962-1.48,13.84-1.213,15.688,0.164c0.177,0.131,0.561,0.271,0.525,1.137
		c-0.35,8.57-3.849,55.666-3.849,55.666"/>
	<path fill="none" stroke="#000000" d="M365.4,267.95c0,0.001,6.472,4.373,27.812,4.373c21.34,0,26.936-4.372,26.936-4.373"/>
</g>
</svg>
