<?xml version="1.0" encoding="utf-8"?>
<!-- Generator: Adobe Illustrator 13.0.0, SVG Export Plug-In . SVG Version: 6.00 Build 14948)  -->
<!DOCTYPE svg PUBLIC "-//W3C//DTD SVG 1.1//EN" "http://www.w3.org/Graphics/SVG/1.1/DTD/svg11.dtd">
<svg version="1.1" id="Layer_1" xmlns="http://www.w3.org/2000/svg" xmlns:xlink="http://www.w3.org/1999/xlink" x="0px" y="0px"
	 width="800px" height="600px" viewBox="0 0 800 600" enable-background="new 0 0 800 600" xml:space="preserve">
<g>
	<path fill="#666666" d="M430.563,296.172c0.903,0.501,2.271,8.32,2.271,8.872c0,2.968-9.656,7.804-32.246,7.804
		c-23.32,0-32.429-4.836-32.429-7.804c0-0.478,1.245-8.228,1.929-8.668c3.568-2.298,15.83-5.815,30.409-5.815
		C414.642,290.56,426.605,293.978,430.563,296.172z"/>
	<path fill="#4D4D4D" d="M416.463,311.876c-4.345,0.601-9.613,0.972-15.875,0.972c-23.32,0-32.429-4.836-32.429-7.804
		c0-0.478,1.245-8.228,1.929-8.668c0.298-0.191,8.183-4.375,20.785-5.174c1.534,0.533,2.708,1.515,1.334,1.667
		c-10.868,1.2-15.484,5.262-16.202,6.201c-0.867,1.133-0.901,7.166-0.2,7.801C380.805,311.404,394.695,312.893,416.463,311.876z"/>
	<path fill="none" stroke="#000000" d="M430.563,296.172c0.903,0.501,2.271,8.32,2.271,8.872c0,2.968-9.656,7.804-32.246,7.804
		c-23.32,0-32.429-4.836-32.429-7.804c0-0.478,1.245-8.228,1.929-8.668c3.568-2.298,15.83-5.815,30.409-5.815
		C414.642,290.56,426.605,293.978,430.563,296.172z"/>
	<path fill="#CCCCCC" d="M390.262,294.568c0-0.266,1.018-5.049,1.399-5.283c1.277-0.785,16.115-0.46,17.49,0.273
		c0.487,0.26,1.193,4.707,1.193,5.01c0,1.158-3.913,2.678-9.97,2.616C393.984,297.246,390.262,295.726,390.262,294.568z"/>
	<path fill="none" stroke="#000000" stroke-width="0.75" d="M390.262,294.568c0-0.266,1.018-5.049,1.399-5.283
		c1.277-0.785,16.115-0.46,17.49,0.273c0.487,0.26,1.193,4.707,1.193,5.01c0,1.158-3.913,2.678-9.97,2.616
		C393.984,297.246,390.262,295.726,390.262,294.568z"/>
	<path fill="#E6E6E6" stroke="#000000" stroke-width="0.75" d="M391.479,289.741c0-1.157,3.982-1.807,8.862-1.807
		s8.81,0.65,8.81,1.807c0,1.158-3.453,2.349-9.143,2.26C394.051,291.908,391.479,290.898,391.479,289.741z"/>
	<path fill="none" stroke="#000000" stroke-width="0.75" d="M371.137,297.504c0,0,6.286,4.33,29.194,4.33
		c22.909,0,29.614-4.33,29.614-4.33"/>
</g>
</svg>
