<?xml version="1.0" encoding="utf-8"?>
<!-- Generator: Adobe Illustrator 13.0.0, SVG Export Plug-In . SVG Version: 6.00 Build 14948)  -->
<!DOCTYPE svg PUBLIC "-//W3C//DTD SVG 1.1//EN" "http://www.w3.org/Graphics/SVG/1.1/DTD/svg11.dtd">
<svg version="1.1" id="Layer_1" xmlns="http://www.w3.org/2000/svg" xmlns:xlink="http://www.w3.org/1999/xlink" x="0px" y="0px"
	 width="800px" height="600px" viewBox="0 0 800 600" enable-background="new 0 0 800 600" xml:space="preserve">
<g>
	<path fill="#999999" stroke="#000000" d="M371.32,317.8h-4.001c0,0-0.459,4.788,0,5.313c0.459,0.524,3.607,0.459,4.001,0
		S371.32,317.8,371.32,317.8z"/>
	<path fill="#999999" stroke="#000000" d="M434.684,317.8h-4.002c0,0-0.459,4.788,0,5.313c0.46,0.524,3.607,0.459,4.002,0
		C435.077,322.654,434.684,317.8,434.684,317.8z"/>
	<path fill="#E6E6E6" d="M366.366,320.042c-0.748-0.163-1.312-4.985-1.05-14.168c0.245-8.549,2.068-15.406,2.188-15.987
		c0.657-3.18,4.372-10.514,6.864-12.087c2.493-1.574,50.511-1.312,52.674,0s6.206,8.908,6.864,12.087
		c0.119,0.581,1.943,7.438,2.188,15.987c0.262,9.183-0.396,13.77-1.05,14.168C431.172,322.403,377.255,322.403,366.366,320.042z"/>
	<path fill="#CCCCCC" d="M374.368,277.8c-2.492,1.574-7.478,10.364-7.937,17.382c-0.005,0.075,1.968-4.854,3.739-5.707
		c1.517-0.73,15.861-0.622,30.566-0.612c14.35,0.009,29.066-0.101,30.545,0.612c1.771,0.853,3.744,5.781,3.739,5.707
		c-0.46-7.019-5.444-15.809-7.937-17.382c-1.207-0.762-13.035-1.103-25.21-1.093C401.874,276.707,375.575,277.038,374.368,277.8z"/>
	<path fill="none" stroke="#000000" d="M366.366,320.042c-0.748-0.163-1.312-4.985-1.05-14.168
		c0.245-8.549,2.068-15.406,2.188-15.987c0.657-3.18,4.372-10.514,6.864-12.087c2.493-1.574,50.511-1.312,52.674,0
		s6.206,8.908,6.864,12.087c0.119,0.581,1.943,7.438,2.188,15.987c0.262,9.183-0.396,13.77-1.05,14.168
		C431.172,322.403,377.255,322.403,366.366,320.042z"/>
	<path fill="#E6E6E6" stroke="#000000" stroke-width="0.75" d="M429.604,316.175c-1.893,1.683-54.486,1.185-56.249,0
		c-1.764-1.186,0.068-20.724,1.686-22.942c1.617-2.218,51.025-1.912,52.886,0C429.787,295.145,431.496,314.492,429.604,316.175z"/>
	<path fill="#F7F7F7" d="M412.219,293.862c-0.013,0.631,11.404,1.398,12.744,2.173c2.055,1.189,2.971,10.464,3.673,10.321
		c0.702-0.146-0.35-10.059-2.361-11.545C424.421,293.44,412.23,293.231,412.219,293.862z"/>
</g>
</svg>
