<?xml version="1.0" encoding="utf-8"?>
<!-- Generator: Adobe Illustrator 13.0.0, SVG Export Plug-In . SVG Version: 6.00 Build 14948)  -->
<!DOCTYPE svg PUBLIC "-//W3C//DTD SVG 1.1//EN" "http://www.w3.org/Graphics/SVG/1.1/DTD/svg11.dtd">
<svg version="1.1" id="Layer_1" xmlns="http://www.w3.org/2000/svg" xmlns:xlink="http://www.w3.org/1999/xlink" x="0px" y="0px"
	 width="800px" height="600px" viewBox="0 0 800 600" enable-background="new 0 0 800 600" xml:space="preserve">
<g>
	<path fill="#B3B3B3" d="M456.598,323.613c0,0-11.832,11.4-56.96,11.4c-45.128,0-54.457-11.4-54.457-11.4
		s-5.44-50.007,54.931-50.007C460.484,273.606,456.598,323.613,456.598,323.613z"/>
	<path fill="#999999" d="M407.427,331.496c27.688-0.607,49.171-7.883,49.171-7.883s-11.832,11.4-56.96,11.4
		c-45.128,0-54.457-11.4-54.457-11.4s-2.756-25.34,17.432-39.944c-16.02,16.905-13.999,32.771-11.573,36.104
		C356.403,325.137,380.143,332.102,407.427,331.496z"/>
	<path fill="none" stroke="#000000" d="M456.598,323.613c0,0-11.832,11.4-56.96,11.4c-45.128,0-54.457-11.4-54.457-11.4
		s-5.44-50.007,54.931-50.007C460.484,273.606,456.598,323.613,456.598,323.613z"/>
	<path fill="#999999" d="M385.398,277.445c-0.04,0.167-0.225,0.881,2.583,0.881c2.808,0,5.999-0.377,11.457-0.377
		c5.457,0,9.615,0.42,11.471,0.42c1.853,0,2.86-0.378,2.821-0.798c-0.096-0.994-3.14-1.931-14.106-1.931
		C388.696,275.639,385.6,276.595,385.398,277.445z"/>
	<path fill="#B3B3B3" d="M408.963,276.911c0.007,0.74,1.054,0.932,1.959,0.924c0.904-0.009,1.633-0.369,1.627-0.988l0.015-9.471
		c0.001-1.209-0.977-2.191-2.187-2.192l-21.45-0.034c-1.21-0.003-2.191,0.978-2.193,2.187l-0.015,9.47
		c0.005,0.593,0.962,0.938,1.718,0.931c0.754-0.007,1.738-0.167,1.731-0.857c-0.013-1.483,0.032-6.305,0.032-6.305
		c0.002-1.046,0.713-1.893,1.591-1.891l15.628,0.049c0.877,0.001,1.586,0.851,1.584,1.896
		C409.002,270.631,408.951,275.565,408.963,276.911z"/>
	<path fill="#999999" d="M408.963,276.911c0.005,0.505,1.243,0.926,1.243,0.926s0.304-7.023,0.151-8.287
		c-0.151-1.263-1.011-2.122-2.274-2.122c-1.263,0-15.864,0.05-16.874,0.152c-1.012,0.101-2.022,0.91-2.022,1.92
		c0,1.01-0.18,8.213,0.094,8.154c0.488-0.106,0.891-0.331,0.887-0.773c-0.013-1.483,0.032-6.305,0.032-6.305
		c0.002-1.046,0.713-1.893,1.591-1.891l15.628,0.049c0.877,0.001,1.586,0.851,1.584,1.896
		C409.002,270.631,408.951,275.565,408.963,276.911z"/>
	<path fill="none" stroke="#000000" d="M408.963,276.911c0.007,0.74,1.054,0.932,1.959,0.924c0.904-0.009,1.633-0.369,1.627-0.988
		l0.015-9.471c0.001-1.209-0.977-2.191-2.187-2.192l-21.45-0.034c-1.21-0.003-2.191,0.978-2.193,2.187l-0.015,9.47
		c0.005,0.593,0.962,0.938,1.718,0.931c0.754-0.007,1.738-0.167,1.731-0.857c-0.013-1.483,0.032-6.305,0.032-6.305
		c0.002-1.046,0.713-1.893,1.591-1.891l15.628,0.049c0.877,0.001,1.586,0.851,1.584,1.896
		C409.002,270.631,408.951,275.565,408.963,276.911z"/>
	<path fill="#E6E6E6" d="M416.144,280.154c0.029,1.229,27.258,5.869,37.16,36.184c-2.829-30.315-30.425-37.627-31.729-37.995
		C420.271,277.974,416.116,278.925,416.144,280.154z"/>
</g>
</svg>
