<?xml version="1.0" encoding="utf-8"?>
<!-- Generator: Adobe Illustrator 13.0.0, SVG Export Plug-In . SVG Version: 6.00 Build 14948)  -->
<!DOCTYPE svg PUBLIC "-//W3C//DTD SVG 1.1//EN" "http://www.w3.org/Graphics/SVG/1.1/DTD/svg11.dtd">
<svg version="1.1" id="Layer_1" xmlns="http://www.w3.org/2000/svg" xmlns:xlink="http://www.w3.org/1999/xlink" x="0px" y="0px"
	 width="800px" height="600px" viewBox="0 0 800 600" enable-background="new 0 0 800 600" xml:space="preserve">
<g>
	<path fill="#B3B3B3" stroke="#000000" d="M460.04,299.237c0,9.124-26.841,16.329-59.953,16.329
		c-33.112,0-59.954-6.138-59.954-16.329c0-10.189,26.842-15.647,59.954-15.647C433.199,283.59,460.04,290.116,460.04,299.237z"/>
	<g>
		<path fill="#999999" d="M452.507,299.832c-4.952,4.328-24.043,10.712-53.328,10.712c-29.287,0-49.393-6.585-53.08-10.712
			c3.436-7.275,23.969-11.924,53.254-11.924C428.639,287.908,449.172,294.174,452.507,299.832z"/>
	</g>
	<path fill="none" stroke="#000000" d="M345.732,299.748c0,0,11.935,10.515,52.683,10.515c40.749,0,54.627-10.515,54.627-10.515"/>
</g>
</svg>
