<?xml version="1.0" encoding="utf-8"?>
<!-- Generator: Adobe Illustrator 13.0.0, SVG Export Plug-In . SVG Version: 6.00 Build 14948)  -->
<!DOCTYPE svg PUBLIC "-//W3C//DTD SVG 1.1//EN" "http://www.w3.org/Graphics/SVG/1.1/DTD/svg11.dtd">
<svg version="1.1" id="Layer_1" xmlns="http://www.w3.org/2000/svg" xmlns:xlink="http://www.w3.org/1999/xlink" x="0px" y="0px"
	 width="800px" height="600px" viewBox="0 0 800 600" enable-background="new 0 0 800 600" xml:space="preserve">
<g>
	<path fill="#4D4D4D" stroke="#000000" d="M418.238,265.561c0.001,0,4.978,14.251,7.693,32.256
		c3.477,23.046,5.391,47.853,2.762,52.57c-2.63,4.718-12.438,9.436-29.415,9.436s-26.517-4.718-29.146-9.436
		c-2.629-4.718-0.715-29.524,2.761-52.57c2.716-18.005,7.694-32.256,7.694-32.256h17.557H418.238z"/>
	<path fill="#FFFFFF" d="M392.645,294.5l-0.197,29.372l7.535-0.335l-0.233-15.728l-0.56-4.761l0.414-4.714
		c0,0,0.034-4.005,0.156-6.025C396.828,292.757,392.645,294.5,392.645,294.5z"/>
	<path fill="#333333" d="M384.472,267.82c-6.403,19.882-13.101,73.629-6.066,78.856c11.794,8.762,32.014,11.12,50.288,3.712
		c-2.63,4.718-12.438,9.436-29.415,9.436s-26.517-4.718-29.146-9.436c-2.629-4.718-0.715-29.524,2.761-52.57
		c2.716-18.005,7.694-32.256,7.694-32.256C380.586,265.561,386.604,261.199,384.472,267.82z"/>
	<path fill="none" stroke="#000000" d="M418.238,265.561c0.001,0,4.978,14.251,7.693,32.256c3.477,23.046,5.391,47.853,2.762,52.57
		c-2.63,4.718-12.438,9.436-29.415,9.436s-26.517-4.718-29.146-9.436c-2.629-4.718-0.715-29.524,2.761-52.57
		c2.716-18.005,7.694-32.256,7.694-32.256h17.557H418.238z"/>
	<path fill="#B3B3B3" stroke="#000000" d="M420.82,266.14c0,6.228-9.373,8.072-21.259,8.072c-11.887,0-21.387-1.857-21.787-8.072
		c-0.202-3.132,9.636-6.285,21.523-6.285S420.82,263.426,420.82,266.14z"/>
	<path fill="#E6E6E6" d="M421.201,252.036c0.864,1.933,1.5,8.784,0,11.684c-1.501,2.9-9.789,4.926-21.862,4.926
		c-12.075,0-20.637-2.557-21.862-4.926c-1.225-2.37-1.169-9.457,0-11.684C382.281,242.882,417.328,243.388,421.201,252.036z"/>
	<path fill="#CCCCCC" d="M398.12,257.542c11.794-0.168,23.589-1.854,23.082-5.506c0.864,1.933,1.5,8.784,0,11.684
		c-1.501,2.9-9.789,4.926-21.862,4.926c-12.075,0-20.637-2.557-21.862-4.926c-1.225-2.37-1.169-9.457,0-11.684
		C376.889,255.183,386.325,257.71,398.12,257.542z"/>
	<path fill="none" stroke="#000000" d="M421.201,252.036c0.864,1.933,1.5,8.784,0,11.684c-1.501,2.9-9.789,4.926-21.862,4.926
		c-12.075,0-20.637-2.557-21.862-4.926c-1.225-2.37-1.169-9.457,0-11.684C382.281,242.882,417.328,243.388,421.201,252.036z"/>
	<ellipse stroke="#000000" cx="388.719" cy="250.325" rx="0.777" ry="0.229"/>
	<ellipse stroke="#000000" cx="388.615" cy="253.533" rx="0.777" ry="0.229"/>
	<ellipse stroke="#000000" cx="394.261" cy="251.929" rx="0.777" ry="0.229"/>
	<ellipse stroke="#000000" cx="394.261" cy="248.503" rx="0.777" ry="0.229"/>
	<ellipse stroke="#000000" cx="398.924" cy="250.096" rx="0.777" ry="0.229"/>
	<ellipse stroke="#000000" cx="400.685" cy="253.533" rx="0.777" ry="0.229"/>
	<ellipse stroke="#000000" cx="404.933" cy="251.471" rx="0.777" ry="0.229"/>
	<ellipse stroke="#000000" cx="404.933" cy="248.611" rx="0.777" ry="0.229"/>
	<ellipse stroke="#000000" cx="409.492" cy="250.325" rx="0.777" ry="0.229"/>
	<ellipse stroke="#000000" cx="410.943" cy="253.533" rx="0.777" ry="0.229"/>
	<ellipse stroke="#000000" cx="414.88" cy="251.7" rx="0.777" ry="0.229"/>
	<ellipse stroke="#000000" cx="382.398" cy="251.471" rx="0.777" ry="0.229"/>
	<path fill="#FFFFFF" d="M398.625,302.811l1.124,4.999c0,0,11.907,1.403,12.356-8.369c0.297-6.452-12.412-6.684-12.412-6.684
		l-0.674,4.83c0,0,6.684-0.281,6.571,2.752c-0.112,3.033-6.755,2.312-6.755,2.312"/>
	<path d="M412.551,299.196c0.06,0.62,0.018,1.278-0.126,1.967c-0.342,1.552-1.177,3.05-2.351,4.247
		c-1.168,1.19-2.666,2.086-4.337,2.432c-2.642,0.312-3.676,0.278-5.548,0.257c-0.469,5.3-0.236,8.675-0.084,10.286
		c0.14,1.49,0.312,2.853,0.455,3.844c0.144,0.992,0.249,1.604,0.249,1.612l0.072,0.431l-0.447,0.004c0,0-5.477,0.076-7.958,0.084
		l-0.312,0.004l-0.067-0.294c-0.042-0.212-0.08-0.481-0.114-0.807c-0.253-2.759-0.089-9.948,0.144-16.442
		c0.228-6.501,0.519-12.312,0.519-12.32l0.013-0.224l0.211-0.102c2.178-0.979,4.506-1.654,6.89-1.865
		c1.194-0.105,2.401-0.097,3.603,0.047c1.211,0.152,2.418,0.43,3.62,0.86c1.448,0.524,2.772,1.284,3.764,2.283
		C411.741,296.5,412.412,297.732,412.551,299.196z M411.67,301.015c0.135-0.625,0.164-1.207,0.117-1.751c0-0.004,0-0.004,0-0.008
		c-0.24-2.519-2.337-4.337-5.071-5.329c-1.144-0.418-2.295-0.684-3.442-0.823c-1.156-0.14-2.304-0.152-3.443-0.047
		c-1.105,0.097-2.202,0.299-3.274,0.59c-1.071,0.287-2.13,0.667-3.156,1.118c-0.025,0.565-0.101,2.148-0.198,4.308
		c-0.097,2.156-0.211,4.894-0.312,7.772c-0.114,3.24-0.211,6.662-0.245,9.603c-0.042,2.94-0.017,5.409,0.105,6.742
		c0.017,0.161,0.034,0.301,0.047,0.422c1.067-0.004,2.54-0.024,3.911-0.037c1.367-0.017,2.625-0.03,3.274-0.038
		c-0.072-0.422-0.177-1.127-0.295-2.009s-0.245-1.937-0.35-3.075c-0.093-0.979-0.173-2.018-0.207-3.042
		c-0.042-1.029-0.046-2.042,0-2.983l0.414-5.021l4.325-0.093l0.996-0.093C408.163,306.917,411.02,304.052,411.67,301.015z"/>
	<path d="M405.792,300.107c0.097,1.025-0.502,1.793-1.296,2.211c-0.801,0.438-1.818,0.637-2.802,0.722
		c-0.957,0.088-1.881,0.059-2.505,0.009l-0.375-0.03l0.021-0.367c0.084-1.422-0.008-4.658-0.013-4.667l-0.008-0.379h0.388
		c0.899-0.017,2.287-0.169,3.569-0.021c0.634,0.067,1.266,0.218,1.794,0.531c0.531,0.308,0.945,0.772,1.131,1.452
		c0.05,0.178,0.08,0.346,0.092,0.515C405.787,300.086,405.792,300.099,405.792,300.107z M404.834,301.044
		c0.151-0.24,0.22-0.531,0.189-0.894c-0.012-0.123-0.038-0.253-0.075-0.389c-0.123-0.464-0.393-0.784-0.785-1.008
		c-0.383-0.223-0.89-0.354-1.481-0.426c-1.012-0.114-2.164-0.025-3.079,0.008c0.013,0.406,0.025,1.089,0.034,1.836
		c0.008,0.742,0.004,1.54-0.017,2.16c0.557,0.025,1.278,0.029,2.009-0.034c0.915-0.076,1.855-0.278,2.489-0.629
		C404.438,301.482,404.678,301.289,404.834,301.044z"/>
</g>
</svg>
