<?xml version="1.0" encoding="utf-8"?>
<!-- Generator: Adobe Illustrator 13.0.0, SVG Export Plug-In . SVG Version: 6.00 Build 14948)  -->
<!DOCTYPE svg PUBLIC "-//W3C//DTD SVG 1.1//EN" "http://www.w3.org/Graphics/SVG/1.1/DTD/svg11.dtd">
<svg version="1.1" id="Layer_1" xmlns="http://www.w3.org/2000/svg" xmlns:xlink="http://www.w3.org/1999/xlink" x="0px" y="0px"
	 width="800px" height="600px" viewBox="0 0 800 600" enable-background="new 0 0 800 600" xml:space="preserve">
<g>
	<path fill="#FFFFFF" d="M417.235,265.561c0.001,0,4.979,14.251,7.694,32.256c3.477,23.046,5.391,47.853,2.762,52.57
		c-2.63,4.718-12.438,9.436-29.416,9.436c-16.977,0-26.517-4.718-29.146-9.436c-2.629-4.718-0.715-29.524,2.761-52.57
		c2.716-18.005,7.693-32.256,7.694-32.256h17.557H417.235z"/>
	<path fill="#E6E6E6" d="M383.47,267.82c-6.403,19.882-13.101,73.629-6.066,78.856c11.794,8.762,32.014,11.12,50.288,3.712
		c-2.63,4.718-12.438,9.436-29.416,9.436c-16.977,0-26.517-4.718-29.146-9.436c-2.629-4.718-0.715-29.524,2.761-52.57
		c2.716-18.005,7.693-32.256,7.694-32.256C379.584,265.561,385.602,261.199,383.47,267.82z"/>
	<path fill="none" stroke="#000000" d="M417.235,265.561c0.001,0,4.979,14.251,7.694,32.256c3.477,23.046,5.391,47.853,2.762,52.57
		c-2.63,4.718-12.438,9.436-29.416,9.436c-16.977,0-26.517-4.718-29.146-9.436c-2.629-4.718-0.715-29.524,2.761-52.57
		c2.716-18.005,7.693-32.256,7.694-32.256h17.557H417.235z"/>
	<path fill="#B3B3B3" stroke="#000000" d="M419.818,266.14c0,6.228-9.372,8.072-21.259,8.072c-11.887,0-21.387-1.857-21.787-8.072
		c-0.202-3.132,9.636-6.285,21.523-6.285S419.818,263.426,419.818,266.14z"/>
	<path fill="#4D4D4D" d="M407.172,299.946c0,0-0.604-6.143-1.032-6.61c-0.429-0.467-16.923-2.148-18.289,6.049
		c-1.46,8.762,9.812,7.961,9.548,14.266c-0.263,6.305-9.885,2.247-9.885,2.247s0.337,5.504,0.674,7.414
		c7.414,2.695,20.894,1.347,21.006-8.201s-12.011-8.711-11.233-12.692C398.859,297.812,407.172,299.946,407.172,299.946z"/>
	<path d="M409.554,313.889c0.004,4.27-2.094,7.126-4.946,8.822c-1.43,0.852-3.042,1.435-4.695,1.807
		c-1.654,0.361-3.342,0.519-4.932,0.519c-1.62,0-3.118-0.161-4.367-0.431c-1.245-0.274-2.232-0.654-2.835-1.131l-0.131-0.105
		l-0.012-0.08l-0.013-0.076c-0.122-0.785-0.282-2.493-0.459-4.105c-0.084-0.776-0.173-1.544-0.262-2.151
		c-0.067-0.528-0.148-0.954-0.198-1.114l-0.017-0.017c-0.004-0.004-0.008-0.009-0.012-0.018l-0.009-0.004
		c-0.055-0.066-0.076-0.14-0.084-0.231l-0.009-0.021v-0.017v-0.009c0.017-0.169,0.076-0.278,0.224-0.358v-0.004
		c0.076-0.047,0.177-0.052,0.203-0.052c0.046,0,0.084,0.01,0.118,0.018c0,0.004,0.004,0.004,0.008,0.004h0.173v0.102
		c0.013,0.013,0.03,0.025,0.042,0.034l0.004,0.008c0.055,0.038,0.165,0.102,0.296,0.178c0.274,0.147,0.666,0.35,1.134,0.543
		c0.469,0.199,1.021,0.389,1.604,0.537c0.586,0.144,1.198,0.236,1.81,0.236c0.308,0,0.616-0.025,0.912-0.076
		c2.165-0.384,3.953-1.671,3.953-3.236c0-0.013,0-0.021,0-0.029c0-0.005,0-0.013,0-0.021v-0.012c0.013-1.33-1.236-3.245-4.974-5.359
		c-0.84-0.473-1.57-1-2.194-1.569c-0.624-0.565-1.143-1.173-1.557-1.806c-0.414-0.629-0.73-1.288-0.937-1.946
		c-0.207-0.666-0.312-1.332-0.312-1.999c0-0.856,0.173-1.7,0.523-2.498c0.625-1.287,1.502-2.312,2.54-3.118
		c1.03-0.81,2.224-1.405,3.473-1.844c1.257-0.438,2.574-0.717,3.873-0.89c1.295-0.165,2.57-0.224,3.73-0.228
		c0.759,0,1.477,0.025,2.122,0.063c0.646,0.042,1.22,0.093,1.7,0.143c0.423,0.051,0.769,0.098,1.029,0.13
		c0.249,0.039,0.414,0.064,0.482,0.077c0.004,0,0.004,0,0.008,0h0.009l0.025,0.004l0.295,0.055l0.024,0.156l0.021,0.148
		c0.312,2.379,0.447,4.818,0.692,7.193l0.084,0.751l-0.354-0.169l-0.334-0.164c-0.844-0.431-1.945-0.629-3.072-0.629
		c-0.708,0-1.425,0.081-2.104,0.224c-0.671,0.144-1.304,0.35-1.835,0.608c-1.063,0.515-1.671,1.202-1.671,1.818
		c0,0.004,0,0.009,0,0.013v0.009v0.008c-0.008,0.516,0.384,1.228,1.582,2.029c0.354,0.25,1.123,0.536,2.076,0.916
		c0.954,0.376,2.089,0.848,3.178,1.485c1.093,0.633,2.155,1.438,2.962,2.485c0.802,1.051,1.35,2.337,1.404,3.928
		c0.004,0.151,0.014,0.305,0.014,0.456V313.889z M408.714,313.876c0-0.14-0.004-0.283-0.009-0.431
		c-0.037-1.393-0.515-2.519-1.232-3.452c-0.717-0.928-1.692-1.661-2.722-2.261c-1.033-0.604-2.113-1.051-3.059-1.435
		c-0.945-0.38-1.755-0.691-2.24-1c-0.654-0.438-1.135-0.882-1.456-1.337c-0.325-0.452-0.494-0.921-0.498-1.393
		c0.004-0.569,0.249-1.089,0.633-1.515c0.384-0.426,0.911-0.786,1.51-1.076c0.607-0.287,1.295-0.523,2.034-0.68
		c0.729-0.151,1.507-0.24,2.273-0.24c0.963,0.005,1.92,0.135,2.772,0.439c-0.198-2.072-0.325-4.152-0.582-6.161
		c-0.32-0.05-0.89-0.13-1.637-0.203c-0.883-0.084-2.021-0.155-3.287-0.155c-0.008,0-0.021,0-0.025,0c-0.009,0-0.021,0-0.029,0
		c-4.561,0-10.62,1.008-12.801,5.591c-0.295,0.674-0.443,1.4-0.443,2.147c0,0.57,0.088,1.155,0.27,1.743
		c0.186,0.59,0.46,1.177,0.84,1.746c0.372,0.569,0.844,1.123,1.422,1.646c0.574,0.519,1.253,1.013,2.042,1.456
		c0.962,0.548,1.776,1.084,2.455,1.615c0.688,0.528,1.237,1.047,1.671,1.554c0.435,0.51,0.747,1.012,0.954,1.502
		c0.207,0.489,0.312,0.974,0.316,1.434c-0.004,0.558-0.152,1.072-0.405,1.532c-0.253,0.46-0.616,0.864-1.046,1.207
		c-0.857,0.688-2.004,1.151-3.194,1.366c-0.35,0.056-0.705,0.089-1.055,0.089c-0.671,0-1.329-0.102-1.949-0.249
		c-0.616-0.151-1.189-0.346-1.692-0.548c-0.333-0.136-0.625-0.271-0.877-0.397c0,0.009,0.004,0.021,0.004,0.03
		c0.097,0.603,0.19,1.409,0.287,2.258c0.088,0.826,0.177,1.695,0.262,2.468c0.076,0.713,0.147,1.337,0.202,1.751
		c0.945,0.67,3.519,1.282,6.443,1.282c0.021,0,0.038,0,0.059,0c0.017,0,0.034,0,0.055,0c0.008,0,0.017,0,0.034,0
		c1.527,0,3.156-0.155,4.734-0.506c1.583-0.354,3.11-0.903,4.434-1.701c1.329-0.797,2.46-1.835,3.258-3.164
		c0.396-0.662,0.717-1.396,0.932-2.224C408.591,315.783,408.71,314.876,408.714,313.876z"/>
	<path fill="#E6E6E6" d="M420.198,252.036c0.865,1.933,1.501,8.784,0,11.684s-9.788,4.926-21.862,4.926
		c-12.074,0-20.637-2.557-21.862-4.926c-1.225-2.37-1.169-9.457,0-11.684C381.279,242.882,416.326,243.388,420.198,252.036z"/>
	<path fill="#CCCCCC" d="M397.118,257.542c11.794-0.168,23.589-1.854,23.081-5.506c0.865,1.933,1.501,8.784,0,11.684
		s-9.788,4.926-21.862,4.926c-12.074,0-20.637-2.557-21.862-4.926c-1.225-2.37-1.169-9.457,0-11.684
		C375.887,255.183,385.323,257.71,397.118,257.542z"/>
	<path fill="none" stroke="#000000" d="M420.198,252.036c0.865,1.933,1.501,8.784,0,11.684s-9.788,4.926-21.862,4.926
		c-12.074,0-20.637-2.557-21.862-4.926c-1.225-2.37-1.169-9.457,0-11.684C381.279,242.882,416.326,243.388,420.198,252.036z"/>
	<ellipse stroke="#000000" cx="387.717" cy="250.325" rx="0.777" ry="0.229"/>
	<ellipse stroke="#000000" cx="387.613" cy="253.533" rx="0.777" ry="0.229"/>
	<ellipse stroke="#000000" cx="393.259" cy="251.929" rx="0.777" ry="0.229"/>
	<ellipse stroke="#000000" cx="393.259" cy="248.503" rx="0.777" ry="0.229"/>
	<ellipse stroke="#000000" cx="397.922" cy="250.096" rx="0.777" ry="0.229"/>
	<ellipse stroke="#000000" cx="399.683" cy="253.533" rx="0.777" ry="0.229"/>
	<ellipse stroke="#000000" cx="403.931" cy="251.471" rx="0.777" ry="0.229"/>
	<ellipse stroke="#000000" cx="403.931" cy="248.611" rx="0.777" ry="0.229"/>
	<ellipse stroke="#000000" cx="408.49" cy="250.325" rx="0.777" ry="0.229"/>
	<ellipse stroke="#000000" cx="409.941" cy="253.533" rx="0.777" ry="0.229"/>
	<ellipse stroke="#000000" cx="413.878" cy="251.7" rx="0.777" ry="0.229"/>
	<ellipse stroke="#000000" cx="381.396" cy="251.471" rx="0.777" ry="0.229"/>
</g>
</svg>
