<?xml version="1.0" encoding="utf-8"?>
<!-- Generator: Adobe Illustrator 13.0.0, SVG Export Plug-In . SVG Version: 6.00 Build 14948)  -->
<!DOCTYPE svg PUBLIC "-//W3C//DTD SVG 1.1//EN" "http://www.w3.org/Graphics/SVG/1.1/DTD/svg11.dtd">
<svg version="1.1" id="Layer_1" xmlns="http://www.w3.org/2000/svg" xmlns:xlink="http://www.w3.org/1999/xlink" x="0px" y="0px"
	 width="800px" height="600px" viewBox="0 0 800 600" enable-background="new 0 0 800 600" xml:space="preserve">
<path fill="#61C0E2" d="M400.496,354.178c18.884,0.208,32.84-2.725,34.481-5.66c1.221-2.182-2.6-4.538-1.642-6.285
	c3.489-4.82,12.313-24.501,12.313-38.979c0-19.978-7.479-37.29-22.596-45.777c-6.341-3.559-13.586-2.771-21.189-2.771h-2.325
	c-7.603,0-14.849-0.787-21.188,2.771c-15.116,8.487-22.597,25.8-22.597,45.777c0,14.478,8.825,34.158,12.315,38.979
	c0.957,1.747-2.864,4.104-1.643,6.285c1.643,2.936,15.599,5.868,34.479,5.66H400.496z"/>
<path fill="#2A90A8" d="M400.496,354.178c18.884,0.208,32.84-2.725,34.481-5.66c1.221-2.182-2.6-4.538-1.642-6.285
	c-7.258,2.242-13.721,4.458-31.263,4.458c-18.836,0-27.883-3.509-27.883-3.509s-9.048-20.681-8.495-42.84
	c0.555-22.158,8.863-31.021,8.863-31.021c13.111,5.909,51.335,4.801,57.428-5.539c4.744-8.05-59.27-2.638-61.647-0.342
	c-9.75,9.415-14.585,23.753-14.585,39.814c0,14.478,8.825,34.158,12.315,38.979c0.957,1.747-2.864,4.104-1.643,6.285
	c1.643,2.936,15.599,5.868,34.479,5.66H400.496z"/>
<path fill="none" stroke="#000000" d="M434.978,348.518c1.221-2.182-2.6-4.538-1.642-6.285c3.489-4.82,12.313-24.501,12.313-38.979
	c0-19.978-7.479-37.29-22.596-45.777c-6.341-3.559-13.586-2.771-21.189-2.771h-2.325c-7.603,0-14.849-0.787-21.188,2.771
	c-15.116,8.487-22.597,25.8-22.597,45.777c0,14.478,8.825,34.158,12.315,38.979c0.957,1.747-2.864,4.104-1.643,6.285
	c1.643,2.936,13.636,5.66,34.479,5.66S433.336,351.453,434.978,348.518z"/>
<path fill="#E6E6E6" d="M368.205,261.613c0-7.141,14.274-12.93,31.881-12.93s31.288,5.805,31.881,12.93
	c0.299,3.592-14,8.278-31.606,8.278C382.753,269.892,368.205,264.727,368.205,261.613z"/>
<path fill="#B3B3B3" d="M368.205,261.613c0-2.023,3.191-5.645,3.191-5.645l22.921,9.474c0,0-0.185,4.247,6.043,4.449
	C382.753,269.892,368.205,264.727,368.205,261.613z"/>
<path fill="none" stroke="#000000" d="M368.205,261.613c0-7.141,14.274-12.93,31.881-12.93s31.288,5.805,31.881,12.93
	c0.299,3.592-14,8.278-31.606,8.278C382.753,269.892,368.205,264.727,368.205,261.613z"/>
<path fill="#F2F2F2" d="M370.806,258.398c1.641-8.21,12.911-13.136,29.007-13.136s26.817,4.926,29.281,13.136
	c1.183,3.94-12.637,7.115-28.733,7.115S370.107,261.887,370.806,258.398z"/>
<path fill="#CCCCCC" d="M370.806,258.398c0.952-4.763,6.339-10.129,15.018-11.422c-7.94,2.955-10.156,6.053-10.156,9.787
	c0,3.693,12.741,7.756,32.313,8.679C390.255,266.365,370.107,261.887,370.806,258.398z"/>
<path fill="none" stroke="#000000" d="M370.806,258.398c1.641-8.21,12.911-13.136,29.007-13.136s26.817,4.926,29.281,13.136
	c1.183,3.94-12.637,7.115-28.733,7.115S370.107,261.887,370.806,258.398z"/>
<ellipse stroke="#000000" cx="400.086" cy="248.684" rx="1.026" ry="0.273"/>
<ellipse stroke="#000000" cx="390.235" cy="249.607" rx="1.026" ry="0.273"/>
<ellipse stroke="#000000" cx="395.674" cy="252.275" rx="1.025" ry="0.274"/>
<ellipse stroke="#000000" cx="405.526" cy="252.788" rx="1.027" ry="0.273"/>
<ellipse stroke="#000000" cx="409.323" cy="249.607" rx="1.026" ry="0.273"/>
<ellipse stroke="#000000" cx="382.948" cy="251.352" rx="1.026" ry="0.273"/>
<ellipse stroke="#000000" cx="388.08" cy="254.533" rx="1.026" ry="0.274"/>
<ellipse stroke="#000000" cx="399.984" cy="256.072" rx="1.025" ry="0.273"/>
<ellipse stroke="#000000" cx="411.58" cy="255.046" rx="1.026" ry="0.273"/>
<ellipse stroke="#000000" cx="416.096" cy="251.659" rx="1.025" ry="0.273"/>
<path fill="#FFFFFF" d="M431.652,304.794c0,12.804-4.127,27.187-4.127,27.187s-9.023,3.143-25.583,3.143
	c-16.561,0-26.286-3.143-26.286-3.143s-4.128-11.715-4.128-27.188c0-13.159,4.128-23.782,4.128-23.782s8.411,1.685,24.532,1.685
	c16.123,0,27.337-1.685,27.337-1.685S431.652,291.991,431.652,304.794z"/>
<path fill="#E6E6E6" d="M381.761,333.211c-4.185-0.617-6.104-1.23-6.104-1.23s-4.128-11.715-4.128-27.188
	c0-13.159,4.128-23.782,4.128-23.782s3.396,0.375,5.735,0.867C374.743,297.757,377.329,321.023,381.761,333.211z"/>
<path fill="none" stroke="#000000" d="M431.652,304.794c0,12.804-4.127,27.187-4.127,27.187s-9.023,3.143-25.583,3.143
	c-16.561,0-26.286-3.143-26.286-3.143s-4.128-11.715-4.128-27.188c0-13.159,4.128-23.782,4.128-23.782s8.411,1.685,24.532,1.685
	c16.123,0,27.337-1.685,27.337-1.685S431.652,291.991,431.652,304.794z"/>
</svg>
