<?xml version="1.0" encoding="utf-8"?>
<!-- Generator: Adobe Illustrator 13.0.0, SVG Export Plug-In . SVG Version: 6.00 Build 14948)  -->
<!DOCTYPE svg PUBLIC "-//W3C//DTD SVG 1.1//EN" "http://www.w3.org/Graphics/SVG/1.1/DTD/svg11.dtd">
<svg version="1.1" id="Layer_1" xmlns="http://www.w3.org/2000/svg" xmlns:xlink="http://www.w3.org/1999/xlink" x="0px" y="0px"
	 width="800px" height="600px" viewBox="0 0 800 600" enable-background="new 0 0 800 600" xml:space="preserve">
<path fill="#A67C52" d="M400.132,274.322c-23.7,0-33.308,5.609-33.308,5.609l-0.001,4.818c0,0-7.652,13.009-7.652,14.924
	c0,1.914-0.461,31.687,0.398,33.087c0.858,1.4,14.655,7.382,39.831,7.382s40.326-5.981,41.186-7.382s0.398-31.173,0.398-33.087
	c0-1.915-7.652-14.924-7.652-14.924v-4.818c0,0-9.607-5.609-33.309-5.609H400.132z"/>
<path fill="#7C5838" d="M400.132,274.322c-23.7,0-33.308,5.609-33.308,5.609l-0.001,4.818c0,0-7.652,13.009-7.652,14.924
	c0,1.914-0.461,31.687,0.398,33.087c0.858,1.4,14.655,7.382,39.831,7.382c29.493,0.096,40.571-7.783,40.571-7.783
	s0.984-1.231,0.739-3.693c-28.313,10.095-64.259,6.894-73.39,1.478c0-4.925,0-27.843,0-27.843s5.929-10.812,7.898-14.505
	c37.916,8.863,58.112-3.046,58.112-3.046v-4.818c0,0-9.607-5.609-33.309-5.609H400.132z"/>
<path fill="none" stroke="#000000" d="M400.132,274.322c-23.7,0-33.308,5.609-33.308,5.609l-0.001,4.818
	c0,0-7.652,13.009-7.652,14.924c0,1.914-0.461,31.687,0.398,33.087c0.858,1.4,14.655,7.382,39.831,7.382s40.326-5.981,41.186-7.382
	s0.398-31.173,0.398-33.087c0-1.915-7.652-14.924-7.652-14.924v-4.818c0,0-9.607-5.609-33.309-5.609H400.132z"/>
<path fill="#B3B3B3" d="M435.831,265.146c0,0,0,11.041,0,12.889c0,3-15.916,5.433-35.551,5.433c-19.634,0-35.551-2.433-35.551-5.433
	c0-1.575,0-12.889,0-12.889H435.831z"/>
<path fill="#808080" d="M377.188,265.146c0,0-0.274,10.988,0.247,12.556c1.231,3.692,10.588,4.432,22.845,5.766
	c-19.634,0-35.551-2.433-35.551-5.433c0-1.575,0-12.889,0-12.889H377.188z"/>
<path fill="none" stroke="#000000" d="M435.831,265.146c0,0,0,11.041,0,12.889c0,3-15.916,5.433-35.551,5.433
	c-19.634,0-35.551-2.433-35.551-5.433c0-1.575,0-12.889,0-12.889H435.831z"/>
<ellipse fill="#CCCCCC" cx="400.28" cy="265.146" rx="35.551" ry="5.433"/>
<path fill="#999999" d="M364.729,265.146c0-3.001,15.917-5.433,35.551-5.433c-13.243,1-24.568,2.184-24.568,5.185
	c0,3,11.818,4.678,24.568,5.682C380.646,270.58,364.729,268.146,364.729,265.146z"/>
<ellipse stroke="#000000" cx="383.011" cy="263.125" rx="1.265" ry="0.253"/>
<ellipse stroke="#000000" cx="382.841" cy="266.662" rx="1.263" ry="0.252"/>
<ellipse stroke="#000000" cx="392.024" cy="264.893" rx="1.264" ry="0.25"/>
<ellipse stroke="#000000" cx="399.607" cy="262.872" rx="1.263" ry="0.253"/>
<ellipse stroke="#000000" cx="402.471" cy="266.662" rx="1.263" ry="0.252"/>
<ellipse stroke="#000000" cx="409.378" cy="264.389" rx="1.263" ry="0.252"/>
<ellipse stroke="#000000" cx="416.792" cy="263.125" rx="1.263" ry="0.253"/>
<ellipse stroke="#000000" cx="419.15" cy="266.662" rx="1.264" ry="0.252"/>
<ellipse stroke="#000000" cx="425.554" cy="264.643" rx="1.264" ry="0.254"/>
<ellipse stroke="#000000" cx="372.733" cy="264.389" rx="1.264" ry="0.252"/>
<path fill="#FFFFFF" d="M432.341,323.3c0,0-11.062,4.135-31.27,4.135c-20.21,0-33.75-4.135-33.75-4.135v-20.999
	c0,0,10.542,2.694,30.753,2.694c20.208,0,34.267-2.694,34.267-2.694V323.3z"/>
<polygon fill="#E6E6E6" points="375.051,325.082 367.321,323.3 367.321,302.301 374.787,303.605 "/>
<path fill="none" stroke="#000000" d="M432.341,323.3c0,0-11.062,4.135-31.27,4.135c-20.21,0-33.75-4.135-33.75-4.135v-20.999
	c0,0,10.542,2.694,30.753,2.694c20.208,0,34.267-2.694,34.267-2.694V323.3z"/>
<path fill="none" stroke="#000000" d="M376.521,288.293c0,0,5.562,2.635,23.712,2.635c18.15,0,23.42-2.635,23.42-2.635"/>
<ellipse fill="none" stroke="#000000" cx="400.28" cy="265.146" rx="35.551" ry="5.433"/>
</svg>
