<?xml version="1.0" encoding="utf-8"?>
<!-- Generator: Adobe Illustrator 13.0.0, SVG Export Plug-In . SVG Version: 6.00 Build 14948)  -->
<!DOCTYPE svg PUBLIC "-//W3C//DTD SVG 1.1//EN" "http://www.w3.org/Graphics/SVG/1.1/DTD/svg11.dtd">
<svg version="1.1" id="Layer_1" xmlns="http://www.w3.org/2000/svg" xmlns:xlink="http://www.w3.org/1999/xlink" x="0px" y="0px"
	 width="800px" height="600px" viewBox="0 0 800 600" enable-background="new 0 0 800 600" xml:space="preserve">
<path fill="#B6D554" d="M452.179,356.252c0,0.409-0.33,0.74-0.737,0.74H347.296c-0.407,0-0.738-0.331-0.738-0.74v-10.34
	c0-0.409,21.012-15.88,21.419-15.88l61.675,0.369c0.409,0,22.527,15.102,22.527,15.511V356.252z"/>
<path fill="#7D9B3D" d="M451.934,351.822H346.558v-5.91c0-0.409,21.012-15.88,21.419-15.88l61.675,0.369
	c0.409,0,22.527,15.102,22.527,15.511L451.934,351.822z"/>
<path fill="none" stroke="#000000" d="M452.179,356.252c0,0.409-0.33,0.74-0.737,0.74H347.296c-0.407,0-0.738-0.331-0.738-0.74
	v-10.34c0-0.409,21.012-15.88,21.419-15.88l61.675,0.369c0.409,0,22.527,15.102,22.527,15.511V356.252z"/>
<path fill="#7D9B3D" d="M446.97,347.989c0,0.323-0.263,0.586-0.589,0.586h-95.426c-0.325,0-0.59-0.263-0.59-0.586v-89.774
	c0-0.324,0.265-0.586,0.59-0.586h95.426c0.326,0,0.589,0.262,0.589,0.586V347.989z"/>
<path fill="#5C7226" d="M446.97,277.723c0,0.071-0.263,0.13-0.589,0.13h-95.426c-0.325,0-0.59-0.059-0.59-0.13v-19.964
	c0-0.071,0.265-0.13,0.59-0.13h95.426c0.326,0,0.589,0.059,0.589,0.13V277.723z"/>
<path fill="#5C7226" d="M446.97,348.54c0,0.02-0.263,0.035-0.589,0.035h-95.426c-0.325,0-0.59-0.016-0.59-0.035v-5.381
	c0-0.02,0.265-0.035,0.59-0.035h95.426c0.326,0,0.589,0.016,0.589,0.035V348.54z"/>
<path fill="none" stroke="#000000" d="M446.97,347.989c0,0.323-0.263,0.586-0.589,0.586h-95.426c-0.325,0-0.59-0.263-0.59-0.586
	v-89.774c0-0.324,0.265-0.586,0.59-0.586h95.426c0.326,0,0.589,0.262,0.589,0.586V347.989z"/>
<path fill="#B6D554" d="M452.179,268.357c0,0.408-0.33,0.738-0.737,0.738H347.296c-0.407,0-0.738-0.33-0.738-0.738v-10.34
	c0-0.408,21.012-15.881,21.419-15.881l61.675,0.369c0.409,0,22.527,15.104,22.527,15.512V268.357z"/>
<path fill="#7D9B3D" d="M452.179,261.34v7.018c0,0.408-0.33,0.738-0.737,0.738H347.296c-0.407,0-0.738-0.33-0.738-0.738v-7.201
	L452.179,261.34z"/>
<path fill="none" stroke="#000000" d="M452.179,268.357c0,0.408-0.33,0.738-0.737,0.738H347.296c-0.407,0-0.738-0.33-0.738-0.738
	v-10.34c0-0.408,21.012-15.881,21.419-15.881l61.675,0.369c0.409,0,22.527,15.104,22.527,15.512V268.357z"/>
<path fill="#7D9B3D" d="M446.727,257.922c-0.244,0.465-95.775,0.342-96.02,0s16.54-12.808,17.956-13.271
	c1.413-0.464,59.523-0.123,60.108,0C429.357,244.773,446.971,257.458,446.727,257.922z"/>
<path fill="#5C7226" d="M433.108,247.593l-68.892-0.008c0,0,4.027-2.798,4.446-2.934c1.413-0.464,59.523-0.123,60.108,0
	C428.952,244.688,433.108,247.593,433.108,247.593z"/>
<path fill="none" stroke="#000000" d="M446.727,257.922c-0.244,0.465-95.775,0.342-96.02,0s16.54-12.808,17.956-13.271
	c1.413-0.464,59.523-0.123,60.108,0C429.357,244.773,446.971,257.458,446.727,257.922z"/>
<ellipse stroke="#000000" cx="399.498" cy="247.793" rx="1.026" ry="0.273"/>
<ellipse stroke="#000000" cx="399.498" cy="253.646" rx="1.026" ry="0.272"/>
<ellipse stroke="#000000" cx="405.646" cy="250.427" rx="1.026" ry="0.273"/>
<ellipse stroke="#000000" cx="410.476" cy="247.573" rx="1.026" ry="0.274"/>
<ellipse stroke="#000000" cx="411.5" cy="253.428" rx="1.026" ry="0.274"/>
<ellipse stroke="#000000" cx="417.577" cy="249.934" rx="1.026" ry="0.273"/>
<ellipse stroke="#000000" cx="420.942" cy="247.28" rx="1.026" ry="0.273"/>
<ellipse stroke="#000000" cx="424.479" cy="253.551" rx="1.026" ry="0.275"/>
<ellipse stroke="#000000" cx="428.553" cy="249.916" rx="1.026" ry="0.275"/>
<ellipse stroke="#000000" cx="392.692" cy="250.573" rx="1.026" ry="0.272"/>
<ellipse stroke="#000000" cx="385.374" cy="247.865" rx="1.026" ry="0.272"/>
<ellipse stroke="#000000" cx="385.374" cy="253.721" rx="1.026" ry="0.274"/>
<ellipse stroke="#000000" cx="379.738" cy="250.427" rx="1.026" ry="0.273"/>
<ellipse stroke="#000000" cx="373.664" cy="247.573" rx="1.026" ry="0.274"/>
<ellipse stroke="#000000" cx="373.491" cy="254.019" rx="1.026" ry="0.273"/>
<ellipse stroke="#000000" cx="368.102" cy="251.379" rx="1.026" ry="0.273"/>
<path fill="#FFFFFF" d="M441.652,321.722c0,0.245-0.465,0.443-1.037,0.443h-83.014c-0.574,0-1.038-0.198-1.038-0.443v-33.614
	c0-0.244,0.464-0.443,1.038-0.443h83.014c0.572,0,1.037,0.199,1.037,0.443V321.722z"/>
<rect x="356.563" y="287.723" fill="#E6E6E6" width="85.091" height="7.063"/>
<path fill="none" stroke="#000000" d="M441.652,321.722c0,0.245-0.465,0.443-1.037,0.443h-83.014c-0.574,0-1.038-0.198-1.038-0.443
	v-33.614c0-0.244,0.464-0.443,1.038-0.443h83.014c0.572,0,1.037,0.199,1.037,0.443V321.722z"/>
</svg>
