<?xml version="1.0" encoding="utf-8"?>
<!-- Generator: Adobe Illustrator 13.0.0, SVG Export Plug-In . SVG Version: 6.00 Build 14948)  -->
<!DOCTYPE svg PUBLIC "-//W3C//DTD SVG 1.1//EN" "http://www.w3.org/Graphics/SVG/1.1/DTD/svg11.dtd">
<svg version="1.1" id="Layer_1" xmlns="http://www.w3.org/2000/svg" xmlns:xlink="http://www.w3.org/1999/xlink" x="0px" y="0px"
	 width="800px" height="600px" viewBox="0 0 800 600" enable-background="new 0 0 800 600" xml:space="preserve">
<path fill="#C1473A" d="M428.191,337.606c0,0,3.833,4.926,3.833,6.841s-3.833,7.936-3.833,7.936s-8.208,5.609-28.458,5.609
	c-20.251,0-28.461-5.609-28.461-5.609s-3.831-5.473-3.831-7.389s3.831-7.115,3.831-7.115v-60.75c0,0-3.831-5.197-3.831-7.114
	s3.831-7.39,3.831-7.39h56.919c0,0,3.833,6.021,3.833,7.936c0,1.916-3.833,6.842-3.833,6.842V337.606z"/>
<path fill="none" stroke="#000000" d="M428.191,337.606c0,0,3.833,4.926,3.833,6.841s-3.833,7.936-3.833,7.936
	s-8.208,5.609-28.458,5.609c-20.251,0-28.461-5.609-28.461-5.609s-3.831-5.473-3.831-7.389s3.831-7.115,3.831-7.115v-60.75
	c0,0-3.831-5.197-3.831-7.114s3.831-7.39,3.831-7.39h56.919c0,0,3.833,6.021,3.833,7.936c0,1.916-3.833,6.842-3.833,6.842V337.606z"
	/>
<path fill="#822F29" d="M432.024,344.447c0,1.915-3.833,7.936-3.833,7.936s-8.208,5.609-28.458,5.609
	c-20.251,0-28.461-5.609-28.461-5.609s-3.831-5.473-3.831-7.389s3.831-7.115,3.831-7.115v-60.75c0,0-3.831-5.197-3.831-7.114
	s3.831-7.39,3.831-7.39l7.738,0.855c0,0-6.647,3.502-6.647,6.646c0,1.293,1.478,4.062,3.508,6.279
	c-0.058,13.514-0.578,47.036-0.71,62.409c-1.32,2.22-2.429,5.357-2.061,7.204C383.811,355.252,418.711,353.037,432.024,344.447z"/>
<path fill="#CCCCCC" d="M428.604,247.984c0,0,0,11.956,0,13.955c0,3.25-12.926,5.885-28.87,5.885s-28.87-2.635-28.87-5.885
	c-0.001-1.704,0-13.955,0-13.955H428.604z"/>
<path fill="#999999" d="M380.488,247.984c0,0-1.607,11.519,0,14.388c2.584,4.616,26.035,4.801,35.115,4.483
	c-4.554,0.612-10.008,0.969-15.87,0.969c-15.944,0-28.87-2.635-28.87-5.885c-0.001-1.704,0-13.955,0-13.955H380.488z"/>
<path fill="none" stroke="#000000" d="M428.604,247.984c0,0,0,11.956,0,13.955c0,3.25-12.926,5.885-28.87,5.885
	s-28.87-2.635-28.87-5.885c-0.001-1.704,0-13.955,0-13.955H428.604z"/>
<ellipse fill="#E6E6E6" cx="399.733" cy="247.984" rx="28.87" ry="5.884"/>
<path fill="#B3B3B3" d="M370.863,247.984c0-2.475,10.178-5.494,21.627-5.248c-7.14,0.493-15.08,2.17-15.512,5.294
	c-0.431,3.124,12.188,5.417,22.755,5.837C383.789,253.867,370.863,251.233,370.863,247.984z"/>
<ellipse fill="none" stroke="#000000" cx="399.733" cy="247.984" rx="28.87" ry="5.884"/>
<path fill="#FFFFFF" d="M419.983,338.428c0,0-7.389,3.829-19.977,3.829c-12.589,0-20.524-3.829-20.524-3.829v-62.12
	c0,0,6.567,2.052,19.154,2.052c12.59,0,21.347-2.053,21.347-2.053V338.428z"/>
<polygon fill="#E6E6E6" points="386.027,340.295 379.482,338.428 379.482,276.308 385.889,278.055 "/>
<path fill="none" stroke="#000000" d="M419.983,338.428c0,0-7.389,3.829-19.977,3.829c-12.589,0-20.524-3.829-20.524-3.829v-62.12
	c0,0,6.567,2.052,19.154,2.052c12.59,0,21.347-2.053,21.347-2.053V338.428z"/>
<ellipse stroke="#000000" cx="385.708" cy="245.795" rx="1.026" ry="0.273"/>
<ellipse stroke="#000000" cx="385.572" cy="249.626" rx="1.026" ry="0.274"/>
<ellipse stroke="#000000" cx="393.029" cy="247.71" rx="1.026" ry="0.272"/>
<ellipse stroke="#000000" cx="399.186" cy="245.521" rx="1.026" ry="0.273"/>
<ellipse stroke="#000000" cx="401.512" cy="249.626" rx="1.026" ry="0.273"/>
<ellipse stroke="#000000" cx="407.121" cy="247.164" rx="1.026" ry="0.275"/>
<ellipse stroke="#000000" cx="413.142" cy="245.795" rx="1.026" ry="0.273"/>
<ellipse stroke="#000000" cx="415.058" cy="249.626" rx="1.026" ry="0.273"/>
<ellipse stroke="#000000" cx="420.257" cy="247.438" rx="1.026" ry="0.273"/>
<ellipse stroke="#000000" cx="377.361" cy="247.163" rx="1.026" ry="0.274"/>
</svg>
