<?xml version="1.0" encoding="utf-8"?>
<!-- Generator: Adobe Illustrator 13.0.0, SVG Export Plug-In . SVG Version: 6.00 Build 14948)  -->
<!DOCTYPE svg PUBLIC "-//W3C//DTD SVG 1.1//EN" "http://www.w3.org/Graphics/SVG/1.1/DTD/svg11.dtd">
<svg version="1.1" id="Layer_1" xmlns="http://www.w3.org/2000/svg" xmlns:xlink="http://www.w3.org/1999/xlink" x="0px" y="0px"
	 width="800px" height="600px" viewBox="0 0 800 600" enable-background="new 0 0 800 600" xml:space="preserve">
<path fill="#009245" d="M428.91,341.711c0,0,1.643,2.053,1.643,3.968s-1.643,6.704-1.643,6.704s-8.208,5.609-28.461,5.609
	c-20.249,0-28.46-5.609-28.46-5.609s-1.641-4.241-1.641-6.158s1.641-4.239,1.641-4.239v-52.542c0,0-6.294-5.197-6.294-7.115
	c0-1.916-0.641-19.703-0.639-19.703h70.787c0,0-0.16,18.335-0.16,20.25s-6.773,6.842-6.773,6.842V341.711z"/>
<path fill="#007233" d="M380.49,291.916c0,0-1.01,52.043-1.01,55.212c9.602,6.278,42.84,4.617,51.072-1.449
	c0,1.915-1.643,6.704-1.643,6.704s-8.208,5.609-28.461,5.609c-20.249,0-28.46-5.609-28.46-5.609s-1.641-4.241-1.641-6.158
	s1.641-4.239,1.641-4.239v-52.542c0,0-6.294-5.197-6.294-7.115c0-1.916-0.641-19.703-0.639-19.703l8.145,6.395
	c0,0-0.368,12.557,0.555,15.141C374.679,286.746,380.49,291.916,380.49,291.916z"/>
<path fill="none" stroke="#000000" d="M428.91,341.711c0,0,1.643,2.053,1.643,3.968s-1.643,6.704-1.643,6.704
	s-8.208,5.609-28.461,5.609c-20.249,0-28.46-5.609-28.46-5.609s-1.641-4.241-1.641-6.158s1.641-4.239,1.641-4.239v-52.542
	c0,0-6.294-5.197-6.294-7.115c0-1.916-0.641-19.703-0.639-19.703h70.787c0,0-0.16,18.335-0.16,20.25s-6.773,6.842-6.773,6.842
	V341.711z"/>
<path fill="#CCCCCC" d="M436.366,249.365c0,0,0,13.928,0,16.258c0,3.784-16.172,6.854-36.121,6.854
	c-19.951,0-36.124-3.069-36.124-6.854c0-1.986,0-16.258,0-16.258H436.366z"/>
<path fill="#999999" d="M379.296,254.985c0,0-0.74,9.233,0.738,12.188c1.477,2.954,7.939,4.062,20.211,5.304
	c-19.951,0-36.124-3.069-36.124-6.854c0-1.986,0-16.258,0-16.258L379.296,254.985z"/>
<path fill="none" stroke="#000000" d="M436.366,249.365c0,0,0,13.928,0,16.258c0,3.784-16.172,6.854-36.121,6.854
	c-19.951,0-36.124-3.069-36.124-6.854c0-1.986,0-16.258,0-16.258H436.366z"/>
<ellipse fill="#E6E6E6" cx="400.244" cy="249.365" rx="36.123" ry="6.854"/>
<path fill="#B3B3B3" d="M364.121,249.365c0-2.82,8.98-5.243,21.812-6.295c-5.529,1.021-13.977,3.406-14.209,6.191
	c-0.183,2.215,11.08,5.908,28.521,6.957C380.294,256.219,364.121,253.149,364.121,249.365z"/>
<path fill="#FFFFFF" d="M420.702,341.532c0,0-7.391,3.067-19.979,3.067s-20.523-3.067-20.523-3.067v-49.748
	c0,0,6.566,1.644,19.155,1.644c12.588,0,21.347-1.644,21.347-1.644V341.532z"/>
<path fill="#E6E6E6" d="M420.702,298.749c-21.279,3.508-33.836,0.554-33.836,0.554l-0.011,43.992c0,0-6.655-1.764-6.655-1.763
	v-49.748c0,0,6.566,1.644,19.155,1.644c12.588,0,21.347-1.644,21.347-1.644S420.702,296.532,420.702,298.749z"/>
<path fill="none" stroke="#000000" d="M420.702,341.532c0,0-7.391,3.067-19.979,3.067s-20.523-3.067-20.523-3.067v-49.748
	c0,0,6.566,1.644,19.155,1.644c12.588,0,21.347-1.644,21.347-1.644V341.532z"/>
<ellipse stroke="#000000" cx="382.697" cy="246.814" rx="1.284" ry="0.318"/>
<ellipse stroke="#000000" cx="382.524" cy="251.277" rx="1.284" ry="0.318"/>
<ellipse stroke="#000000" cx="391.856" cy="249.046" rx="1.284" ry="0.319"/>
<ellipse stroke="#000000" cx="399.561" cy="246.496" rx="1.284" ry="0.319"/>
<ellipse stroke="#000000" cx="402.471" cy="251.277" rx="1.283" ry="0.318"/>
<ellipse stroke="#000000" cx="409.489" cy="248.408" rx="1.284" ry="0.318"/>
<ellipse stroke="#000000" cx="417.023" cy="246.814" rx="1.285" ry="0.318"/>
<ellipse stroke="#000000" cx="419.419" cy="251.277" rx="1.284" ry="0.318"/>
<ellipse stroke="#000000" cx="425.924" cy="248.727" rx="1.284" ry="0.318"/>
<ellipse stroke="#000000" cx="372.254" cy="248.408" rx="1.284" ry="0.318"/>
<path fill="#009245" stroke="#000000" d="M375.724,290.531c0,0,6.928,2.927,24.297,3.122c15.516,0.175,24.151-2.78,24.151-2.78"/>
<ellipse fill="none" stroke="#000000" cx="400.244" cy="249.365" rx="36.123" ry="6.854"/>
</svg>
