<?xml version="1.0" encoding="utf-8"?>
<!-- Generator: Adobe Illustrator 13.0.0, SVG Export Plug-In . SVG Version: 6.00 Build 14948)  -->
<!DOCTYPE svg PUBLIC "-//W3C//DTD SVG 1.1//EN" "http://www.w3.org/Graphics/SVG/1.1/DTD/svg11.dtd">
<svg version="1.1" id="Layer_1" xmlns="http://www.w3.org/2000/svg" xmlns:xlink="http://www.w3.org/1999/xlink" x="0px" y="0px"
	 width="800px" height="600px" viewBox="0 0 800 600" enable-background="new 0 0 800 600" xml:space="preserve">
<g>
	<path fill="#FFFFFF" d="M401.052,280.98c0-3.061-0.275-7.252-0.506-8.712c-0.378-2.398-4.418-0.883-5.682,0.885
		c-0.866,1.212-1.767,3.552-1.767,5.808c0,4.34,0,6.818,0.852,11.554l0.853,4.45c0,0-2.178-0.473-3.314-0.189
		c-1.694,0.424-4.925,3.088-4.957,4.388c-0.076,3.129-0.334,9.706,0.378,11.49c1.01,2.526,7.229,8.555,7.229,8.555l0.777,2.557
		c2.156,5.698,6.518,8.007,12.567,8.333c5.256,0.285,13.226-3.488,14.989-8.815c0.852-2.571-0.094-6.887-2.036-9.791l-0.349-0.806
		c-0.284-5.114,1.052-8.402,1.356-10.367c0.205-1.324-1.772-5.258-3.299-5.303c-0.593-0.019-0.826,0.07-1.433,0.167
		c0,0-0.027-1.264-0.221-1.861c-0.584-1.802-3.812-3.849-4.748-3.995c-1.349-0.209-1.943,0.178-1.943,0.178l0.007-0.358
		c-0.019-1.274-3.87-2.542-5.555-2.802c-0.955-0.148-2.11,0.631-2.11,0.631S401.052,284.043,401.052,280.98z"/>
	<path fill="#CCCCCC" d="M421.192,299.479c0,1.704-1.274,3.43-2.022,5.556c-0.818,2.335-1.312,4.121-2.019,3.725
		c-0.722-0.404-0.661-0.065-0.884,0.126c-0.199,0.172,0.941,0.727,1.199,1.705c0.316,1.2-0.151,2.146-0.568,2.146
		c-0.251,0-0.945-0.632-4.419-1.832c-3.473-1.198-7.007-0.251-9.028,0.442c-5.571,1.749-10.165,6.377-8.523,10.417
		c0.189,1.326-1.137-5.304-0.852-6.439c-2.999-1.705-5.209-4.545-5.777-5.808c-0.881-1.958-1.389-5.682-1.642-8.713
		c0.411,1.611-0.757,8.335,0.064,10.039c0.819,1.704,7.259,8.08,7.259,8.08s2.155,11.947,13.921,11.27
		c11.522-0.662,14.53-8.304,14.772-10.512c0.349-3.156-2.428-8.618-2.557-9.153C419.929,306.108,421.634,299.858,421.192,299.479z"
		/>
	<path fill="#CCCCCC" d="M392.719,301.31c-0.379-0.189-1.516-3.408-0.995-4.498c0.311-0.651,2.557-1.847,2.793-1.705
		C394.897,297.948,393.098,301.5,392.719,301.31z"/>
	<path fill="none" stroke="#000000" stroke-width="0.75" d="M416.488,308.507c4.322,0.656,7.301,8.798,5.983,12.775
		c-1.763,5.327-9.732,9.101-14.989,8.815c-6.049-0.326-10.411-2.635-12.566-8.333c-1.826-4.827-0.966-9.943,5.378-12.689"/>
	<path fill="none" stroke="#000000" stroke-width="0.75" d="M420.087,310.686c-0.284-5.114,1.052-8.402,1.356-10.367
		c0.205-1.324-1.772-5.258-3.299-5.303c-0.593-0.019-0.826,0.071-1.433,0.167c0,0-0.027-1.264-0.221-1.861
		c-0.584-1.802-3.812-3.849-4.748-3.995c-1.349-0.209-1.943,0.178-1.943,0.178l0.007-0.358c-0.019-1.274-3.87-2.542-5.555-2.802
		c-0.955-0.148-2.11,0.631-2.11,0.631"/>
	<path fill="none" stroke="#000000" stroke-width="0.75" d="M403.23,291.083c0,0-2.179-6.819-2.179-10.103
		c0-3.03-0.275-7.252-0.506-8.712c-0.378-2.398-4.418-0.883-5.682,0.885c-0.866,1.212-1.767,3.552-1.767,5.808
		c0,4.34,0,6.818,0.852,11.554c0.852,4.735,1.036,5.949,0.474,7.859c-0.474,1.61-1.704,3.22-1.704,3.22"/>
	<path fill="none" stroke="#000000" stroke-width="0.75" d="M394.14,319.208c0,0-6.22-6.028-7.23-8.554
		c-0.713-1.785-0.454-8.362-0.377-11.491c0.031-1.299,3.262-3.963,4.956-4.387c1.136-0.284,3.314,0.189,3.314,0.189"/>
</g>
</svg>
