<?xml version="1.0" encoding="utf-8"?>
<!-- Generator: Adobe Illustrator 13.0.0, SVG Export Plug-In . SVG Version: 6.00 Build 14948)  -->
<!DOCTYPE svg PUBLIC "-//W3C//DTD SVG 1.1//EN" "http://www.w3.org/Graphics/SVG/1.1/DTD/svg11.dtd">
<svg version="1.1" id="Layer_1" xmlns="http://www.w3.org/2000/svg" xmlns:xlink="http://www.w3.org/1999/xlink" x="0px" y="0px"
	 width="800px" height="600px" viewBox="0 0 800 600" enable-background="new 0 0 800 600" xml:space="preserve">
<g>
	<path fill="#FFFFFF" d="M395.122,321.982c2.155,5.699,6.519,8.006,12.567,8.334c8.342,0.189,14.344-6.174,14.988-8.816
		c0.646-2.642-0.302-5.578-0.302-5.578c1.414-2.684,1.065-7.547,0.767-10.615c-0.429-4.396,3.211-10.503,3.4-11.829
		s-2.558-4.924-4.072-4.735c-1.515,0.19-4.355,1.799-4.355,1.799s0.572-3.073-0.046-4.425c-0.617-1.352-4.552-2.649-5.899-2.427
		c-1.347,0.223-1.82,0.697-1.82,0.697l-0.284-0.852c-1.516-1.895-4.483-3.22-6.63-2.272c-0.98,0.432-4.04,2.777-4.04,2.777
		l-3.661-1.578c-1.958-0.758-5.02,1.388-5.967,3.093c-0.565,1.019,0.096,2.116,1.264,3.283c1.136,1.136,1.356,1.768,2.998,1.705
		c1.514,1.768,3.725,7.955,2.715,9.975c-1.011,2.02-4.044,4.618-5.051,4.546c-2.652-0.189-3.662-6.818-7.197-6.566
		c-1.037,0.074-2.62,0.594-2.651,1.895c-0.076,3.127,2.316,8.948,3.029,10.732c1.011,2.526,9.472,8.303,9.472,8.303L395.122,321.982
		z"/>
	<path fill="#CCCCCC" d="M422.944,303.422c0,0-0.884,8.523-2.083,8.807c-2.336-3.504-3.789-3.504-4.23-3.124
		c-0.199,0.17,0.942,0.727,1.2,1.704c0.315,1.199-0.152,2.146-0.568,2.146c-0.252,0-0.946-0.632-4.42-1.831
		c-3.473-1.2-7.008-0.252-9.028,0.442c-5.57,1.749-10.164,6.376-8.523,10.416c0.189,1.327-1.136-5.303-0.852-6.438
		c-2.936-1.011-5.713-3.094-7.197-4.451c-1.482-1.357-4.23-5.619-4.955-8.113c0.41,1.611,1.957,6.882,2.777,8.587
		c0.82,1.703,9.281,7.576,9.281,7.576s2.146,11.805,13.92,11.269c11.774-0.537,14.553-9.438,14.773-10.512
		c0.222-1.073-0.348-3.914-0.474-4.45C423.765,311.628,422.944,303.422,422.944,303.422z"/>
	<path fill="none" stroke="#000000" stroke-width="0.75" d="M416.694,308.725c4.322,0.656,7.302,8.798,5.983,12.775
		c-1.764,5.326-9.733,9.101-14.988,8.816c-6.049-0.328-10.412-2.635-12.567-8.335c-1.826-4.827-0.967-9.942,5.379-12.688"/>
	<path fill="none" stroke="#000000" stroke-width="0.75" d="M422.376,315.922c1.414-2.684,1.065-7.547,0.767-10.615
		c-0.429-4.396,3.211-10.503,3.4-11.829s-2.558-4.924-4.072-4.735c-1.515,0.19-3.078,0.71-4.355,1.799"/>
	<path fill="none" stroke="#000000" stroke-width="0.75" d="M394.346,319.426c0,0-8.461-5.775-9.471-8.302
		c-0.713-1.784-3.106-7.604-3.03-10.732c0.031-1.301,1.614-1.821,2.651-1.895c3.535-0.252,4.545,6.377,7.197,6.565
		c1.007,0.072,4.04-2.525,5.051-4.546c1.01-2.02-1.074-8.017-2.588-9.785c-1.906,0.165-4.167-2.557-4.357-4.357
		c-0.172-1.641,1.705-3.598,3.315-4.071c1.871-0.55,5.207,0.316,6.724,2.462s3.598,6.534,3.598,6.534"/>
	<path fill="none" stroke="#000000" stroke-width="0.75" d="M399.554,284.103c0,0,2.272-2.651,4.546-3.125
		c2.097-0.437,4.451,0.663,5.966,2.558c1.019,1.271,0.758,8.143,0.758,8.143"/>
	<path fill="none" stroke="#000000" stroke-width="0.75" d="M402.584,286.091c-0.189,1.231,0.048,3.504,0.048,3.504"/>
	<path fill="none" stroke="#000000" stroke-width="0.75" d="M419.306,292.098c-0.661,1.055-2.051,2.002-2.051,2.002"/>
	<path fill="none" stroke="#000000" stroke-width="0.75" d="M393.517,289.595c0,0,1.728,2.746,2.249,4.024"/>
	<path fill="none" stroke="#000000" stroke-width="0.75" d="M417.041,294.967c0,0,2.023-6.878,1.029-8.851
		c-0.854-1.691-4.553-2.649-5.899-2.426c-1.348,0.223-1.82,0.697-1.82,0.697"/>
</g>
</svg>
