<?xml version="1.0" encoding="utf-8"?>
<!-- Generator: Adobe Illustrator 13.0.0, SVG Export Plug-In . SVG Version: 6.00 Build 14948)  -->
<!DOCTYPE svg PUBLIC "-//W3C//DTD SVG 1.1//EN" "http://www.w3.org/Graphics/SVG/1.1/DTD/svg11.dtd">
<svg version="1.1" id="Layer_1" xmlns="http://www.w3.org/2000/svg" xmlns:xlink="http://www.w3.org/1999/xlink" x="0px" y="0px"
	 width="800px" height="600px" viewBox="0 0 800 600" enable-background="new 0 0 800 600" xml:space="preserve">
<g>
	<path fill="#FFFFFF" d="M390.951,295.751c0,0-3.572,1.929-3.929,2.5c-0.357,0.571-0.643,10.644-0.071,12.357
		c0.571,1.715,7.287,8.572,7.287,8.572s1.286,6.787,6.573,9.287c5.285,2.5,11.215,1.643,14.215,0.143s7.715-5.071,7.929-8.286
		c0.214-3.214-1.25-7.715-3.036-9.644c0.071-5.215,0.596-6.971,0.894-8.001c0.298-1.028-1.354-5.271-2.216-5.893
		c-0.861-0.621-1.964-0.536-1.964-0.536s0.186-0.352,0.071-1.5c-0.114-1.148-2.062-4.339-3.465-4.894
		c-1.4-0.554-1.929-0.571-1.929-0.571s0.091-0.729-0.643-1.537c-0.734-0.807-3.264-2.595-4.038-2.744
		c-0.775-0.149-2.201,0.1-2.201,0.1s-0.003-0.91-0.315-1.373c-0.312-0.463-4.763-2.778-6.197-2.449
		c-2.322,0.607-4.75,4.894-4.75,4.894s2.679,4.107,2.679,4.393c0.928,6.75-0.464,12.966-0.464,12.966L390.951,295.751z"/>
	<path fill="#CCCCCC" d="M420.454,304.61c0.619-2.2,0.221-4.097,0-4.287c0,1.704-0.229,2.401-0.978,4.528
		c-0.818,2.335-1.312,4.122-2.019,3.725c-0.722-0.404-0.661-0.064-0.884,0.126c-0.199,0.172,0.941,0.727,1.198,1.705
		c0.317,1.199-0.15,2.146-0.568,2.146c-0.251,0-0.945-0.631-4.419-1.831c-3.472-1.198-7.007-0.251-9.027,0.442
		c-5.571,1.75-10.165,6.377-8.523,10.417c0.189,1.326-1.497-4.185-0.852-6.439c-2.999-1.705-5.209-4.546-5.777-5.808
		c-0.88-1.958-1.687-5.48-1.94-8.51c0.41,1.609-0.458,8.131,0.363,9.836c0.819,1.705,7.209,8.522,7.209,8.522
		s2.204,11.505,13.971,10.827c11.521-0.664,14.529-8.304,14.772-10.512c0.348-3.156-2.828-8.209-2.956-8.744
		C419.931,308.543,420.268,306.617,420.454,304.61z"/>
	<path fill="#CCCCCC" d="M395.273,303.288c0.234,0.427-0.112,1.069-0.214,1.019c-0.378-0.19-3.19-3.406-3.08-4.608
		c0.053-0.59,0.021-1.874,0.259-1.732C393.264,299.886,394.523,301.922,395.273,303.288z"/>
	<path fill="none" stroke="#000000" stroke-width="0.75" d="M416.651,308.537c4.322,0.656,7.301,8.799,5.983,12.775
		c-1.764,5.327-9.732,9.101-14.988,8.815c-6.049-0.327-10.411-2.635-12.566-8.333c-1.827-4.826-0.967-9.943,5.378-12.689"/>
	<path fill="none" stroke="#000000" stroke-width="0.75" d="M420.025,310.753c-0.283-5.113,0.786-6.644,0.715-8.571
		c-0.072-1.929-1.531-5.374-3-5.787c-0.571-0.162-0.786-0.071-1.168,0.208c0,0,0.28-1.232,0.237-1.859
		c-0.13-1.889-2.764-4.658-3.636-5.026c-1.259-0.531-1.93-0.299-1.93-0.299l0.094-0.346c0.291-1.24-3.14-3.404-4.709-4.066
		c-0.89-0.375-2.201,0.1-2.201,0.1"/>
	<path fill="none" stroke="#000000" stroke-width="0.75" d="M393.166,286.18c1.214-2.5,2.9-4.421,4.555-4.854
		c1.654-0.433,5.977,1.715,6.393,2.409c0.415,0.692-0.053,3.153-0.053,3.153"/>
	<path fill="none" stroke="#000000" stroke-width="0.75" d="M394.303,319.238c0,0-6.22-6.027-7.23-8.555
		c-0.714-1.784-0.454-8.361-0.377-11.49c0.03-1.299,2.898-2.978,4.184-3.621"/>
	<path fill="none" stroke="#000000" stroke-width="0.75" d="M395.702,290.108c1.393,7.287-0.464,14.358-0.464,14.358"/>
</g>
</svg>
