<?xml version="1.0" encoding="utf-8"?>
<!-- Generator: Adobe Illustrator 13.0.0, SVG Export Plug-In . SVG Version: 6.00 Build 14948)  -->
<!DOCTYPE svg PUBLIC "-//W3C//DTD SVG 1.1//EN" "http://www.w3.org/Graphics/SVG/1.1/DTD/svg11.dtd">
<svg version="1.1" id="Layer_1" xmlns="http://www.w3.org/2000/svg" xmlns:xlink="http://www.w3.org/1999/xlink" x="0px" y="0px"
	 width="800px" height="600px" viewBox="0 0 800 600" enable-background="new 0 0 800 600" xml:space="preserve">
<g>
	<path fill="#666666" stroke="#000000" d="M464.244,338.696c0.691,1.1,0.567,2.42-0.276,2.949l-6.861,4.312
		c-0.844,0.53-2.087,0.068-2.777-1.031l-34.073-54.231c-0.69-1.098-0.568-2.419,0.274-2.95l6.862-4.31
		c0.846-0.53,2.087-0.068,2.778,1.031L464.244,338.696z"/>
	<path fill="#4D4D4D" d="M456.016,343.801c0.691,1.1,1.149,2.056,1.022,2.134l-1.024,0.645c-0.127,0.08-0.789-0.748-1.479-1.848
		l-34.074-54.23c-0.69-1.099-1.149-2.055-1.023-2.135l1.026-0.644c0.127-0.078,0.787,0.748,1.478,1.848L456.016,343.801z"/>
	<path fill="#666666" stroke="#000000" d="M459.657,222.745c18.923,30.118,9.848,69.876-20.271,88.798
		c-30.118,18.925-69.875,9.849-88.798-20.269c-18.923-30.119-9.85-69.875,20.27-88.799
		C400.977,183.551,440.733,192.625,459.657,222.745z"/>
	<path fill="#4D4D4D" stroke="#000000" stroke-width="0.75" d="M456.777,224.554c17.924,28.529,9.329,66.189-19.2,84.112
		c-28.528,17.926-66.186,9.328-84.109-19.201c-17.927-28.529-9.331-66.187,19.199-84.111
		C401.195,187.429,438.853,196.025,456.777,224.554z"/>
	<path fill="#666666" stroke="#000000" stroke-width="0.75" d="M442.704,233.396c13.042,20.757,6.785,48.155-13.969,61.196
		c-20.756,13.042-48.155,6.787-61.196-13.969c-13.041-20.756-6.787-48.156,13.969-61.197S429.663,212.639,442.704,233.396z"/>
	<path fill="#4D4D4D" d="M408.745,213.104c-24.457,4.043-38.525,22.117-38.22,40.94c0.356,21.803,18.418,44.564,36.748,46.974
		c-15.371,0.737-30.683-6.614-39.453-20.571c-12.942-20.601-6.737-47.796,13.864-60.74
		C390.08,214.432,399.571,212.339,408.745,213.104z"/>
	<path fill="#4D4D4D" stroke="#000000" d="M497.31,386.354c0.692,1.101,0.261,2.614-0.962,3.383l-9.962,6.26
		c-1.223,0.769-2.588,0.799-3.468-0.6c-0.879-1.399-38.775-61.714-38.775-61.714c-0.689-1.101-0.259-2.615,0.965-3.385l9.961-6.258
		c1.224-0.771,2.776-0.502,3.467,0.599L497.31,386.354z"/>
	<path fill="#333333" d="M486.391,395.601c-1.144,0.719-2.342,0.978-3.214-0.409c-0.872-1.388-38.779-61.629-38.779-61.629
		c-0.683-1.091-0.126-2.438,1.082-3.075L486.391,395.601z"/>
	<path fill="#999999" stroke="#000000" d="M483.344,392.511c-0.556-0.885-0.289-2.051,0.594-2.605l7.678-4.823
		c0.883-0.556,1.87-0.57,2.602,0.595c0.733,1.166,0.292,2.049-0.594,2.604l-7.676,4.825
		C485.065,393.66,483.898,393.393,483.344,392.511L483.344,392.511z"/>
</g>
</svg>
