<?xml version="1.0" encoding="utf-8"?>
<!-- Generator: Adobe Illustrator 13.0.0, SVG Export Plug-In . SVG Version: 6.00 Build 14948)  -->
<!DOCTYPE svg PUBLIC "-//W3C//DTD SVG 1.1//EN" "http://www.w3.org/Graphics/SVG/1.1/DTD/svg11.dtd">
<svg version="1.1" id="Layer_1" xmlns="http://www.w3.org/2000/svg" xmlns:xlink="http://www.w3.org/1999/xlink" x="0px" y="0px"
	 width="800px" height="600px" viewBox="0 0 800 600" enable-background="new 0 0 800 600" xml:space="preserve">
<polygon fill="#FFFFFF" stroke="#FFFFFF" stroke-width="6" points="365.411,164.586 365.099,64.1 436.593,64.099 436.576,163.56 
	486.09,164.099 486.09,535.584 313.6,535.584 314.6,164.099 "/>
<polygon opacity="0.4" fill="#56A9DC" stroke="#006CC1" stroke-width="6" points="365.411,164.586 365.099,64.1 436.593,64.099 
	436.576,163.56 486.09,164.099 486.09,535.584 313.6,535.584 314.6,164.099 "/>
<polygon opacity="0.7" fill="none" stroke="#006CC1" stroke-width="6" points="365.411,164.586 365.099,64.1 436.593,64.099 
	436.576,163.56 486.09,164.099 486.09,535.584 313.6,535.584 314.6,164.099 "/>
<circle fill="#FFFFFF" stroke="#B3B3B3" stroke-width="4" cx="399.346" cy="108.849" r="14.25"/>
<g>
	<path fill="#56A9DC" stroke="#006CC1" stroke-width="4" d="M420.025,478.789l-17.344,23.942c0,0-70.216-78.078-72.942-91.466
		c-2.725-13.387,4.861-30.354,4.861-30.354s84.07,75.034,90.049,81.675l43.89,42.897c1.816,1.921,1.516,5.158-0.676,7.235
		l-3.567,3.378c-2.189,2.074-5.442,2.199-7.261,0.279L420.025,478.789z"/>
	<path fill="#56A9DC" stroke="#006CC1" stroke-width="4" d="M433.344,434.512c-3.893,0.773-7.596-2.584-7.596-2.584
		c-14.977,14.898-43.403,52.177-43.955,52.8l-29.422,34.305c-0.663,0.745-6.041,3.039-6.9,2.269l-5.831-5.251
		c-0.856-0.775,0.713-6.541,1.377-7.289l30.021-33.737c0.539-0.604,33.796-34.1,46.725-50.305c0,0-3.147-3.648-2.718-7.889
		c0.646-6.388,4.143-10.356,5.145-11.472l8.752-9.743l19.918-22.172l1.553,9.551c0,0-19.541,23.893-21.739,27.116
		c-2.2,3.225,7.113,11.403,9.973,9.77c2.857-1.631,24.782-24.858,24.782-24.858l9.793-0.227l-28.418,32.71
		C443.768,428.661,439.76,433.242,433.344,434.512z"/>
</g>
</svg>
