<?xml version="1.0" encoding="utf-8"?>
<!-- Generator: Adobe Illustrator 13.0.0, SVG Export Plug-In . SVG Version: 6.00 Build 14948)  -->
<!DOCTYPE svg PUBLIC "-//W3C//DTD SVG 1.1//EN" "http://www.w3.org/Graphics/SVG/1.1/DTD/svg11.dtd">
<svg version="1.1" id="Layer_1" xmlns="http://www.w3.org/2000/svg" xmlns:xlink="http://www.w3.org/1999/xlink" x="0px" y="0px"
	 width="800px" height="600px" viewBox="0 0 800 600" enable-background="new 0 0 800 600" xml:space="preserve">
<path fill="#FFFFFF" stroke="#FFFFFF" stroke-width="6" d="M485.599,534.584h-172.49c0,0,0-359.472,0-379.979
	c0-8.507,1.002-90,83.498-90c82.496,0,88.993,76.993,88.993,90C485.599,182.095,485.599,534.584,485.599,534.584z"/>
<path opacity="0.4" fill="#E7222A" stroke="#AF0000" stroke-width="6" d="M485.599,534.584h-172.49c0,0,0-359.472,0-379.979
	c0-8.507,1.002-90,83.498-90c82.496,0,88.993,76.993,88.993,90C485.599,182.095,485.599,534.584,485.599,534.584z"/>
<path opacity="0.7" fill="none" stroke="#AF0000" stroke-width="6" d="M485.599,534.584h-172.49c0,0,0-359.472,0-379.979
	c0-8.507,1.002-90,83.498-90c82.496,0,88.993,76.993,88.993,90C485.599,182.095,485.599,534.584,485.599,534.584z"/>
<circle fill="#FFFFFF" stroke="#B3B3B3" stroke-width="4" cx="397.356" cy="107.849" r="14.25"/>
<g>
	<circle fill="#E7222A" stroke="#AF0000" stroke-width="6" cx="401.279" cy="447.417" r="75.635"/>
	<g>
		<g>
			<path fill="#AF0000" d="M444.797,495.762c6.972-15.07,8.361-45.685-9.936-63.408c0.843,11.439,3.404,28.488-13.107,30.8
				c6.969-32.12-17.142-32.89-15.108-64.74c-37.51,38.403,4.262,45.421-22.476,66.299c5.035-15.068-6.38-24.431-17.889-33.57
				c4.4,6.374,1.988,17.687,0.276,24.893c-2.479,10.449-10.676,16.675-12.729,27.174c-2.986,15.268,16.602,39.264,45.263,38.924
				C427.754,521.787,437.549,511.427,444.797,495.762z"/>
			<path fill="#FFFFFF" stroke="#A50404" stroke-width="3" d="M424.186,513.646c9.393-8.758,11.934-25.149,7.871-43.108
				c0.613,6.451-10.817,18.013-22.797,19.315c6.855-15.042,3.243-25.153-5.896-39.299c2.121,20.805-13.566,19.521-21.12,38.785
				c-6.855-3.367-10.867-6.925-8.33-19.498c-8.632,9.88-11.687,20.455-10.163,30.106c1.38,8.741,13.482,22.512,34.265,21.932
				C411.489,521.502,416.41,520.89,424.186,513.646z"/>
		</g>
	</g>
</g>
</svg>
