<?xml version="1.0" encoding="utf-8"?>
<!-- Generator: Adobe Illustrator 13.0.0, SVG Export Plug-In . SVG Version: 6.00 Build 14948)  -->
<!DOCTYPE svg PUBLIC "-//W3C//DTD SVG 1.1//EN" "http://www.w3.org/Graphics/SVG/1.1/DTD/svg11.dtd">
<svg version="1.1" id="Layer_1" xmlns="http://www.w3.org/2000/svg" xmlns:xlink="http://www.w3.org/1999/xlink" x="0px" y="0px"
	 width="800px" height="600px" viewBox="0 0 800 600" enable-background="new 0 0 800 600" xml:space="preserve">
<rect x="313.582" y="64.605" fill="#FFFFFF" stroke="#FFFFFF" stroke-width="6" width="172.49" height="469.979"/>
<rect x="313.582" y="64.605" opacity="0.4" fill="#FFEBD7" stroke="#C96E1B" stroke-width="6" width="172.49" height="469.979"/>
<rect x="313.582" y="64.605" opacity="0.7" fill="none" stroke="#C96E1B" stroke-width="6" width="172.49" height="469.979"/>
<circle fill="#FFFFFF" stroke="#B3B3B3" stroke-width="4" cx="398.327" cy="107.849" r="14.25"/>
<g>
	<rect x="327.962" y="374.085" fill="#FFD6A1" stroke="#C96E1B" stroke-width="6" width="146.361" height="146.361"/>
	<path fill="#C96E1B" stroke="#C96E1B" stroke-width="6" d="M450.83,429.19c0,29.379-23.816,53.194-53.197,53.194
		c-29.38,0-53.195-23.815-53.195-53.194C376.032,429.19,425.278,429.19,450.83,429.19z"/>
	<path fill="#FFFFFF" stroke="#C96E1B" stroke-width="6" d="M450.83,429.19c1.766,2.617-15.337,19.28-52.508,19.28
		c-37.166,0-56.372-17.572-53.885-19.28C359.951,418.548,445.345,421.06,450.83,429.19z"/>
</g>
</svg>
