<?xml version="1.0" encoding="utf-8"?>
<!-- Generator: Adobe Illustrator 13.0.0, SVG Export Plug-In . SVG Version: 6.00 Build 14948)  -->
<!DOCTYPE svg PUBLIC "-//W3C//DTD SVG 1.1//EN" "http://www.w3.org/Graphics/SVG/1.1/DTD/svg11.dtd">
<svg version="1.1" id="Layer_1" xmlns="http://www.w3.org/2000/svg" xmlns:xlink="http://www.w3.org/1999/xlink" x="0px" y="0px"
	 width="800px" height="600px" viewBox="0 0 800 600" enable-background="new 0 0 800 600" xml:space="preserve">
<polygon fill="#FFFFFF" stroke="#FFFFFF" stroke-width="6" points="486.081,535.584 313.591,535.584 313.591,165.605 397.08,65.605 
	486.081,165.605 "/>
<polygon opacity="0.4" fill="#6BE778" stroke="#32D148" stroke-width="6" points="486.081,535.584 313.591,535.584 313.591,165.605 
	397.08,65.605 486.081,165.605 "/>
<polygon opacity="0.7" fill="none" stroke="#32D148" stroke-width="6" points="486.081,535.584 313.591,535.584 313.591,165.605 
	397.08,65.605 486.081,165.605 "/>
<circle fill="#FFFFFF" stroke="#B3B3B3" stroke-width="4" cx="396.836" cy="108.849" r="14.25"/>
<g>
	<path fill="#6BE778" stroke="#32D148" stroke-width="6" d="M323.713,511.238c-3.574-8.628,52.932-98.707,52.932-98.707
		l46.442-0.715c0,0,59.732,88.627,53.315,99.422C469.986,522.028,327.289,519.865,323.713,511.238z"/>
	<path fill="#32D148" stroke="#32D148" stroke-width="3" d="M369.625,412.235c0-0.575-0.46-21.599-0.093-22.141
		c2.715-4.011,57.071-4.269,60.448-0.515c0.631,0.7,0.231,21.899,0.231,22.655c0,4.811-13.563,8.713-30.293,8.713
		C383.188,420.948,369.625,417.046,369.625,412.235z"/>
	<ellipse fill="#6BE778" stroke="#32D148" stroke-width="3" cx="399.918" cy="390.325" rx="30.293" ry="8.715"/>
	<path fill="#FFFFFF" stroke="#32D148" stroke-width="3" d="M436.919,488.917c0,0-15.956,3.733-36.77,3.733
		c-20.811,0-36.074-3.733-36.074-3.733V456.8c0,0,15.726,2.987,36.074,2.987c20.35,0,36.77-2.987,36.77-2.987V488.917z"/>
</g>
</svg>
