<?xml version="1.0" encoding="utf-8"?>
<!-- Generator: Adobe Illustrator 13.0.0, SVG Export Plug-In . SVG Version: 6.00 Build 14948)  -->
<!DOCTYPE svg PUBLIC "-//W3C//DTD SVG 1.1//EN" "http://www.w3.org/Graphics/SVG/1.1/DTD/svg11.dtd">
<svg version="1.1" id="Layer_1" xmlns="http://www.w3.org/2000/svg" xmlns:xlink="http://www.w3.org/1999/xlink" x="0px" y="0px"
	 width="800px" height="600px" viewBox="0 0 800 600" enable-background="new 0 0 800 600" xml:space="preserve">
<g>
	<path stroke="#000000" d="M441.347,324.085c14.605-5.778,20.952-16.414,22.087-31.988c0.988-13.535-8.354-34.259-21.997-39.062
		c-10.189-3.586-21.187,1.224-27.347,6.219c-11.742,0.079-17.086-2.347-22.061-2.256c-4.974,0.092-13.921,3.686-15.06,7.453
		c-0.443,1.467-0.22,2.023,0.482,3.02c0,0-3.163-0.779-4.782-0.701c-4.876,0.242-12.139,6.9-13.129,9.131
		c-1.43,3.216-0.864,4.958-0.864,4.958l-0.887-0.26c-3.181-0.808-8.926,7.927-10.707,11.942c-1.011,2.277,0.152,5.678,0.152,5.678
		s-1.749-0.293-3.554,0.746c-1.807,1.036-7.553,12.076-6.519,16.361c1.04,4.287,6.378,8.911,12.763,12.164l5.333-7.918
		c19.25,0.5,38.619,9.687,38.619,9.687l-22.452,17.397c0,0,8.833,3.583,14.583,3.166c5.75-0.416,15.525-3.317,22.091-5.864
		c6.564-2.55,23.524-17.835,23.524-17.835S437.75,325.508,441.347,324.085z"/>
</g>
</svg>
