<?xml version="1.0" encoding="utf-8"?>
<!-- Generator: Adobe Illustrator 13.0.0, SVG Export Plug-In . SVG Version: 6.00 Build 14948)  -->
<!DOCTYPE svg PUBLIC "-//W3C//DTD SVG 1.1//EN" "http://www.w3.org/Graphics/SVG/1.1/DTD/svg11.dtd">
<svg version="1.1" id="Layer_1" xmlns="http://www.w3.org/2000/svg" xmlns:xlink="http://www.w3.org/1999/xlink" x="0px" y="0px"
	 width="800px" height="600px" viewBox="0 0 800 600" enable-background="new 0 0 800 600" xml:space="preserve">
<g>
	<path stroke="#000000" d="M432.58,343.273c12.088-6.04,18.25-25.812,15.691-37.824c-2.946-13.822-10.015-23.026-24.393-25.888
		c-5.212-1.053-7.676-0.643-7.676-0.643s-16.31-15.509-22.426-17.202c-14-3.875-22.75-11.458-28.75-10.458
		c-2.993,0.499-2.755,8.194-2,10.5c1.387,4.237,4.384,6.835,9.25,9.583c3.48,1.965,8.512,3.775,9.25,7.375
		c0.473,2.308-7.875,13.875-13.75,17.75l-7.475-7.76c-5.576,3.313-9.711,7.606-10.396,11.539c-0.682,3.93,5.158,13.562,6.852,14.391
		c1.691,0.832,3.253,0.465,3.253,0.465s-0.849,3.139,0.198,5.136c1.845,3.522,7.547,11.071,10.373,10.154l0.785-0.287
		c0,0-0.407,1.606,1.073,4.427c1.026,1.956,7.978,7.54,12.396,7.472c1.467-0.024,4.277-0.915,4.277-0.915
		c-0.575,0.941-0.744,1.457-0.258,2.755c1.25,3.336,9.543,6.054,14.04,5.844c4.498-0.212,6.882-2.595,15.253-4.887
		C418.148,344.8,423.555,347.784,432.58,343.273z"/>
</g>
</svg>
