<?xml version="1.0" encoding="utf-8"?>
<!-- Generator: Adobe Illustrator 13.0.0, SVG Export Plug-In . SVG Version: 6.00 Build 14948)  -->
<!DOCTYPE svg PUBLIC "-//W3C//DTD SVG 1.1//EN" "http://www.w3.org/Graphics/SVG/1.1/DTD/svg11.dtd">
<svg version="1.1" id="Layer_1" xmlns="http://www.w3.org/2000/svg" xmlns:xlink="http://www.w3.org/1999/xlink" x="0px" y="0px"
	 width="800px" height="600px" viewBox="0 0 800 600" enable-background="new 0 0 800 600" xml:space="preserve">
<g>
	<path fill="#E6E6E6" stroke="#000000" d="M446.191,245.348c-0.297-1.302-5.228,0.795-8.072-1.023
		c-4.589-2.934-10.227-1.58-19.904,0.118c-12.308,2.163-45.264,36.665-65.523,60.038c-1.25,1.442-0.659,8.533-0.659,8.533
		s48.543,8.714,57.978,9.999C415.981,323.826,446.492,246.647,446.191,245.348z"/>
	<path fill="#F2F2F2" d="M446.191,245.348c0,0-13.819-4.774-29.498-2.021c-15.679,2.754-64.002,61.153-64.002,61.153
		s48.546,8.713,57.979,10C416.643,315.292,446.191,245.348,446.191,245.348z"/>
	<polygon fill="#FFFFFF" points="434.577,272.6 387.964,267.397 377.462,277.471 429.516,282.57 	"/>
	<path fill="none" stroke="#000000" d="M446.191,245.348c0,0-12.395-5.204-28.073-2.45c-15.677,2.753-65.427,61.582-65.427,61.582
		s48.546,8.713,57.979,10C416.643,315.292,446.191,245.348,446.191,245.348z"/>
	<path fill="#666666" stroke="#000000" d="M404.165,319.235c-0.165-0.18,0.657-5.199-0.427-5.53
		c-3.566-1.08-12.243,2.194-13.457,3.25c-1.581,1.376-12.12,23.149-14.557,26.311c-1.823,2.365-9.488-1.057-12.872,1.816
		c-1.139,0.969-1.188,5.33-1.174,7.271c0.049,7.713,20.152,6.321,22.482,4.988C386.491,356.008,404.87,320.013,404.165,319.235z"/>
	<path fill="#808080" stroke="#000000" d="M404.487,313.75c-0.706-0.775-12.301-3.657-13.885-2.281
		c-1.581,1.375-12.12,23.147-14.557,26.31c-2.438,3.161-14.097,1.378-14.047,9.089c0.049,7.711,20.153,6.319,22.482,4.987
		C386.812,350.521,405.19,314.525,404.487,313.75z"/>
</g>
</svg>
