<?xml version="1.0" encoding="utf-8"?>
<!-- Generator: Adobe Illustrator 13.0.0, SVG Export Plug-In . SVG Version: 6.00 Build 14948)  -->
<!DOCTYPE svg PUBLIC "-//W3C//DTD SVG 1.1//EN" "http://www.w3.org/Graphics/SVG/1.1/DTD/svg11.dtd">
<svg version="1.1" id="Layer_1" xmlns="http://www.w3.org/2000/svg" xmlns:xlink="http://www.w3.org/1999/xlink" x="0px" y="0px"
	 width="800px" height="600px" viewBox="0 0 800 600" enable-background="new 0 0 800 600" xml:space="preserve">
<g>
	<g>
		<circle fill="#CCCCCC" cx="399.456" cy="300.527" r="39.784"/>
		<circle fill="#FFFFFF" cx="398.285" cy="299.358" r="38.146"/>
		<circle fill="#FFFFFF" stroke="#000000" cx="399.455" cy="300.527" r="29.721"/>
		<circle fill="none" stroke="#000000" cx="399.456" cy="300.527" r="39.784"/>
	</g>
	<line fill="none" stroke="#FF0000" stroke-width="3" x1="399.914" y1="270.935" x2="399.914" y2="279.261"/>
	<line fill="none" stroke="#000000" stroke-width="3" x1="399.914" y1="322.791" x2="399.914" y2="330.382"/>
	<line fill="none" stroke="#000000" stroke-width="2" x1="420.741" y1="288.341" x2="425.083" y2="285.834"/>
	<line fill="none" stroke="#000000" stroke-width="2" x1="373.722" y1="315.487" x2="378.566" y2="312.691"/>
	<line fill="none" stroke="#000000" stroke-width="3" x1="420.584" y1="300.662" x2="429.056" y2="300.662"/>
	<line fill="none" stroke="#000000" stroke-width="3" x1="369.75" y1="300.662" x2="378.221" y2="300.662"/>
	<line fill="none" stroke="#000000" stroke-width="2" x1="411.722" y1="279.322" x2="414.229" y2="274.98"/>
	<line fill="none" stroke="#000000" stroke-width="2" x1="384.576" y1="326.341" x2="387.372" y2="321.499"/>
	<line fill="none" stroke="#000000" stroke-width="2" x1="387.082" y1="279.322" x2="384.576" y2="274.98"/>
	<line fill="none" stroke="#000000" stroke-width="2" x1="414.229" y1="326.341" x2="411.433" y2="321.498"/>
	<line fill="none" stroke="#000000" stroke-width="2" x1="378.063" y1="288.341" x2="373.722" y2="285.834"/>
	<line fill="none" stroke="#000000" stroke-width="2" x1="425.083" y1="315.487" x2="420.24" y2="312.691"/>
</g>
</svg>
